<svg width="50" height="50" viewBox="0 0 50 50" fill="none" xmlns="http://www.w3.org/2000/svg">
<circle cx="25" cy="25" r="25" fill="#B53A57"/>
<g clip-path="url(#clip0_746_80)">
<path d="M26.6203 36.9531H22.7694C22.1262 36.9531 21.603 36.4309 21.603 35.7889V27.12H19.3563C18.7131 27.12 18.1898 26.5976 18.1898 25.9558V22.2412C18.1898 21.5992 18.7131 21.077 19.3563 21.077H21.603V19.2168C21.603 17.3724 22.1833 15.8032 23.2809 14.6791C24.3836 13.5499 25.9245 12.9531 27.7371 12.9531L30.674 12.9579C31.3161 12.959 31.8384 13.4812 31.8384 14.1221V17.571C31.8384 18.213 31.3154 18.7352 30.6723 18.7352L28.695 18.736C28.0919 18.736 27.9384 18.8566 27.9055 18.8936C27.8514 18.955 27.787 19.1284 27.787 19.6072V21.0768H30.5237C30.7298 21.0768 30.9294 21.1275 31.1009 21.2231C31.4709 21.4294 31.701 21.8196 31.701 22.2413L31.6995 25.956C31.6995 26.5976 31.1763 27.1198 30.5331 27.1198H27.787V35.7889C27.787 36.4309 27.2636 36.9531 26.6203 36.9531ZM23.0127 35.5461H26.3771V26.4901C26.3771 26.0615 26.7266 25.7128 27.1559 25.7128H30.2898L30.2911 22.4839H27.1557C26.7264 22.4839 26.3771 22.1353 26.3771 21.7067V19.6072C26.3771 19.0575 26.433 18.4324 26.8488 17.9625C27.3511 17.3945 28.1427 17.329 28.6946 17.329L30.4287 17.3282V14.3645L27.736 14.3601C24.823 14.3601 23.0127 16.2212 23.0127 19.2168V21.7067C23.0127 22.1351 22.6634 22.4839 22.2341 22.4839H19.5996V25.7128H22.2341C22.6634 25.7128 23.0127 26.0615 23.0127 26.4901V35.5461ZM30.6712 14.3649H30.6714H30.6712Z" fill="#FCFCFC"/>
</g>
<defs>
<clipPath id="clip0_746_80">
<rect width="24" height="24" fill="white" transform="translate(13 13)"/>
</clipPath>
</defs>
</svg>
