<svg width="50" height="50" viewBox="0 0 50 50" fill="none" xmlns="http://www.w3.org/2000/svg">
<circle cx="25" cy="25" r="25" fill="#B53A57"/>
<path d="M30.0284 13H19.9716C16.1275 13 13 16.1275 13 19.9716V30.0284C13 33.8725 16.1275 37 19.9716 37H30.0284C33.8725 37 37 33.8725 37 30.0284V19.9716C37 16.1275 33.8725 13 30.0284 13ZM35.125 30.0284C35.125 32.8387 32.8387 35.125 30.0284 35.125H19.9716C17.1613 35.125 14.875 32.8387 14.875 30.0284V19.9716C14.875 17.1613 17.1613 14.875 19.9716 14.875H30.0284C32.8387 14.875 35.125 17.1613 35.125 19.9716V30.0284Z" fill="#FCFCFC"/>
<path d="M25 18.5312C21.4331 18.5312 18.5312 21.4331 18.5312 25C18.5312 28.5669 21.4331 31.4688 25 31.4688C28.5669 31.4688 31.4688 28.5669 31.4688 25C31.4688 21.4331 28.5669 18.5312 25 18.5312ZM25 29.5938C22.467 29.5938 20.4062 27.533 20.4062 25C20.4062 22.467 22.467 20.4062 25 20.4062C27.533 20.4062 29.5938 22.467 29.5938 25C29.5938 27.533 27.533 29.5938 25 29.5938Z" fill="#FCFCFC"/>
<path d="M31.5625 19.375C32.0803 19.375 32.5 18.9553 32.5 18.4375C32.5 17.9197 32.0803 17.5 31.5625 17.5C31.0447 17.5 30.625 17.9197 30.625 18.4375C30.625 18.9553 31.0447 19.375 31.5625 19.375Z" fill="#FCFCFC"/>
</svg>
