<svg width="50" height="50" viewBox="0 0 50 50" fill="none" xmlns="http://www.w3.org/2000/svg">
<circle cx="25" cy="25" r="25" fill="#B53A57"/>
<g clip-path="url(#clip0_746_76)">
<path d="M36.6294 15.384C36.3362 15.0255 35.8971 14.8281 35.3929 14.8281C35.1188 14.8281 34.8283 14.8858 34.5299 14.9999L14.2143 22.7549C13.1362 23.1664 12.991 23.7838 13.0003 24.1152C13.0097 24.4467 13.1897 25.0549 14.2894 25.4048C14.296 25.4069 14.3026 25.4089 14.3092 25.4107L18.5232 26.6166L20.8021 33.1334C21.1128 34.0218 21.8103 34.5737 22.6225 34.5737C23.1347 34.5737 23.6384 34.3591 24.0793 33.9533L26.6858 31.5533L30.4664 34.5975C30.4668 34.5978 30.4673 34.598 30.4677 34.5984L30.5036 34.6273C30.5069 34.6299 30.5104 34.6326 30.5136 34.6352C30.9339 34.9611 31.3926 35.1332 31.8406 35.1334H31.8408C32.7162 35.1334 33.4133 34.4854 33.6164 33.4827L36.945 17.0464C37.0787 16.3867 36.9667 15.7964 36.6294 15.384ZM19.9329 26.3876L28.063 22.2342L23.0006 27.6133C22.9177 27.7014 22.8589 27.8092 22.83 27.9266L21.8539 31.8806L19.9329 26.3876ZM23.1266 32.9188C23.0929 32.9497 23.0591 32.9774 23.0252 33.0028L23.9308 29.3348L25.5782 30.6614L23.1266 32.9188ZM35.5668 16.7672L32.2381 33.2037C32.2061 33.361 32.1037 33.727 31.8406 33.727C31.7106 33.727 31.5473 33.6561 31.3801 33.5274L27.0962 30.0781C27.0956 30.0775 27.0949 30.077 27.0942 30.0766L24.5451 28.024L31.8659 20.2451C32.1003 19.9961 32.1215 19.6147 31.9162 19.3411C31.7108 19.0676 31.3385 18.9815 31.034 19.1371L18.9934 25.2884L14.7221 24.0663L35.0314 16.3137C35.203 16.2481 35.3227 16.2344 35.3929 16.2344C35.4359 16.2344 35.5124 16.2395 35.5408 16.2745C35.5782 16.3201 35.6258 16.4755 35.5668 16.7672Z" fill="#FCFCFC"/>
</g>
<defs>
<clipPath id="clip0_746_76">
<rect width="24" height="24" fill="white" transform="translate(13 13)"/>
</clipPath>
</defs>
</svg>
