<svg width="1240" height="700" viewBox="0 0 1240 700" fill="none" xmlns="http://www.w3.org/2000/svg">
<g opacity="0.2">
<path d="M431.155 364.549H371.193V603.228H431.155V364.549Z" fill="#AFC0DE"/>
<path d="M421.364 347.435H380.995V447.732H421.364V347.435Z" fill="#AFC0DE"/>
<path d="M412.373 336.582H389.981V392.214H412.373V336.582Z" fill="#AFC0DE"/>
<path d="M408.808 365.172H393.545V327.259H399.052H404.507H408.808V365.172Z" fill="#AFC0DE"/>
<path d="M400.171 348.663H398.515V310.745H399.115H399.703H400.171V348.663Z" fill="#AFC0DE"/>
<path d="M403.839 335.553H402.182V297.641H402.776H403.37H403.839V335.553Z" fill="#AFC0DE"/>
<path d="M432.754 363.938H369.593V366.48H432.754V363.938Z" fill="#AFC0DE"/>
<path d="M422.832 346.213H379.521V348.658H422.832V346.213Z" fill="#AFC0DE"/>
<path d="M413.31 335.553H388.347V337.433H413.31V335.553Z" fill="#AFC0DE"/>
<path opacity="0.29" d="M386.582 351.508H384.702V362.019H386.582V351.508Z" fill="#AFC0DE"/>
<path opacity="0.29" d="M391.774 351.508H389.895V362.019H391.774V351.508Z" fill="#AFC0DE"/>
<path opacity="0.29" d="M396.967 351.508H395.087V362.019H396.967V351.508Z" fill="#AFC0DE"/>
<path opacity="0.29" d="M402.159 351.508H400.28V362.019H402.159V351.508Z" fill="#AFC0DE"/>
<path opacity="0.29" d="M407.352 351.508H405.472V362.019H407.352V351.508Z" fill="#AFC0DE"/>
<path opacity="0.29" d="M412.544 351.508H410.665V362.019H412.544V351.508Z" fill="#AFC0DE"/>
<path opacity="0.29" d="M417.737 351.508H415.857V362.019H417.737V351.508Z" fill="#AFC0DE"/>
<path d="M380.995 374.066H376.459V386.536H380.995V374.066Z" fill="#AFC0DE"/>
<path opacity="0.29" d="M389.975 374.066H385.439V386.536H389.975V374.066Z" fill="#AFC0DE"/>
<path d="M398.955 374.066H394.419V386.536H398.955V374.066Z" fill="#AFC0DE"/>
<path d="M407.934 374.066H403.399V386.536H407.934V374.066Z" fill="#AFC0DE"/>
<path d="M416.914 374.066H412.379V386.536H416.914V374.066Z" fill="#AFC0DE"/>
<path d="M425.894 374.066H421.358V386.536H425.894V374.066Z" fill="#AFC0DE"/>
<path d="M380.995 393.499H376.459V405.969H380.995V393.499Z" fill="#AFC0DE"/>
<path d="M389.975 393.499H385.439V405.969H389.975V393.499Z" fill="#AFC0DE"/>
<path d="M398.955 393.499H394.419V405.969H398.955V393.499Z" fill="#AFC0DE"/>
<path opacity="0.29" d="M407.934 393.499H403.399V405.969H407.934V393.499Z" fill="#AFC0DE"/>
<path d="M416.914 393.499H412.379V405.969H416.914V393.499Z" fill="#AFC0DE"/>
<path d="M425.894 393.499H421.358V405.969H425.894V393.499Z" fill="#AFC0DE"/>
<path d="M380.995 412.938H376.459V425.408H380.995V412.938Z" fill="#AFC0DE"/>
<path d="M389.975 412.938H385.439V425.408H389.975V412.938Z" fill="#AFC0DE"/>
<path d="M398.955 412.938H394.419V425.408H398.955V412.938Z" fill="#AFC0DE"/>
<path d="M407.934 412.938H403.399V425.408H407.934V412.938Z" fill="#AFC0DE"/>
<path opacity="0.29" d="M416.914 412.938H412.379V425.408H416.914V412.938Z" fill="#AFC0DE"/>
<path opacity="0.29" d="M425.894 412.938H421.358V425.408H425.894V412.938Z" fill="#AFC0DE"/>
<path opacity="0.29" d="M380.995 432.372H376.459V444.842H380.995V432.372Z" fill="#AFC0DE"/>
<path d="M389.975 432.372H385.439V444.842H389.975V432.372Z" fill="#AFC0DE"/>
<path d="M398.955 432.372H394.419V444.842H398.955V432.372Z" fill="#AFC0DE"/>
<path d="M407.934 432.372H403.399V444.842H407.934V432.372Z" fill="#AFC0DE"/>
<path d="M416.914 432.372H412.379V444.842H416.914V432.372Z" fill="#AFC0DE"/>
<path d="M425.894 432.372H421.358V444.842H425.894V432.372Z" fill="#AFC0DE"/>
<path d="M380.995 451.811H376.459V464.281H380.995V451.811Z" fill="#AFC0DE"/>
<path opacity="0.29" d="M389.975 451.811H385.439V464.281H389.975V451.811Z" fill="#AFC0DE"/>
<path d="M398.955 451.811H394.419V464.281H398.955V451.811Z" fill="#AFC0DE"/>
<path opacity="0.29" d="M407.934 451.811H403.399V464.281H407.934V451.811Z" fill="#AFC0DE"/>
<path d="M416.914 451.811H412.379V464.281H416.914V451.811Z" fill="#AFC0DE"/>
<path d="M425.894 451.811H421.358V464.281H425.894V451.811Z" fill="#AFC0DE"/>
<path d="M380.995 471.244H376.459V483.714H380.995V471.244Z" fill="#AFC0DE"/>
<path d="M389.975 471.244H385.439V483.714H389.975V471.244Z" fill="#AFC0DE"/>
<path d="M398.955 471.244H394.419V483.714H398.955V471.244Z" fill="#AFC0DE"/>
<path d="M407.934 471.244H403.399V483.714H407.934V471.244Z" fill="#AFC0DE"/>
<path d="M416.914 471.244H412.379V483.714H416.914V471.244Z" fill="#AFC0DE"/>
<path opacity="0.29" d="M425.894 471.244H421.358V483.714H425.894V471.244Z" fill="#AFC0DE"/>
<path d="M380.995 490.677H376.459V503.147H380.995V490.677Z" fill="#AFC0DE"/>
<path opacity="0.29" d="M389.975 490.677H385.439V503.147H389.975V490.677Z" fill="#AFC0DE"/>
<path opacity="0.29" d="M398.955 490.677H394.419V503.147H398.955V490.677Z" fill="#AFC0DE"/>
<path d="M407.934 490.677H403.399V503.147H407.934V490.677Z" fill="#AFC0DE"/>
<path d="M416.914 490.677H412.379V503.147H416.914V490.677Z" fill="#AFC0DE"/>
<path d="M425.894 490.677H421.358V503.147H425.894V490.677Z" fill="#AFC0DE"/>
<path d="M380.995 510.116H376.459V522.586H380.995V510.116Z" fill="#AFC0DE"/>
<path d="M389.975 510.116H385.439V522.586H389.975V510.116Z" fill="#AFC0DE"/>
<path d="M398.955 510.116H394.419V522.586H398.955V510.116Z" fill="#AFC0DE"/>
<path d="M407.934 510.116H403.399V522.586H407.934V510.116Z" fill="#AFC0DE"/>
<path opacity="0.29" d="M416.914 510.116H412.379V522.586H416.914V510.116Z" fill="#AFC0DE"/>
<path d="M425.894 510.116H421.358V522.586H425.894V510.116Z" fill="#AFC0DE"/>
<path d="M380.995 529.55H376.459V542.02H380.995V529.55Z" fill="#AFC0DE"/>
<path opacity="0.29" d="M389.975 529.55H385.439V542.02H389.975V529.55Z" fill="#AFC0DE"/>
<path d="M398.955 529.55H394.419V542.02H398.955V529.55Z" fill="#AFC0DE"/>
<path d="M407.934 529.55H403.399V542.02H407.934V529.55Z" fill="#AFC0DE"/>
<path d="M416.914 529.55H412.379V542.02H416.914V529.55Z" fill="#AFC0DE"/>
<path d="M425.894 529.55H421.358V542.02H425.894V529.55Z" fill="#AFC0DE"/>
<path d="M380.995 548.989H376.459V561.459H380.995V548.989Z" fill="#AFC0DE"/>
<path d="M389.975 548.989H385.439V561.459H389.975V548.989Z" fill="#AFC0DE"/>
<path d="M398.955 548.989H394.419V561.459H398.955V548.989Z" fill="#AFC0DE"/>
<path opacity="0.29" d="M407.934 548.989H403.399V561.459H407.934V548.989Z" fill="#AFC0DE"/>
<path d="M416.914 548.989H412.379V561.459H416.914V548.989Z" fill="#AFC0DE"/>
<path opacity="0.29" d="M425.894 548.989H421.358V561.459H425.894V548.989Z" fill="#AFC0DE"/>
<path opacity="0.29" d="M380.995 568.422H376.459V580.892H380.995V568.422Z" fill="#AFC0DE"/>
<path d="M389.975 568.422H385.439V580.892H389.975V568.422Z" fill="#AFC0DE"/>
<path opacity="0.29" d="M398.955 568.422H394.419V580.892H398.955V568.422Z" fill="#AFC0DE"/>
<path d="M407.934 568.422H403.399V580.892H407.934V568.422Z" fill="#AFC0DE"/>
<path d="M416.914 568.422H412.379V580.892H416.914V568.422Z" fill="#AFC0DE"/>
<path d="M425.894 568.422H421.358V580.892H425.894V568.422Z" fill="#AFC0DE"/>
<path d="M293.436 373.626H197.047V574.689H293.436V373.626Z" fill="#AFC0DE"/>
<path d="M296.173 370.17H194.305V375.854H296.173V370.17Z" fill="#AFC0DE"/>
<path d="M290.198 362.893H200.286V389.906H290.198V362.893Z" fill="#AFC0DE"/>
<path d="M242.774 351.845H207.169V381.361H242.774V351.845Z" fill="#AFC0DE"/>
<path d="M227.773 360.162H207.169V344.625H221.947L227.773 360.162Z" fill="#AFC0DE"/>
<path d="M217.474 331.732H215.475V366.337H217.474V331.732Z" fill="#AFC0DE"/>
<path d="M216.474 331.726C217.465 331.726 218.268 330.923 218.268 329.933C218.268 328.942 217.465 328.139 216.474 328.139C215.484 328.139 214.681 328.942 214.681 329.933C214.681 330.923 215.484 331.726 216.474 331.726Z" fill="#AFC0DE"/>
<path d="M1091.66 589.998H986.148L972.981 294.379L1091.66 319.011V589.998Z" fill="#AFC0DE"/>
<path d="M631.321 421.17V322.341H614.772V295.864H608.86V257.038H576.288V228.504H573.392V257.038H567.011V221.318H564.109V257.038H543.522V322.341H532.886V421.17H523.769V601.188H637.73V421.17H631.321Z" fill="#AFC0DE"/>
<path d="M1323.03 586.33H62.3329V616.314H1323.03V586.33Z" fill="#AFC0DE"/>
<path d="M804.416 608.968H748.589L770.342 497.184H804.416V608.968Z" fill="#8BA3CE"/>
<path d="M1340.77 613.327H17.097V700H1340.77V613.327Z" fill="#8BA3CE"/>
<path d="M758.666 402.108V352.571H740.74V333.714H731.149V317.868H727.785V290.712H726.916V317.868H723.552V333.714H713.961V352.571H696.173V402.108H692.477V492.043H664.898V594.562H692.477H720.056H762.224V402.108H758.666Z" fill="#8BA3CE"/>
<path d="M861.682 459.008H774.917V460.591H778.847V607.295H857.757V460.591H861.682V459.008Z" fill="#8BA3CE"/>
<path d="M466.046 495.55H389.124V617.76H466.046V495.55Z" fill="#8BA3CE"/>
<path d="M377.539 558.163H245.242V617.76H377.539V558.163Z" fill="#8BA3CE"/>
<path d="M345.196 425.02H316.154V571.37H345.196V425.02Z" fill="#8BA3CE"/>
<path d="M324.072 385.982H322.564V465.566H324.072V385.982Z" fill="#8BA3CE"/>
<path d="M328.979 392.014H327.471V471.598H328.979V392.014Z" fill="#8BA3CE"/>
<path d="M336.148 415.966H318.394V435.582H336.148V415.966Z" fill="#8BA3CE"/>
<path d="M422.895 517.428H372.352V617.76H422.895V517.428Z" fill="#8BA3CE"/>
<path d="M573.392 411.253H478.516V617.76H573.392V411.253Z" fill="#8BA3CE"/>
<path d="M564.069 404.159H487.838V438.552H564.069V404.159Z" fill="#8BA3CE"/>
<path d="M580.749 415.572H471.164V417.988H580.749V415.572Z" fill="#8BA3CE"/>
<path d="M506.032 513.47H461.328V617.76H506.032V513.47Z" fill="#8BA3CE"/>
<path d="M192.437 509.511H141.14V617.765H192.437V509.511Z" fill="#8BA3CE"/>
<path d="M259.951 480.087H157.734V617.759H259.951V480.087Z" fill="#8BA3CE"/>
<path d="M262.59 474.809H151.771V480.087H262.59V474.809Z" fill="#8BA3CE"/>
<path d="M207.18 460.476H162.259V488.387H207.18V460.476Z" fill="#8BA3CE"/>
<path d="M229.401 460.476H221.855V477.448H229.401V460.476Z" fill="#8BA3CE"/>
<path d="M245.242 460.476H236.942V477.448H245.242V460.476Z" fill="#8BA3CE"/>
<path d="M166.789 575.894H113.23V617.76H166.789V575.894Z" fill="#8BA3CE"/>
<path d="M118.359 558.163H92.9967V617.76H118.359V558.163Z" fill="#8BA3CE"/>
<path d="M105.678 596.83H62.3329V617.765H105.678V596.83Z" fill="#8BA3CE"/>
<path d="M1098.19 571.37H564.075V617.765H1098.19V571.37Z" fill="#8BA3CE"/>
<path d="M1055.54 442.94C1052.17 442.94 1049.42 445.527 1049.14 448.818L1041.63 448.572C1041.65 447.835 1041.65 447.098 1041.65 446.361C1041.65 437.005 1040.04 427.899 1036.94 419.354L1043.22 417.04C1044.21 419.319 1046.47 420.907 1049.11 420.907C1052.66 420.907 1055.53 418.034 1055.53 414.487C1055.53 410.939 1052.66 408.066 1049.11 408.066C1045.56 408.066 1042.69 410.939 1042.69 414.487C1042.69 415.144 1042.79 415.772 1042.97 416.366L1036.69 418.679C1033.11 409.083 1027.66 400.217 1020.51 392.534L1025.43 387.93C1026.58 389.032 1028.14 389.707 1029.86 389.707C1033.41 389.707 1036.28 386.833 1036.28 383.286C1036.28 379.739 1033.41 376.865 1029.86 376.865C1026.31 376.865 1023.44 379.739 1023.44 383.286C1023.44 384.857 1024 386.291 1024.93 387.404L1020.02 392.009C1019.51 391.472 1019 390.946 1018.48 390.421C1011.04 382.977 1002.38 377.202 992.945 373.284L995.647 366.703C996.258 366.897 996.915 367.006 997.589 367.006C1001.14 367.006 1004.01 364.132 1004.01 360.585C1004.01 357.038 1001.14 354.164 997.589 354.164C994.042 354.164 991.169 357.038 991.169 360.585C991.169 363.201 992.734 365.446 994.979 366.452L992.282 373.015C983.845 369.593 974.803 367.651 965.48 367.314L965.772 358.317C965.84 358.317 965.909 358.323 965.977 358.323C969.525 358.323 972.398 355.45 972.398 351.902C972.398 348.355 969.525 345.482 965.977 345.482C962.43 345.482 959.557 348.355 959.557 351.902C959.557 355.136 961.95 357.809 965.058 358.254L964.766 367.291C964.029 367.269 963.292 367.263 962.556 367.263C953.576 367.263 944.83 368.748 936.587 371.604L934 364.264C936.336 363.304 937.975 361.008 937.975 358.329C937.975 354.781 935.102 351.908 931.555 351.908C928.007 351.908 925.134 354.781 925.134 358.329C925.134 361.876 928.007 364.749 931.555 364.749C932.166 364.749 932.76 364.664 933.32 364.504L935.908 371.85C925.917 375.414 916.686 381.001 908.728 388.404L904.038 383.4C905.09 382.258 905.729 380.732 905.729 379.059C905.729 375.511 902.856 372.638 899.309 372.638C895.761 372.638 892.888 375.511 892.888 379.059C892.888 382.606 895.761 385.479 899.309 385.479C900.925 385.479 902.399 384.88 903.524 383.897L908.208 388.895C907.672 389.404 907.146 389.918 906.62 390.438C900 397.058 894.705 404.639 890.849 412.876L884.891 410.122C885.108 409.483 885.228 408.791 885.228 408.077C885.228 404.53 882.354 401.657 878.807 401.657C875.26 401.657 872.386 404.53 872.386 408.077C872.386 411.625 875.26 414.498 878.807 414.498C881.383 414.498 883.605 412.979 884.628 410.785L890.552 413.521C886.296 422.832 883.885 432.955 883.508 443.437L875.86 443.185C875.762 439.724 872.929 436.947 869.445 436.947C865.897 436.947 863.024 439.821 863.024 443.368C863.024 446.915 865.897 449.789 869.445 449.789C872.809 449.789 875.568 447.201 875.837 443.905L883.486 444.156C883.463 444.893 883.457 445.63 883.457 446.367C883.457 455.724 885.074 464.829 888.17 473.375L881.892 475.688C880.904 473.415 878.641 471.821 876.002 471.821C872.455 471.821 869.582 474.695 869.582 478.242C869.582 481.789 872.455 484.663 876.002 484.663C879.55 484.663 882.423 481.789 882.423 478.242C882.423 477.585 882.326 476.957 882.143 476.363L888.421 474.049C891.997 483.646 897.452 492.511 904.598 500.194L899.686 504.799C898.532 503.696 896.972 503.022 895.253 503.022C891.706 503.022 888.832 505.895 888.832 509.443C888.832 512.99 891.706 515.863 895.253 515.863C898.8 515.863 901.674 512.99 901.674 509.443C901.674 507.872 901.108 506.438 900.177 505.324L905.09 500.72C905.598 501.257 906.112 501.782 906.632 502.308C911.642 507.318 917.211 511.573 923.192 515.018L884.491 586.353H877.545V588.393H874.146V592.443H1050.98V588.37H1047.57V586.331H1040.63L1001.92 514.995C1007.08 512.025 1011.93 508.454 1016.38 504.319L1022.65 511.014C1021.3 512.19 1020.45 513.921 1020.45 515.846C1020.45 519.393 1023.32 522.267 1026.87 522.267C1030.42 522.267 1033.29 519.393 1033.29 515.846C1033.29 512.299 1030.42 509.425 1026.87 509.425C1025.51 509.425 1024.25 509.848 1023.21 510.568L1016.9 503.827C1017.43 503.319 1017.96 502.805 1018.48 502.285C1025.11 495.664 1030.4 488.084 1034.26 479.847L1041.24 483.069C1041.12 483.571 1041.05 484.097 1041.05 484.64C1041.05 488.187 1043.92 491.06 1047.47 491.06C1051.02 491.06 1053.89 488.187 1053.89 484.64C1053.89 481.092 1051.02 478.219 1047.47 478.219C1044.72 478.219 1042.37 479.95 1041.46 482.378L1034.56 479.19C1038.82 469.879 1041.23 459.757 1041.6 449.275L1049.12 449.52C1049.21 452.982 1052.05 455.764 1055.54 455.764C1059.08 455.764 1061.96 452.891 1061.96 449.343C1061.96 445.813 1059.08 442.94 1055.54 442.94ZM1039.52 446.361C1039.52 447.075 1039.51 447.789 1039.49 448.504L1017.35 447.784C1017.36 447.31 1017.37 446.836 1017.37 446.361C1017.37 439.838 1016.22 433.572 1014.12 427.762L1034.94 420.096C1037.95 428.408 1039.52 437.262 1039.52 446.361ZM1016.27 447.755L966.874 446.15C966.857 445.83 966.806 445.516 966.726 445.213L1013.1 428.139C1015.17 433.834 1016.29 439.969 1016.29 446.367C1016.29 446.83 1016.29 447.293 1016.27 447.755ZM908.86 444.973L958.26 446.578C958.277 446.898 958.328 447.213 958.408 447.515L912.03 464.589C909.968 458.894 908.843 452.759 908.843 446.361C908.843 445.899 908.848 445.436 908.86 444.973ZM965.949 443.682L1001.99 409.905C1006.67 414.961 1010.38 420.907 1012.86 427.465L966.48 444.539C966.337 444.236 966.16 443.945 965.949 443.682ZM965.463 443.162C965.183 442.911 964.869 442.694 964.532 442.523L983.308 396.807C990.226 399.715 996.418 404.027 1001.51 409.391L965.463 443.162ZM963.869 442.249C963.612 442.169 963.338 442.111 963.064 442.077L964.669 392.683C970.998 392.928 977.053 394.271 982.646 396.533L963.869 442.249ZM962.35 442.054C962.047 442.071 961.756 442.117 961.476 442.191L945.047 395.579C950.543 393.677 956.438 392.643 962.573 392.643C963.035 392.643 963.498 392.648 963.961 392.66L962.35 442.054ZM960.802 442.426C960.471 442.574 960.168 442.763 959.888 442.98L926.111 406.935C931.343 402.091 937.536 398.275 944.373 395.807L960.802 442.426ZM959.368 443.471C959.157 443.705 958.968 443.962 958.814 444.242L913.949 423.529C916.811 417.457 920.781 412.002 925.597 407.426L959.368 443.471ZM958.511 444.882C958.397 445.196 958.317 445.522 958.283 445.864L908.888 444.259C909.162 437.119 910.836 430.333 913.647 424.169L958.511 444.882ZM958.654 448.184C958.768 448.429 958.911 448.669 959.065 448.886L958.774 449.429L923.141 482.817C918.468 477.762 914.749 471.816 912.276 465.258L958.654 448.184ZM957.694 451.417L935.325 492.654C931.001 490.101 927.065 486.959 923.626 483.343L957.694 451.417ZM960.128 449.926C960.282 450.029 960.436 450.126 960.602 450.206L941.826 495.922C940.015 495.162 938.261 494.305 936.559 493.357L960.128 449.926ZM961.265 450.48C961.522 450.56 961.796 450.623 962.07 450.651L960.465 500.046C954.136 499.8 948.081 498.458 942.488 496.196L961.265 450.48ZM962.567 500.092C962.104 500.092 961.642 500.086 961.179 500.074L962.784 450.674C963.087 450.657 963.378 450.611 963.658 450.537L980.087 497.15C974.597 499.052 968.702 500.092 962.567 500.092ZM964.332 450.303C964.566 450.194 964.795 450.069 965.006 449.926L988.575 493.362C986.085 494.745 983.474 495.939 980.766 496.916L964.332 450.303ZM968.296 452.999L999.023 485.788C996.213 488.387 993.128 490.689 989.809 492.648L968.296 452.999ZM966.954 450.526L966.069 448.892C966.16 448.766 966.246 448.629 966.326 448.492L1011.19 469.205C1008.33 475.277 1004.36 480.732 999.543 485.308L966.954 450.526ZM966.623 447.841C966.737 447.527 966.817 447.201 966.851 446.858L1016.25 448.464C1015.97 455.604 1014.3 462.39 1011.49 468.554L966.623 447.841ZM941.426 496.916L932.994 517.451C930.424 516.383 927.91 515.172 925.465 513.824L936.056 494.305C937.787 495.265 939.581 496.139 941.426 496.916ZM942.083 497.184C947.789 499.492 953.97 500.863 960.431 501.114L959.711 523.261C950.645 522.929 941.854 521.039 933.651 517.714L942.083 497.184ZM961.145 501.143C961.619 501.154 962.093 501.16 962.567 501.16C968.822 501.16 974.837 500.103 980.447 498.161L987.827 519.091C979.813 521.867 971.301 523.312 962.573 523.312C961.859 523.312 961.145 523.301 960.431 523.284L961.145 501.143ZM981.121 497.921C983.885 496.921 986.547 495.71 989.084 494.299L999.674 513.818C996.087 515.8 992.351 517.48 988.501 518.857L981.121 497.921ZM1034.69 419.428L1013.86 427.099C1011.34 420.41 1007.54 414.338 1002.77 409.18L1018.96 394.008C1025.91 401.48 1031.21 410.1 1034.69 419.428ZM1016.98 391.951C1017.49 392.46 1017.99 392.968 1018.48 393.488L1002.29 408.654C997.092 403.182 990.774 398.778 983.714 395.813L992.145 375.277C1001.32 379.099 1009.75 384.714 1016.98 391.951ZM991.483 375.009L983.051 395.545C977.345 393.237 971.17 391.866 964.703 391.614L965.423 369.468C974.489 369.793 983.28 371.684 991.483 375.009ZM962.567 369.416C963.281 369.416 963.995 369.428 964.709 369.445L963.989 391.586C963.515 391.574 963.041 391.569 962.567 391.569C956.312 391.569 950.297 392.626 944.687 394.568L937.307 373.638C945.327 370.862 953.839 369.416 962.567 369.416ZM936.639 373.872L944.019 394.808C937.044 397.327 930.721 401.217 925.385 406.164L910.214 389.975C917.948 382.772 926.922 377.339 936.639 373.872ZM908.157 391.951C908.665 391.443 909.174 390.946 909.694 390.455L924.86 406.644C919.947 411.311 915.897 416.88 912.973 423.078L892.814 413.773C896.567 405.764 901.719 398.389 908.157 391.951ZM892.517 414.418L912.67 423.723C909.802 430.018 908.094 436.942 907.814 444.225L885.668 443.505C886.039 433.314 888.381 423.472 892.517 414.418ZM885.616 446.361C885.616 445.647 885.628 444.933 885.645 444.219L907.786 444.939C907.774 445.413 907.769 445.887 907.769 446.361C907.769 452.885 908.917 459.151 911.019 464.961L890.192 472.627C887.187 464.321 885.616 455.461 885.616 446.361ZM890.443 473.301L911.276 465.629C913.795 472.318 917.594 478.39 922.364 483.549L906.175 498.721C899.229 491.249 893.922 482.629 890.443 473.301ZM908.157 500.777C907.649 500.269 907.152 499.76 906.66 499.24L922.849 484.074C926.368 487.776 930.395 490.986 934.816 493.597L924.226 513.121C918.422 509.768 913.018 505.638 908.157 500.777ZM1039.02 586.331H886.125L924.443 515.698C926.956 517.086 929.533 518.325 932.177 519.428L929.475 526.008C928.864 525.814 928.207 525.706 927.533 525.706C923.986 525.706 921.113 528.579 921.113 532.126C921.113 535.674 923.986 538.547 927.533 538.547C931.081 538.547 933.954 535.674 933.954 532.126C933.954 529.51 932.389 527.265 930.144 526.26L932.84 519.696C941.277 523.118 950.32 525.06 959.642 525.397L959.425 532.126C955.946 532.206 953.153 535.045 953.153 538.541C953.153 542.089 956.026 544.962 959.574 544.962C963.121 544.962 965.994 542.089 965.994 538.541C965.994 535.188 963.418 532.435 960.139 532.149L960.356 525.42C961.093 525.443 961.83 525.449 962.567 525.449C971.547 525.449 980.292 523.963 988.535 521.107L990.843 527.654C988.661 528.676 987.147 530.892 987.147 533.469C987.147 537.016 990.02 539.889 993.568 539.889C997.115 539.889 999.988 537.016 999.988 533.469C999.988 529.921 997.115 527.048 993.568 527.048C992.848 527.048 992.157 527.168 991.511 527.385L989.215 520.873C993.174 519.462 997.012 517.731 1000.7 515.698L1039.02 586.331ZM1000.91 513.116L990.323 493.591C993.716 491.586 996.881 489.232 999.754 486.57L1014.93 502.759C1010.61 506.769 1005.91 510.237 1000.91 513.116ZM1016.98 500.777C1016.47 501.285 1015.97 501.782 1015.45 502.274L1000.28 486.085C1005.19 481.418 1009.24 475.848 1012.17 469.651L1032.33 478.956C1028.57 486.965 1023.41 494.339 1016.98 500.777ZM1032.62 478.31L1012.46 469.005C1015.33 462.71 1017.04 455.787 1017.32 448.504L1039.47 449.223C1039.1 459.408 1036.75 469.256 1032.62 478.31Z" fill="#8BA3CE"/>
<path d="M1153.51 496.915H1071.03V617.76H1153.51V496.915Z" fill="#8BA3CE"/>
<path d="M1223.92 543.899H1141.44V617.08H1223.92V543.899Z" fill="#8BA3CE"/>
<path d="M867.851 533.154H821.581V594.568H867.851V533.154Z" fill="#8BA3CE"/>
<path d="M1170.61 381.989H1112.27V617.76H1170.61V381.989Z" fill="#8BA3CE"/>
<path d="M1266.66 617.759H1189.72V480.087H1248.06L1266.66 617.759Z" fill="#8BA3CE"/>
<path d="M1300.35 586.33H1232.97V617.76H1300.35V586.33Z" fill="#8BA3CE"/>
<path d="M1157.53 332.732H1155.52V396.801H1157.53V332.732Z" fill="#8BA3CE"/>
<path d="M1164.32 346.481H1162.31V410.551H1164.32V346.481Z" fill="#8BA3CE"/>
<path d="M1151.37 355.33H1149.36V419.399H1151.37V355.33Z" fill="#8BA3CE"/>
<path d="M1220.27 468.959H1192.73V490.649H1220.27V468.959Z" fill="#8BA3CE"/>
<path d="M1217.25 461.23H1195.75V473.421H1217.25V461.23Z" fill="#8BA3CE"/>
<path d="M1236.48 475.311H1231.21V484.068H1236.48V475.311Z" fill="#8BA3CE"/>
<path d="M1245.9 467.325H1238.36V484.074H1245.9V467.325Z" fill="#8BA3CE"/>
<path d="M1149.78 415.846C1149.78 414.858 1149.11 414.052 1148.27 414.052C1147.44 414.052 1146.77 414.858 1146.77 415.846C1146.77 416.834 1147.44 417.64 1148.27 417.64C1149.11 417.64 1149.78 416.84 1149.78 415.846Z" fill="#5D81C0"/>
<path d="M1313.91 633.868L1304.56 571.37H1285.45V519.502H1287.82V514.806H1278.54V494.608H1277.41V514.806H1270.99V498.258H1269.86V514.806H1231.21V519.502H1233.85V624.734H1189.72V577.596H1164.58V461.762H1166.89V456.084H1161.86V448.806H1156.09V446.07V437.753V430.538H1149.11V417.64H1148.28H1147.44V430.538H1143.68L1141.41 437.753H1126.2V448.806H1086.39V456.084H1081.37V461.762H1083.67V537.13H1050.37V611.179L1013.41 594.807V522.929H1019.37V517.651H1008.88V503.319H963.955V517.651H949.28V503.319H941.74V517.651H934.194V503.319H925.9V517.651H908.546V522.929H911.185V622.552H894.339V621.507H891.289V593.117H894.339V590.843H891.289V562.453H894.339V560.174H891.289V531.783H894.339V529.51H891.289V501.12H894.339V498.84H891.289V470.45H894.339V468.177H891.289V438.792H896.515V436.507H899.172V430.281H849.554V423.358H851.165V421.353H824.152V423.358H825.763V430.281H813.47V436.507H816.126V438.792H821.353V468.177H818.302V470.45H821.353V498.84H818.302V501.12H821.353V529.51H818.302V531.783H821.353V560.174H818.302V562.453H821.353V590.843H818.302V593.117H821.353V621.507H818.302V623.786H821.353V646.984H804.416V557.34H736.268V622.552H725.203V419.399H717.017V424.626L701.914 428.322V424.923H693.728V430.327L678.624 434.017V430.121H670.439V436.022L655.33 439.718V436.502H647.144V441.717L632.04 445.413V442.643H623.855V642.146H612.339V535.788H569.685V601.188H525.957V545.419H520.57V527.099H523.769V525.26H509.614V519.502H508.106V525.26H503.582V495.699H502.451V525.26H496.555V527.099H500.023V545.419H471.164V587.964H443.071L428.396 642.146H398.955V465.235H359.974V458.9H362.184V456.672H332.663V458.9H334.982V465.235V475.431V596.59H316.606V550.811H323.135V546.67H276.888V519.011H268.068V513.327H248.372V519.011H232.349V617.76H179.778V544.522H135.514V602.371H97.0981V639.381H69.4048V592.854H32.9773V632.52H0V700H32.9773H44.122H62.3329H69.4048H97.0981H135.514H148.423H155.335H179.778H232.349H248.372H268.068H276.888H311.39H316.606H334.982H365.806H380.995H398.955H471.164H487.838H515.989H525.957H570.433H582.383H623.855H627.95H632.04H647.144H655.33H670.439H677.276H678.624H693.728H701.914H714.898H717.017H721.113H725.203H736.268H792.597H800.64H804.416H821.353H851.165H878.459H891.289H911.185H960.602H1012.86H1013.41H1050.37H1071.03H1083.67H1091.66H1153.51H1164.58H1177.82H1189.72H1233.85H1266.66H1273.38H1285.45H1358.88V633.868H1313.91Z" fill="#5D81C0"/>
<g opacity="0.52">
<path opacity="0.52" d="M240.312 526.18H236.942V529.55H240.312V526.18Z" fill="white"/>
<path opacity="0.52" d="M247.087 526.18H243.716V529.55H247.087V526.18Z" fill="white"/>
<path opacity="0.52" d="M240.312 534.103H236.942V537.473H240.312V534.103Z" fill="white"/>
<path opacity="0.52" d="M247.087 534.103H243.716V537.473H247.087V534.103Z" fill="white"/>
<path opacity="0.52" d="M240.312 541.757H236.942V545.127H240.312V541.757Z" fill="white"/>
<path opacity="0.52" d="M254.616 526.18H251.245V529.55H254.616V526.18Z" fill="white"/>
</g>
<path opacity="0.5" d="M485.982 424.923H483.68V437.65H485.982V424.923Z" fill="white"/>
<path opacity="0.5" d="M493.905 424.923H491.603V437.65H493.905V424.923Z" fill="white"/>
<path opacity="0.5" d="M501.834 424.923H499.532V437.65H501.834V424.923Z" fill="white"/>
<path opacity="0.5" d="M509.757 424.923H507.455V437.65H509.757V424.923Z" fill="white"/>
<path opacity="0.5" d="M517.68 424.923H515.378V437.65H517.68V424.923Z" fill="white"/>
<path opacity="0.5" d="M525.603 424.923H523.301V437.65H525.603V424.923Z" fill="white"/>
<path opacity="0.5" d="M533.531 424.923H531.229V437.65H533.531V424.923Z" fill="white"/>
<path opacity="0.5" d="M541.454 424.923H539.152V437.65H541.454V424.923Z" fill="white"/>
<path opacity="0.5" d="M549.377 424.923H547.075V437.65H549.377V424.923Z" fill="white"/>
<path opacity="0.5" d="M557.3 424.923H554.998V437.65H557.3V424.923Z" fill="white"/>
<path opacity="0.5" d="M565.223 424.923H562.921V437.65H565.223V424.923Z" fill="white"/>
<path opacity="0.5" d="M485.982 442.642H483.68V455.369H485.982V442.642Z" fill="white"/>
<path opacity="0.5" d="M493.905 442.642H491.603V455.369H493.905V442.642Z" fill="white"/>
<path opacity="0.5" d="M501.834 442.642H499.532V455.369H501.834V442.642Z" fill="white"/>
<path opacity="0.5" d="M509.757 442.642H507.455V455.369H509.757V442.642Z" fill="white"/>
<path opacity="0.5" d="M517.68 442.642H515.378V455.369H517.68V442.642Z" fill="white"/>
<path opacity="0.5" d="M525.603 442.642H523.301V455.369H525.603V442.642Z" fill="white"/>
<path opacity="0.5" d="M533.531 442.642H531.229V455.369H533.531V442.642Z" fill="white"/>
<path opacity="0.5" d="M541.454 442.642H539.152V455.369H541.454V442.642Z" fill="white"/>
<path opacity="0.5" d="M549.377 442.642H547.075V455.369H549.377V442.642Z" fill="white"/>
<path opacity="0.5" d="M557.3 442.642H554.998V455.369H557.3V442.642Z" fill="white"/>
<path opacity="0.5" d="M565.223 442.642H562.921V455.369H565.223V442.642Z" fill="white"/>
<path opacity="0.5" d="M485.982 460.362H483.68V473.089H485.982V460.362Z" fill="white"/>
<path opacity="0.5" d="M493.905 460.362H491.603V473.089H493.905V460.362Z" fill="white"/>
<path opacity="0.5" d="M501.834 460.362H499.532V473.089H501.834V460.362Z" fill="white"/>
<path opacity="0.5" d="M509.757 460.362H507.455V473.089H509.757V460.362Z" fill="white"/>
<path opacity="0.5" d="M517.68 460.362H515.378V473.089H517.68V460.362Z" fill="white"/>
<path opacity="0.5" d="M525.603 460.362H523.301V473.089H525.603V460.362Z" fill="white"/>
<path opacity="0.5" d="M533.531 460.362H531.229V473.089H533.531V460.362Z" fill="white"/>
<path opacity="0.5" d="M541.454 460.362H539.152V473.089H541.454V460.362Z" fill="white"/>
<path opacity="0.5" d="M549.377 460.362H547.075V473.089H549.377V460.362Z" fill="white"/>
<path opacity="0.5" d="M557.3 460.362H554.998V473.089H557.3V460.362Z" fill="white"/>
<path opacity="0.5" d="M565.223 460.362H562.921V473.089H565.223V460.362Z" fill="white"/>
<path opacity="0.5" d="M509.757 478.082H507.455V490.809H509.757V478.082Z" fill="white"/>
<path opacity="0.5" d="M517.68 478.082H515.378V490.809H517.68V478.082Z" fill="white"/>
<path opacity="0.5" d="M525.603 478.082H523.301V490.809H525.603V478.082Z" fill="white"/>
<path opacity="0.5" d="M533.531 478.082H531.229V490.809H533.531V478.082Z" fill="white"/>
<path opacity="0.5" d="M541.454 478.082H539.152V490.809H541.454V478.082Z" fill="white"/>
<path opacity="0.5" d="M549.377 478.082H547.075V490.809H549.377V478.082Z" fill="white"/>
<path opacity="0.5" d="M557.3 478.082H554.998V490.809H557.3V478.082Z" fill="white"/>
<path opacity="0.5" d="M565.223 478.082H562.921V490.809H565.223V478.082Z" fill="white"/>
<path opacity="0.5" d="M517.68 496.784H515.378V509.511H517.68V496.784Z" fill="white"/>
<path opacity="0.5" d="M525.603 496.784H523.301V509.511H525.603V496.784Z" fill="white"/>
<path opacity="0.5" d="M533.531 496.784H531.229V509.511H533.531V496.784Z" fill="white"/>
<path opacity="0.5" d="M541.454 496.784H539.152V509.511H541.454V496.784Z" fill="white"/>
<path opacity="0.5" d="M549.377 496.784H547.075V509.511H549.377V496.784Z" fill="white"/>
<path opacity="0.5" d="M557.3 496.784H554.998V509.511H557.3V496.784Z" fill="white"/>
<path opacity="0.5" d="M565.223 496.784H562.921V509.511H565.223V496.784Z" fill="white"/>
<path opacity="0.33" d="M642.311 456.518H636.879V470.296H642.311V456.518Z" fill="white"/>
<path opacity="0.33" d="M642.311 482.869H636.879V496.647H642.311V482.869Z" fill="white"/>
<path opacity="0.33" d="M642.311 509.225H636.879V523.004H642.311V509.225Z" fill="white"/>
<path opacity="0.33" d="M642.311 535.576H636.879V549.355H642.311V535.576Z" fill="white"/>
<path opacity="0.33" d="M642.311 560.425H636.879V574.203H642.311V560.425Z" fill="white"/>
<path opacity="0.33" d="M642.311 586.776H636.879V600.554H642.311V586.776Z" fill="white"/>
<path opacity="0.33" d="M665.6 456.518H660.168V470.296H665.6V456.518Z" fill="white"/>
<path opacity="0.33" d="M665.6 482.869H660.168V496.647H665.6V482.869Z" fill="white"/>
<path opacity="0.33" d="M665.6 509.225H660.168V523.004H665.6V509.225Z" fill="white"/>
<path opacity="0.33" d="M665.6 535.576H660.168V549.355H665.6V535.576Z" fill="white"/>
<path opacity="0.33" d="M665.6 560.425H660.168V574.203H665.6V560.425Z" fill="white"/>
<path opacity="0.33" d="M665.6 586.776H660.168V600.554H665.6V586.776Z" fill="white"/>
<path opacity="0.33" d="M688.89 456.518H683.457V470.296H688.89V456.518Z" fill="white"/>
<path opacity="0.33" d="M688.89 482.869H683.457V496.647H688.89V482.869Z" fill="white"/>
<path opacity="0.33" d="M688.89 509.225H683.457V523.004H688.89V509.225Z" fill="white"/>
<path opacity="0.33" d="M688.89 535.576H683.457V549.355H688.89V535.576Z" fill="white"/>
<path opacity="0.33" d="M688.89 560.425H683.457V574.203H688.89V560.425Z" fill="white"/>
<path opacity="0.33" d="M688.89 586.776H683.457V600.554H688.89V586.776Z" fill="white"/>
<path opacity="0.33" d="M712.184 456.518H706.752V470.296H712.184V456.518Z" fill="white"/>
<path opacity="0.33" d="M712.184 482.869H706.752V496.647H712.184V482.869Z" fill="white"/>
<path opacity="0.33" d="M712.184 509.225H706.752V523.004H712.184V509.225Z" fill="white"/>
<path opacity="0.33" d="M712.184 535.576H706.752V549.355H712.184V535.576Z" fill="white"/>
<path opacity="0.33" d="M712.184 560.425H706.752V574.203H712.184V560.425Z" fill="white"/>
<path opacity="0.33" d="M712.184 586.776H706.752V600.554H712.184V586.776Z" fill="white"/>
<path opacity="0.5" d="M553.896 264.378H549.377V276.437H553.896V264.378Z" fill="white"/>
<path opacity="0.5" d="M565.046 264.378H560.528V276.437H565.046V264.378Z" fill="white"/>
<path opacity="0.5" d="M576.197 264.378H571.678V276.437H576.197V264.378Z" fill="white"/>
<path opacity="0.5" d="M587.353 264.378H582.834V276.437H587.353V264.378Z" fill="white"/>
<path opacity="0.5" d="M553.896 284.457H549.377V296.516H553.896V284.457Z" fill="white"/>
<path opacity="0.5" d="M565.046 284.457H560.528V296.516H565.046V284.457Z" fill="white"/>
<path opacity="0.5" d="M576.197 284.457H571.678V296.516H576.197V284.457Z" fill="white"/>
<path opacity="0.5" d="M587.353 284.457H582.834V296.516H587.353V284.457Z" fill="white"/>
<path opacity="0.5" d="M553.896 304.541H549.377V316.6H553.896V304.541Z" fill="white"/>
<path opacity="0.5" d="M565.046 304.541H560.528V316.6H565.046V304.541Z" fill="white"/>
<path opacity="0.5" d="M600 264.378H595.481V276.437H600V264.378Z" fill="white"/>
<path opacity="0.4" d="M251.245 386.536H248.372V397.59H251.245V386.536Z" fill="white"/>
<path opacity="0.4" d="M261.39 386.536H258.517V397.59H261.39V386.536Z" fill="white"/>
<path opacity="0.4" d="M273.255 386.536H270.382V397.59H273.255V386.536Z" fill="white"/>
<path opacity="0.4" d="M283.394 386.536H280.521V397.59H283.394V386.536Z" fill="white"/>
<path opacity="0.4" d="M228.71 386.536H225.837V397.59H228.71V386.536Z" fill="white"/>
<path opacity="0.4" d="M238.855 386.536H235.982V397.59H238.855V386.536Z" fill="white"/>
<path opacity="0.4" d="M251.245 405.729H248.372V416.783H251.245V405.729Z" fill="white"/>
<path opacity="0.4" d="M261.39 405.729H258.517V416.783H261.39V405.729Z" fill="white"/>
<path opacity="0.4" d="M273.255 405.729H270.382V416.783H273.255V405.729Z" fill="white"/>
<path opacity="0.4" d="M283.394 405.729H280.521V416.783H283.394V405.729Z" fill="white"/>
<path opacity="0.4" d="M228.71 405.729H225.837V416.783H228.71V405.729Z" fill="white"/>
<path opacity="0.4" d="M238.855 405.729H235.982V416.783H238.855V405.729Z" fill="white"/>
<path opacity="0.4" d="M251.245 424.923H248.372V435.976H251.245V424.923Z" fill="white"/>
<path opacity="0.4" d="M261.39 424.923H258.517V435.976H261.39V424.923Z" fill="white"/>
<path opacity="0.4" d="M273.255 424.923H270.382V435.976H273.255V424.923Z" fill="white"/>
<path opacity="0.4" d="M283.394 424.923H280.521V435.976H283.394V424.923Z" fill="white"/>
<path opacity="0.4" d="M228.71 424.923H225.837V435.976H228.71V424.923Z" fill="white"/>
<path opacity="0.4" d="M238.855 424.923H235.982V435.976H238.855V424.923Z" fill="white"/>
<path opacity="0.5" d="M789.244 471.244H784.788V488.387H789.244V471.244Z" fill="white"/>
<path opacity="0.5" d="M802.868 471.244H798.412V488.387H802.868V471.244Z" fill="white"/>
<path opacity="0.5" d="M815.697 471.244H811.242V488.387H815.697V471.244Z" fill="white"/>
<path opacity="0.33" d="M1095.04 474.809H1091.66V484.451H1095.04V474.809Z" fill="white"/>
<path opacity="0.33" d="M1105.64 474.809H1102.26V484.451H1105.64V474.809Z" fill="white"/>
<path opacity="0.33" d="M1095.04 474.809H1091.66V484.451H1095.04V474.809Z" fill="white"/>
<path opacity="0.33" d="M1105.64 474.809H1102.26V484.451H1105.64V474.809Z" fill="white"/>
<path opacity="0.33" d="M1115.65 474.809H1112.27V484.451H1115.65V474.809Z" fill="white"/>
<path opacity="0.33" d="M1126.25 474.809H1122.87V484.451H1126.25V474.809Z" fill="white"/>
<path opacity="0.33" d="M1095.04 492.094H1091.66V501.737H1095.04V492.094Z" fill="white"/>
<path opacity="0.33" d="M1105.64 492.094H1102.26V501.737H1105.64V492.094Z" fill="white"/>
<path opacity="0.33" d="M1095.04 492.094H1091.66V501.737H1095.04V492.094Z" fill="white"/>
<path opacity="0.33" d="M1105.64 492.094H1102.26V501.737H1105.64V492.094Z" fill="white"/>
<path opacity="0.33" d="M1115.65 492.094H1112.27V501.737H1115.65V492.094Z" fill="white"/>
<path opacity="0.33" d="M1126.25 492.094H1122.87V501.737H1126.25V492.094Z" fill="white"/>
<path opacity="0.33" d="M1095.04 510.494H1091.66V520.136H1095.04V510.494Z" fill="white"/>
<path opacity="0.33" d="M1105.64 510.494H1102.26V520.136H1105.64V510.494Z" fill="white"/>
<path opacity="0.33" d="M1095.04 510.494H1091.66V520.136H1095.04V510.494Z" fill="white"/>
<path opacity="0.33" d="M1105.64 510.494H1102.26V520.136H1105.64V510.494Z" fill="white"/>
<path opacity="0.33" d="M1115.65 510.494H1112.27V520.136H1115.65V510.494Z" fill="white"/>
<path opacity="0.33" d="M1126.25 510.494H1122.87V520.136H1126.25V510.494Z" fill="white"/>
<path opacity="0.33" d="M1137.83 474.809H1134.45V484.451H1137.83V474.809Z" fill="white"/>
<path opacity="0.33" d="M1137.83 492.094H1134.45V501.737H1137.83V492.094Z" fill="white"/>
<path opacity="0.33" d="M1148.43 474.809H1145.05V484.451H1148.43V474.809Z" fill="white"/>
<path opacity="0.33" d="M831.281 446.201H827.648V461.23H831.281V446.201Z" fill="white"/>
<path opacity="0.33" d="M849.349 446.201H845.716V461.23H849.349V446.201Z" fill="white"/>
<path opacity="0.33" d="M867.417 446.201H863.784V461.23H867.417V446.201Z" fill="white"/>
<path opacity="0.33" d="M885.491 446.201H881.858V461.23H885.491V446.201Z" fill="white"/>
<path opacity="0.33" d="M831.281 477.134H827.648V492.163H831.281V477.134Z" fill="white"/>
<path opacity="0.33" d="M849.349 477.134H845.716V492.163H849.349V477.134Z" fill="white"/>
<path opacity="0.33" d="M867.417 477.134H863.784V492.163H867.417V477.134Z" fill="white"/>
<path opacity="0.33" d="M885.491 477.134H881.858V492.163H885.491V477.134Z" fill="white"/>
<path opacity="0.33" d="M831.281 508.837H827.648V523.866H831.281V508.837Z" fill="white"/>
<path opacity="0.33" d="M849.349 508.837H845.716V523.866H849.349V508.837Z" fill="white"/>
<path opacity="0.33" d="M867.417 508.837H863.784V523.866H867.417V508.837Z" fill="white"/>
<path opacity="0.33" d="M885.491 508.837H881.858V523.866H885.491V508.837Z" fill="white"/>
<path opacity="0.33" d="M831.281 540.54H827.648V555.57H831.281V540.54Z" fill="white"/>
<path opacity="0.33" d="M849.349 540.54H845.716V555.57H849.349V540.54Z" fill="white"/>
<path opacity="0.33" d="M867.417 540.54H863.784V555.57H867.417V540.54Z" fill="white"/>
<path opacity="0.33" d="M885.491 540.54H881.858V555.57H885.491V540.54Z" fill="white"/>
<path opacity="0.33" d="M831.281 569.336H827.648V584.365H831.281V569.336Z" fill="white"/>
<path opacity="0.33" d="M849.349 569.336H845.716V584.365H849.349V569.336Z" fill="white"/>
<path opacity="0.33" d="M867.417 569.336H863.784V584.365H867.417V569.336Z" fill="white"/>
<path opacity="0.33" d="M831.281 601.457H827.648V616.486H831.281V601.457Z" fill="white"/>
<path opacity="0.33" d="M849.349 601.457H845.716V616.486H849.349V601.457Z" fill="white"/>
<path opacity="0.33" d="M867.417 601.457H863.784V616.486H867.417V601.457Z" fill="white"/>
<path opacity="0.33" d="M885.491 569.336H881.858V584.365H885.491V569.336Z" fill="white"/>
<path opacity="0.33" d="M1242.13 525.66H1238.42V534.285H1242.13V525.66Z" fill="white"/>
<path opacity="0.33" d="M1242.13 539.586H1238.42V548.212H1242.13V539.586Z" fill="white"/>
</g>
</svg>
