<svg width="88" height="40" viewBox="0 0 88 40" fill="none" xmlns="http://www.w3.org/2000/svg">
<path fill-rule="evenodd" clip-rule="evenodd" d="M53.5417 18.0036C46.0926 13.2069 37.9506 8.67802 30.2696 3.81067C25.0634 0.512319 20.2374 0.481389 17.7862 0.6386C14.7064 0.83597 12.8625 1.09412 11.1688 1.42248C10.1402 1.6222 15.5504 0.617078 22.6738 3.57567C28.2907 5.9085 42.6669 16.7667 55.2385 22.393C66.2447 27.3188 80.3649 24.8173 87.9999 18.6977C82.8258 22.3161 67.6131 27.0637 53.5417 18.0036Z" fill="#224F9E"/>
<path fill-rule="evenodd" clip-rule="evenodd" d="M26.4629 0.233868C28.2901 0.327389 31.5047 0.661542 37.2158 4.29276C41.8836 7.26075 57.9377 17.4758 62.2816 19.2883C70.2114 22.5972 76.6633 20.6137 80.4949 19.0969C78.2661 19.8473 71.5837 20.9815 66.0474 18.4183C60.5921 15.893 44.0288 3.66861 36.8166 1.22941C31.9406 -0.419759 28.497 -0.0183271 26.4629 0.233868Z" fill="#224F9E"/>
<path fill-rule="evenodd" clip-rule="evenodd" d="M3.59509 21.1334C3.85667 13.1844 8.19248 7.47945 14.2502 4.2522C11.2005 4.18653 9.11686 4.96136 7.98683 5.55005C2.35915 8.89125 0 14.5612 0 20.1695C0 26.3403 4.83851 34.3912 12.8115 36.7233C7.25028 33.3309 3.38129 27.6143 3.59509 21.1334Z" fill="#224F9E"/>
<path fill-rule="evenodd" clip-rule="evenodd" d="M49.6329 33.4487C48.4703 34.2979 46.7777 35.6426 45.8835 36.3018C49.071 35.2051 51.2758 34.1494 52.6566 33.3962C51.629 33.4636 50.6181 33.4766 49.6329 33.4487Z" fill="#224F9E"/>
<path fill-rule="evenodd" clip-rule="evenodd" d="M45.5731 33.1047C43.6964 34.5555 38.3611 38.3506 38.3589 38.3516C40.1207 38.0378 42.4691 37.113 44.1912 35.9807C44.9718 35.4672 46.7961 34.0925 47.8382 33.3526C47.0588 33.2911 46.3015 33.2064 45.5731 33.1047Z" fill="#224F9E"/>
<path fill-rule="evenodd" clip-rule="evenodd" d="M41.329 32.281C39.405 33.4985 36.6907 35.3675 35.1502 36.517C30.6992 39.8381 28.2934 39.6713 27.6689 39.7745C30.4255 39.6196 33.9134 39.3705 35.6575 38.1973C37.824 36.7404 41.2416 34.3117 43.5288 32.7648C42.7447 32.6144 42.0081 32.4498 41.329 32.281Z" fill="#224F9E"/>
<path fill-rule="evenodd" clip-rule="evenodd" d="M37.1042 30.9814C31.2702 34.8542 26.4548 37.5705 22.5968 38.6008C21.297 38.9478 20.0408 39.1428 18.8527 39.228C18.8521 39.228 18.8513 39.228 18.8513 39.228C16.9377 39.4628 14.6346 39.3013 12.6274 39.0399C14.4294 39.5555 16.8916 39.994 20.0435 39.994C20.2694 39.994 24.5548 40.2147 29.1929 37.9475C32.0497 36.5515 35.9704 33.7689 39.1819 31.6864C38.2765 31.4088 37.5677 31.1566 37.1042 30.9814H37.1042Z" fill="#224F9E"/>
</svg>
