<svg width="616" height="280" viewBox="0 0 616 280" fill="none" xmlns="http://www.w3.org/2000/svg">
<g opacity="0.05">
<path fill-rule="evenodd" clip-rule="evenodd" d="M374.792 126.025C322.648 92.4485 265.654 60.7462 211.887 26.6747C175.443 3.58623 141.662 3.36973 124.503 4.4702C102.944 5.85179 90.0372 7.65887 78.1812 9.95734C70.9815 11.3554 108.852 4.31955 158.717 25.0297C198.035 41.3595 298.668 117.367 386.67 156.751C463.712 191.231 562.554 173.721 615.999 130.884C579.78 156.213 473.292 189.446 374.792 126.025Z" fill="#FCFCFC"/>
<path fill-rule="evenodd" clip-rule="evenodd" d="M185.24 1.63708C198.03 2.29172 220.532 4.6308 260.51 30.0493C293.185 50.8252 405.564 122.33 435.971 135.018C491.48 158.18 536.643 144.296 563.464 133.679C547.862 138.931 501.086 146.87 462.331 128.928C424.145 111.251 308.201 25.6803 257.716 8.60585C223.584 -2.93831 199.479 -0.12829 185.24 1.63708Z" fill="#FCFCFC"/>
<path fill-rule="evenodd" clip-rule="evenodd" d="M25.1657 147.934C26.9967 92.2912 57.3474 52.3564 99.7515 29.7657C78.4038 29.3059 63.818 34.7298 55.9078 38.8506C16.514 62.239 0 101.928 0 141.187C0 184.383 33.8696 240.738 89.6802 257.063C50.752 233.316 23.669 193.3 25.1657 147.934Z" fill="#FCFCFC"/>
<path fill-rule="evenodd" clip-rule="evenodd" d="M347.43 234.142C339.292 240.086 327.444 249.499 321.184 254.113C343.497 246.437 358.93 239.046 368.596 233.774C361.403 234.246 354.326 234.337 347.43 234.142Z" fill="#FCFCFC"/>
<path fill-rule="evenodd" clip-rule="evenodd" d="M319.012 231.733C305.875 241.888 268.528 268.454 268.513 268.461C280.845 266.264 297.283 259.791 309.338 251.864C314.802 248.27 327.573 238.647 334.868 233.468C329.411 233.037 324.111 232.445 319.012 231.733Z" fill="#FCFCFC"/>
<path fill-rule="evenodd" clip-rule="evenodd" d="M289.303 225.967C275.835 234.49 256.835 247.573 246.052 255.619C214.895 278.867 198.054 277.7 193.683 278.421C212.979 277.337 237.394 275.594 249.603 267.381C264.768 257.183 288.691 240.182 304.701 229.354C299.213 228.301 294.057 227.149 289.303 225.967Z" fill="#FCFCFC"/>
<path fill-rule="evenodd" clip-rule="evenodd" d="M259.73 216.87C218.892 243.979 185.184 262.994 158.178 270.206C149.079 272.635 140.286 274 131.969 274.596C131.965 274.596 131.959 274.596 131.959 274.596C118.564 276.24 102.442 275.109 88.3916 273.279C101.006 276.888 118.241 279.958 140.304 279.958C141.886 279.958 171.883 281.503 204.35 265.633C224.348 255.86 251.793 236.382 274.273 221.805C267.936 219.861 262.974 218.096 259.729 216.87H259.73Z" fill="#FCFCFC"/>
</g>
</svg>
