<?xml version="1.0" encoding="utf-8"?>
<!-- Generator: Adobe Illustrator 18.0.0, SVG Export Plug-In . SVG Version: 6.00 Build 0)  -->
<!DOCTYPE svg PUBLIC "-//W3C//DTD SVG 1.1//EN" "http://www.w3.org/Graphics/SVG/1.1/DTD/svg11.dtd" [
	<!ENTITY ns_extend "http://ns.adobe.com/Extensibility/1.0/">
	<!ENTITY ns_ai "http://ns.adobe.com/AdobeIllustrator/10.0/">
	<!ENTITY ns_graphs "http://ns.adobe.com/Graphs/1.0/">
	<!ENTITY ns_vars "http://ns.adobe.com/Variables/1.0/">
	<!ENTITY ns_imrep "http://ns.adobe.com/ImageReplacement/1.0/">
	<!ENTITY ns_sfw "http://ns.adobe.com/SaveForWeb/1.0/">
	<!ENTITY ns_custom "http://ns.adobe.com/GenericCustomNamespace/1.0/">
	<!ENTITY ns_adobe_xpath "http://ns.adobe.com/XPath/1.0/">
]>
<svg version="1.1" id="Слой_1" xmlns:x="&ns_extend;" xmlns:i="&ns_ai;" xmlns:graph="&ns_graphs;"
	 xmlns="http://www.w3.org/2000/svg" xmlns:xlink="http://www.w3.org/1999/xlink" x="0px" y="0px" width="1839.3px" height="127px"
	 viewBox="0 0 1839.3 127" enable-background="new 0 0 1839.3 127" xml:space="preserve">
<metadata>
	<sfw  xmlns="&ns_sfw;">
		<slices></slices>
		<sliceSourceBounds  height="8310.9" width="10001" x="-9088" y="-55.9" bottomLeftOrigin="true"></sliceSourceBounds>
	</sfw>
</metadata>
<g>
	<circle fill="none" stroke="#1A1A1A" stroke-width="2" stroke-miterlimit="10" cx="6.6" cy="6.3" r="4.9"/>
	<line fill="none" stroke="#1A1A1A" stroke-width="2" stroke-miterlimit="10" x1="10.5" y1="10" x2="13.6" y2="13.1"/>
</g>
<g>
	<line fill="none" stroke="#FFFFFF" stroke-width="2" stroke-miterlimit="10" x1="41" y1="1.5" x2="53" y2="13.5"/>
	<line fill="none" stroke="#FFFFFF" stroke-width="2" stroke-miterlimit="10" x1="41" y1="12.8" x2="52.3" y2="1.5"/>
</g>
<path d="M113.8,11.5c0-1.8-1.4-3.2-3.2-3.2c-0.6,0-1.1,0.1-1.6,0.4V6.8c0-0.1,0-0.1,0-0.2c0-1.8-1.4-3.2-3.2-3.2
	c-0.6,0-1.1,0.2-1.6,0.4C104,2.2,102.6,1,101,1s-3,1.2-3.2,2.8c-0.5-0.3-1-0.4-1.6-0.4c-1.8,0-3.2,1.4-3.2,3.2v10.1
	c-0.8-0.7-1.8-1.1-2.9-1.1c-1,0-1.9,0.9-1.9,1.9v14.3c0,3.8,1.7,7.2,4.3,9.6l0.1,0.1c0.1,0.1,0.3,0.2,0.4,0.3l1.6,1.1
	c0.6,0.4,1.3,0.7,2,1c0.1,0,0.2,0.1,0.3,0.1c0.3,0,0.7-0.2,0.8-0.5c0.2-0.4-0.1-0.9-0.5-1.1c-0.2-0.1-0.5-0.2-0.7-0.3l0,0
	c0,0,0,0-0.1,0c-1-0.4-1.9-1-2.7-1.8c-0.1,0-0.1-0.1-0.2-0.1c-2.3-2.1-3.7-5-3.7-8.4V20.2v-2.7c0-0.2,0.1-0.3,0.3-0.3
	c1.6,0,2.9,1.3,2.9,2.9v6.3c0,0.4,0.4,0.8,0.8,0.8l0,0c0.9,0,0.8-1,0.8-1.6v-19c0-0.9,0.7-1.6,1.6-1.6s1.6,0.7,1.6,1.6
	c0,0.1,0,0.1,0,0.2v14.3c0,0.4,0.4,0.8,0.8,0.8l0,0l0,0c0.4,0,0.8-0.4,0.8-0.8V4.4l0,0V4.3c0-0.9,0.7-1.6,1.6-1.6s1.6,0.7,1.6,1.6
	v0.1l0,0v2.1c0,0.1,0,0.1,0,0.2s0,0.1,0,0.2v14.3c0,0.4,0.4,0.8,0.8,0.8s0.8-0.4,0.8-0.8V6.5c0.1-0.8,0.8-1.5,1.6-1.5
	c0.9,0,1.6,0.7,1.6,1.6v0.1v15.8c0,0.4,0.3,0.8,0.8,0.8l0,0l0,0l0,0c0.4,0,0.8-0.4,0.8-0.8V11.6l0,0v-0.1c0-0.9,0.7-1.6,1.6-1.6
	s1.6,0.7,1.6,1.6v0.1v20.3c0,3.2-1.3,6.1-3.5,8.1c-0.1,0-0.1,0.1-0.2,0.1c-1.1,1-2.4,1.8-3.8,2.3c-0.4,0.2-0.6,0.6-0.5,1.1
	c0.1,0.3,0.4,0.5,0.8,0.5c0.1,0,0.2,0,0.3-0.1c0.7-0.3,1.4-0.6,2-1l1.6-1.1c0.2-0.2,0.5-0.4,0.7-0.6c0,0,0,0,0.1-0.1
	c2.5-2.3,4.1-5.7,4.1-9.4L113.8,11.5C113.8,11.6,113.8,11.5,113.8,11.5z"/>
<g>
	<line fill="none" stroke="#1F235C" stroke-miterlimit="10" x1="148.1" y1="2.1" x2="160.4" y2="14.4"/>
	<line fill="none" stroke="#1F235C" stroke-miterlimit="10" x1="160.4" y1="2.1" x2="148.1" y2="14.4"/>
</g>
<g>
	<g>
		<g>
			<circle fill="none" stroke="#FFFFFF" stroke-width="2" stroke-miterlimit="10" cx="213.1" cy="18.8" r="8.7"/>
			<line fill="none" stroke="#FFFFFF" stroke-width="2" stroke-miterlimit="10" x1="220" y1="25.3" x2="225.5" y2="30.9"/>
		</g>
		<line fill="none" stroke="#FFFFFF" stroke-width="2" stroke-miterlimit="10" x1="209" y1="19" x2="217" y2="19"/>
	</g>
</g>
<g>
	<g>
		<g>
			<g>
				<path fill="#2F3488" d="M263.5,16.3h-0.8V8.7h1.2h0.1h0.1c0.3,0,0.6,0,0.8,0.1s0.5,0.2,0.8,0.3c0.3,0.2,0.5,0.4,0.6,0.8
					c0.1,0.3,0.2,0.6,0.2,1l0,0l0,0c0,0.3-0.1,0.6-0.2,0.8c-0.1,0.3-0.3,0.5-0.5,0.7s-0.5,0.3-0.7,0.4s-0.5,0.1-0.8,0.1h-0.1h-0.1
					h-0.6V16.3z M263.5,12.2h0.6c0.5,0,0.9-0.1,1.2-0.3s0.5-0.5,0.5-1.1s-0.2-1-0.6-1.1s-0.8-0.2-1.3-0.2l0,0l0,0h-0.3v2.7
					C263.6,12.2,263.5,12.2,263.5,12.2z"/>
				<path fill="#2F3488" d="M267.7,8.7h1.4c0.6,0,1.1,0.1,1.6,0.2c0.5,0.1,0.9,0.4,1.4,0.7c0.4,0.4,0.8,0.8,1,1.3s0.3,1,0.3,1.6
					c0,0.5-0.1,1.1-0.3,1.5c-0.2,0.5-0.5,0.9-0.9,1.3c-0.4,0.4-0.9,0.7-1.4,0.8s-1,0.2-1.6,0.2h-1.4V8.7H267.7z M269.2,15.5
					c0.5,0,0.9,0,1.3-0.1s0.8-0.3,1.1-0.6c0.3-0.3,0.5-0.6,0.7-1s0.2-0.8,0.2-1.2s-0.1-0.8-0.2-1.2c-0.2-0.4-0.4-0.7-0.7-1
					c-0.3-0.3-0.7-0.5-1.1-0.6s-0.8-0.1-1.2-0.1h-0.6v6h0.5L269.2,15.5L269.2,15.5z"/>
				<path fill="#2F3488" d="M275.3,9.5v2.2h2.5v0.8h-2.5v3.7h-0.8V8.7h3.4v0.8H275.3z"/>
			</g>
		</g>
		<path fill="none" stroke="#2F3488" stroke-width="2" stroke-linecap="round" stroke-linejoin="round" stroke-miterlimit="10" d="
			M257,44h27.9c0.6,0,1.1-1.6,1.1-2.6V2.1c0-1-0.5-1.1-1.1-1.1H257c-0.6,0-1,0.1-1,1.1v39.3C256,42.4,256.4,44,257,44z"/>
		
			<line fill="none" stroke="#2F3488" stroke-width="2" stroke-linecap="round" stroke-linejoin="round" stroke-miterlimit="10" x1="263" y1="24" x2="279" y2="24"/>
		
			<line fill="none" stroke="#2F3488" stroke-width="2" stroke-linecap="round" stroke-linejoin="round" stroke-miterlimit="10" x1="263" y1="29" x2="279" y2="29"/>
		
			<line fill="none" stroke="#2F3488" stroke-width="2" stroke-linecap="round" stroke-linejoin="round" stroke-miterlimit="10" x1="263" y1="34" x2="271" y2="34"/>
	</g>
</g>
<g id="Lozenge_2_">
	<g>
		<path fill="#FFFFFF" d="M906,12.8V9.9c0-2.4,0-4.4,0-4.4s0-2-0.9-2.8c-1.1-1.2-2.4-1.2-2.9-1.3c-4-0.3-10.1-0.3-10.1-0.3l0,0
			c0,0-6,0.1-10.1,0.3c-0.6,0.1-1.8,0.1-2.9,1.3c-0.9,0.9-1.1,2.9-1.1,2.9s-0.1,2-0.1,4.4v2.9c0,2.4,0.1,4.4,0.1,4.4s0.2,2,1.1,2.9
			c1.1,1.2,2.5,1.1,3.2,1.3c2.3,0.2,9.8,0.3,9.8,0.3s6,0,10.1-0.3c0.6-0.1,1.9-0.1,3-1.2c0.9-0.9,0.9-2.9,0.9-2.9S906,15.2,906,12.8
			z M890,15.8V7l7.3,4.1L890,15.8z"/>
	</g>
</g>
<path fill="#FFFFFF" d="M657.2,12.3l-3.3-0.2V24H649V12h-3V8.2h3.2l0.1-2.6c0-3.4,1-5.6,5-5.6h3.7v4h-2.5c-1.6,0-1.6,0.7-1.6,1.8V8
	h3.7L657.2,12.3z"/>
<path fill="#FFFFFF" d="M743.2,7.5v0.7c0,7-5.3,15-15,15c-3,0-5.7-0.9-8.1-2.4c0.4,0,0.8,0.1,1.3,0.1c2.5,0,4.7-0.8,6.5-2.2
	c-2.3,0-4.2-1.6-4.9-3.7c0.3,0.1,0.6,0.1,1,0.1c0.5,0,0.9-0.1,1.3-0.2c-2.4-0.5-4.3-2.6-4.3-5.2V9.6c1,0.4,1.6,0.6,2.5,0.7
	c-1.4-0.9-2.3-2.5-2.3-4.4c0-1,0.3-1.9,0.7-2.6c2.6,3.2,6.5,5.3,10.8,5.5c-0.1-0.4-0.1-0.8-0.1-1.2c0-2.9,2.4-5.3,5.3-5.3
	c1.5,0,2.9,0.6,3.8,1.7c1.2-0.2,2.3-0.7,3.3-1.3c-0.4,1.2-1.2,2.3-2.3,2.9c1.1-0.1,2.1-0.4,3-0.8C745.1,5.8,744.2,6.8,743.2,7.5z"/>
<path fill="#FFFFFF" d="M573.6,2c3,0,6,2.1,6,5c0,2.5-0.9,3.5-2.7,4.6c0.2,0.1,1.2,0.5,1.6,0.6c0.6,0.3,0.9,0.6,1.3,1
	c1,1.1,1.6,1.9,1.6,3.6c0,3.9-4.1,6.2-7.7,6.2H566V2H573.6z M571,8v1.3c3,0,3.9-0.1,3.9-1.3c0-2.4-0.9-2.6-3.9-2.6v3.2V8z M571,18.9
	c0,0,5.1,0.1,5.1-2.4c0-2.6-2.1-2.5-5.1-2.5V18.9L571,18.9z"/>
<path fill="#FFFFFF" d="M803.7,0h17.9c1.7,0,3.8,1.1,3.8,2.8v17.9c0,1.7-2.1,3.4-4.1,4.2h-17.9c-1.4-0.7-2.8-2.1-2.8-3.8v-18
	C800.6,1.4,802,0,803.7,0L803.7,0z M819.6,2.8L819.6,2.8c-0.6,0-1.5,0.9-1.5,1.5v1.5c0,0.6,0.9,1.5,1.5,1.5h1.5
	c0.6,0,1.5-0.9,1.5-1.5V4.2c0-0.6-0.9-1.5-1.5-1.5h-1.5V2.8z M822.6,10.1L822.6,10.1h-1.5c0.2,0.7,0,0.8,0,1.5
	c0,4.5-4.2,7.9-8.4,7.9c-4.1,0-7.5-2-7.5-7.3c0-0.7-0.5-1.5-0.3-2.1l-1.6,0.1v10.2c0,0.5,1,1.5,1.6,1.5h16.2c0.5,0,1.5-0.9,1.5-1.5
	V10.1L822.6,10.1z M812.7,7.3L812.7,7.3c-2.7,0-4.9,1.7-4.9,4.3c0,3.8,2.2,5.1,4.9,5.1s5.4-1.4,5.4-5.1
	C818.1,8.6,815.4,7.3,812.7,7.3L812.7,7.3z"/>
<g>
	<path fill="#00285E" d="M1117.2,7.4c-3.1-1.1-5.2-4.2-5.2-7.5V21h15C1127,14.8,1122.9,9.5,1117.2,7.4z"/>
</g>
<g>
	<path fill="#00285E" d="M1195,10L1195,10h10V0l0,0C1205,5.5,1200.5,10,1195,10z"/>
</g>
<g>
	<path fill="#00285E" d="M1117.2,65.5c-3.1,1.1-5.2,4.1-5.2,7.5V52h15C1127,58,1122.9,63.5,1117.2,65.5z"/>
</g>
<g>
	<path fill="#00285E" d="M1205,39L1205,39h-10V29l0,0C1195,34.5,1199.5,39,1205,39z"/>
</g>
<polyline fill="none" stroke="#000000" stroke-width="3" stroke-miterlimit="10" points="996.7,25.9 989.4,18.5 996.3,11.6 "/>
<polyline fill="none" stroke="#000000" stroke-width="3" stroke-miterlimit="10" points="1044.3,11.6 1051.6,19 1044.7,25.9 "/>
<g>
	<circle fill="none" stroke="#1F235C" stroke-width="2" stroke-miterlimit="10" cx="1262.1" cy="6.2" r="4.9"/>
	<line fill="none" stroke="#1F235C" stroke-width="2" stroke-miterlimit="10" x1="1266" y1="9.8" x2="1269.1" y2="13"/>
</g>
<path fill="#000813" d="M1298,10h0.3h9.7V0l0,0C1308,5.5,1303.5,10,1298,10z"/>
<g>
	<path fill="#000813" d="M1307,39L1307,39h-10V29l0,0C1297,34.5,1301.5,39,1307,39z"/>
</g>
<polyline fill="none" stroke="#FFFFFF" stroke-miterlimit="10" points="1379.7,14.7 1372.4,7.3 1379.3,0.3 "/>
<polyline fill="none" stroke="#FFFFFF" stroke-miterlimit="10" points="1403.3,0.3 1410.6,7.7 1403.7,14.7 "/>
<g opacity="0.8">
	<circle fill="none" stroke="#FFFFFF" stroke-width="2" stroke-miterlimit="10" cx="1500.8" cy="30" r="28.3"/>
	
		<line fill="none" stroke="#FFFFFF" stroke-width="2" stroke-linecap="round" stroke-miterlimit="10" x1="1521.4" y1="49.4" x2="1541" y2="69"/>
</g>
<polyline fill="none" stroke="#1F235C" stroke-miterlimit="10" points="1379.7,51.7 1372.4,44.3 1379.3,37.3 "/>
<polyline fill="none" stroke="#1F235C" stroke-miterlimit="10" points="1403.3,37.3 1410.6,44.7 1403.7,51.7 "/>
<g>
	<path fill="none" stroke="#FFFFFF" stroke-width="2" stroke-linecap="round" stroke-linejoin="round" stroke-miterlimit="10" d="
		M1636.9,45h27.9c0.6,0,1.2-1.6,1.2-2.6V3.1c0-1-0.6-1.1-1.2-1.1h-27.9c-0.6,0-0.9,0.1-0.9,1.1v39.3C1636,43.4,1636.3,45,1636.9,45z
		"/>
	
		<line fill="none" stroke="#FFFFFF" stroke-width="2" stroke-linecap="round" stroke-linejoin="round" stroke-miterlimit="10" x1="1643" y1="25" x2="1659" y2="25"/>
	
		<line fill="none" stroke="#FFFFFF" stroke-width="2" stroke-linecap="round" stroke-linejoin="round" stroke-miterlimit="10" x1="1643" y1="30" x2="1659" y2="30"/>
	
		<line fill="none" stroke="#FFFFFF" stroke-width="2" stroke-linecap="round" stroke-linejoin="round" stroke-miterlimit="10" x1="1643" y1="35" x2="1651" y2="35"/>
</g>
<polyline fill="none" stroke="#1F235C" stroke-width="2" stroke-miterlimit="10" points="1723,7 1727.5,11.5 1738.5,0.5 "/>
<g>
	<path fill="none" stroke="#2F3488" stroke-width="2" stroke-linecap="round" stroke-linejoin="round" stroke-miterlimit="10" d="
		M1791.3,44h27.9c0.6,0,0.8-1.6,0.8-2.6V2.1c0-1-0.2-1.1-0.8-1.1h-27.9c-0.6,0-1.3,0.1-1.3,1.1v39.3C1790,42.4,1790.7,44,1791.3,44z
		"/>
	
		<line fill="none" stroke="#2F3488" stroke-width="2" stroke-linecap="round" stroke-linejoin="round" stroke-miterlimit="10" x1="1797" y1="16" x2="1813" y2="16"/>
	
		<line fill="none" stroke="#2F3488" stroke-width="2" stroke-linecap="round" stroke-linejoin="round" stroke-miterlimit="10" x1="1797" y1="21" x2="1813" y2="21"/>
	
		<line fill="none" stroke="#2F3488" stroke-width="2" stroke-linecap="round" stroke-linejoin="round" stroke-miterlimit="10" x1="1797" y1="26" x2="1805" y2="26"/>
</g>
<line fill="none" stroke="#00285E" stroke-width="1.0026" stroke-miterlimit="10" x1="1111.9" y1="21" x2="1111.8" y2="3"/>
<line fill="none" stroke="#00285E" stroke-width="1.0026" stroke-miterlimit="10" x1="1111.9" y1="70" x2="1111.8" y2="52"/>
<line fill="none" stroke="#00285E" stroke-width="0.958" stroke-miterlimit="10" x1="1194.7" y1="39" x2="1194.7" y2="31.3"/>
<line fill="none" stroke="#00285E" stroke-width="0.958" stroke-miterlimit="10" x1="1205.4" y1="10" x2="1205.5" y2="2.3"/>
<line fill="none" stroke="#000813" stroke-width="0.958" stroke-miterlimit="10" x1="1296.7" y1="39" x2="1296.7" y2="31.3"/>
<line fill="none" stroke="#000813" stroke-width="0.958" stroke-miterlimit="10" x1="1308.4" y1="10" x2="1308.4" y2="2.3"/>
<g>
	<g>
		<g>
			<path fill="#FFFFFF" d="M493,0.1c0,7.4-3.3,14.6-9.2,19.8l-29.6,26.3c-8.5,7.6-8.5,19.8,0,27.4l29.6,26.3
				c5.9,5.3,9.2,12.4,9.2,19.8V0.1z"/>
		</g>
	</g>
</g>
<g>
	<polygon points="470.4,68.2 468.3,66.1 474.1,60.2 467.9,53.9 470.1,51.8 478.4,60.2 	"/>
</g>
<g>
	<g>
		<g>
			<path fill="#FFFFFF" d="M358,119.9c0-7.4,3.2-14.6,9.1-19.8l29.6-26.3c8.5-7.6,8.5-19.8,0-27.4L367.1,20
				c-5.9-5.3-9.1-12.4-9.1-19.8V119.9z"/>
		</g>
	</g>
</g>
<g>
	<polygon points="380.7,68.2 372.4,59.8 380.4,51.8 382.5,53.9 376.6,59.8 382.8,66.1 	"/>
</g>
<g>
	<path fill="none" stroke="#2F3488" stroke-width="2" stroke-linecap="round" stroke-linejoin="round" stroke-miterlimit="10" d="
		M1636.9,117h27.9c0.6,0,1.2-1.6,1.2-2.6V75.1c0-1-0.6-1.1-1.2-1.1h-27.9c-0.6,0-0.9,0.1-0.9,1.1v39.3
		C1636,115.4,1636.3,117,1636.9,117z"/>
	
		<line fill="none" stroke="#2F3488" stroke-width="2" stroke-linecap="round" stroke-linejoin="round" stroke-miterlimit="10" x1="1643" y1="97" x2="1659" y2="97"/>
	
		<line fill="none" stroke="#2F3488" stroke-width="2" stroke-linecap="round" stroke-linejoin="round" stroke-miterlimit="10" x1="1643" y1="102" x2="1659" y2="102"/>
	
		<line fill="none" stroke="#2F3488" stroke-width="2" stroke-linecap="round" stroke-linejoin="round" stroke-miterlimit="10" x1="1643" y1="107" x2="1651" y2="107"/>
</g>
</svg>
