<svg width="30" height="30" viewBox="0 0 30 30" fill="none" xmlns="http://www.w3.org/2000/svg">
<path d="M17.3417 14.9937L24.5024 7.84958C24.816 7.536 24.9922 7.1107 24.9922 6.66723C24.9922 6.22375 24.816 5.79845 24.5024 5.48487C24.1889 5.17129 23.7635 4.99512 23.3201 4.99512C22.8766 4.99512 22.4513 5.17129 22.1377 5.48487L14.9936 12.6456L7.8495 5.48487C7.53592 5.17129 7.11061 4.99512 6.66714 4.99512C6.22367 4.99512 5.79836 5.17129 5.48478 5.48487C5.1712 5.79845 4.99503 6.22375 4.99503 6.66723C4.99503 7.1107 5.1712 7.536 5.48478 7.84958L12.6455 14.9937L5.48478 22.1378C5.32869 22.2926 5.20481 22.4768 5.12026 22.6797C5.03572 22.8827 4.99219 23.1003 4.99219 23.3202C4.99219 23.54 5.03572 23.7577 5.12026 23.9606C5.20481 24.1635 5.32869 24.3477 5.48478 24.5025C5.63959 24.6586 5.82377 24.7825 6.0267 24.867C6.22964 24.9516 6.4473 24.9951 6.66714 24.9951C6.88698 24.9951 7.10464 24.9516 7.30757 24.867C7.5105 24.7825 7.69469 24.6586 7.8495 24.5025L14.9936 17.3418L22.1377 24.5025C22.2925 24.6586 22.4767 24.7825 22.6796 24.867C22.8826 24.9516 23.1002 24.9951 23.3201 24.9951C23.5399 24.9951 23.7576 24.9516 23.9605 24.867C24.1634 24.7825 24.3476 24.6586 24.5024 24.5025C24.6585 24.3477 24.7824 24.1635 24.867 23.9606C24.9515 23.7577 24.995 23.54 24.995 23.3202C24.995 23.1003 24.9515 22.8827 24.867 22.6797C24.7824 22.4768 24.6585 22.2926 24.5024 22.1378L17.3417 14.9937Z" fill="#FCFCFC"/>
</svg>
