<svg width="16" height="8" viewBox="0 0 16 8" fill="none" xmlns="http://www.w3.org/2000/svg">
<path d="M15.8167 3.55771C15.8165 3.55752 15.8163 3.5573 15.8161 3.55711L12.5504 0.30712C12.3057 0.0636514 11.91 0.0645574 11.6665 0.309244C11.423 0.5539 11.4239 0.949618 11.6686 1.19312L13.8612 3.37511H0.625C0.279813 3.37511 0 3.65493 0 4.00011C0 4.3453 0.279813 4.62511 0.625 4.62511H13.8612L11.6686 6.80711C11.4239 7.05061 11.423 7.44632 11.6665 7.69098C11.91 7.9357 12.3058 7.93654 12.5504 7.69311L15.8162 4.44311C15.8163 4.44292 15.8165 4.44271 15.8167 4.44252C16.0615 4.19821 16.0607 3.80121 15.8167 3.55771Z" fill="#B53A57"/>
</svg>
