<svg width="343" height="229" viewBox="0 0 343 229" fill="none" xmlns="http://www.w3.org/2000/svg">
<path fill-rule="evenodd" clip-rule="evenodd" d="M198.933 51.7603C177.516 37.9699 154.108 24.9493 132.025 10.9557C117.057 1.47292 103.183 1.38399 96.1354 1.83597C87.2808 2.40341 81.9796 3.14561 77.1102 4.08962C74.1532 4.66382 89.7073 1.7741 110.187 10.2801C126.336 16.987 167.667 48.2043 203.811 64.3798C235.454 78.5415 276.049 71.3499 298 53.756C283.124 64.1588 239.388 77.8082 198.933 51.7603Z" fill="#FCFCFC"/>
<path fill-rule="evenodd" clip-rule="evenodd" d="M121.081 0.672372C126.334 0.941244 135.576 1.90194 151.995 12.3417C165.416 20.8747 211.571 50.2429 224.06 55.454C246.858 64.9669 265.407 59.2644 276.423 54.9038C270.015 57.0612 250.803 60.3217 234.886 52.9528C219.202 45.6925 171.583 10.5473 150.848 3.53455C136.829 -1.20681 126.929 -0.0526905 121.081 0.672372Z" fill="#FCFCFC"/>
<path fill-rule="evenodd" clip-rule="evenodd" d="M55.3359 60.7586C56.0879 37.9053 68.5534 21.5034 85.9694 12.2251C77.2016 12.0363 71.211 14.264 67.9622 15.9564C51.7826 25.5624 45 41.8634 45 57.9874C45 75.7286 58.9107 98.8747 81.833 105.58C65.8446 95.8263 54.7212 79.3912 55.3359 60.7586Z" fill="#FCFCFC"/>
<path fill-rule="evenodd" clip-rule="evenodd" d="M187.695 96.1653C184.352 98.6066 179.486 102.473 176.915 104.368C186.079 101.215 192.418 98.1797 196.388 96.0144C193.433 96.2079 190.527 96.2454 187.695 96.1653Z" fill="#FCFCFC"/>
<path fill-rule="evenodd" clip-rule="evenodd" d="M176.023 95.1763C170.627 99.3471 155.288 110.258 155.282 110.261C160.347 109.359 167.099 106.7 172.05 103.445C174.294 101.968 179.539 98.0161 182.535 95.8888C180.294 95.712 178.117 95.4686 176.023 95.1763Z" fill="#FCFCFC"/>
<path fill-rule="evenodd" clip-rule="evenodd" d="M163.821 92.8081C158.289 96.3085 150.486 101.682 146.057 104.987C133.26 114.535 126.344 114.055 124.548 114.352C132.473 113.907 142.501 113.19 147.516 109.817C153.744 105.629 163.57 98.6464 170.145 94.1989C167.891 93.7667 165.773 93.2934 163.821 92.8081Z" fill="#FCFCFC"/>
<path fill-rule="evenodd" clip-rule="evenodd" d="M151.675 89.0718C134.902 100.206 121.058 108.015 109.966 110.977C106.229 111.975 102.617 112.536 99.2015 112.781C99.1999 112.781 99.1977 112.781 99.1977 112.781C93.6958 113.456 87.0747 112.991 81.3038 112.24C86.4847 113.722 93.5635 114.983 102.625 114.983C103.275 114.983 115.595 115.617 128.93 109.099C137.143 105.086 148.415 97.0857 157.648 91.0986C155.045 90.3003 153.007 89.5752 151.675 89.0718H151.675Z" fill="#FCFCFC"/>
<path d="M54.696 167.312C52.152 167.312 50.048 166.472 48.384 164.792C46.736 163.112 45.912 161.048 45.912 158.6C45.912 156.152 46.736 154.088 48.384 152.408C50.048 150.728 52.152 149.888 54.696 149.888C56.232 149.888 57.64 150.256 58.92 150.992C60.216 151.728 61.224 152.72 61.944 153.968L60 155.096C59.52 154.168 58.8 153.432 57.84 152.888C56.896 152.328 55.848 152.048 54.696 152.048C52.76 152.048 51.176 152.672 49.944 153.92C48.728 155.168 48.12 156.728 48.12 158.6C48.12 160.456 48.728 162.008 49.944 163.256C51.176 164.504 52.76 165.128 54.696 165.128C55.848 165.128 56.896 164.856 57.84 164.312C58.8 163.752 59.52 163.016 60 162.104L61.944 163.208C61.24 164.456 60.24 165.456 58.944 166.208C57.648 166.944 56.232 167.312 54.696 167.312ZM74.7182 155V167H72.6302V156.992H66.4142V167H64.3262V155H74.7182ZM79.3605 161.96C79.5685 163.032 80.0565 163.864 80.8245 164.456C81.6085 165.048 82.5685 165.344 83.7045 165.344C85.2885 165.344 86.4405 164.76 87.1605 163.592L88.9365 164.6C87.7685 166.408 86.0085 167.312 83.6565 167.312C81.7525 167.312 80.2005 166.72 79.0005 165.536C77.8165 164.336 77.2245 162.824 77.2245 161C77.2245 159.192 77.8085 157.688 78.9765 156.488C80.1445 155.288 81.6565 154.688 83.5125 154.688C85.2725 154.688 86.7045 155.312 87.8085 156.56C88.9285 157.792 89.4885 159.28 89.4885 161.024C89.4885 161.328 89.4645 161.64 89.4165 161.96H79.3605ZM83.5125 156.656C82.3925 156.656 81.4645 156.976 80.7285 157.616C79.9925 158.24 79.5365 159.08 79.3605 160.136H87.3765C87.2005 159 86.7525 158.136 86.0325 157.544C85.3125 156.952 84.4725 156.656 83.5125 156.656ZM101.969 165.008H103.937V170.216H101.873V167H91.8887V155H93.9767V165.008H99.8807V155H101.969V165.008ZM114.874 155H116.554V167H114.49V158.576L107.842 167H106.162V155H108.226V163.424L114.874 155ZM129.668 155H131.756V167H129.668V164.936C128.628 166.52 127.116 167.312 125.132 167.312C123.452 167.312 122.02 166.704 120.836 165.488C119.652 164.256 119.06 162.76 119.06 161C119.06 159.24 119.652 157.752 120.836 156.536C122.02 155.304 123.452 154.688 125.132 154.688C127.116 154.688 128.628 155.48 129.668 157.064V155ZM125.396 165.296C126.612 165.296 127.628 164.888 128.444 164.072C129.26 163.24 129.668 162.216 129.668 161C129.668 159.784 129.26 158.768 128.444 157.952C127.628 157.12 126.612 156.704 125.396 156.704C124.196 156.704 123.188 157.12 122.372 157.952C121.556 158.768 121.148 159.784 121.148 161C121.148 162.216 121.556 163.24 122.372 164.072C123.188 164.888 124.196 165.296 125.396 165.296ZM144.928 155V167H142.84V157.016H138.112V161.912C138.112 163.88 137.712 165.256 136.912 166.04C136.128 166.808 135.016 167.128 133.576 167V165.032C134.392 165.144 135 164.968 135.4 164.504C135.816 164.024 136.024 163.144 136.024 161.864V155H144.928ZM153.156 159.32C154.356 159.32 155.348 159.68 156.132 160.4C156.932 161.104 157.332 162.024 157.332 163.16C157.332 164.296 156.932 165.224 156.132 165.944C155.348 166.648 154.356 167 153.156 167H148.092V155H150.18V159.32H153.156ZM153.156 165.056C153.748 165.056 154.244 164.888 154.644 164.552C155.06 164.2 155.268 163.736 155.268 163.16C155.268 162.584 155.06 162.12 154.644 161.768C154.244 161.416 153.748 161.24 153.156 161.24H150.18V165.056H153.156ZM167.88 155H169.968V167H167.88V161.984H161.664V167H159.576V155H161.664V159.992H167.88V155ZM183.083 155H185.171V167H183.083V164.936C182.043 166.52 180.531 167.312 178.547 167.312C176.867 167.312 175.435 166.704 174.251 165.488C173.067 164.256 172.475 162.76 172.475 161C172.475 159.24 173.067 157.752 174.251 156.536C175.435 155.304 176.867 154.688 178.547 154.688C180.531 154.688 182.043 155.48 183.083 157.064V155ZM178.811 165.296C180.027 165.296 181.043 164.888 181.859 164.072C182.675 163.24 183.083 162.216 183.083 161C183.083 159.784 182.675 158.768 181.859 157.952C181.043 157.12 180.027 156.704 178.811 156.704C177.611 156.704 176.603 157.12 175.787 157.952C174.971 158.768 174.562 159.784 174.562 161C174.562 162.216 174.971 163.24 175.787 164.072C176.603 164.888 177.611 165.296 178.811 165.296ZM197.31 155V167H195.246V162.68H193.494L190.134 167H187.59L191.094 162.56C190.198 162.336 189.47 161.888 188.91 161.216C188.35 160.544 188.07 159.76 188.07 158.864C188.07 157.76 188.462 156.84 189.246 156.104C190.03 155.368 191.014 155 192.198 155H197.31ZM192.27 160.808H195.246V156.944H192.27C191.678 156.944 191.174 157.12 190.758 157.472C190.342 157.824 190.134 158.296 190.134 158.888C190.134 159.464 190.342 159.928 190.758 160.28C191.174 160.632 191.678 160.808 192.27 160.808ZM50.904 182.688C52.728 182.688 54.2 183.28 55.32 184.464C56.456 185.648 57.024 187.16 57.024 189C57.024 190.824 56.456 192.336 55.32 193.536C54.184 194.72 52.704 195.312 50.88 195.312C49.6 195.312 48.48 195.032 47.52 194.472C46.56 193.896 45.864 193.12 45.432 192.144L47.208 191.112C47.464 191.768 47.904 192.296 48.528 192.696C49.168 193.096 49.952 193.296 50.88 193.296C51.92 193.296 52.792 192.992 53.496 192.384C54.2 191.776 54.648 190.976 54.84 189.984H49.488V188.016H54.84C54.648 187.024 54.208 186.224 53.52 185.616C52.832 185.008 51.968 184.704 50.928 184.704C50.08 184.704 49.336 184.904 48.696 185.304C48.072 185.688 47.608 186.208 47.304 186.864L45.504 185.832C45.984 184.856 46.704 184.088 47.664 183.528C48.624 182.968 49.704 182.688 50.904 182.688ZM69.6501 195H67.0581L61.5861 189.312V195H59.4981V183H61.5861V188.304L66.7701 183H69.4581L63.7221 188.808L69.6501 195ZM80.6183 193.488C79.3863 194.704 77.8903 195.312 76.1303 195.312C74.3703 195.312 72.8743 194.704 71.6423 193.488C70.4263 192.272 69.8183 190.776 69.8183 189C69.8183 187.224 70.4263 185.728 71.6423 184.512C72.8743 183.296 74.3703 182.688 76.1303 182.688C77.8903 182.688 79.3863 183.296 80.6183 184.512C81.8503 185.728 82.4662 187.224 82.4662 189C82.4662 190.776 81.8503 192.272 80.6183 193.488ZM76.1303 193.272C77.3303 193.272 78.3383 192.864 79.1543 192.048C79.9703 191.232 80.3783 190.216 80.3783 189C80.3783 187.784 79.9703 186.768 79.1543 185.952C78.3383 185.136 77.3303 184.728 76.1303 184.728C74.9463 184.728 73.9463 185.136 73.1303 185.952C72.3143 186.768 71.9062 187.784 71.9062 189C71.9062 190.216 72.3143 191.232 73.1303 192.048C73.9463 192.864 74.9463 193.272 76.1303 193.272ZM93.2318 183H95.3198V195H93.2318V189.984H87.0158V195H84.9277V183H87.0158V187.992H93.2318V183ZM108.626 193.488C107.394 194.704 105.898 195.312 104.138 195.312C102.378 195.312 100.882 194.704 99.6501 193.488C98.4341 192.272 97.8261 190.776 97.8261 189C97.8261 187.224 98.4341 185.728 99.6501 184.512C100.882 183.296 102.378 182.688 104.138 182.688C105.898 182.688 107.394 183.296 108.626 184.512C109.858 185.728 110.474 187.224 110.474 189C110.474 190.776 109.858 192.272 108.626 193.488ZM104.138 193.272C105.338 193.272 106.346 192.864 107.162 192.048C107.978 191.232 108.386 190.216 108.386 189C108.386 187.784 107.978 186.768 107.162 185.952C106.346 185.136 105.338 184.728 104.138 184.728C102.954 184.728 101.954 185.136 101.138 185.952C100.322 186.768 99.9141 187.784 99.9141 189C99.9141 190.216 100.322 191.232 101.138 192.048C101.954 192.864 102.954 193.272 104.138 193.272ZM124.936 183V195H122.896V186.288L119.08 192.432H118.816L115 186.288V195H112.936V183H115.168L118.936 189.072L122.704 183H124.936ZM136.835 183H138.515V195H136.451V186.576L129.803 195H128.123V183H130.187V191.424L136.835 183ZM149.253 183H151.341V195H149.253V190.68C148.293 191.096 147.213 191.304 146.013 191.304C144.477 191.304 143.285 190.944 142.437 190.224C141.605 189.488 141.189 188.408 141.189 186.984V183H143.277V186.864C143.277 187.76 143.517 188.4 143.997 188.784C144.493 189.168 145.213 189.36 146.157 189.36C147.293 189.36 148.325 189.152 149.253 188.736V183ZM155.978 189.96C156.186 191.032 156.674 191.864 157.442 192.456C158.226 193.048 159.186 193.344 160.322 193.344C161.906 193.344 163.058 192.76 163.778 191.592L165.554 192.6C164.386 194.408 162.626 195.312 160.274 195.312C158.37 195.312 156.818 194.72 155.618 193.536C154.434 192.336 153.842 190.824 153.842 189C153.842 187.192 154.426 185.688 155.594 184.488C156.762 183.288 158.274 182.688 160.13 182.688C161.89 182.688 163.322 183.312 164.426 184.56C165.546 185.792 166.106 187.28 166.106 189.024C166.106 189.328 166.082 189.64 166.034 189.96H155.978ZM160.13 184.656C159.01 184.656 158.082 184.976 157.346 185.616C156.61 186.24 156.154 187.08 155.978 188.136H163.994C163.818 187 163.37 186.136 162.65 185.544C161.93 184.952 161.09 184.656 160.13 184.656ZM174.122 195.312C172.314 195.312 170.81 194.712 169.61 193.512C168.41 192.296 167.81 190.792 167.81 189C167.81 187.208 168.41 185.712 169.61 184.512C170.81 183.296 172.314 182.688 174.122 182.688C175.306 182.688 176.37 182.976 177.314 183.552C178.258 184.112 178.962 184.872 179.426 185.832L177.674 186.84C177.37 186.2 176.898 185.688 176.258 185.304C175.634 184.92 174.922 184.728 174.122 184.728C172.922 184.728 171.914 185.136 171.098 185.952C170.298 186.768 169.898 187.784 169.898 189C169.898 190.2 170.298 191.208 171.098 192.024C171.914 192.84 172.922 193.248 174.122 193.248C174.922 193.248 175.642 193.064 176.282 192.696C176.922 192.312 177.41 191.8 177.746 191.16L179.522 192.192C179.01 193.136 178.274 193.896 177.314 194.472C176.354 195.032 175.29 195.312 174.122 195.312ZM191.759 195H189.167L183.695 189.312V195H181.607V183H183.695V188.304L188.879 183H191.567L185.831 188.808L191.759 195ZM202.536 183H204.624V195H202.536V192.936C201.496 194.52 199.984 195.312 198 195.312C196.32 195.312 194.888 194.704 193.704 193.488C192.52 192.256 191.928 190.76 191.928 189C191.928 187.24 192.52 185.752 193.704 184.536C194.888 183.304 196.32 182.688 198 182.688C199.984 182.688 201.496 183.48 202.536 185.064V183ZM198.264 193.296C199.48 193.296 200.496 192.888 201.312 192.072C202.128 191.24 202.536 190.216 202.536 189C202.536 187.784 202.128 186.768 201.312 185.952C200.496 185.12 199.48 184.704 198.264 184.704C197.064 184.704 196.056 185.12 195.24 185.952C194.424 186.768 194.016 187.784 194.016 189C194.016 190.216 194.424 191.24 195.24 192.072C196.056 192.888 197.064 193.296 198.264 193.296ZM216.763 183V195H214.699V190.68H212.947L209.587 195H207.043L210.547 190.56C209.651 190.336 208.923 189.888 208.363 189.216C207.803 188.544 207.523 187.76 207.523 186.864C207.523 185.76 207.915 184.84 208.699 184.104C209.483 183.368 210.467 183 211.651 183H216.763ZM211.723 188.808H214.699V184.944H211.723C211.131 184.944 210.627 185.12 210.211 185.472C209.795 185.824 209.587 186.296 209.587 186.888C209.587 187.464 209.795 187.928 210.211 188.28C210.627 188.632 211.131 188.808 211.723 188.808ZM232.408 188.856C233.736 189.4 234.4 190.352 234.4 191.712C234.4 192.72 234 193.576 233.2 194.28C232.4 194.968 231.264 195.312 229.792 195.312C227.392 195.312 225.784 194.352 224.968 192.432L226.72 191.4C227.184 192.712 228.216 193.368 229.816 193.368C230.616 193.368 231.232 193.2 231.664 192.864C232.112 192.512 232.336 192.064 232.336 191.52C232.336 191.04 232.152 190.648 231.784 190.344C231.432 190.04 230.952 189.888 230.344 189.888H228.592V187.992H229.888C230.496 187.992 230.968 187.848 231.304 187.56C231.64 187.256 231.808 186.848 231.808 186.336C231.808 185.824 231.608 185.408 231.208 185.088C230.824 184.768 230.288 184.608 229.6 184.608C228.256 184.608 227.344 185.176 226.864 186.312L225.16 185.328C226.008 183.568 227.488 182.688 229.6 182.688C230.912 182.688 231.944 183.024 232.696 183.696C233.464 184.368 233.848 185.192 233.848 186.168C233.848 187.384 233.368 188.28 232.408 188.856ZM246.79 193.488C245.558 194.704 244.062 195.312 242.302 195.312C240.542 195.312 239.046 194.704 237.814 193.488C236.598 192.272 235.99 190.776 235.99 189C235.99 187.224 236.598 185.728 237.814 184.512C239.046 183.296 240.542 182.688 242.302 182.688C244.062 182.688 245.558 183.296 246.79 184.512C248.022 185.728 248.638 187.224 248.638 189C248.638 190.776 248.022 192.272 246.79 193.488ZM242.302 193.272C243.502 193.272 244.51 192.864 245.326 192.048C246.142 191.232 246.55 190.216 246.55 189C246.55 187.784 246.142 186.768 245.326 185.952C244.51 185.136 243.502 184.728 242.302 184.728C241.118 184.728 240.118 185.136 239.302 185.952C238.486 186.768 238.078 187.784 238.078 189C238.078 190.216 238.486 191.232 239.302 192.048C240.118 192.864 241.118 193.272 242.302 193.272ZM259.404 183H261.492V195H259.404V189.984H253.188V195H251.1V183H253.188V187.992H259.404V183ZM274.606 183H276.694V195H274.606V192.936C273.566 194.52 272.054 195.312 270.07 195.312C268.39 195.312 266.958 194.704 265.774 193.488C264.59 192.256 263.998 190.76 263.998 189C263.998 187.24 264.59 185.752 265.774 184.536C266.958 183.304 268.39 182.688 270.07 182.688C272.054 182.688 273.566 183.48 274.606 185.064V183ZM270.334 193.296C271.55 193.296 272.566 192.888 273.382 192.072C274.198 191.24 274.606 190.216 274.606 189C274.606 187.784 274.198 186.768 273.382 185.952C272.566 185.12 271.55 184.704 270.334 184.704C269.134 184.704 268.126 185.12 267.31 185.952C266.494 186.768 266.086 187.784 266.086 189C266.086 190.216 266.494 191.24 267.31 192.072C268.126 192.888 269.134 193.296 270.334 193.296ZM46.368 212.032L47.928 206.2H49.728L48.768 212.032H46.368ZM50.088 212.032L51.648 206.2H53.448L52.488 212.032H50.088ZM68.7889 206.2V223H66.5569V208.312H58.8289V223H56.5969V206.2H68.7889ZM82.1138 211H84.2018V223H82.1138V220.936C81.0738 222.52 79.5618 223.312 77.5778 223.312C75.8978 223.312 74.4658 222.704 73.2818 221.488C72.0978 220.256 71.5058 218.76 71.5058 217C71.5058 215.24 72.0978 213.752 73.2818 212.536C74.4658 211.304 75.8978 210.688 77.5778 210.688C79.5618 210.688 81.0738 211.48 82.1138 213.064V211ZM77.8418 221.296C79.0578 221.296 80.0738 220.888 80.8898 220.072C81.7058 219.24 82.1138 218.216 82.1138 217C82.1138 215.784 81.7058 214.768 80.8898 213.952C80.0738 213.12 79.0578 212.704 77.8418 212.704C76.6418 212.704 75.6338 213.12 74.8178 213.952C74.0018 214.768 73.5938 215.784 73.5938 217C73.5938 218.216 74.0018 219.24 74.8178 220.072C75.6338 220.888 76.6418 221.296 77.8418 221.296ZM95.3573 216.832C96.5893 217.344 97.2053 218.272 97.2053 219.616C97.2053 220.608 96.8693 221.424 96.1973 222.064C95.5413 222.688 94.5973 223 93.3653 223H87.3652V211H92.8853C94.0853 211 95.0133 211.304 95.6693 211.912C96.3253 212.504 96.6533 213.288 96.6533 214.264C96.6533 215.416 96.2213 216.272 95.3573 216.832ZM92.7893 212.872H89.4053V216.016H92.7893C94.0053 216.016 94.6133 215.48 94.6133 214.408C94.6133 213.384 94.0053 212.872 92.7893 212.872ZM93.2453 221.104C93.8533 221.104 94.3173 220.96 94.6373 220.672C94.9733 220.384 95.1413 219.976 95.1413 219.448C95.1413 218.952 94.9733 218.568 94.6373 218.296C94.3173 218.008 93.8533 217.864 93.2453 217.864H89.4053V221.104H93.2453ZM109.115 211V223H107.027V213.016H102.299V217.912C102.299 219.88 101.899 221.256 101.099 222.04C100.315 222.808 99.2034 223.128 97.7634 223V221.032C98.5794 221.144 99.1874 220.968 99.5874 220.504C100.003 220.024 100.211 219.144 100.211 217.864V211H109.115ZM122.407 221.488C121.175 222.704 119.679 223.312 117.919 223.312C116.159 223.312 114.663 222.704 113.431 221.488C112.215 220.272 111.607 218.776 111.607 217C111.607 215.224 112.215 213.728 113.431 212.512C114.663 211.296 116.159 210.688 117.919 210.688C119.679 210.688 121.175 211.296 122.407 212.512C123.639 213.728 124.255 215.224 124.255 217C124.255 218.776 123.639 220.272 122.407 221.488ZM117.919 221.272C119.119 221.272 120.127 220.864 120.943 220.048C121.759 219.232 122.167 218.216 122.167 217C122.167 215.784 121.759 214.768 120.943 213.952C120.127 213.136 119.119 212.728 117.919 212.728C116.735 212.728 115.735 213.136 114.919 213.952C114.103 214.768 113.695 215.784 113.695 217C113.695 218.216 114.103 219.232 114.919 220.048C115.735 220.864 116.735 221.272 117.919 221.272ZM136.568 221.008H138.224V226.216H136.16V223H127.16V226.216H125.096V221.008H126.56C127.328 219.952 127.712 218.472 127.712 216.568V211H136.568V221.008ZM128.936 221.008H134.504V212.944H129.776V216.568C129.776 218.36 129.496 219.84 128.936 221.008ZM149.942 211H152.03V223H149.942V220.936C148.902 222.52 147.39 223.312 145.406 223.312C143.726 223.312 142.294 222.704 141.11 221.488C139.926 220.256 139.334 218.76 139.334 217C139.334 215.24 139.926 213.752 141.11 212.536C142.294 211.304 143.726 210.688 145.406 210.688C147.39 210.688 148.902 211.48 149.942 213.064V211ZM145.67 221.296C146.886 221.296 147.902 220.888 148.718 220.072C149.534 219.24 149.942 218.216 149.942 217C149.942 215.784 149.534 214.768 148.718 213.952C147.902 213.12 146.886 212.704 145.67 212.704C144.47 212.704 143.462 213.12 142.646 213.952C141.83 214.768 141.422 215.784 141.422 217C141.422 218.216 141.83 219.24 142.646 220.072C143.462 220.888 144.47 221.296 145.67 221.296ZM161.817 210.688C163.497 210.688 164.929 211.304 166.113 212.536C167.297 213.752 167.889 215.24 167.889 217C167.889 218.76 167.297 220.256 166.113 221.488C164.929 222.704 163.497 223.312 161.817 223.312C159.833 223.312 158.321 222.52 157.281 220.936V227.8H155.193V211H157.281V213.064C158.321 211.48 159.833 210.688 161.817 210.688ZM161.553 221.296C162.753 221.296 163.761 220.888 164.577 220.072C165.393 219.24 165.801 218.216 165.801 217C165.801 215.784 165.393 214.768 164.577 213.952C163.761 213.12 162.753 212.704 161.553 212.704C160.337 212.704 159.321 213.12 158.505 213.952C157.689 214.768 157.281 215.784 157.281 217C157.281 218.216 157.689 219.24 158.505 220.072C159.321 220.888 160.337 221.296 161.553 221.296ZM171.79 206.176L170.23 212.008H168.43L169.39 206.176H171.79ZM175.51 206.176L173.95 212.008H172.15L173.11 206.176H175.51Z" fill="#FCFCFC"/>
</svg>
