<svg width="414" height="210" viewBox="0 0 414 210" fill="none" xmlns="http://www.w3.org/2000/svg">
<path fill-rule="evenodd" clip-rule="evenodd" d="M153.933 51.7603C132.517 37.9699 109.108 24.9493 87.0252 10.9557C72.0573 1.47292 58.1826 1.38399 51.1354 1.83597C42.2809 2.40341 36.9797 3.14561 32.1103 4.08962C29.1533 4.66382 44.7074 1.7741 65.1874 10.2801C81.3359 16.987 122.667 48.2043 158.811 64.3798C190.454 78.5415 231.049 71.3499 253 53.756C238.124 64.1588 194.388 77.8082 153.933 51.7603Z" fill="#FCFCFC"/>
<path fill-rule="evenodd" clip-rule="evenodd" d="M76.0811 0.672372C81.3342 0.941244 90.5761 1.90194 106.996 12.3417C120.416 20.8747 166.571 50.2429 179.06 55.454C201.858 64.9669 220.407 59.2644 231.423 54.9038C225.015 57.0612 205.803 60.3217 189.887 52.9528C174.203 45.6925 126.583 10.5473 105.848 3.53455C91.8295 -1.20681 81.9292 -0.0526905 76.0811 0.672372Z" fill="#FCFCFC"/>
<path fill-rule="evenodd" clip-rule="evenodd" d="M10.3359 60.7586C11.0879 37.9053 23.5534 21.5034 40.9694 12.2251C32.2016 12.0363 26.211 14.264 22.9622 15.9564C6.78255 25.5624 0 41.8634 0 57.9874C0 75.7286 13.9107 98.8747 36.833 105.58C20.8446 95.8263 9.72121 79.3912 10.3359 60.7586Z" fill="#FCFCFC"/>
<path fill-rule="evenodd" clip-rule="evenodd" d="M142.695 96.165C139.352 98.6064 134.486 102.472 131.915 104.368C141.079 101.215 147.418 98.1794 151.388 96.0142C148.433 96.2077 145.527 96.2451 142.695 96.165Z" fill="#FCFCFC"/>
<path fill-rule="evenodd" clip-rule="evenodd" d="M131.023 95.1763C125.627 99.3471 110.289 110.258 110.282 110.261C115.347 109.359 122.099 106.7 127.05 103.445C129.294 101.968 134.539 98.0161 137.535 95.8888C135.294 95.712 133.117 95.4686 131.023 95.1763Z" fill="#FCFCFC"/>
<path fill-rule="evenodd" clip-rule="evenodd" d="M118.821 92.8081C113.29 96.3085 105.486 101.682 101.057 104.987C88.2604 114.535 81.3437 114.055 79.5483 114.352C87.4735 113.907 97.5011 113.19 102.516 109.817C108.744 105.629 118.57 98.6464 125.145 94.1989C122.891 93.7667 120.773 93.2934 118.821 92.8081Z" fill="#FCFCFC"/>
<path fill-rule="evenodd" clip-rule="evenodd" d="M106.675 89.0718C89.902 100.206 76.0577 108.015 64.9659 110.977C61.229 111.975 57.6174 112.536 54.2015 112.781C54.1998 112.781 54.1976 112.781 54.1976 112.781C48.6958 113.456 42.0746 112.991 36.3037 112.24C41.4846 113.722 48.5634 114.983 57.625 114.983C58.2745 114.983 70.595 115.617 83.9297 109.099C92.1429 105.086 103.415 97.0857 112.648 91.0986C110.045 90.3003 108.007 89.5752 106.675 89.0718H106.675Z" fill="#FCFCFC"/>
<path d="M11.312 171.364C8.344 171.364 5.88933 170.384 3.948 168.424C2.02533 166.464 1.064 164.056 1.064 161.2C1.064 158.344 2.02533 155.936 3.948 153.976C5.88933 152.016 8.344 151.036 11.312 151.036C13.104 151.036 14.7467 151.465 16.24 152.324C17.752 153.183 18.928 154.34 19.768 155.796L17.5 157.112C16.94 156.029 16.1 155.171 14.98 154.536C13.8787 153.883 12.656 153.556 11.312 153.556C9.05333 153.556 7.20533 154.284 5.768 155.74C4.34933 157.196 3.64 159.016 3.64 161.2C3.64 163.365 4.34933 165.176 5.768 166.632C7.20533 168.088 9.05333 168.816 11.312 168.816C12.656 168.816 13.8787 168.499 14.98 167.864C16.1 167.211 16.94 166.352 17.5 165.288L19.768 166.576C18.9467 168.032 17.78 169.199 16.268 170.076C14.756 170.935 13.104 171.364 11.312 171.364ZM34.6712 157V171H32.2352V159.324H24.9832V171H22.5472V157H34.6712ZM40.0873 165.12C40.3299 166.371 40.8993 167.341 41.7953 168.032C42.7099 168.723 43.8299 169.068 45.1553 169.068C47.0033 169.068 48.3473 168.387 49.1873 167.024L51.2593 168.2C49.8966 170.309 47.8433 171.364 45.0993 171.364C42.8779 171.364 41.0673 170.673 39.6673 169.292C38.2859 167.892 37.5953 166.128 37.5953 164C37.5953 161.891 38.2766 160.136 39.6393 158.736C41.0019 157.336 42.7659 156.636 44.9313 156.636C46.9846 156.636 48.6553 157.364 49.9433 158.82C51.2499 160.257 51.9033 161.993 51.9033 164.028C51.9033 164.383 51.8753 164.747 51.8193 165.12H40.0873ZM44.9313 158.932C43.6246 158.932 42.5419 159.305 41.6833 160.052C40.8246 160.78 40.2926 161.76 40.0873 162.992H49.4393C49.2339 161.667 48.7113 160.659 47.8713 159.968C47.0313 159.277 46.0513 158.932 44.9313 158.932ZM66.4635 168.676H68.7595V174.752H66.3515V171H54.7035V157H57.1395V168.676H64.0275V157H66.4635V168.676ZM81.5198 157H83.4798V171H81.0718V161.172L73.3158 171H71.3558V157H73.7638V166.828L81.5198 157ZM98.7798 157H101.216V171H98.7798V168.592C97.5665 170.44 95.8025 171.364 93.4878 171.364C91.5278 171.364 89.8572 170.655 88.4758 169.236C87.0945 167.799 86.4038 166.053 86.4038 164C86.4038 161.947 87.0945 160.211 88.4758 158.792C89.8572 157.355 91.5278 156.636 93.4878 156.636C95.8025 156.636 97.5665 157.56 98.7798 159.408V157ZM93.7958 169.012C95.2145 169.012 96.3998 168.536 97.3518 167.584C98.3038 166.613 98.7798 165.419 98.7798 164C98.7798 162.581 98.3038 161.396 97.3518 160.444C96.3998 159.473 95.2145 158.988 93.7958 158.988C92.3958 158.988 91.2198 159.473 90.2678 160.444C89.3158 161.396 88.8398 162.581 88.8398 164C88.8398 165.419 89.3158 166.613 90.2678 167.584C91.2198 168.536 92.3958 169.012 93.7958 169.012ZM116.583 157V171H114.147V159.352H108.631V165.064C108.631 167.36 108.164 168.965 107.231 169.88C106.316 170.776 105.019 171.149 103.339 171V168.704C104.291 168.835 105 168.629 105.467 168.088C105.952 167.528 106.195 166.501 106.195 165.008V157H116.583ZM126.182 162.04C127.582 162.04 128.739 162.46 129.654 163.3C130.587 164.121 131.054 165.195 131.054 166.52C131.054 167.845 130.587 168.928 129.654 169.768C128.739 170.589 127.582 171 126.182 171H120.274V157H122.71V162.04H126.182ZM126.182 168.732C126.872 168.732 127.451 168.536 127.918 168.144C128.403 167.733 128.646 167.192 128.646 166.52C128.646 165.848 128.403 165.307 127.918 164.896C127.451 164.485 126.872 164.28 126.182 164.28H122.71V168.732H126.182ZM143.36 157H145.796V171H143.36V165.148H136.108V171H133.672V157H136.108V162.824H143.36V157ZM161.096 157H163.532V171H161.096V168.592C159.883 170.44 158.119 171.364 155.804 171.364C153.844 171.364 152.174 170.655 150.792 169.236C149.411 167.799 148.72 166.053 148.72 164C148.72 161.947 149.411 160.211 150.792 158.792C152.174 157.355 153.844 156.636 155.804 156.636C158.119 156.636 159.883 157.56 161.096 159.408V157ZM156.112 169.012C157.531 169.012 158.716 168.536 159.668 167.584C160.62 166.613 161.096 165.419 161.096 164C161.096 162.581 160.62 161.396 159.668 160.444C158.716 159.473 157.531 158.988 156.112 158.988C154.712 158.988 153.536 159.473 152.584 160.444C151.632 161.396 151.156 162.581 151.156 164C151.156 165.419 151.632 166.613 152.584 167.584C153.536 168.536 154.712 169.012 156.112 169.012ZM177.695 157V171H175.287V165.96H173.243L169.323 171H166.355L170.443 165.82C169.398 165.559 168.548 165.036 167.895 164.252C167.242 163.468 166.915 162.553 166.915 161.508C166.915 160.22 167.372 159.147 168.287 158.288C169.202 157.429 170.35 157 171.731 157H177.695ZM171.815 163.776H175.287V159.268H171.815C171.124 159.268 170.536 159.473 170.051 159.884C169.566 160.295 169.323 160.845 169.323 161.536C169.323 162.208 169.566 162.749 170.051 163.16C170.536 163.571 171.124 163.776 171.815 163.776ZM193.427 156.636C195.555 156.636 197.272 157.327 198.579 158.708C199.904 160.089 200.567 161.853 200.567 164C200.567 166.128 199.904 167.892 198.579 169.292C197.254 170.673 195.527 171.364 193.399 171.364C191.906 171.364 190.599 171.037 189.479 170.384C188.359 169.712 187.547 168.807 187.043 167.668L189.115 166.464C189.414 167.229 189.927 167.845 190.655 168.312C191.402 168.779 192.316 169.012 193.399 169.012C194.612 169.012 195.63 168.657 196.451 167.948C197.272 167.239 197.795 166.305 198.019 165.148H191.775V162.852H198.019C197.795 161.695 197.282 160.761 196.479 160.052C195.676 159.343 194.668 158.988 193.455 158.988C192.466 158.988 191.598 159.221 190.851 159.688C190.123 160.136 189.582 160.743 189.227 161.508L187.127 160.304C187.687 159.165 188.527 158.269 189.647 157.616C190.767 156.963 192.027 156.636 193.427 156.636ZM215.297 171H212.273L205.889 164.364V171H203.453V157H205.889V163.188L211.937 157H215.073L208.381 163.776L215.297 171ZM228.094 169.236C226.656 170.655 224.911 171.364 222.858 171.364C220.804 171.364 219.059 170.655 217.622 169.236C216.203 167.817 215.494 166.072 215.494 164C215.494 161.928 216.203 160.183 217.622 158.764C219.059 157.345 220.804 156.636 222.858 156.636C224.911 156.636 226.656 157.345 228.094 158.764C229.531 160.183 230.25 161.928 230.25 164C230.25 166.072 229.531 167.817 228.094 169.236ZM222.858 168.984C224.258 168.984 225.434 168.508 226.386 167.556C227.338 166.604 227.814 165.419 227.814 164C227.814 162.581 227.338 161.396 226.386 160.444C225.434 159.492 224.258 159.016 222.858 159.016C221.476 159.016 220.31 159.492 219.358 160.444C218.406 161.396 217.93 162.581 217.93 164C217.93 165.419 218.406 166.604 219.358 167.556C220.31 168.508 221.476 168.984 222.858 168.984ZM242.809 157H245.245V171H242.809V165.148H235.557V171H233.121V157H235.557V162.824H242.809V157ZM260.769 169.236C259.332 170.655 257.587 171.364 255.533 171.364C253.48 171.364 251.735 170.655 250.297 169.236C248.879 167.817 248.169 166.072 248.169 164C248.169 161.928 248.879 160.183 250.297 158.764C251.735 157.345 253.48 156.636 255.533 156.636C257.587 156.636 259.332 157.345 260.769 158.764C262.207 160.183 262.925 161.928 262.925 164C262.925 166.072 262.207 167.817 260.769 169.236ZM255.533 168.984C256.933 168.984 258.109 168.508 259.061 167.556C260.013 166.604 260.489 165.419 260.489 164C260.489 162.581 260.013 161.396 259.061 160.444C258.109 159.492 256.933 159.016 255.533 159.016C254.152 159.016 252.985 159.492 252.033 160.444C251.081 161.396 250.605 162.581 250.605 164C250.605 165.419 251.081 166.604 252.033 167.556C252.985 168.508 254.152 168.984 255.533 168.984ZM279.797 157V171H277.417V160.836L272.965 168.004H272.657L268.205 160.836V171H265.797V157H268.401L272.797 164.084L277.193 157H279.797ZM293.68 157H295.64V171H293.232V161.172L285.476 171H283.516V157H285.924V166.828L293.68 157ZM308.168 157H310.604V171H308.168V165.96C307.048 166.445 305.788 166.688 304.388 166.688C302.596 166.688 301.205 166.268 300.216 165.428C299.245 164.569 298.76 163.309 298.76 161.648V157H301.196V161.508C301.196 162.553 301.476 163.3 302.036 163.748C302.615 164.196 303.455 164.42 304.556 164.42C305.881 164.42 307.085 164.177 308.168 163.692V157ZM316.013 165.12C316.256 166.371 316.825 167.341 317.721 168.032C318.636 168.723 319.756 169.068 321.081 169.068C322.929 169.068 324.273 168.387 325.113 167.024L327.185 168.2C325.822 170.309 323.769 171.364 321.025 171.364C318.804 171.364 316.993 170.673 315.593 169.292C314.212 167.892 313.521 166.128 313.521 164C313.521 161.891 314.202 160.136 315.565 158.736C316.928 157.336 318.692 156.636 320.857 156.636C322.91 156.636 324.581 157.364 325.869 158.82C327.176 160.257 327.829 161.993 327.829 164.028C327.829 164.383 327.801 164.747 327.745 165.12H316.013ZM320.857 158.932C319.55 158.932 318.468 159.305 317.609 160.052C316.75 160.78 316.218 161.76 316.013 162.992H325.365C325.16 161.667 324.637 160.659 323.797 159.968C322.957 159.277 321.977 158.932 320.857 158.932ZM337.182 171.364C335.073 171.364 333.318 170.664 331.918 169.264C330.518 167.845 329.818 166.091 329.818 164C329.818 161.909 330.518 160.164 331.918 158.764C333.318 157.345 335.073 156.636 337.182 156.636C338.563 156.636 339.805 156.972 340.906 157.644C342.007 158.297 342.829 159.184 343.37 160.304L341.326 161.48C340.971 160.733 340.421 160.136 339.674 159.688C338.946 159.24 338.115 159.016 337.182 159.016C335.782 159.016 334.606 159.492 333.654 160.444C332.721 161.396 332.254 162.581 332.254 164C332.254 165.4 332.721 166.576 333.654 167.528C334.606 168.48 335.782 168.956 337.182 168.956C338.115 168.956 338.955 168.741 339.702 168.312C340.449 167.864 341.018 167.267 341.41 166.52L343.482 167.724C342.885 168.825 342.026 169.712 340.906 170.384C339.786 171.037 338.545 171.364 337.182 171.364ZM357.758 171H354.734L348.35 164.364V171H345.914V157H348.35V163.188L354.398 157H357.534L350.842 163.776L357.758 171ZM370.331 157H372.767V171H370.331V168.592C369.117 170.44 367.353 171.364 365.039 171.364C363.079 171.364 361.408 170.655 360.027 169.236C358.645 167.799 357.955 166.053 357.955 164C357.955 161.947 358.645 160.211 360.027 158.792C361.408 157.355 363.079 156.636 365.039 156.636C367.353 156.636 369.117 157.56 370.331 159.408V157ZM365.347 169.012C366.765 169.012 367.951 168.536 368.903 167.584C369.855 166.613 370.331 165.419 370.331 164C370.331 162.581 369.855 161.396 368.903 160.444C367.951 159.473 366.765 158.988 365.347 158.988C363.947 158.988 362.771 159.473 361.819 160.444C360.867 161.396 360.391 162.581 360.391 164C360.391 165.419 360.867 166.613 361.819 167.584C362.771 168.536 363.947 169.012 365.347 169.012ZM386.929 157V171H384.521V165.96H382.477L378.557 171H375.589L379.677 165.82C378.632 165.559 377.783 165.036 377.129 164.252C376.476 163.468 376.149 162.553 376.149 161.508C376.149 160.22 376.607 159.147 377.521 158.288C378.436 157.429 379.584 157 380.965 157H386.929ZM381.049 163.776H384.521V159.268H381.049C380.359 159.268 379.771 159.473 379.285 159.884C378.8 160.295 378.557 160.845 378.557 161.536C378.557 162.208 378.8 162.749 379.285 163.16C379.771 163.571 380.359 163.776 381.049 163.776ZM9.408 196.832C10.9573 197.467 11.732 198.577 11.732 200.164C11.732 201.34 11.2653 202.339 10.332 203.16C9.39867 203.963 8.07333 204.364 6.356 204.364C3.556 204.364 1.68 203.244 0.728 201.004L2.772 199.8C3.31333 201.331 4.51733 202.096 6.384 202.096C7.31733 202.096 8.036 201.9 8.54 201.508C9.06267 201.097 9.324 200.575 9.324 199.94C9.324 199.38 9.10933 198.923 8.68 198.568C8.26933 198.213 7.70933 198.036 7 198.036H4.956V195.824H6.468C7.17733 195.824 7.728 195.656 8.12 195.32C8.512 194.965 8.708 194.489 8.708 193.892C8.708 193.295 8.47467 192.809 8.008 192.436C7.56 192.063 6.93467 191.876 6.132 191.876C4.564 191.876 3.5 192.539 2.94 193.864L0.952 192.716C1.94133 190.663 3.668 189.636 6.132 189.636C7.66267 189.636 8.86667 190.028 9.744 190.812C10.64 191.596 11.088 192.557 11.088 193.696C11.088 195.115 10.528 196.16 9.408 196.832ZM26.1874 202.236C24.7501 203.655 23.0048 204.364 20.9514 204.364C18.8981 204.364 17.1528 203.655 15.7154 202.236C14.2968 200.817 13.5874 199.072 13.5874 197C13.5874 194.928 14.2968 193.183 15.7154 191.764C17.1528 190.345 18.8981 189.636 20.9514 189.636C23.0048 189.636 24.7501 190.345 26.1874 191.764C27.6248 193.183 28.3434 194.928 28.3434 197C28.3434 199.072 27.6248 200.817 26.1874 202.236ZM20.9514 201.984C22.3514 201.984 23.5274 201.508 24.4794 200.556C25.4314 199.604 25.9074 198.419 25.9074 197C25.9074 195.581 25.4314 194.396 24.4794 193.444C23.5274 192.492 22.3514 192.016 20.9514 192.016C19.5701 192.016 18.4034 192.492 17.4514 193.444C16.4994 194.396 16.0234 195.581 16.0234 197C16.0234 198.419 16.4994 199.604 17.4514 200.556C18.4034 201.508 19.5701 201.984 20.9514 201.984ZM40.9032 190H43.3392V204H40.9032V198.148H33.6512V204H31.2152V190H33.6512V195.824H40.9032V190ZM58.6392 190H61.0752V204H58.6392V201.592C57.4259 203.44 55.6619 204.364 53.3472 204.364C51.3872 204.364 49.7166 203.655 48.3352 202.236C46.9539 200.799 46.2632 199.053 46.2632 197C46.2632 194.947 46.9539 193.211 48.3352 191.792C49.7166 190.355 51.3872 189.636 53.3472 189.636C55.6619 189.636 57.4259 190.56 58.6392 192.408V190ZM53.6552 202.012C55.0739 202.012 56.2592 201.536 57.2112 200.584C58.1632 199.613 58.6392 198.419 58.6392 197C58.6392 195.581 58.1632 194.396 57.2112 193.444C56.2592 192.473 55.0739 191.988 53.6552 191.988C52.2552 191.988 51.0792 192.473 50.1272 193.444C49.1752 194.396 48.6992 195.581 48.6992 197C48.6992 198.419 49.1752 199.613 50.1272 200.584C51.0792 201.536 52.2552 202.012 53.6552 202.012ZM71.514 191.204L73.334 184.4H75.434L74.314 191.204H71.514ZM75.854 191.204L77.674 184.4H79.774L78.654 191.204H75.854ZM97.6717 184.4V204H95.0677V186.864H86.0517V204H83.4477V184.4H97.6717ZM113.217 190H115.653V204H113.217V201.592C112.004 203.44 110.24 204.364 107.925 204.364C105.965 204.364 104.295 203.655 102.913 202.236C101.532 200.799 100.841 199.053 100.841 197C100.841 194.947 101.532 193.211 102.913 191.792C104.295 190.355 105.965 189.636 107.925 189.636C110.24 189.636 112.004 190.56 113.217 192.408V190ZM108.233 202.012C109.652 202.012 110.837 201.536 111.789 200.584C112.741 199.613 113.217 198.419 113.217 197C113.217 195.581 112.741 194.396 111.789 193.444C110.837 192.473 109.652 191.988 108.233 191.988C106.833 191.988 105.657 192.473 104.705 193.444C103.753 194.396 103.277 195.581 103.277 197C103.277 198.419 103.753 199.613 104.705 200.584C105.657 201.536 106.833 202.012 108.233 202.012ZM128.668 196.804C130.105 197.401 130.824 198.484 130.824 200.052C130.824 201.209 130.432 202.161 129.648 202.908C128.883 203.636 127.781 204 126.344 204H119.344V190H125.784C127.184 190 128.267 190.355 129.032 191.064C129.797 191.755 130.18 192.669 130.18 193.808C130.18 195.152 129.676 196.151 128.668 196.804ZM125.672 192.184H121.724V195.852H125.672C127.091 195.852 127.8 195.227 127.8 193.976C127.8 192.781 127.091 192.184 125.672 192.184ZM126.204 201.788C126.913 201.788 127.455 201.62 127.828 201.284C128.22 200.948 128.416 200.472 128.416 199.856C128.416 199.277 128.22 198.829 127.828 198.512C127.455 198.176 126.913 198.008 126.204 198.008H121.724V201.788H126.204ZM144.719 190V204H142.283V192.352H136.767V198.064C136.767 200.36 136.301 201.965 135.367 202.88C134.453 203.776 133.155 204.149 131.475 204V201.704C132.427 201.835 133.137 201.629 133.603 201.088C134.089 200.528 134.331 199.501 134.331 198.008V190H144.719ZM160.227 202.236C158.789 203.655 157.044 204.364 154.991 204.364C152.937 204.364 151.192 203.655 149.755 202.236C148.336 200.817 147.627 199.072 147.627 197C147.627 194.928 148.336 193.183 149.755 191.764C151.192 190.345 152.937 189.636 154.991 189.636C157.044 189.636 158.789 190.345 160.227 191.764C161.664 193.183 162.382 194.928 162.382 197C162.382 199.072 161.664 200.817 160.227 202.236ZM154.991 201.984C156.391 201.984 157.567 201.508 158.519 200.556C159.471 199.604 159.947 198.419 159.947 197C159.947 195.581 159.471 194.396 158.519 193.444C157.567 192.492 156.391 192.016 154.991 192.016C153.609 192.016 152.443 192.492 151.491 193.444C150.539 194.396 150.062 195.581 150.062 197C150.062 198.419 150.539 199.604 151.491 200.556C152.443 201.508 153.609 201.984 154.991 201.984ZM176.747 201.676H178.679V207.752H176.271V204H165.771V207.752H163.363V201.676H165.071C165.967 200.444 166.415 198.717 166.415 196.496V190H176.747V201.676ZM167.843 201.676H174.339V192.268H168.823V196.496C168.823 198.587 168.497 200.313 167.843 201.676ZM192.35 190H194.786V204H192.35V201.592C191.137 203.44 189.373 204.364 187.058 204.364C185.098 204.364 183.427 203.655 182.046 202.236C180.665 200.799 179.974 199.053 179.974 197C179.974 194.947 180.665 193.211 182.046 191.792C183.427 190.355 185.098 189.636 187.058 189.636C189.373 189.636 191.137 190.56 192.35 192.408V190ZM187.366 202.012C188.785 202.012 189.97 201.536 190.922 200.584C191.874 199.613 192.35 198.419 192.35 197C192.35 195.581 191.874 194.396 190.922 193.444C189.97 192.473 188.785 191.988 187.366 191.988C185.966 191.988 184.79 192.473 183.838 193.444C182.886 194.396 182.41 195.581 182.41 197C182.41 198.419 182.886 199.613 183.838 200.584C184.79 201.536 185.966 202.012 187.366 202.012ZM206.205 189.636C208.165 189.636 209.836 190.355 211.217 191.792C212.598 193.211 213.289 194.947 213.289 197C213.289 199.053 212.598 200.799 211.217 202.236C209.836 203.655 208.165 204.364 206.205 204.364C203.89 204.364 202.126 203.44 200.913 201.592V209.6H198.477V190H200.913V192.408C202.126 190.56 203.89 189.636 206.205 189.636ZM205.897 202.012C207.297 202.012 208.473 201.536 209.425 200.584C210.377 199.613 210.853 198.419 210.853 197C210.853 195.581 210.377 194.396 209.425 193.444C208.473 192.473 207.297 191.988 205.897 191.988C204.478 191.988 203.293 192.473 202.341 193.444C201.389 194.396 200.913 195.581 200.913 197C200.913 198.419 201.389 199.613 202.341 200.584C203.293 201.536 204.478 202.012 205.897 202.012ZM217.84 184.372L216.02 191.176H213.92L215.04 184.372H217.84ZM222.18 184.372L220.36 191.176H218.26L219.38 184.372H222.18Z" fill="#FCFCFC"/>
</svg>
