<svg width="32" height="32" viewBox="0 0 32 32" fill="none" xmlns="http://www.w3.org/2000/svg">
<path d="M16.792 21.5861H17.4587C17.7631 21.5913 18.0655 21.5358 18.3482 21.4229C18.631 21.31 18.8884 21.1419 19.1055 20.9285C19.3226 20.715 19.4951 20.4605 19.6128 20.1797C19.7305 19.899 19.7911 19.5975 19.7911 19.2931C19.7911 18.9886 19.7305 18.6872 19.6128 18.4064C19.4951 18.1257 19.3226 17.8711 19.1055 17.6577C18.8884 17.4443 18.631 17.2762 18.3482 17.1633C18.0655 17.0504 17.7631 16.9949 17.4587 17.0001H16.792V21.5861Z" fill="#224F9E"/>
<path d="M16 1C13.0333 1 10.1332 1.87973 7.66646 3.52796C5.19972 5.17618 3.27713 7.51886 2.14181 10.2597C1.0065 13.0006 0.709449 16.0166 1.28823 18.9263C1.86701 21.8361 3.29562 24.5088 5.39341 26.6066C7.49119 28.7044 10.1639 30.133 13.0737 30.7118C15.9834 31.2906 18.9994 30.9935 21.7403 29.8582C24.4812 28.7229 26.8238 26.8003 28.4721 24.3335C30.1203 21.8668 31 18.9667 31 16C31 14.0302 30.612 12.0796 29.8582 10.2597C29.1044 8.43986 27.9995 6.78628 26.6066 5.3934C25.2137 4.00052 23.5601 2.89563 21.7403 2.14181C19.9204 1.38799 17.9698 1 16 1ZM17.4613 15C18.0296 14.9929 18.5936 15.0987 19.1207 15.3113C19.6478 15.5239 20.1274 15.839 20.5317 16.2383C20.9361 16.6376 21.2571 17.1133 21.4762 17.6377C21.6953 18.162 21.8082 18.7247 21.8082 19.293C21.8082 19.8613 21.6953 20.424 21.4762 20.9483C21.2571 21.4727 20.9361 21.9484 20.5317 22.3477C20.1274 22.747 19.6478 23.0621 19.1207 23.2747C18.5936 23.4873 18.0296 23.5931 17.4613 23.586H16.7947V25.7333C16.7947 25.9985 16.6893 26.2529 16.5018 26.4404C16.3142 26.628 16.0599 26.7333 15.7947 26.7333C15.5295 26.7333 15.2751 26.628 15.0876 26.4404C14.9 26.2529 14.7947 25.9985 14.7947 25.7333V23.586H14.128C12.9897 23.5848 11.8984 23.132 11.0935 22.3271C10.2886 21.5223 9.83591 20.4309 9.83468 19.2927C9.83468 19.0274 9.94003 18.7731 10.1276 18.5856C10.3151 18.398 10.5695 18.2927 10.8347 18.2927C11.0999 18.2927 11.3542 18.398 11.5418 18.5856C11.7293 18.7731 11.8347 19.0274 11.8347 19.2927C11.8354 19.9007 12.0772 20.4836 12.5072 20.9135C12.9371 21.3434 13.52 21.5853 14.128 21.586H14.7947V17H14.128C13.5597 17.0071 12.9957 16.9013 12.4687 16.6887C11.9416 16.4761 11.462 16.161 11.0576 15.7617C10.6533 15.3624 10.3322 14.8867 10.1131 14.3623C9.89401 13.838 9.78118 13.2753 9.78118 12.707C9.78118 12.1387 9.89401 11.576 10.1131 11.0517C10.3322 10.5273 10.6533 10.0516 11.0576 9.6523C11.462 9.25295 11.9416 8.93786 12.4687 8.72529C12.9957 8.51273 13.5597 8.40692 14.128 8.414H14.7947V6.26666C14.7947 6.00145 14.9 5.7471 15.0876 5.55956C15.2751 5.37202 15.5295 5.26667 15.7947 5.26667C16.0599 5.26667 16.3142 5.37202 16.5018 5.55956C16.6893 5.7471 16.7947 6.00145 16.7947 6.26666V8.414H17.4613C18.5996 8.41523 19.6909 8.86796 20.4958 9.67285C21.3007 10.4777 21.7534 11.569 21.7547 12.7073C21.7547 12.9725 21.6493 13.2269 21.4618 13.4144C21.2743 13.602 21.0199 13.7073 20.7547 13.7073C20.4895 13.7073 20.2351 13.602 20.0476 13.4144C19.86 13.2269 19.7547 12.9725 19.7547 12.7073C19.754 12.0993 19.5121 11.5164 19.0822 11.0865C18.6523 10.6565 18.0694 10.4147 17.4613 10.414H16.7947V15H17.4613Z" fill="#224F9E"/>
<path d="M11.83 12.7074C11.8307 13.3154 12.0726 13.8982 12.5025 14.328C12.9325 14.7578 13.5154 14.9995 14.1233 15.0001H14.79V10.4141H14.1233C13.5153 10.4148 12.9324 10.6566 12.5025 11.0865C12.0726 11.5165 11.8307 12.0994 11.83 12.7074Z" fill="#224F9E"/>
</svg>
