<svg width="32" height="32" viewBox="0 0 32 32" fill="none" xmlns="http://www.w3.org/2000/svg">
<path d="M16 31C18.9667 31 21.8668 30.1203 24.3335 28.4721C26.8003 26.8238 28.7229 24.4812 29.8582 21.7403C30.9935 18.9994 31.2906 15.9834 30.7118 13.0737C30.133 10.1639 28.7044 7.49119 26.6066 5.39341C24.5088 3.29562 21.8361 1.86701 18.9263 1.28823C16.0166 0.709449 13.0006 1.0065 10.2597 2.14181C7.51886 3.27713 5.17618 5.19972 3.52796 7.66646C1.87973 10.1332 1 13.0333 1 16C1 19.9783 2.58035 23.7936 5.3934 26.6066C8.20644 29.4197 12.0218 31 16 31ZM11.4393 17.8913C11.1741 17.8913 10.9198 17.786 10.7322 17.5985C10.5447 17.4109 10.4393 17.1566 10.4393 16.8913C10.4393 16.6261 10.5447 16.3718 10.7322 16.1842C10.9198 15.9967 11.1741 15.8913 11.4393 15.8913H13.1767V9.41401C13.1767 9.14879 13.282 8.89444 13.4696 8.7069C13.6571 8.51937 13.9114 8.41401 14.1767 8.41401H16.8213C18.0781 8.41401 19.2834 8.91326 20.1721 9.80193C21.0607 10.6906 21.56 11.8959 21.56 13.1527C21.56 14.4094 21.0607 15.6147 20.1721 16.5034C19.2834 17.3921 18.0781 17.8913 16.8213 17.8913H15.1767V19.076H19.5833C19.8485 19.076 20.1029 19.1814 20.2904 19.3689C20.478 19.5564 20.5833 19.8108 20.5833 20.076C20.5833 20.3412 20.478 20.5956 20.2904 20.7831C20.1029 20.9707 19.8485 21.076 19.5833 21.076H15.1767V22.5913C15.1767 22.8566 15.0713 23.1109 14.8838 23.2985C14.6962 23.486 14.4419 23.5913 14.1767 23.5913C13.9114 23.5913 13.6571 23.486 13.4696 23.2985C13.282 23.1109 13.1767 22.8566 13.1767 22.5913V21.076H11.4393C11.1741 21.076 10.9198 20.9707 10.7322 20.7831C10.5447 20.5956 10.4393 20.3412 10.4393 20.076C10.4393 19.8108 10.5447 19.5564 10.7322 19.3689C10.9198 19.1814 11.1741 19.076 11.4393 19.076H13.1767V17.8913H11.4393Z" fill="#224F9E"/>
<path d="M19.5607 13.1527C19.5598 12.4265 19.2709 11.7304 18.7573 11.2169C18.2438 10.7035 17.5475 10.4148 16.8213 10.4141H15.1766V15.8914H16.8213C17.5475 15.8907 18.2438 15.6019 18.7573 15.0885C19.2709 14.5751 19.5598 13.8789 19.5607 13.1527Z" fill="#224F9E"/>
</svg>
