<svg width="32" height="32" viewBox="0 0 32 32" fill="none" xmlns="http://www.w3.org/2000/svg">
<path d="M32 5.33325H0V26.6668H32V5.33325Z" fill="#F0F0F0"/>
<path d="M18 5.33301H14V13.9996H0V17.9996H14V26.6663H18V17.9996H32V13.9996H18V5.33301Z" fill="#D80027"/>
<path d="M24.6114 19.71L31.9999 23.8147V19.71H24.6114Z" fill="#0052B4"/>
<path d="M19.4781 19.71L31.9999 26.6665V24.6993L23.0191 19.71H19.4781Z" fill="#0052B4"/>
<path d="M28.6645 26.6663L19.4781 21.5623V26.6663H28.6645Z" fill="#0052B4"/>
<path d="M19.4781 19.71L31.9999 26.6665V24.6993L23.0191 19.71H19.4781Z" fill="#F0F0F0"/>
<path d="M19.4781 19.71L31.9999 26.6665V24.6993L23.0191 19.71H19.4781Z" fill="#D80027"/>
<path d="M5.64631 19.7097L0 22.8466V19.7097H5.64631Z" fill="#0052B4"/>
<path d="M12.5218 20.5945V26.6664H1.5932L12.5218 20.5945Z" fill="#0052B4"/>
<path d="M8.98081 19.71L0 24.6993V26.6665L12.5218 19.71H8.98081Z" fill="#D80027"/>
<path d="M7.38844 12.2896L0 8.18481V12.2896H7.38844Z" fill="#0052B4"/>
<path d="M12.5218 12.2895L0 5.33301V7.30013L8.98081 12.2895H12.5218Z" fill="#0052B4"/>
<path d="M3.33539 5.33301L12.5218 10.437V5.33301H3.33539Z" fill="#0052B4"/>
<path d="M12.5218 12.2895L0 5.33301V7.30013L8.98081 12.2895H12.5218Z" fill="#F0F0F0"/>
<path d="M12.5218 12.2895L0 5.33301V7.30013L8.98081 12.2895H12.5218Z" fill="#D80027"/>
<path d="M26.3535 12.2897L31.9998 9.15283V12.2897H26.3535Z" fill="#0052B4"/>
<path d="M19.4781 11.4052V5.33325H30.4067L19.4781 11.4052Z" fill="#0052B4"/>
<path d="M23.0191 12.2895L31.9999 7.30013V5.33301L19.4781 12.2895H23.0191Z" fill="#D80027"/>
</svg>
