<?xml version="1.0" standalone="no"?>
<!DOCTYPE svg PUBLIC "-//W3C//DTD SVG 20010904//EN"
 "http://www.w3.org/TR/2001/REC-SVG-20010904/DTD/svg10.dtd">
<svg version="1.0" xmlns="http://www.w3.org/2000/svg"
 width="4608.000000pt" height="4608.000000pt" viewBox="0 0 4608.000000 4608.000000"
 preserveAspectRatio="xMidYMid meet">
<metadata>
Created by potrace 1.14, written by Peter Selinger 2001-2017
</metadata>
<g transform="translate(0.000000,4608.000000) scale(0.100000,-0.100000)"
fill="#000000" stroke="none">
<path d="M16850 31224 c-267 -13 -945 -76 -957 -88 -2 -2 50 -6 114 -10 1083
-63 2261 -477 3648 -1281 257 -149 444 -265 1066 -661 3593 -2284 6487 -4056
8196 -5018 648 -364 1317 -709 1623 -835 2031 -840 4075 -950 6204 -336 347
100 1097 357 1083 372 -2 2 -53 -10 -113 -26 -462 -124 -1005 -213 -1644 -268
-298 -26 -1216 -26 -1510 0 -1123 98 -2001 345 -2872 808 -730 388 -1570 907
-3840 2376 -2008 1298 -2704 1741 -3628 2308 -1624 996 -2862 1665 -3740 2020
-808 327 -1792 554 -2710 625 -139 11 -786 20 -920 14z"/>
<path d="M12595 30983 c-393 -13 -1347 -94 -1875 -159 -300 -36 -1008 -148
-1123 -177 -4 -1 217 -2 490 -2 532 0 672 -8 1123 -61 992 -116 2001 -373
2945 -752 551 -221 1095 -507 2035 -1072 616 -370 1149 -703 2710 -1695 3061
-1945 4575 -2856 6260 -3765 962 -519 2067 -1061 2730 -1340 2691 -1130 6052
-1267 9140 -374 1450 419 2796 1071 3820 1847 58 44 110 85 115 90 11 11 4 8
-157 -95 -877 -557 -2185 -1063 -3513 -1357 -1640 -363 -3314 -436 -4935 -215
-1478 201 -2918 653 -4239 1330 -426 219 -808 441 -1292 752 -1217 780 -2200
1381 -4834 2952 -2357 1406 -3211 1924 -4325 2625 -442 277 -609 377 -852 506
-1294 688 -2715 1011 -4223 962z"/>
<path d="M10385 29483 c-913 -54 -1705 -279 -2277 -646 -1540 -991 -2549
-2486 -2917 -4322 -145 -724 -187 -1503 -115 -2135 127 -1116 615 -2329 1354
-3364 469 -657 1057 -1258 1693 -1730 509 -379 1120 -711 1709 -930 186 -69
436 -150 422 -136 -5 4 -74 49 -154 100 -367 234 -721 502 -1084 819 -168 147
-569 548 -715 716 -961 1101 -1538 2312 -1730 3630 -47 322 -55 451 -56 890 0
500 22 807 90 1250 325 2101 1381 3847 3105 5132 308 229 623 434 980 635
l174 98 -214 -2 c-118 -1 -237 -3 -265 -5z"/>
<path d="M19980 18399 c-1261 -838 -2503 -1577 -3475 -2068 -1345 -680 -2389
-1016 -3490 -1125 -631 -63 -695 -66 -1115 -66 -507 0 -959 29 -1505 95 -193
24 -187 20 67 -44 609 -154 1274 -253 2018 -301 269 -18 1108 -24 1325 -11
1184 74 2318 383 3344 912 470 242 1033 579 1797 1075 279 181 2091 1380 2108
1395 4 4 -79 35 -185 69 -107 34 -294 97 -416 141 -122 43 -228 79 -235 78 -7
0 -114 -68 -238 -150z"/>
<path d="M21825 17948 c-798 -517 -1721 -1153 -2385 -1642 -1094 -806 -1963
-1215 -2805 -1320 l-120 -15 105 5 c346 16 926 67 1250 110 712 93 1239 233
1598 424 143 77 383 241 1792 1220 448 312 977 678 1175 814 198 136 371 255
384 264 24 18 22 19 -165 56 -104 21 -303 65 -443 97 -139 33 -258 59 -265 58
-6 0 -60 -32 -121 -71z"/>
<path d="M23480 17533 c-424 -320 -1227 -905 -2172 -1581 -312 -223 -566 -407
-565 -409 7 -6 336 73 507 122 423 122 823 280 1250 495 448 224 593 319 1490
975 234 171 466 340 517 375 51 36 92 67 93 70 0 3 -107 15 -237 28 -211 19
-604 65 -658 76 -14 3 -82 -43 -225 -151z"/>
<path d="M26440 17559 c-58 -4 -330 -11 -605 -14 l-500 -6 -125 -92 c-69 -51
-312 -236 -540 -411 -228 -176 -511 -393 -628 -483 -118 -90 -211 -163 -207
-163 12 0 368 128 600 215 683 258 1266 512 1835 801 274 140 321 166 290 162
-8 -1 -62 -5 -120 -9z"/>
</g>
</svg>
