<svg width="839" height="440" viewBox="0 0 839 440" fill="none" xmlns="http://www.w3.org/2000/svg">
<path d="M839 220.24V310.793C756.606 296.54 645.853 283.508 516.31 283.508C230.346 283.508 6.06398 347 6.06398 347C-10.5795 311.45 7.86166 209.069 51.268 185.1C94.6789 161.135 132.375 209.069 166.646 191.949C200.917 174.828 168.848 23.4793 221.477 13.7409C274.102 4.00252 307.242 101.377 371.563 101.377C435.888 101.377 426.141 4.00252 501.359 0.107169C576.571 -3.78818 574.585 99.8015 619.831 99.8015C665.076 99.8015 646.731 58.2618 717.655 57.0399C788.582 55.818 808.145 203.648 838.522 219.992C838.683 220.08 838.839 220.162 839 220.24Z" fill="url(#paint0_linear_402_3079)"/>
<g clip-path="url(#clip0_402_3079)">
<mask id="mask0_402_3079" style="mask-type:alpha" maskUnits="userSpaceOnUse" x="246" y="364" width="413" height="30">
<path d="M658.998 378.924C658.998 386.812 566.718 393.208 452.884 393.208C339.049 393.204 246.77 386.812 246.77 378.924C246.77 371.036 339.049 364.64 452.884 364.64C566.718 364.64 658.998 371.036 658.998 378.924Z" fill="url(#paint1_radial_402_3079)"/>
</mask>
<g mask="url(#mask0_402_3079)">
<path d="M658.998 378.924C658.998 386.812 566.718 393.208 452.884 393.208C339.049 393.204 246.77 386.812 246.77 378.924C246.77 371.036 339.049 364.64 452.884 364.64C566.718 364.64 658.998 371.036 658.998 378.924Z" fill="url(#paint2_radial_402_3079)"/>
</g>
</g>
<path d="M369.587 336.018H349.014V375.159H314.011V336.018H242V304.78L308.867 194.383H349.01V308.044H369.583V336.018H369.587ZM314.011 308.044V229.695L268.606 308.044H314.011Z" fill="#DD5071"/>
<path d="M497.609 216.463C506.936 232.772 511.6 255.942 511.6 285.965C511.6 315.991 506.936 339.119 497.609 355.341C488.281 371.567 472.036 379.677 448.87 379.677C425.7 379.677 409.455 371.567 400.132 355.341C390.804 339.115 386.145 315.991 386.145 285.965C386.145 255.942 390.804 232.772 400.136 216.463C409.459 200.153 425.704 192 448.87 192C472.036 192 488.281 200.153 497.609 216.463ZM427.794 333.952C431.222 345.033 438.246 350.574 448.87 350.574C459.49 350.574 466.454 345.037 469.756 333.952C473.062 322.87 474.713 306.877 474.713 285.965C474.713 264.053 473.062 247.827 469.756 237.287C466.45 226.751 459.49 221.481 448.87 221.481C438.246 221.481 431.222 226.751 427.794 237.287C424.362 247.827 422.65 264.053 422.65 285.965C422.653 306.873 424.366 322.87 427.794 333.952Z" fill="#DD5071"/>
<path d="M655.368 336.018H634.795V375.159H599.792V336.018H527.781V304.78L594.648 194.383H634.791V308.044H655.368V336.018ZM599.792 308.044V229.695L554.387 308.044H599.792Z" fill="#DD5071"/>
<path opacity="0.1" d="M404.392 100.156C407.137 90.781 401.768 80.9538 392.4 78.2066C383.032 75.4593 373.212 80.8322 370.467 90.2074C367.722 99.5825 373.09 109.41 382.459 112.157C391.827 114.904 401.647 109.531 404.392 100.156Z" fill="white"/>
<path opacity="0.17" d="M398.546 89.7619C397.908 89.7619 397.317 89.3496 397.117 88.7106C396.49 86.6972 395.116 85.0516 393.249 84.0746C391.386 83.0976 389.247 82.9044 387.239 83.5322C386.449 83.7774 385.61 83.339 385.361 82.5478C385.116 81.7565 385.554 80.917 386.345 80.6681C389.117 79.8025 392.065 80.0663 394.641 81.4185C397.217 82.7669 399.11 85.0404 399.979 87.8191C400.224 88.6103 399.786 89.4499 398.995 89.6988C398.847 89.7396 398.695 89.7619 398.546 89.7619Z" fill="#F78C0D"/>
<path d="M381.121 74.9696C369.966 78.4578 363.749 90.3341 367.234 101.497C370.72 112.66 382.587 118.882 393.742 115.398C404.897 111.91 411.114 100.033 407.632 88.8704C404.143 77.7037 392.276 71.4814 381.121 74.9696ZM392.703 112.069C383.385 114.982 373.471 109.785 370.56 100.457C367.65 91.1327 372.843 81.2105 382.164 78.2981C391.481 75.3857 401.396 80.5827 404.306 89.9106C407.213 99.2347 402.02 109.153 392.703 112.069Z" fill="#D0DAED"/>
<path d="M395.296 114.183L391.781 115.282L396.782 131.302L400.297 130.203L395.296 114.183Z" fill="#D0DAED"/>
<path d="M407.515 159.522C405.27 160.224 402.883 158.973 402.181 156.725L394.494 132.092C394.122 130.9 394.787 129.633 395.975 129.262L399.791 128.069C400.982 127.698 402.248 128.363 402.619 129.551L410.307 154.18C411.012 156.432 409.761 158.82 407.515 159.522Z" fill="url(#paint3_linear_402_3079)"/>
<path d="M409 148.701C409 148.701 401.078 143.812 398.691 141.286C396.301 138.756 395.291 137.609 395.907 137.074C396.524 136.539 403.209 139.485 403.855 138.987C404.501 138.489 403.936 137.256 404.664 136.698C405.392 136.141 409.705 140.592 410.729 140.254C411.747 139.916 410.191 147.913 409 148.701Z" fill="#FFAA9D"/>
<path d="M377.411 239.729L371.605 245.353L356.891 231.723L361.731 223.84L377.411 239.729Z" fill="#FFAA9D"/>
<path d="M372.455 244.524C372.455 244.524 368.405 249.603 367.64 249.614C366.879 249.621 349.889 231.225 350.001 230.635C350.112 230.044 357.529 230.679 357.529 230.679L372.455 244.524Z" fill="url(#paint4_linear_402_3079)"/>
<path d="M360.824 223.019C360.824 223.019 377.836 240.817 378.49 240.817C379.147 240.817 460.329 178.442 460.329 178.442L425.915 163.167C425.918 163.163 382.224 175.184 360.824 223.019Z" fill="url(#paint5_linear_402_3079)"/>
<path d="M437.894 228.354L440.771 235.91L422.459 244.082L417.125 236.523L437.894 228.354Z" fill="#FFAA9D"/>
<path d="M423.242 163.163C423.242 163.163 394.511 169.162 392.02 178.899C389.533 188.635 391.794 199.274 399.711 211.726C407.629 224.178 415.684 237.723 417.343 238.165C417.343 238.165 438.617 229.636 439.1 228.573C439.582 227.511 427.184 198.201 427.184 198.201C427.184 198.201 452.441 196.518 458.335 181.618L423.242 163.163Z" fill="url(#paint6_linear_402_3079)"/>
<path d="M421.236 163.074C420.976 164.768 452.358 184.441 457.914 183.49C463.468 182.539 470.654 159.593 468.668 142.46C466.682 125.328 451.348 112.474 444.354 113.076C437.361 113.674 433.619 120.235 432.665 130.67C431.27 145.975 421.526 161.183 421.236 163.074Z" fill="url(#paint7_linear_402_3079)"/>
<path d="M447.481 115.71C451.182 115.387 463.91 122.857 466.887 144.897C469.864 166.937 457.704 168.787 447.481 167.361C437.262 165.934 411.545 153.307 407.777 148.798C407.777 148.798 406.964 141.699 409.7 139.184C409.7 139.184 434.507 141.71 440.948 143.645C447.388 145.577 433.457 116.932 447.481 115.71Z" fill="url(#paint8_linear_402_3079)"/>
<path d="M440.349 234.803C440.349 234.803 443.418 240.531 443.125 241.233C442.832 241.939 419.249 250.323 418.748 249.989C418.247 249.655 421.751 243.079 421.751 243.079L440.349 234.803Z" fill="url(#paint9_linear_402_3079)"/>
<path d="M426.701 101.393L426.582 109.272L427.759 109.235C427.759 109.235 428.702 115.754 433.301 114.725C434.622 114.428 436.308 113.31 436.794 113.533C437.369 113.797 437.618 115.584 437.752 116.1C438.253 118.073 445.153 116.078 444.036 114.057C442.974 112.136 441.389 109.514 441.727 108.786C442.896 106.248 443.23 99.9406 436.887 97.8343C431.831 96.1552 426.76 98.6998 426.701 101.393Z" fill="#FFAA9D"/>
<path d="M444.036 114.053C442.975 112.132 441.39 109.51 441.727 108.782C441.727 108.782 439.062 112.883 436.605 113.503C436.601 113.503 436.597 113.507 436.594 113.507C436.672 113.503 436.746 113.503 436.798 113.529C437.373 113.793 437.622 115.58 437.756 116.096C438.253 118.072 445.154 116.078 444.036 114.053Z" fill="#FF9F91"/>
<path d="M437.348 105.256C440.31 104.751 438.473 111.36 441.735 111.141C445.002 110.922 447.278 103.774 444.88 98.2652C442.482 92.7561 437.923 93.0607 433.58 93.8148C429.237 94.5652 423.91 96.5341 423.914 99.8217C423.921 107.734 433.279 101.096 433.896 103.473C434.375 105.312 435.11 110.635 433.202 110.758C431.297 110.881 429.356 109.309 427.849 109.71C426.98 109.945 424.597 120.32 430.83 120.665C436.999 121.007 438.558 115.561 437.259 111.111C436.026 106.876 435.9 105.505 437.348 105.256Z" fill="#14336A"/>
<defs>
<linearGradient id="paint0_linear_402_3079" x1="419.5" y1="25.7569" x2="419.5" y2="239.168" gradientUnits="userSpaceOnUse">
<stop stop-color="#E9F3FC"/>
<stop offset="1" stop-color="white"/>
</linearGradient>
<radialGradient id="paint1_radial_402_3079" cx="0" cy="0" r="1" gradientUnits="userSpaceOnUse" gradientTransform="translate(452.884 378.923) scale(213.549 631.519)">
<stop stop-color="white"/>
<stop offset="0.9872"/>
</radialGradient>
<radialGradient id="paint2_radial_402_3079" cx="0" cy="0" r="1" gradientUnits="userSpaceOnUse" gradientTransform="translate(452.884 378.923) scale(213.549 631.519)">
<stop stop-color="#D0DFF3"/>
<stop offset="0.9872" stop-color="#D0DFF3"/>
</radialGradient>
<linearGradient id="paint3_linear_402_3079" x1="398.733" y1="131.385" x2="403.455" y2="146.49" gradientUnits="userSpaceOnUse">
<stop stop-color="#F2C43C"/>
<stop offset="0.553" stop-color="#FFAC00"/>
</linearGradient>
<linearGradient id="paint4_linear_402_3079" x1="362.841" y1="235.558" x2="359.189" y2="240.11" gradientUnits="userSpaceOnUse">
<stop stop-color="#14336D"/>
<stop offset="0.9662" stop-color="#0E2253"/>
</linearGradient>
<linearGradient id="paint5_linear_402_3079" x1="378.705" y1="218.518" x2="404.209" y2="197.988" gradientUnits="userSpaceOnUse">
<stop stop-color="#14336D"/>
<stop offset="0.9662" stop-color="#0E2253"/>
</linearGradient>
<linearGradient id="paint6_linear_402_3079" x1="415.23" y1="198.825" x2="459.97" y2="215.039" gradientUnits="userSpaceOnUse">
<stop stop-color="#14336D"/>
<stop offset="0.9662" stop-color="#0E2253"/>
</linearGradient>
<linearGradient id="paint7_linear_402_3079" x1="430.826" y1="123.802" x2="453.352" y2="165.958" gradientUnits="userSpaceOnUse">
<stop stop-color="#3162DF"/>
<stop offset="0.9649" stop-color="#173DB8"/>
</linearGradient>
<linearGradient id="paint8_linear_402_3079" x1="437.494" y1="144.195" x2="463.102" y2="198.142" gradientUnits="userSpaceOnUse">
<stop stop-color="#3162DF"/>
<stop offset="0.9649" stop-color="#173DB8"/>
</linearGradient>
<linearGradient id="paint9_linear_402_3079" x1="428.327" y1="240.116" x2="431.078" y2="245.264" gradientUnits="userSpaceOnUse">
<stop stop-color="#14336D"/>
<stop offset="0.9662" stop-color="#0E2253"/>
</linearGradient>
<clipPath id="clip0_402_3079">
<rect width="412.229" height="28.5639" fill="white" transform="translate(246.77 364.64)"/>
</clipPath>
</defs>
</svg>
