<svg width="24" height="24" viewBox="0 0 24 24" fill="none" xmlns="http://www.w3.org/2000/svg">
<g clip-path="url(#clip0_746_424)">
<path d="M8.65982 4.46151C9.04813 4.46151 9.36295 4.1467 9.36295 3.75839V2.34253C9.36295 1.95422 9.04813 1.6394 8.65982 1.6394C8.27151 1.6394 7.9567 1.95422 7.9567 2.34253V3.75839C7.9567 4.1467 8.27151 4.46151 8.65982 4.46151Z" fill="#224F9E"/>
<path d="M2.28099 7.03522L1.05479 6.32727C0.718457 6.13302 0.288426 6.24833 0.0943161 6.58461C-0.0998403 6.92094 0.0153785 7.35097 0.35166 7.54508L1.57786 8.25304C1.9134 8.44682 2.34375 8.33277 2.53833 7.99569C2.73249 7.65936 2.61727 7.22933 2.28099 7.03522Z" fill="#224F9E"/>
<path d="M1.57787 14.807L0.351671 15.5149C-0.268954 15.8732 -0.0141414 16.8271 0.70389 16.8271C1.0225 16.8271 1.10298 16.6731 2.28095 16.0248C2.61723 15.8307 2.73245 15.4007 2.5383 15.0644C2.34419 14.7281 1.91425 14.6127 1.57787 14.807Z" fill="#224F9E"/>
<path d="M15.7417 8.25303L16.968 7.54508C17.3042 7.35092 17.4195 6.92094 17.2253 6.58461C17.0311 6.24833 16.6012 6.13302 16.2648 6.32727L15.0386 7.03522C14.7023 7.22938 14.5871 7.65936 14.7813 7.99569C14.9764 8.33365 15.4071 8.44634 15.7417 8.25303Z" fill="#224F9E"/>
<path d="M7.23866 13.3103C7.76052 10.4512 10.064 8.26116 12.9394 7.884C11.9069 6.67383 10.3716 5.90503 8.65977 5.90503C5.55815 5.90503 3.03482 8.42841 3.03482 11.53C3.03482 13.0114 3.61068 14.3606 4.55001 15.3662C5.2003 14.4119 6.14948 13.6836 7.23866 13.3103Z" fill="#224F9E"/>
<path d="M18.6987 12.5282C17.9025 10.5607 15.9728 9.23315 13.8094 9.23315C10.9088 9.23315 8.56731 11.5706 8.53665 14.453C6.53954 14.6721 5.02042 16.3845 5.02042 18.3935C5.02042 20.5796 6.7989 22.3581 8.98492 22.3581C20.048 22.3466 19.4426 22.3864 19.6353 22.3266C22.0928 22.0495 24 19.9651 24 17.4363C24 14.5485 21.5324 12.3063 18.6987 12.5282Z" fill="#224F9E"/>
</g>
<defs>
<clipPath id="clip0_746_424">
<rect width="24" height="24" fill="white"/>
</clipPath>
</defs>
</svg>
