<?xml version="1.0" encoding="utf-8"?>
<!-- Generator: Adobe Illustrator 18.0.0, SVG Export Plug-In . SVG Version: 6.00 Build 0)  -->
<!DOCTYPE svg PUBLIC "-//W3C//DTD SVG 1.1//EN" "http://www.w3.org/Graphics/SVG/1.1/DTD/svg11.dtd" [
	<!ENTITY ns_extend "http://ns.adobe.com/Extensibility/1.0/">
	<!ENTITY ns_ai "http://ns.adobe.com/AdobeIllustrator/10.0/">
	<!ENTITY ns_graphs "http://ns.adobe.com/Graphs/1.0/">
	<!ENTITY ns_vars "http://ns.adobe.com/Variables/1.0/">
	<!ENTITY ns_imrep "http://ns.adobe.com/ImageReplacement/1.0/">
	<!ENTITY ns_sfw "http://ns.adobe.com/SaveForWeb/1.0/">
	<!ENTITY ns_custom "http://ns.adobe.com/GenericCustomNamespace/1.0/">
	<!ENTITY ns_adobe_xpath "http://ns.adobe.com/XPath/1.0/">
]>
<svg version="1.1" id="Layer_1" xmlns:x="&ns_extend;" xmlns:i="&ns_ai;" xmlns:graph="&ns_graphs;"
	 xmlns="http://www.w3.org/2000/svg" xmlns:xlink="http://www.w3.org/1999/xlink" x="0px" y="0px" width="32px" height="795px"
	 viewBox="0 0 32 795" enable-background="new 0 0 32 795" xml:space="preserve">
<metadata>
	<sfw  xmlns="&ns_sfw;">
		<slices></slices>
		<sliceSourceBounds  height="790.7" width="16383" y="-9.7" x="-7680" bottomLeftOrigin="true"></sliceSourceBounds>
	</sfw>
</metadata>
<path fill="#2F3488" d="M28.5,212c-0.5,0-1,0.1-1.5,0.3v-1.8c0-2-1.6-3.5-3.5-3.5c-0.5,0-1,0.1-1.5,0.3c-0.1-1.9-1.6-3.3-3.5-3.3
	c-1.9,0-3.5,1.6-3.5,3.5v1.8c-0.4-0.2-0.9-0.3-1.5-0.3c-1.9,0-3.5,1.6-3.5,3.5v13.1l-1.5-0.9c-0.7-0.9-1.7-1.4-2.8-1.4
	c-0.8,0-1.5,0.2-2.2,0.7c-1.5,1.2-1.8,3.4-0.6,5l2.3,3.1c3,4,6.6,9,6.6,9c0.1,0.2,0.3,0.3,0.5,0.5l1.4-1.4c-0.1-0.1-0.2-0.2-0.3-0.3
	c0,0-3.5-4.8-6.5-8.8l-2.5-3.3c-0.2-0.3-0.3-0.7-0.3-1.1c0.1-0.4,0.3-0.8,0.6-1c0.3-0.3,0.7-0.3,0.9-0.3c0.5,0,0.9,0.2,1.2,0.6l0,0
	l1.9,1.3c0.7,0.4,0.5,0.4,1.1,0.4c0.2,0,0.5,0,0.7-0.1c0.8-0.3,1.4-1,1.4-1.9v-13.1c0-0.8,0.7-1.5,1.5-1.5c0.2,0,0.4,0,0.6,0.1
	c0.3,0.1,0.6,0.2,0.8,0.2l0,0v12.2c0.6-0.5,1.3-0.9,2-1.2v-12.9l0-0.1l0-1.8c0-0.8,0.7-1.5,1.5-1.5c0.8,0,1.5,0.6,1.5,1.4v14.1
	c0.4,0,0.8-0.1,1.2-0.1c0.3,0,0.6,0,0.8,0v-12.1c0.3,0,0.6-0.1,0.8-0.2c0.2-0.1,0.4-0.2,0.6-0.2c0.8,0,1.5,0.7,1.5,1.5l0,1.8l0,0.1
	l0,9.8c0.7,0.3,1.4,0.7,2,1.1v-9l0,0c0.3,0,0.6-0.1,0.8-0.2c0.2-0.1,0.4-0.1,0.6-0.1c0.8,0,1.5,0.7,1.5,1.5l0,12.5
	c0,2-1.3,8.3-3.9,12.1l1.4,1.4c3.2-4.4,4.5-11.5,4.5-13.5l0-12.5C32,213.5,30.4,212,28.5,212z"/>
<path fill="#2F3488" d="M28.5,263.4c-0.5,0-1,0.1-1.5,0.3v-1.8c0-2-1.6-3.5-3.5-3.5c-0.5,0-1,0.1-1.5,0.3c-0.1-1.9-1.6-3.3-3.5-3.3
	c-1.9,0-3.5,1.6-3.5,3.5v1.4c-0.4-0.2-0.9-0.3-1.5-0.3c-1.9,0-3.5,1.6-3.5,3.5v12.1l-1-0.6c-0.7-0.9-1.7-1.4-2.8-1.4
	c-0.8,0-1.5,0.2-2.2,0.7c-1.5,1.2-1.8,3.4-0.6,5l2.3,3.1c3,4,6.1,8.7,6.1,8.7c0.1,0.2,0.3,0.3,0.5,0.5l1.4-1.4
	c-0.1-0.1-0.2-0.2-0.3-0.4c0,0-3-4.5-6-8.5l-2.5-3.3c-0.2-0.3-0.3-0.7-0.3-1.1c0.1-0.4,0.3-0.8,0.6-1c0.3-0.3,0.7-0.3,0.9-0.3
	c0.5,0,0.9,0.2,1.2,0.6l0,0l1.4,1c0.4,0.5,1.1,0.3,1.1,0.3c0.2,0,0.5,0,0.7-0.1c0.8-0.3,1.4-1,1.4-1.9v-12.1c0-0.8,0.7-1.5,1.5-1.5
	c0.2,0,0.4,0,0.6,0.1c0.3,0.1,0.6,0.2,0.8,0.2l0,0v11.2c0.6-0.5,1.3-0.9,2-1.2v-11.5l0-0.1l0-1.8c0-0.8,0.7-1.5,1.5-1.5
	c0.8,0,1.5,0.6,1.5,1.4v12.6c0.4,0,0.8-0.1,1.2-0.1c0.3,0,0.6,0,0.8,0v-10.7c0.3,0,0.6-0.1,0.8-0.2c0.2-0.1,0.4-0.2,0.6-0.2
	c0.8,0,1.5,0.7,1.5,1.5l0,1.8l0,0.1l0,8.4c0.7,0.3,1.4,0.7,2,1.1v-7.6l0,0c0.3,0,0.6-0.1,0.8-0.2c0.2-0.1,0.4-0.1,0.6-0.1
	c0.8,0,1.5,0.7,1.5,1.5l0,11c0,2-1.3,8.3-3.9,12.1l1.4,1.4c3.2-4.4,4.5-11.5,4.5-13.5l0-11C32,265,30.4,263.4,28.5,263.4z"/>
<path fill="#2F3488" d="M28.5,313.9c-0.5,0-1,0.1-1.5,0.3v-0.9c0-2-1.6-3.5-3.5-3.5c-0.5,0-1,0.1-1.5,0.3c-0.1-1.9-1.6-3.3-3.5-3.3
	c-1.9,0-3.5,1.6-3.5,3.5v1.4c-0.4-0.2-0.9-0.3-1.5-0.3c-1.9,0-3.5,1.6-3.5,3.5v10.7l-0.7-0.5c-0.7-0.9-1.7-1.4-2.8-1.4
	c-0.8,0-1.5,0.2-2.2,0.7c-1.5,1.2-1.8,3.4-0.6,5c0,0,0.7,1.6,2.1,3.4v0c3,4,6.1,8.3,6.1,8.3c0.1,0.2,0.3,0.3,0.5,0.5l1.4-1.4
	c-0.1-0.1-0.2-0.2-0.3-0.3c0,0-3-4.1-6-8.1c-1.4-1.9-2.2-3.6-2.2-3.6c-0.2-0.3-0.3-0.7-0.3-1.1c0.1-0.4,0.3-0.8,0.6-1
	c0.3-0.3,0.7-0.3,0.9-0.3c0.5,0,0.9,0.2,1.2,0.6l0,0l1.2,0.8c0.5,0.4,0.5,0.4,1.1,0.4c0.2,0,0.5,0,0.7-0.1c0.8-0.3,1.4-1,1.4-1.9
	v-10.7c0-0.8,0.7-1.5,1.5-1.5c0.2,0,0.4,0,0.6,0.1c0.3,0.1,0.6,0.2,0.8,0.2l0,0v9.8c0.6-0.5,1.3-0.9,2-1.2v-10.1l0-0.1l0-1.8
	c0-0.8,0.7-1.5,1.5-1.5c0.8,0,1.5,0.6,1.5,1.4v11.2c0.4,0,0.8-0.1,1.2-0.1c0.3,0,0.6,0,0.8,0v-9.3c0.3,0,0.6-0.1,0.8-0.2
	c0.2-0.1,0.4-0.2,0.6-0.2c0.8,0,1.5,0.7,1.5,1.5l0,0.9l0,0.1l0,7.8c0.7,0.3,1.4,0.7,2,1.1v-7.1l0,0c0.3,0,0.6-0.1,0.8-0.2
	c0.2-0.1,0.4-0.1,0.6-0.1c0.8,0,1.5,0.7,1.5,1.5l0,10.5c0,2-1.3,8.3-3.9,12.1l1.4,1.4c3.2-4.4,4.5-11.5,4.5-13.5l0-10.5
	C32,315.5,30.4,313.9,28.5,313.9z"/>
<path fill="#2F3488" d="M28.5,364c-0.5,0-1,0.8-1.5,1v-0.9c0-2-1.6-3.5-3.5-3.5c-0.5,0-1,0.5-1.5,0.7c-0.1-1.9-1.6-3.3-3.5-3.3
	c-1.9,0-3.5,1.6-3.5,3.5v1c-0.4-0.2-0.9-0.3-1.5-0.3c-1.9,0-3.5,1.6-3.5,3.5v10L9.7,376c-0.7-0.9-1.7-1.4-2.8-1.4
	c-0.8,0-1.5,0.2-2.2,0.7c-1.5,1.2-1.8,3.4-0.6,5c0,0,0.7,1.6,2.1,3.4v0c3,4,5.6,7.5,5.6,7.5c0.1,0.2,0.3,0.3,0.4,0.5l1.4-1.4
	c-0.1-0.1-0.2-0.2-0.3-0.3c0,0-2.5-3.3-5.5-7.3c-1.4-1.9-2.2-3.6-2.2-3.6c-0.2-0.3-0.3-0.7-0.3-1.1c0.1-0.4,0.3-0.8,0.6-1
	c0.3-0.3,0.7-0.3,0.9-0.3c0.5,0,0.9,0.2,1.2,0.6l0,0l0.6,0.3c0.5,0.2,0.5,0.2,1.1,0.2c0.2,0,0.5,0,0.7-0.1c0.8-0.3,1.4-1,1.4-1.9
	v-10c0-0.8,0.7-1.5,1.5-1.5c0.2,0,0.4,0,0.6,0.1c0.3,0.1,0.6,0.2,0.8,0.2l0,0v9.1c0.6-0.5,1.3-0.9,2-1.2V363l0-0.1l0-1.4
	c0-0.8,0.7-1.5,1.5-1.5c0.8,0,1.5,0.6,1.5,1.4v10.2c0.4,0,0.8-0.1,1.2-0.1c0.3,0,0.6,0,0.8,0v-8.6c0.3,0,0.6-0.1,0.8-0.2
	c0.2-0.1,0.4-0.2,0.6-0.2c0.8,0,1.5,0.7,1.5,1.5l0,0.9l0,0.2l0,7.1c0.7,0.3,1.4,0.7,2,1.1v-7.1l0,0c0.3,0,0.6-0.1,0.8-0.2
	c0.2-0.1,0.4-0.1,0.6-0.1c0.8,0,1.5,0.7,1.5,1.5l0,10.5c0,2-1.3,8.2-3.9,12l1.4,1.4C30.7,387.1,32,380,32,378l0-10.5
	C32,365.5,30.4,364,28.5,364z"/>
<path fill="#2F3488" d="M28.5,414c-1.1,0-1,0.6-1.5,0.8v-0.9c0-2-1.6-2.7-3.5-2.7c-0.9-0.1-1,0.5-1.5,0.7c-0.1-1.9-1.6-3.3-3.5-3.3
	c-1.9,0-3.5,1.6-3.5,3.5v1c-0.4-0.2-0.9-0.6-1.5-0.6c-1.9,0-3.5,1.4-3.5,3.3v9.8L9.7,426c-0.4-0.5-1.1-0.7-2.2-0.7
	c-0.8,0-1.5,0.2-2.2,0.7c-1.5,1.2-1.8,3.4-0.6,5c0,0,0.5,1.3,1.8,3.1v0c3,4,5.3,7.2,5.3,7.2c0.1,0.2,0.3,0.3,0.4,0.5l1.4-1.4
	c-0.1-0.1-0.2-0.2-0.3-0.3c0,0-2.1-3-5.1-7c-1.4-1.9-2-3.3-2-3.3C6.1,429.4,6,429,6,428.6v0c0.1-0.4,0.3-0.8,0.6-1
	c0.3-0.3,0.7-0.3,0.9-0.3c0.5,0,0.8,0,1.5,0.5c1,0.2,2-0.3,1.6-0.1c0.8-0.3,1.4-1,1.4-1.9v-9.8c0-0.8,0.7-1.3,1.5-1.3
	c0.2,0,0.4,0,0.6,0.1c0.3,0.1,0.6,0.5,0.8,0.5l0,0v8.4c0.6-0.5,1.3-0.9,2-1.2v-8.7l0-0.1l0-1.4c0-0.8,0.7-1.5,1.5-1.5
	c0.8,0,1.5,0.6,1.5,1.4v9.5c0.4,0,0.8-0.1,1.2-0.1c0.3,0,0.6,0,0.8,0v-7.9c0.3,0,0.6-0.1,0.8-0.2c0.2-0.1,0.4-0.2,0.6-0.2
	c0.8,0,1.5,0.7,1.5,1.5l0,0.9l0,0.2l0,6.4c0.7,0.3,1.4,0.7,2,1.1v-7.3l0,0c0.3,0,0.5,0,0.7-0.1c0.2-0.1,0.5,0,0.7,0
	c0.8,0,1.5,0.7,1.5,1.5l0,10.5c0,2-1.3,8.2-3.9,12l1.4,1.4C30.7,437.1,32,430,32,428l0-10.5C32,415.5,30.4,414,28.5,414z"/>
<path fill="#2F3488" d="M28.4,464.2L28.4,464.2c-0.5,0-1,0.6-1.5,0.8v0.1c0-2-1.6-2.7-3.5-2.7c-0.5,0-1,0.5-1.5,0.7
	c-0.1-1.9-1.6-3.3-3.5-3.3c-1.9,0-3.5,1.6-3.5,3.5v0c-0.4-0.2-0.9-0.6-1.5-0.6c-1.9,0-3.5,1.4-3.5,3.3v9.6l0,0.6
	c-0.4-0.5-1-0.6-2-0.6c-0.8,0-1.5,0.2-2.2,0.7c-1.5,1.2-1.8,3.4-0.6,5c0,0,0.1,0.9,1.5,2.7c3,4,5.3,7.2,5.3,7.2
	c0.1,0.2,0.3,0.3,0.4,0.5l1.4-1.4c-0.1-0.1-0.2-0.2-0.3-0.3c0,0-1.8-2.7-4.8-6.7c-1.4-1.9-2-3.3-2-3.3c-0.2-0.3-0.3-0.7-0.3-1.1
	c0.1-0.4,0.3-0.8,0.6-1c0.3-0.3,0.7-0.3,0.9-0.3c0.5,0,0.9,0,1.4,0.5c0.8,0.3,1.1,0.2,1.6-0.1c0.5-0.3,1.1-1.4,1.1-2.3v-9.6
	c0-0.8,0.7-1.3,1.5-1.3c0.2,0,0.4,0,0.6,0.1c0.3,0.1,0.6,0.6,0.8,0.6l0,0v7.6c0.6-0.5,1.3-0.9,2-1.2V465l0-0.1l0-1.4
	c0-0.8,0.7-1.5,1.5-1.5c0.8,0,1.5,0.6,1.5,1.4v7.6c0.4,0,0.8-0.1,1.2-0.1c0.3,0,0.6,0,0.8,0v-6.1c0.3,0,0.6-0.1,0.8-0.2
	c0.2-0.1,0.4-0.2,0.6-0.2c0.8,0,1.5,0.7,1.5,1.5l0,0.9l0,0.2l0,4.6c0.7,0.3,1.4,0.7,2,1.1v-5.4l0,0c0.3,0,0.5-0.7,0.8-0.9
	c0.2-0.1,0.4-0.3,0.7-0.3c0.8,0,1.5,0.7,1.5,1.5l0,10.3c0,2-1.3,8.2-3.9,12l1.4,1.4C30.7,487.1,32,480,32,478l0-10.3
	C32,465.8,30.4,464.2,28.4,464.2z"/>
<path fill="#2F3488" d="M28.5,514.3c-0.5,0-1,0.6-1.5,0.8v0.1c0-2-1.6-2.7-3.5-2.7c-0.5,0-1,0.5-1.5,0.7c-0.1-1.9-1.6-3.3-3.5-3.3
	c-1.9,0-3.5,1.6-3.5,3.5v0c-0.4-0.2-0.9-0.6-1.5-0.6c-1.9,0-3.5,1.4-3.5,3.3v9.6l-0.2,0.7c-0.4-0.5-0.8-0.8-1.8-0.8
	c-0.8,0-1.5,0.2-2.2,0.7c-1.5,1.2-1.8,3.4-0.6,5c0,0,0.1,0.9,1.5,2.7c3,4,5.3,7.2,5.3,7.2c0.1,0.1,0.3,0.3,0.4,0.4l1.4-1.4
	c-0.1-0.1-0.2-0.2-0.3-0.3c0,0-1.8-2.7-4.8-6.7c-1.4-1.9-2-3.3-2-3.3c-0.2-0.3-0.3-0.7-0.3-1.1v0c0.1-0.4,0.3-0.8,0.6-1
	c0.3-0.3,0.7-0.3,0.9-0.3c0.5,0,0.9,0.2,1.2,0.6c0.6,0.4,1.7-0.1,2-0.5s0.9-1.1,0.9-2v-9.6c0-0.8,0.7-1.3,1.5-1.3
	c0.2,0,0.4,0.2,0.6,0.3c0.3,0.1,0.6,0.3,0.8,0.3l0,0v7.6c0.6-0.5,1.3-0.9,2-1.2V515l0-0.1l0-1.4c0-0.8,0.7-1.5,1.5-1.5
	c0.8,0,1.5,0.6,1.5,1.4v7.6c0.4,0,0.8-0.1,1.2-0.1c0.3,0,0.6,0,0.8,0v-6.1c0.3,0,0.6-0.1,0.8-0.2c0.2-0.1,0.4-0.2,0.6-0.2
	c0.8,0,1.5,0.7,1.5,1.5l0,0.9l0,0.2l0,4.6c0.7,0.3,1.4,0.7,2,1.1v-5.4l0,0c0.3,0,0.5-0.7,0.7-0.8c0.2-0.1,0.5-0.3,0.8-0.3
	c0.8,0,1.5,0.7,1.5,1.5l0,10.3c0,2-1.3,8.2-3.9,12l1.4,1.4c3.2-4.4,4.5-11.4,4.5-13.4l0-10.3C32,515.9,30.4,514.3,28.5,514.3z"/>
<path fill="#2F3488" d="M28.5,564.3c-0.5,0-1,0.6-1.5,0.8v0.1c0-2-1.6-2.7-3.5-2.7c-0.5,0-1,1.3-1.5,1.5c-0.1-1.9-1.6-3.3-3.5-3.3
	c-1.9,0-3.5,1.3-3.5,2.7c-0.4-0.2-0.9-0.6-1.5-0.6c-1.9,0-3.5,1.4-3.5,3.3v9.6l0,0.5c-0.4-0.5-0.6-0.6-1.7-0.6
	c-0.8,0-1.5,0.2-2.2,0.7c-1.5,1.2-1.8,3.4-0.6,5c0,0,0.4,0.9,1.4,2.8v0c1,1.9,5,7.2,5,7.2c0.1,0.1,0.3,0.3,0.4,0.4l1.4-1.4
	c-0.1-0.1-0.2-0.2-0.3-0.3c0,0-1.8-2.7-4.8-6.7c-1.4-1.9-1.7-3.3-1.7-3.3c-0.2-0.3-0.3-0.7-0.3-1.1v0c0.1-0.4,0.3-0.8,0.6-1
	c0.3-0.3,0.7-0.3,0.9-0.3c0.5,0,0.6,0.1,1.1,0.5c0.7,0.3,1,0.2,1.8-0.4s0.9-1.1,0.9-2v-9.6c0-0.8,0.7-1.3,1.5-1.3
	c0.2,0,0.4,0.2,0.6,0.3c0.3,0.1,0.7,0.4,0.8,1.2l0,0v6.4c0.6-0.5,1.3-0.9,2-1.2v-5.7l0-0.1l0-1.4c0-0.8,0.7-1.5,1.5-1.5
	c0.8,0,1.5,0.6,1.5,1.4v6.5c0.4,0,0.8-0.1,1.2-0.1c0.3,0,0.6,0,0.8,0l0-4.9c0.3,0,0.6-0.9,0.8-1c0.2-0.1,0.4-0.2,0.6-0.2
	c0.8,0,1.5,0.7,1.5,1.5l0,0.9l0,0.2l0,4.2c0.7,0.3,1.4,0.7,2,1.1v-5.1l0,0c0.3,0,0.4-0.6,0.7-0.8c0.2-0.1,0.6-0.4,0.8-0.4
	c0.8,0,1.5,0.7,1.5,1.5l0,10.3c0,2-1.3,8.2-3.9,12l1.4,1.4c3.2-4.4,4.5-11.4,4.5-13.4l0-10.3C32,565.9,30.4,564.3,28.5,564.3z"/>
<path fill="#2F3488" d="M28.4,614.5L28.4,614.5c-0.5,0-1,0.6-1.5,0.8v0.1c0-2-1.6-2.7-3.5-2.7c-0.8,0.1-1.2,1.2-1.5,1.5
	c-0.1-1.9-1.6-3.3-3.5-3.3c-1.9,0-3.5,1-3.5,2.5v0.2c-0.4-0.2-0.9-0.6-1.5-0.6c-1.9,0-3.5,1.4-3.5,3.3v9.4c0,0,0,0.6-0.2,0.3
	c-0.2-0.3-0.5-0.4-1.1-0.4c-0.8,0-1.5,0.2-2.2,0.7c-1.5,1.2-1.8,3.4-0.6,5c0,0,1,2.3,1.4,2.8c2.9,4.1,2.9,4.1,4.7,7.1
	c0.1,0.1,0.3,0.3,0.4,0.4l1.4-1.4c-0.1-0.1-0.2-0.2-0.3-0.3c0,0-1.4-2.7-4.4-6.7c-1.4-1.9-1.4-2.5-1.7-3.3s-0.3-0.7-0.3-1.1
	c0.1-0.4,0.3-0.8,0.6-1c0.3-0.3,0.7-0.3,0.9-0.3c0.5,0,0.3,0,0.8,0.4c0.5,0.3,1.1,0,1.7-0.4s0.9-1,0.9-1.9v-9.4
	c0-0.8,0.7-1.3,1.5-1.3c0.2,0,0.6,0.1,0.8,0.2c0.2,0.1,0.5,0.7,0.7,1.1v5.6c0.6-0.5,1.3-0.9,2-1.2v-4.8l0-0.1l0-1.4
	c0-0.8,0.7-1.5,1.5-1.5c0.8,0,1.5,0.6,1.5,1.4v5.5c0.4,0,0.8-0.1,1.2-0.1c0.3,0,0.6,0,0.8,0v-4c0.3,0,0.6-0.9,0.8-1
	c0.2-0.1,0.4-0.2,0.6-0.2c0.8,0,1.5,0.7,1.5,1.5l0,0.9l0,0.2l0,3.3c0.7,0.3,1.4,0.7,2,1.1v-4.2l0,0c0.3,0,0.6-0.8,0.8-0.9
	c0.2-0.1,0.4-0.2,0.7-0.2c0.8,0,1.5,0.7,1.5,1.5l0,10.1c0,2-1.3,8.2-3.9,12l1.4,1.4c3.2-4.4,4.5-11.4,4.5-13.4l0-10.1
	C32,616.1,30.4,614.5,28.4,614.5z"/>
<path fill="#2F3488" d="M28.4,665.2c-0.9,0-1,0.6-1.5,0.8v0.1c0-2-1.6-2.7-3.5-2.7c-1.1,0-1.2,1.1-1.5,1.5c-0.1-1.9-1.6-3.3-3.5-3.3
	c-1.9,0-3.5,1.1-3.5,2.5v0.2c-0.4-0.2-0.9-0.6-1.5-0.6c-1.9,0-3.5,1.4-3.5,3.3v8.7l-0.1,0.3c-0.4-0.5-0.9-0.4-1.4-0.4
	c-0.8,0-1.5,0.2-2.2,0.7c-1.4,1.1-1.7,2.9-1,4.4c0.1,0.2,0.2,0.5,0.3,0.8c0.2,0.5,1.9,3.5,2.3,4v0c2.4,3.3,3.9,5.7,3.9,5.7
	c0.1,0.1,0.3,0.3,0.4,0.4l1.4-1.4c-0.1-0.1-0.2-0.2-0.3-0.3c0,0-1.5-2.7-4.5-6.7c-1.4-1.9-1.5-2.6-1.6-3.2c-0.2-0.6-0.3-0.8-0.3-1.2
	c0-0.4,0.3-0.8,0.6-1v0c0.3-0.3,0.7-0.3,0.9-0.3c0.5,0,0.7,0.1,1.2,0.4c1.2-0.1,0.9,0,1.4-0.4c0.4-0.3,0.9-1.1,0.9-1.9v-8.7
	c0-0.8,0.7-1.3,1.5-1.3c0.2,0,0.6,0.2,0.8,0.3c0.4,0.3,0.4,0.6,0.6,1.1l0,0v4.4c0.6-0.5,1.3-0.9,2-1.2v-3.7l0-0.1l0-1.4
	c0-0.8,0.7-1.5,1.5-1.5c0.8,0,1.5,0.6,1.5,1.4v4.5c0.4,0,0.8-0.1,1.2-0.1c0.3,0,0.6,0,0.8,0v-2.9c0.3,0,0.6-0.9,0.8-1
	c0.2-0.1,0.4-0.2,0.6-0.2c0.8,0,1.5,0.7,1.5,1.5l0,0.3l0,0l0,0.5l0,0.1l0,0.1l0,2.4c0.7,0.3,1.4,0.7,2,1.1l0-3.1
	c0.2-0.1,0.2-0.4,0.7-0.8c0.3-0.2,0.6-0.4,0.8-0.4c0.8,0,1.5,0.7,1.5,1.5l0,9.4c0,2-1.3,8.2-3.9,12l1.4,1.4
	c3.1-4.4,4.4-11.4,4.4-13.4l0-9.4C32,666.8,30.4,665.2,28.4,665.2z"/>
<path fill="#2F3488" d="M28.5,715.4c-0.5,0-1,0.3-1.5,0.5l-0.1,0.1c-0.1-0.7-0.9-2.4-3.5-2.3c-0.9,0-1.1,0.4-1.5,0.7
	c-0.1-0.9-1.6-1.8-3.5-1.8c-1.9,0-3.5,1.7-3.5,2.8v-0.1c-0.2-0.4-0.5-0.8-1.5-0.8c-1.9,0-3.5,1.6-3.5,3.5l0,8.1c-0.1,0,0,0.1,0,0.1
	c-0.5-0.1-2.5,0.1-3.1,0.6c-1.5,1.2-1.8,5.5-0.6,7l5.6,7.4v0c0.1,0.2,0.3,0.3,0.5,0.5l1.4-1.4c-0.1-0.1-0.2-0.2-0.3-0.3l-5.5-7.1
	c-0.2-0.3-0.3-0.7-0.3-1.1v0c0.1-0.4,0.1-2.8,0.4-3.1c0.4-0.7,0.2-0.5,0.9-0.8c0.5-0.1,2.1,0.1,2.4,0c0.8-0.3,0.7-0.6,0.7-1.5V718
	c0-0.8,0.7-1.6,1.5-1.6c0.2,0,0.4,0,0.6,0.1c0.3,0.1,0.6,0.2,0.8,0.6l0,0v5.3c0.6-0.5,1.3-0.9,2-1.2v-4l0-0.2l0-0.8
	c0-0.8,0.7-1.5,1.5-1.5c0.8,0,1.5,0.6,1.5,1.4l0,0v4.4c0.4,0,0.8-0.1,1.2-0.1c0.3,0,0.6,0,0.8,0v-4.1c0.3,0,0.6-0.4,0.8-0.5
	c0.2-0.1,0.4-0.2,0.6-0.2c0.8,0,1.4,0.6,1.5,1.4l0,4c0.7,0.3,1.4,1.3,2,1.7v-5.1l0,0c0.3,0,0.6-0.1,0.8-0.2c0.2-0.1,0.4-0.1,0.6-0.1
	c0.8,0,1.5,0.7,1.5,1.6l0,9c0,2-1.3,8.3-3.9,12.1l1.4,1.4c3.2-4.4,4.5-11.5,4.5-13.5l0-9C32,717,30.4,715.4,28.5,715.4z"/>
<path fill="#2F3488" d="M28.5,765.9L28.5,765.9c-0.5,0-1,0.3-1.5,0.5c-0.1-0.7-1-2.3-3.5-2.2c-1,0-1,0.5-1.5,0.7v-0.2l0,0
	c-0.2-0.9-1.7-1.6-3.5-1.6c-1.9,0-3.5,1.7-3.5,2.8v-0.1c-0.2-0.4-0.5-0.8-1.5-0.8c-1.9,0-3.5,1.6-3.5,3.5l0,7.7
	c-0.1,0-2,0.2-2.7,0.7c-1.5,1.2-1.8,5.5-0.6,7l5.2,7.4c0.1,0.2,0.3,0.3,0.5,0.5l1.4-1.4c-0.1-0.1-0.2-0.2-0.3-0.3l-5.1-7.1
	c-0.2-0.3-0.3-0.7-0.3-1.1c0.1-0.4,0.1-2.8,0.4-3.1c0.4-0.7,0.2-0.5,0.9-0.8c0.5-0.1,1.7,0.1,1.9,0c0.8-0.3,0.7-0.6,0.7-1.5v-7.9
	c0-0.8,0.7-1.6,1.5-1.6c0.2,0,0.4,0,0.6,0.1c0.3,0.1,0.6,0.6,0.8,0.6l0,0v4.4c0.6-0.5,1.3-0.9,2-1.2v-3.1l0-0.2l0-0.8
	c0-0.8,0.7-1.5,1.5-1.5c0.8,0,1.5,0.6,1.5,1.4l0,0v3.5c0.4,0,0.8-0.1,1.2-0.1c0.3,0,0.6,0,0.8,0v-3.3c0.3-0.3,0.6-0.4,0.8-0.5
	c0.2-0.1,0.4-0.2,0.6-0.2c0.8,0,1.4,0.6,1.5,1.4l0,3.1c0.7,0.3,1.4,1.3,2,1.7v-4.2l0,0c0.3,0,0.6-0.1,0.8-0.2
	c0.2-0.1,0.4-0.1,0.6-0.1c0.8,0,1.5,0.7,1.5,1.6l0,8.5c0,2-1.3,8.3-4,12.1l1.4,1.4c3.2-4.4,4.5-11.5,4.5-13.5l0-8.5
	C32,767.5,30.4,765.9,28.5,765.9z"/>
<path fill="#2F3488" d="M28.5,161c-0.5,0-1,0.1-1.5,0.3v-1.8c0-2-1.6-3.5-3.5-3.5c-0.5,0-1,0.1-1.5,0.3c-0.1-1.9-1.6-3.3-3.5-3.3
	c-1.9,0-3.5,1.6-3.5,3.5v1.8c-0.4-0.2-0.9-0.3-1.5-0.3c-1.9,0-3.5,1.6-3.5,3.5v14.1L8,174c-0.7-0.9-1.7-1.4-2.8-1.4
	c-0.8,0-1.5,0.2-2.2,0.7c-1.5,1.2-1.8,3.4-0.6,5c0,0,1,1.3,2.3,3.1c3,4,7.1,9.7,7.1,9.7c0.1,0.2,0.3,0.3,0.5,0.5l1.4-1.4
	c-0.1-0.1-0.2-0.2-0.3-0.3c0,0-3.9-5.5-6.9-9.5L4,177.1c-0.2-0.3-0.3-0.7-0.3-1.1v0c0.1-0.4,0.3-0.8,0.6-1c0.3-0.3,0.7-0.3,0.9-0.3
	c0.5,0,0.9,0.2,1.2,0.6l0,0l2.2,1.9c0.6,0.4,0.7,0.5,1.3,0.5c0.2,0,0.5,0,0.7-0.1c0.8-0.3,1.4-1,1.4-1.9v-14.1
	c0-0.8,0.7-1.5,1.5-1.5c0.2,0,0.4,0,0.6,0.1c0.3,0.1,0.6,0.2,0.8,0.2l0,0v13.2c0.6-0.5,1.3-0.9,2-1.2v-13.9l0-0.1l0-1.8
	c0-0.8,0.7-1.5,1.5-1.5c0.8,0,1.5,0.6,1.5,1.4v15.1c0.4,0,0.8-0.1,1.2-0.1c0.3,0,0.6,0,0.8,0v-13.1c0.3,0,0.6-0.1,0.8-0.2
	c0.2-0.1,0.4-0.2,0.6-0.2c0.8,0,1.5,0.7,1.5,1.5l0,1.8l0,0.1l0,10.8c0.7,0.3,1.4,0.7,2,1.1v-10l0,0c0.3,0,0.6-0.1,0.8-0.2
	c0.2-0.1,0.4-0.1,0.6-0.1c0.8,0,1.5,0.7,1.5,1.5l0,13.5c0,2-1.3,8.3-3.9,12.1l1.4,1.4c3.2-4.4,4.5-11.5,4.5-13.5l0-13.5
	C32,162.5,30.4,161,28.5,161z"/>
<path fill="#2F3488" d="M28.5,110.4c-0.5,0-1,0.1-1.5,0.3v-1.8c0-2-1.6-3.5-3.5-3.5c-0.5,0-1,0.1-1.5,0.3c-0.1-1.9-1.6-3.3-3.5-3.3
	c-1.9,0-3.5,1.6-3.5,3.5v1.8c-0.4-0.2-0.9-0.3-1.5-0.3c-1.9,0-3.5,1.6-3.5,3.5v14.7l-2.2-1.9c-0.7-0.9-1.7-1.4-2.8-1.4
	c-0.8,0-1.5,0.2-2.2,0.7c-1.5,1.2-1.8,3.4-0.6,5l2.3,3.1c3,4,7.4,10,7.4,10c0.1,0.2,0.3,0.3,0.5,0.5l1.4-1.4
	c-0.1-0.1-0.2-0.2-0.3-0.4c0,0-4.2-5.8-7.2-9.8l-2.5-3.3c-0.2-0.3-0.3-0.7-0.3-1.1c0.1-0.4,0.3-0.8,0.6-1c0.3-0.3,0.7-0.3,0.9-0.3
	c0.5,0,0.9,0.2,1.2,0.6l0,0l2.2,1.9c0.4,0.5,1,0.7,1.6,0.7c0.2,0,0.5,0,0.7-0.1c0.8-0.3,1.4-1,1.4-1.9v-14.7c0-0.8,0.7-1.5,1.5-1.5
	c0.2,0,0.4,0,0.6,0.1c0.3,0.1,0.6,0.2,0.8,0.2l0,0v13.8c0.6-0.5,1.3-0.9,2-1.2v-14.5l0-0.1l0-1.8c0-0.8,0.7-1.5,1.5-1.5
	c0.8,0,1.5,0.6,1.5,1.4v15.6c0.4,0,0.8-0.1,1.2-0.1c0.3,0,0.6,0,0.8,0v-13.7c0.3,0,0.6-0.1,0.8-0.2c0.2-0.1,0.4-0.2,0.6-0.2
	c0.8,0,1.5,0.7,1.5,1.5l0,1.8l0,0.1l0,11.3c0.7,0.3,1.4,0.7,2,1.1v-10.6l0,0c0.3,0,0.6-0.1,0.8-0.2c0.2-0.1,0.4-0.1,0.6-0.1
	c0.8,0,1.5,0.7,1.5,1.5l0,14c0,2-1.3,8.3-3.9,12.1l1.4,1.4c3.2-4.4,4.5-11.5,4.5-13.5l0-14C32,112,30.4,110.4,28.5,110.4z"/>
<path fill="#2F3488" d="M28.5,60c-0.5,0-1,0.1-1.5,0.3v-1.8c0-2-1.6-3.5-3.5-3.5c-0.5,0-1,0.1-1.5,0.3c-0.1-1.9-1.6-3.3-3.5-3.3
	c-1.9,0-3.5,1.6-3.5,3.5v1.8C14.5,57.1,14,57,13.5,57c-1.9,0-3.5,1.6-3.5,3.5v15.1l-2.6-2.3C6.6,72.4,5.6,72,4.5,72
	c-0.8,0-1.5,0.2-2.2,0.7c-1.5,1.2-1.8,3.4-0.6,5L4,80.8l7.8,10.4c0.1,0.2,0.3,0.3,0.5,0.5l1.4-1.4c-0.1-0.1-0.2-0.2-0.3-0.4
	L5.8,79.7l-2.5-3.3C3,76.1,2.9,75.7,3,75.3c0.1-0.4,0.3-0.8,0.6-1C3.9,74,4.3,74,4.5,74c0.5,0,0.9,0.2,1.2,0.6l0,0l2.6,2.3
	c0.4,0.5,1,0.7,1.6,0.7c0.2,0,0.5,0,0.7-0.1c0.8-0.3,1.4-1,1.4-1.9V60.5c0-0.8,0.7-1.5,1.5-1.5c0.2,0,0.4,0,0.6,0.1
	c0.3,0.1,0.6,0.2,0.8,0.2l0,0v14.2c0.6-0.5,1.3-0.9,2-1.2V57.4l0-0.1l0-1.8c0-0.8,0.7-1.5,1.5-1.5c0.8,0,1.5,0.6,1.5,1.4v16.1
	c0.4,0,0.8-0.1,1.2-0.1c0.3,0,0.6,0,0.8,0V57.3c0.3,0,0.6-0.1,0.8-0.2C23,57,23.2,57,23.5,57c0.8,0,1.5,0.7,1.5,1.5l0,1.8l0,0.1
	l0,11.8c0.7,0.3,1.4,0.7,2,1.1v-11l0,0c0.3,0,0.6-0.1,0.8-0.2C28,62,28.2,62,28.5,62c0.8,0,1.5,0.7,1.5,1.5l0,14.5
	c0,2-1.3,8.3-3.9,12.1l1.4,1.4c3.2-4.4,4.5-11.5,4.5-13.5l0-14.5C32,61.5,30.4,60,28.5,60z"/>
<path fill="#2F3488" d="M28.5,9c-0.5,0-1,0.1-1.5,0.3V7.5c0-2-1.6-3.5-3.5-3.5c-0.5,0-1,0.1-1.5,0.3C21.9,2.4,20.3,1,18.5,1
	c-1.9,0-3.5,1.6-3.5,3.5v1.8C14.5,6.1,14,6,13.5,6c-1.9,0-3.5,1.6-3.5,3.5v16.1l-2.6-2.3C6.6,22.4,5.6,22,4.5,22
	c-0.8,0-1.5,0.2-2.2,0.7c-1.5,1.2-1.8,3.4-0.6,5L4,30.8l7.8,10.4c0.1,0.2,0.3,0.3,0.5,0.5l1.4-1.4c-0.1-0.1-0.2-0.2-0.3-0.4
	L5.8,29.7l-2.5-3.3C3,26.1,2.9,25.7,3,25.3c0.1-0.4,0.3-0.8,0.6-1C3.9,24,4.3,24,4.5,24c0.5,0,0.9,0.2,1.2,0.6l0,0l2.6,2.3
	c0.4,0.5,1,0.7,1.6,0.7c0.2,0,0.5,0,0.7-0.1c0.8-0.3,1.4-1,1.4-1.9V9.5C12,8.7,12.6,8,13.4,8c0.2,0,0.4,0,0.6,0.1
	c0.3,0.1,0.6,0.2,0.8,0.2l0,0v15.2c0.6-0.5,1.3-0.9,2-1.2V6.4l0-0.1l0-1.8C17,3.7,17.6,3,18.4,3c0.8,0,1.5,0.6,1.5,1.4v17.1
	c0.4,0,0.8-0.1,1.2-0.1c0.3,0,0.6,0,0.8,0V6.3c0.3,0,0.6-0.1,0.8-0.2C23,6,23.2,6,23.5,6c0.8,0,1.5,0.7,1.5,1.5l0,1.8l0,0.1l0,12.8
	c0.7,0.3,1.4,0.7,2,1.1v-12l0,0c0.3,0,0.6-0.1,0.8-0.2C28,11,28.2,11,28.5,11c0.8,0,1.5,0.7,1.5,1.5l0,15.5c0,2-1.3,8.3-3.9,12.1
	l1.4,1.4c3.2-4.4,4.5-11.5,4.5-13.5l0-15.5C32,10.5,30.4,9,28.5,9z"/>
</svg>
