<svg width="21" height="21" viewBox="0 0 21 21" fill="none" xmlns="http://www.w3.org/2000/svg">
<path d="M13.3422 10.9937L20.5029 3.84958C20.8165 3.536 20.9927 3.1107 20.9927 2.66723C20.9927 2.22375 20.8165 1.79845 20.5029 1.48487C20.1893 1.17129 19.764 0.995117 19.3206 0.995117C18.8771 0.995117 18.4518 1.17129 18.1382 1.48487L10.9941 8.64563L3.84998 1.48487C3.5364 1.17129 3.1111 0.995117 2.66763 0.995117C2.22416 0.995117 1.79885 1.17129 1.48527 1.48487C1.17169 1.79845 0.995518 2.22375 0.995518 2.66723C0.995518 3.1107 1.17169 3.536 1.48527 3.84958L8.64603 10.9937L1.48527 18.1378C1.32918 18.2926 1.20529 18.4768 1.12075 18.6797C1.0362 18.8827 0.992676 19.1003 0.992676 19.3202C0.992676 19.54 1.0362 19.7577 1.12075 19.9606C1.20529 20.1635 1.32918 20.3477 1.48527 20.5025C1.64008 20.6586 1.82426 20.7825 2.02719 20.867C2.23012 20.9516 2.44779 20.9951 2.66763 20.9951C2.88746 20.9951 3.10513 20.9516 3.30806 20.867C3.51099 20.7825 3.69517 20.6586 3.84998 20.5025L10.9941 13.3418L18.1382 20.5025C18.293 20.6586 18.4772 20.7825 18.6801 20.867C18.8831 20.9516 19.1007 20.9951 19.3206 20.9951C19.5404 20.9951 19.7581 20.9516 19.961 20.867C20.1639 20.7825 20.3481 20.6586 20.5029 20.5025C20.659 20.3477 20.7829 20.1635 20.8674 19.9606C20.952 19.7577 20.9955 19.54 20.9955 19.3202C20.9955 19.1003 20.952 18.8827 20.8674 18.6797C20.7829 18.4768 20.659 18.2926 20.5029 18.1378L13.3422 10.9937Z" fill="#B53A57"/>
</svg>
