<svg width="296" height="230" viewBox="0 0 296 230" fill="none" xmlns="http://www.w3.org/2000/svg">
<g clip-path="url(#clip0_335_5612)">
<path d="M99.6256 43.2806C102.119 37.9473 105.281 32.7983 109.25 27.9421C140.447 -10.2215 201.748 -7.00675 237.693 23.7568C277.558 57.8744 273.872 115.295 273.057 125.106C270.223 159.236 252.503 214.793 211.744 226.111C192.81 231.369 174.742 225.457 158.979 214.489C146.531 205.828 130.117 206.636 118.235 216.79C113.74 220.63 108.731 223.876 103.165 226.176C90.5689 231.379 79.3554 229.985 74.4984 229.32C36.6388 224.134 -0.345456 181.028 0.00268275 140.723C0.402618 94.4723 49.9003 58.997 99.6256 43.2806Z" fill="#96B6EE"/>
<path d="M239.784 104.304V195.235C239.784 195.345 239.779 195.455 239.774 195.572C239.774 195.624 239.769 195.677 239.764 195.73C239.764 195.777 239.759 195.83 239.754 195.882C239.754 195.904 239.749 195.925 239.749 195.945C239.744 195.983 239.739 196.014 239.733 196.046C239.728 196.125 239.711 196.203 239.701 196.282C239.691 196.356 239.675 196.435 239.659 196.509C239.654 196.546 239.643 196.583 239.632 196.62C239.632 196.646 239.627 196.677 239.616 196.704C239.611 196.74 239.6 196.777 239.59 196.814C239.574 196.883 239.553 196.951 239.537 197.014C239.537 197.025 239.532 197.041 239.527 197.051C239.491 197.167 239.458 197.283 239.417 197.393C239.417 197.398 239.417 197.404 239.412 197.409C239.39 197.467 239.369 197.525 239.349 197.578C239.328 197.631 239.306 197.678 239.291 197.726C239.286 197.742 239.275 197.757 239.275 197.768C239.212 197.911 239.148 198.058 239.075 198.195C239.053 198.237 239.027 198.29 239.001 198.337C238.974 198.385 238.948 198.426 238.922 198.474C238.895 198.516 238.874 198.563 238.843 198.606C238.79 198.695 238.732 198.785 238.674 198.869C238.637 198.927 238.6 198.974 238.568 199.027C238.479 199.142 238.394 199.259 238.3 199.369C238.231 199.453 238.163 199.532 238.095 199.606C238.026 199.685 237.953 199.759 237.879 199.833C237.848 199.87 237.81 199.901 237.774 199.938C237.742 199.969 237.711 200.001 237.673 200.027C237.637 200.064 237.595 200.101 237.552 200.137C237.542 200.148 237.526 200.159 237.515 200.169C237.415 200.258 237.309 200.343 237.204 200.422C237.194 200.427 237.183 200.438 237.173 200.448C237.088 200.506 237.004 200.57 236.914 200.627C236.883 200.649 236.857 200.67 236.83 200.685C236.783 200.717 236.735 200.748 236.689 200.775C236.652 200.801 236.615 200.823 236.572 200.844C236.53 200.87 236.488 200.897 236.446 200.918C236.151 201.087 235.84 201.229 235.518 201.344C235.497 201.349 235.482 201.36 235.461 201.365C235.439 201.37 235.413 201.381 235.392 201.386C235.318 201.413 235.244 201.439 235.165 201.46C235.034 201.503 234.902 201.534 234.77 201.566C234.702 201.582 234.634 201.597 234.565 201.613C234.522 201.623 234.476 201.629 234.433 201.634C234.381 201.645 234.323 201.656 234.27 201.666C234.26 201.666 234.254 201.666 234.249 201.671C234.207 201.676 234.165 201.681 234.117 201.687C234.096 201.687 234.075 201.692 234.055 201.692C234.018 201.697 233.976 201.702 233.939 201.707C233.918 201.707 233.897 201.713 233.87 201.713C233.791 201.718 233.707 201.724 233.627 201.729C233.512 201.734 233.396 201.739 233.28 201.739H72.6311C72.5156 201.739 72.3993 201.734 72.2838 201.729C72.2049 201.724 72.1208 201.718 72.0418 201.713C71.9527 201.707 71.8627 201.696 71.7735 201.681C71.7209 201.676 71.6682 201.671 71.6207 201.66C71.4941 201.644 71.3676 201.617 71.247 201.591C71.2105 201.586 71.1783 201.575 71.1418 201.565C71.0101 201.533 70.8785 201.502 70.7469 201.46C70.6679 201.433 70.5941 201.412 70.5202 201.386C70.167 201.264 69.8248 201.111 69.4979 200.938C69.4189 200.891 69.3399 200.843 69.261 200.796C69.1718 200.743 69.0818 200.685 68.9977 200.627C68.4764 200.273 68.0128 199.852 67.612 199.367C67.5169 199.257 67.4277 199.141 67.3436 199.02C67.0541 198.619 66.8112 198.188 66.6219 197.724C66.5794 197.619 66.5378 197.503 66.4954 197.392C66.4529 197.282 66.4215 197.166 66.385 197.05C66.3536 196.934 66.3222 196.818 66.2958 196.703C66.2695 196.592 66.2483 196.487 66.2271 196.376C66.222 196.361 66.222 196.339 66.2169 196.323C66.2007 196.218 66.1855 196.108 66.1744 196.002C66.1693 195.997 66.1693 195.986 66.1693 195.976C66.1591 195.892 66.1532 195.813 66.1481 195.729C66.132 195.566 66.1269 195.402 66.1269 195.234V104.304C66.1269 103.525 66.2636 102.777 66.5166 102.081C66.9174 100.98 67.6069 100.016 68.4976 99.2842C68.5086 99.274 68.5239 99.263 68.5401 99.2528L68.8772 98.9946C69.936 98.2415 71.2318 97.7991 72.6328 97.7991H233.281C233.439 97.7991 233.592 97.8042 233.745 97.8203C233.771 97.8152 233.802 97.8203 233.829 97.8254C233.976 97.8356 234.129 97.8517 234.271 97.8729C234.302 97.878 234.34 97.8831 234.371 97.8891C234.498 97.9103 234.624 97.9366 234.745 97.968C234.776 97.9731 234.808 97.9782 234.84 97.9893C234.993 98.0258 235.141 98.0682 235.287 98.1158C235.424 98.1582 235.567 98.2109 235.698 98.2635C235.888 98.3374 236.072 98.4266 236.251 98.5217C236.351 98.5692 236.452 98.6219 236.546 98.6796C236.715 98.7747 236.878 98.88 237.031 98.9955C237.036 98.9904 237.036 98.9955 237.036 98.9955L237.373 99.2536C237.389 99.2647 237.404 99.2748 237.415 99.285C237.505 99.3538 237.584 99.4277 237.663 99.5007C237.726 99.5534 237.785 99.6111 237.842 99.6697C238.022 99.8438 238.19 100.028 238.349 100.228C238.422 100.318 238.49 100.408 238.554 100.497C238.828 100.87 239.06 101.276 239.244 101.708C239.297 101.825 239.345 101.945 239.392 102.067C239.392 102.072 239.397 102.077 239.397 102.083C239.471 102.278 239.529 102.478 239.581 102.678C239.608 102.778 239.629 102.873 239.65 102.973C239.666 103.052 239.682 103.126 239.693 103.205C239.708 103.284 239.719 103.362 239.729 103.441C239.745 103.537 239.756 103.631 239.761 103.726C239.771 103.805 239.777 103.889 239.777 103.968C239.779 104.077 239.784 104.194 239.784 104.304Z" fill="#DFE5EA"/>
<path d="M239.395 102.081H66.5149C66.9157 100.98 67.6052 100.016 68.4959 99.2841C68.5069 99.2739 68.5222 99.2629 68.5383 99.2527L68.8754 98.9946L148.97 38.1951C151.325 36.4044 154.585 36.4044 156.94 38.1951L237.03 98.9946C237.035 98.9895 237.035 98.9946 237.035 98.9946L237.372 99.2527C237.388 99.2638 237.403 99.2739 237.414 99.2841C237.504 99.3529 237.583 99.4268 237.662 99.4998C237.725 99.5525 237.784 99.6102 237.842 99.6688C238.021 99.8429 238.189 100.027 238.348 100.228C238.422 100.317 238.489 100.407 238.553 100.496C238.827 100.869 239.059 101.275 239.243 101.708C239.296 101.824 239.344 101.944 239.391 102.066C239.39 102.071 239.395 102.076 239.395 102.081Z" fill="#5B97EF"/>
<path d="M227.316 197.006H76.4496V60.1176C76.4496 53.6864 81.6632 48.4719 88.0952 48.4719H215.67C222.101 48.4719 227.316 53.6855 227.316 60.1176V197.006Z" fill="white"/>
<path d="M207.311 81.339H96.4547C94.9017 81.339 93.6306 80.0687 93.6306 78.5157V77.315C93.6306 75.762 94.9017 74.4917 96.4547 74.4917H207.311C208.864 74.4917 210.134 75.762 210.134 77.315V78.5157C210.135 80.0687 208.864 81.339 207.311 81.339Z" fill="#E4ECF9"/>
<path d="M207.311 95.9692H96.4547C94.9017 95.9692 93.6306 94.699 93.6306 93.1459V91.9453C93.6306 90.3922 94.9017 89.1211 96.4547 89.1211H207.311C208.864 89.1211 210.134 90.3922 210.134 91.9453V93.1459C210.135 94.6981 208.864 95.9692 207.311 95.9692Z" fill="#E4ECF9"/>
<path d="M207.311 110.599H96.4547C94.9017 110.599 93.6306 109.328 93.6306 107.775V106.575C93.6306 105.022 94.9017 103.751 96.4547 103.751H207.311C208.864 103.751 210.134 105.022 210.134 106.575V107.775C210.135 109.328 208.864 110.599 207.311 110.599Z" fill="#E4ECF9"/>
<path d="M207.311 125.228H96.4547C94.9017 125.228 93.6306 123.957 93.6306 122.404V121.203C93.6306 119.65 94.9017 118.38 96.4547 118.38H207.311C208.864 118.38 210.134 119.65 210.134 121.203V122.404C210.135 123.957 208.864 125.228 207.311 125.228Z" fill="#E4ECF9"/>
<path d="M207.311 139.858H96.4547C94.9017 139.858 93.6306 138.587 93.6306 137.034V135.834C93.6306 134.281 94.9017 133.01 96.4547 133.01H207.311C208.864 133.01 210.134 134.281 210.134 135.834V137.034C210.135 138.587 208.864 139.858 207.311 139.858Z" fill="#E4ECF9"/>
<path d="M152.958 152.208V152.213C152.705 152.487 152.405 152.74 152.062 152.951L72.9886 201.74H72.6302C71.9722 201.74 71.3396 201.645 70.7444 201.46C70.6603 201.434 70.5754 201.408 70.4964 201.381C69.4588 201.023 68.5366 200.407 67.8149 199.606C67.7461 199.532 67.6782 199.453 67.6094 199.369C67.409 199.132 67.2299 198.874 67.0668 198.605C67.0091 198.516 66.9615 198.426 66.9089 198.336C66.8613 198.241 66.8087 198.147 66.7671 198.052C66.3561 197.199 66.1243 196.245 66.1243 195.234V104.304C66.1243 103.525 66.261 102.777 66.514 102.081C66.9148 100.98 67.6043 100.016 68.495 99.2842C68.5061 99.274 68.5214 99.263 68.5375 99.2528L68.8746 98.9946C69.9334 98.2415 71.2292 97.7991 72.6302 97.7991H74.1154L81.0586 102.082L145.061 141.574L147.468 143.059L152.062 145.893C152.404 146.104 152.705 146.357 152.958 146.63V146.635C154.385 148.199 154.385 150.649 152.958 152.208Z" fill="#3B82F4"/>
<path d="M239.784 104.304V195.235C239.784 195.345 239.779 195.455 239.774 195.572C239.774 195.624 239.769 195.677 239.764 195.73C239.764 195.777 239.759 195.83 239.754 195.882C239.754 195.904 239.749 195.925 239.749 195.945C239.744 195.983 239.739 196.014 239.733 196.046C239.728 196.124 239.711 196.203 239.701 196.282C239.691 196.356 239.675 196.435 239.659 196.509C239.659 196.519 239.654 196.535 239.654 196.546C239.649 196.567 239.643 196.593 239.632 196.62C239.632 196.646 239.627 196.677 239.616 196.704C239.611 196.74 239.6 196.777 239.59 196.814C239.574 196.883 239.559 196.946 239.537 197.014C239.537 197.025 239.532 197.041 239.527 197.051C239.496 197.167 239.458 197.283 239.417 197.393C239.417 197.398 239.417 197.404 239.412 197.409C239.39 197.467 239.374 197.52 239.349 197.578C239.333 197.626 239.311 197.673 239.291 197.726C239.286 197.736 239.28 197.752 239.275 197.768C239.212 197.911 239.148 198.058 239.075 198.195C239.053 198.237 239.027 198.29 239.001 198.337C238.974 198.385 238.948 198.426 238.922 198.474C238.895 198.516 238.874 198.563 238.843 198.606C238.79 198.695 238.732 198.785 238.674 198.869C238.637 198.927 238.6 198.974 238.568 199.027C238.479 199.148 238.389 199.259 238.3 199.369C238.231 199.453 238.163 199.532 238.095 199.606C238.026 199.685 237.953 199.759 237.879 199.833C237.848 199.87 237.81 199.901 237.774 199.938C237.742 199.969 237.711 200.001 237.674 200.027C237.637 200.064 237.595 200.101 237.552 200.137C237.542 200.148 237.526 200.159 237.515 200.169C237.415 200.258 237.309 200.343 237.204 200.422C237.194 200.427 237.183 200.438 237.173 200.448C237.088 200.506 237.004 200.57 236.914 200.627C236.883 200.649 236.857 200.67 236.83 200.685C236.783 200.717 236.735 200.748 236.689 200.775C236.652 200.801 236.615 200.823 236.572 200.844C236.53 200.87 236.488 200.897 236.446 200.918C236.151 201.087 235.84 201.229 235.518 201.344C235.497 201.349 235.476 201.36 235.461 201.365C235.439 201.37 235.413 201.381 235.392 201.386C235.318 201.413 235.244 201.439 235.165 201.46C235.034 201.503 234.902 201.534 234.77 201.566C234.702 201.582 234.634 201.597 234.565 201.613C234.522 201.623 234.476 201.629 234.433 201.634C234.381 201.645 234.323 201.656 234.27 201.666H234.254C234.207 201.671 234.159 201.682 234.117 201.687C234.096 201.687 234.075 201.692 234.055 201.692C234.018 201.697 233.981 201.702 233.939 201.707C233.918 201.707 233.897 201.713 233.87 201.713C233.791 201.718 233.707 201.724 233.627 201.729C233.512 201.734 233.396 201.739 233.28 201.739H232.922L153.848 152.95C153.506 152.74 153.206 152.487 152.959 152.212V152.207C151.526 150.642 151.526 148.204 152.959 146.634V146.628C153.207 146.355 153.506 146.102 153.848 145.891L158.436 143.057L160.844 141.572L224.851 102.08L231.793 97.7974H233.278C233.436 97.7974 233.589 97.8025 233.742 97.8186C233.768 97.8135 233.8 97.8186 233.826 97.8237C233.974 97.8339 234.127 97.85 234.269 97.8712C234.3 97.8763 234.337 97.8814 234.369 97.8874C234.495 97.9086 234.622 97.9349 234.742 97.9663C234.774 97.9714 234.805 97.9765 234.837 97.9876C234.99 98.0241 235.138 98.0665 235.285 98.1141C235.422 98.1565 235.564 98.2092 235.696 98.2618C235.885 98.3357 236.07 98.4249 236.249 98.52C236.349 98.5675 236.449 98.6202 236.543 98.6779C236.712 98.773 236.875 98.8783 237.028 98.9938C237.033 98.9887 237.033 98.9938 237.033 98.9938L237.37 99.2519C237.387 99.2629 237.402 99.2731 237.413 99.2833C237.502 99.3521 237.582 99.426 237.661 99.499C237.724 99.5516 237.782 99.6094 237.84 99.668C238.019 99.842 238.187 100.026 238.346 100.227C238.42 100.316 238.488 100.406 238.551 100.495C238.826 100.869 239.058 101.275 239.242 101.707C239.294 101.823 239.342 101.944 239.39 102.065C239.39 102.07 239.395 102.075 239.395 102.081C239.469 102.276 239.526 102.476 239.579 102.676C239.605 102.777 239.626 102.872 239.648 102.971C239.664 103.05 239.679 103.124 239.69 103.203C239.705 103.282 239.716 103.361 239.727 103.44C239.743 103.535 239.753 103.629 239.758 103.724C239.768 103.803 239.774 103.887 239.774 103.966C239.779 104.077 239.784 104.194 239.784 104.304Z" fill="#3B82F4"/>
<path opacity="0.29" d="M239.784 194.003V194.949C239.784 198.699 236.871 201.74 233.278 201.74H72.6311C69.0385 201.74 66.1252 198.699 66.1252 194.949V194.003L148.754 139.639C151.319 137.951 154.586 137.951 157.151 139.639L239.784 194.003Z" fill="#474747"/>
<path d="M239.784 194.329V195.235C239.784 198.827 236.871 201.74 233.278 201.74H72.6311C69.0385 201.74 66.1252 198.826 66.1252 195.235V194.329L148.754 142.247C151.319 140.63 154.586 140.63 157.151 142.247L239.784 194.329Z" fill="#5B97EF"/>
<path d="M144.801 66.7094H96.4547C94.9017 66.7094 93.6306 65.4391 93.6306 63.886V62.6854C93.6306 61.1323 94.9017 59.8621 96.4547 59.8621H144.801C146.354 59.8621 147.624 61.1323 147.624 62.6854V63.886C147.624 65.4391 146.354 66.7094 144.801 66.7094Z" fill="#3B82F4"/>
</g>
<defs>
<clipPath id="clip0_335_5612">
<rect width="295.082" height="230" fill="white"/>
</clipPath>
</defs>
</svg>
