<svg width="414" height="221" viewBox="0 0 414 221" fill="none" xmlns="http://www.w3.org/2000/svg">
<path fill-rule="evenodd" clip-rule="evenodd" d="M153.933 51.7603C132.517 37.9699 109.108 24.9493 87.0252 10.9557C72.0573 1.47292 58.1826 1.38399 51.1354 1.83597C42.2809 2.40341 36.9797 3.14561 32.1103 4.08962C29.1533 4.66382 44.7074 1.7741 65.1874 10.2801C81.3359 16.987 122.667 48.2043 158.811 64.3798C190.454 78.5415 231.049 71.3499 253 53.756C238.124 64.1588 194.388 77.8082 153.933 51.7603Z" fill="#FCFCFC"/>
<path fill-rule="evenodd" clip-rule="evenodd" d="M76.0811 0.672372C81.3342 0.941244 90.5761 1.90194 106.996 12.3417C120.416 20.8747 166.571 50.2429 179.06 55.454C201.858 64.9669 220.407 59.2644 231.423 54.9038C225.015 57.0612 205.803 60.3217 189.887 52.9528C174.203 45.6925 126.583 10.5473 105.848 3.53455C91.8295 -1.20681 81.9292 -0.0526905 76.0811 0.672372Z" fill="#FCFCFC"/>
<path fill-rule="evenodd" clip-rule="evenodd" d="M10.3359 60.7586C11.0879 37.9053 23.5534 21.5034 40.9694 12.2251C32.2016 12.0363 26.211 14.264 22.9622 15.9564C6.78255 25.5624 0 41.8634 0 57.9874C0 75.7286 13.9107 98.8747 36.833 105.58C20.8446 95.8263 9.72121 79.3912 10.3359 60.7586Z" fill="#FCFCFC"/>
<path fill-rule="evenodd" clip-rule="evenodd" d="M142.695 96.165C139.352 98.6064 134.486 102.472 131.915 104.368C141.079 101.215 147.418 98.1794 151.388 96.0142C148.433 96.2077 145.527 96.2451 142.695 96.165Z" fill="#FCFCFC"/>
<path fill-rule="evenodd" clip-rule="evenodd" d="M131.023 95.1763C125.627 99.3471 110.289 110.258 110.282 110.261C115.347 109.359 122.099 106.7 127.05 103.445C129.294 101.968 134.539 98.0161 137.535 95.8888C135.294 95.712 133.117 95.4686 131.023 95.1763Z" fill="#FCFCFC"/>
<path fill-rule="evenodd" clip-rule="evenodd" d="M118.821 92.8081C113.29 96.3085 105.486 101.682 101.057 104.987C88.2604 114.535 81.3437 114.055 79.5483 114.352C87.4735 113.907 97.5011 113.19 102.516 109.817C108.744 105.629 118.57 98.6464 125.145 94.1989C122.891 93.7667 120.773 93.2934 118.821 92.8081Z" fill="#FCFCFC"/>
<path fill-rule="evenodd" clip-rule="evenodd" d="M106.675 89.0718C89.902 100.206 76.0577 108.015 64.9659 110.977C61.229 111.975 57.6174 112.536 54.2015 112.781C54.1998 112.781 54.1976 112.781 54.1976 112.781C48.6958 113.456 42.0746 112.991 36.3037 112.24C41.4846 113.722 48.5634 114.983 57.625 114.983C58.2745 114.983 70.595 115.617 83.9297 109.099C92.1429 105.086 103.415 97.0857 112.648 91.0986C110.045 90.3003 108.007 89.5752 106.675 89.0718H106.675Z" fill="#FCFCFC"/>
<path d="M14.0137 169.682C14.0137 170.867 13.7174 171.878 13.125 172.717C12.5417 173.546 11.7214 174.18 10.6641 174.617C9.60677 175.055 8.36263 175.273 6.93164 175.273C6.17513 175.273 5.45964 175.237 4.78516 175.164C4.11068 175.091 3.49089 174.986 2.92578 174.85C2.36068 174.713 1.86393 174.544 1.43555 174.344V172.115C2.11914 172.398 2.95312 172.662 3.9375 172.908C4.92188 173.145 5.95182 173.264 7.02734 173.264C8.02995 173.264 8.8776 173.132 9.57031 172.867C10.263 172.594 10.7871 172.206 11.1426 171.705C11.5072 171.195 11.6895 170.584 11.6895 169.873C11.6895 169.189 11.5391 168.62 11.2383 168.164C10.9375 167.699 10.4362 167.28 9.73438 166.906C9.04167 166.523 8.09375 166.118 6.89062 165.689C6.04297 165.389 5.29557 165.061 4.64844 164.705C4.0013 164.34 3.45898 163.93 3.02148 163.475C2.58398 163.019 2.2513 162.49 2.02344 161.889C1.80469 161.287 1.69531 160.599 1.69531 159.824C1.69531 158.758 1.96419 157.846 2.50195 157.09C3.04883 156.324 3.80078 155.741 4.75781 155.34C5.72396 154.93 6.83138 154.725 8.08008 154.725C9.14648 154.725 10.1309 154.825 11.0332 155.025C11.9447 155.226 12.7786 155.495 13.5352 155.832L12.8105 157.828C12.0905 157.527 11.3249 157.277 10.5137 157.076C9.71159 156.876 8.88216 156.775 8.02539 156.775C7.16862 156.775 6.44401 156.903 5.85156 157.158C5.26823 157.404 4.82161 157.755 4.51172 158.211C4.20182 158.667 4.04688 159.209 4.04688 159.838C4.04688 160.54 4.19271 161.123 4.48438 161.588C4.78516 162.053 5.25911 162.467 5.90625 162.832C6.5625 163.188 7.42839 163.561 8.50391 163.953C9.67969 164.382 10.6777 164.837 11.498 165.32C12.3184 165.794 12.9427 166.378 13.3711 167.07C13.7995 167.754 14.0137 168.624 14.0137 169.682ZM24.8008 159.742C26.6693 159.742 28.1595 160.385 29.2715 161.67C30.3835 162.955 30.9395 164.887 30.9395 167.467C30.9395 169.171 30.6842 170.602 30.1738 171.76C29.6634 172.917 28.9434 173.792 28.0137 174.385C27.0931 174.977 26.0039 175.273 24.7461 175.273C23.9531 175.273 23.2559 175.169 22.6543 174.959C22.0527 174.749 21.5378 174.467 21.1094 174.111C20.681 173.756 20.3255 173.368 20.043 172.949H19.8789C19.9062 173.305 19.9382 173.733 19.9746 174.234C20.0202 174.736 20.043 175.173 20.043 175.547V181.699H17.7598V160.016H19.6328L19.9336 162.23H20.043C20.3346 161.775 20.6901 161.36 21.1094 160.986C21.5286 160.604 22.0391 160.303 22.6406 160.084C23.2513 159.856 23.9714 159.742 24.8008 159.742ZM24.4043 161.656C23.3652 161.656 22.5267 161.857 21.8887 162.258C21.2598 162.659 20.7995 163.26 20.5078 164.062C20.2161 164.855 20.0612 165.854 20.043 167.057V167.494C20.043 168.761 20.1797 169.832 20.4531 170.707C20.7357 171.582 21.196 172.247 21.834 172.703C22.4811 173.159 23.347 173.387 24.4316 173.387C25.3613 173.387 26.1361 173.136 26.7559 172.635C27.3757 172.133 27.8359 171.436 28.1367 170.543C28.4466 169.641 28.6016 168.606 28.6016 167.439C28.6016 165.671 28.2552 164.268 27.5625 163.229C26.8789 162.18 25.8262 161.656 24.4043 161.656ZM40.6738 159.742C41.9499 159.742 43.0436 160.025 43.9551 160.59C44.8665 161.155 45.5638 161.948 46.0469 162.969C46.5299 163.98 46.7715 165.165 46.7715 166.523V167.932H36.4219C36.4492 169.691 36.8867 171.031 37.7344 171.951C38.582 172.872 39.776 173.332 41.3164 173.332C42.2643 173.332 43.1029 173.245 43.832 173.072C44.5612 172.899 45.3177 172.644 46.1016 172.307V174.303C45.3451 174.64 44.5931 174.886 43.8457 175.041C43.1074 175.196 42.2324 175.273 41.2207 175.273C39.7806 175.273 38.5228 174.982 37.4473 174.398C36.3809 173.806 35.5514 172.94 34.959 171.801C34.3665 170.661 34.0703 169.267 34.0703 167.617C34.0703 166.004 34.3392 164.609 34.877 163.434C35.4238 162.249 36.1895 161.337 37.1738 160.699C38.1673 160.061 39.334 159.742 40.6738 159.742ZM40.6465 161.602C39.4342 161.602 38.4681 161.998 37.748 162.791C37.028 163.584 36.5996 164.691 36.4629 166.113H44.3926C44.3835 165.22 44.2422 164.436 43.9688 163.762C43.7044 163.078 43.2988 162.549 42.752 162.176C42.2051 161.793 41.5033 161.602 40.6465 161.602ZM56.6289 175.273C55.2799 175.273 54.0905 174.995 53.0605 174.439C52.0306 173.883 51.2285 173.036 50.6543 171.896C50.0801 170.757 49.793 169.322 49.793 167.59C49.793 165.776 50.0938 164.295 50.6953 163.146C51.306 161.989 52.1445 161.132 53.2109 160.576C54.2773 160.02 55.4896 159.742 56.8477 159.742C57.5951 159.742 58.3151 159.82 59.0078 159.975C59.7096 160.12 60.2839 160.307 60.7305 160.535L60.0469 162.436C59.5911 162.253 59.0625 162.089 58.4609 161.943C57.8685 161.798 57.3125 161.725 56.793 161.725C55.7539 161.725 54.888 161.948 54.1953 162.395C53.5117 162.841 52.9967 163.497 52.6504 164.363C52.3132 165.229 52.1445 166.296 52.1445 167.562C52.1445 168.775 52.3086 169.809 52.6367 170.666C52.974 171.523 53.4707 172.179 54.127 172.635C54.7923 173.081 55.6217 173.305 56.6152 173.305C57.4082 173.305 58.1237 173.223 58.7617 173.059C59.3997 172.885 59.9785 172.685 60.498 172.457V174.48C59.9967 174.736 59.4362 174.932 58.8164 175.068C58.2057 175.205 57.4766 175.273 56.6289 175.273ZM66.3223 160.016V175H64.0527V160.016H66.3223ZM65.2148 154.41C65.5885 154.41 65.9076 154.533 66.1719 154.779C66.4453 155.016 66.582 155.39 66.582 155.9C66.582 156.402 66.4453 156.775 66.1719 157.021C65.9076 157.268 65.5885 157.391 65.2148 157.391C64.8229 157.391 64.4948 157.268 64.2305 157.021C63.9753 156.775 63.8477 156.402 63.8477 155.9C63.8477 155.39 63.9753 155.016 64.2305 154.779C64.4948 154.533 64.8229 154.41 65.2148 154.41ZM76.7402 159.77C78.5267 159.77 79.8529 160.171 80.7188 160.973C81.5846 161.775 82.0176 163.055 82.0176 164.814V175H80.3633L79.9258 172.785H79.8164C79.3971 173.332 78.9596 173.792 78.5039 174.166C78.0482 174.531 77.5195 174.809 76.918 175C76.3255 175.182 75.5964 175.273 74.7305 175.273C73.819 175.273 73.0078 175.114 72.2969 174.795C71.5951 174.476 71.0391 173.993 70.6289 173.346C70.2279 172.699 70.0273 171.878 70.0273 170.885C70.0273 169.39 70.6198 168.242 71.8047 167.439C72.9896 166.637 74.7943 166.2 77.2188 166.127L79.8027 166.018V165.102C79.8027 163.807 79.5247 162.9 78.9688 162.381C78.4128 161.861 77.6289 161.602 76.6172 161.602C75.8333 161.602 75.0859 161.715 74.375 161.943C73.6641 162.171 72.9896 162.44 72.3516 162.75L71.6543 161.027C72.3288 160.681 73.1035 160.385 73.9785 160.139C74.8535 159.893 75.7741 159.77 76.7402 159.77ZM79.7754 167.617L77.4922 167.713C75.6237 167.786 74.3066 168.091 73.541 168.629C72.7754 169.167 72.3926 169.928 72.3926 170.912C72.3926 171.769 72.6523 172.402 73.1719 172.812C73.6914 173.223 74.3796 173.428 75.2363 173.428C76.5671 173.428 77.6562 173.059 78.5039 172.32C79.3516 171.582 79.7754 170.475 79.7754 168.998V167.617ZM88.9766 175H86.6934V153.727H88.9766V175ZM112.52 175H101.391V155.012H112.52V157.062H103.715V163.529H112.014V165.553H103.715V172.949H112.52V175ZM122.609 175.273C121.26 175.273 120.071 174.995 119.041 174.439C118.011 173.883 117.209 173.036 116.635 171.896C116.061 170.757 115.773 169.322 115.773 167.59C115.773 165.776 116.074 164.295 116.676 163.146C117.286 161.989 118.125 161.132 119.191 160.576C120.258 160.02 121.47 159.742 122.828 159.742C123.576 159.742 124.296 159.82 124.988 159.975C125.69 160.12 126.264 160.307 126.711 160.535L126.027 162.436C125.572 162.253 125.043 162.089 124.441 161.943C123.849 161.798 123.293 161.725 122.773 161.725C121.734 161.725 120.868 161.948 120.176 162.395C119.492 162.841 118.977 163.497 118.631 164.363C118.294 165.229 118.125 166.296 118.125 167.562C118.125 168.775 118.289 169.809 118.617 170.666C118.954 171.523 119.451 172.179 120.107 172.635C120.773 173.081 121.602 173.305 122.596 173.305C123.389 173.305 124.104 173.223 124.742 173.059C125.38 172.885 125.959 172.685 126.479 172.457V174.48C125.977 174.736 125.417 174.932 124.797 175.068C124.186 175.205 123.457 175.273 122.609 175.273ZM142.953 167.48C142.953 168.711 142.794 169.809 142.475 170.775C142.156 171.742 141.695 172.557 141.094 173.223C140.492 173.888 139.763 174.398 138.906 174.754C138.059 175.1 137.097 175.273 136.021 175.273C135.019 175.273 134.098 175.1 133.26 174.754C132.43 174.398 131.71 173.888 131.1 173.223C130.498 172.557 130.029 171.742 129.691 170.775C129.363 169.809 129.199 168.711 129.199 167.48C129.199 165.84 129.477 164.445 130.033 163.297C130.589 162.139 131.382 161.26 132.412 160.658C133.451 160.048 134.686 159.742 136.117 159.742C137.484 159.742 138.678 160.048 139.699 160.658C140.729 161.269 141.527 162.153 142.092 163.311C142.666 164.459 142.953 165.849 142.953 167.48ZM131.551 167.48C131.551 168.684 131.71 169.727 132.029 170.611C132.348 171.495 132.84 172.179 133.506 172.662C134.171 173.145 135.028 173.387 136.076 173.387C137.115 173.387 137.967 173.145 138.633 172.662C139.307 172.179 139.804 171.495 140.123 170.611C140.442 169.727 140.602 168.684 140.602 167.48C140.602 166.286 140.442 165.257 140.123 164.391C139.804 163.516 139.312 162.841 138.646 162.367C137.981 161.893 137.12 161.656 136.062 161.656C134.504 161.656 133.36 162.171 132.631 163.201C131.911 164.231 131.551 165.658 131.551 167.48ZM153.973 159.742C155.75 159.742 157.094 160.18 158.006 161.055C158.917 161.921 159.373 163.315 159.373 165.238V175H157.131V165.389C157.131 164.14 156.844 163.206 156.27 162.586C155.704 161.966 154.834 161.656 153.658 161.656C151.999 161.656 150.833 162.126 150.158 163.064C149.484 164.003 149.146 165.366 149.146 167.152V175H146.877V160.016H148.709L149.051 162.176H149.174C149.493 161.647 149.898 161.205 150.391 160.85C150.883 160.485 151.434 160.212 152.045 160.029C152.656 159.838 153.298 159.742 153.973 159.742ZM176.969 167.48C176.969 168.711 176.809 169.809 176.49 170.775C176.171 171.742 175.711 172.557 175.109 173.223C174.508 173.888 173.779 174.398 172.922 174.754C172.074 175.1 171.113 175.273 170.037 175.273C169.035 175.273 168.114 175.1 167.275 174.754C166.446 174.398 165.726 173.888 165.115 173.223C164.514 172.557 164.044 171.742 163.707 170.775C163.379 169.809 163.215 168.711 163.215 167.48C163.215 165.84 163.493 164.445 164.049 163.297C164.605 162.139 165.398 161.26 166.428 160.658C167.467 160.048 168.702 159.742 170.133 159.742C171.5 159.742 172.694 160.048 173.715 160.658C174.745 161.269 175.542 162.153 176.107 163.311C176.682 164.459 176.969 165.849 176.969 167.48ZM165.566 167.48C165.566 168.684 165.726 169.727 166.045 170.611C166.364 171.495 166.856 172.179 167.521 172.662C168.187 173.145 169.044 173.387 170.092 173.387C171.131 173.387 171.983 173.145 172.648 172.662C173.323 172.179 173.82 171.495 174.139 170.611C174.458 169.727 174.617 168.684 174.617 167.48C174.617 166.286 174.458 165.257 174.139 164.391C173.82 163.516 173.327 162.841 172.662 162.367C171.997 161.893 171.135 161.656 170.078 161.656C168.52 161.656 167.376 162.171 166.646 163.201C165.926 164.231 165.566 165.658 165.566 167.48ZM197.162 159.742C198.812 159.742 200.056 160.175 200.895 161.041C201.733 161.898 202.152 163.279 202.152 165.184V175H199.91V165.293C199.91 164.081 199.646 163.174 199.117 162.572C198.598 161.962 197.823 161.656 196.793 161.656C195.344 161.656 194.291 162.076 193.635 162.914C192.979 163.753 192.65 164.988 192.65 166.619V175H190.395V165.293C190.395 164.482 190.276 163.807 190.039 163.27C189.811 162.732 189.465 162.331 189 162.066C188.544 161.793 187.965 161.656 187.264 161.656C186.27 161.656 185.473 161.861 184.871 162.271C184.27 162.682 183.832 163.292 183.559 164.104C183.294 164.906 183.162 165.895 183.162 167.07V175H180.893V160.016H182.725L183.066 162.135H183.189C183.49 161.615 183.868 161.178 184.324 160.822C184.78 160.467 185.29 160.198 185.855 160.016C186.421 159.833 187.022 159.742 187.66 159.742C188.799 159.742 189.752 159.956 190.518 160.385C191.292 160.804 191.853 161.447 192.199 162.312H192.322C192.814 161.447 193.489 160.804 194.346 160.385C195.202 159.956 196.141 159.742 197.162 159.742ZM209.084 160.016V175H206.814V160.016H209.084ZM207.977 154.41C208.35 154.41 208.669 154.533 208.934 154.779C209.207 155.016 209.344 155.39 209.344 155.9C209.344 156.402 209.207 156.775 208.934 157.021C208.669 157.268 208.35 157.391 207.977 157.391C207.585 157.391 207.257 157.268 206.992 157.021C206.737 156.775 206.609 156.402 206.609 155.9C206.609 155.39 206.737 155.016 206.992 154.779C207.257 154.533 207.585 154.41 207.977 154.41ZM219.898 175.273C218.549 175.273 217.36 174.995 216.33 174.439C215.3 173.883 214.498 173.036 213.924 171.896C213.35 170.757 213.062 169.322 213.062 167.59C213.062 165.776 213.363 164.295 213.965 163.146C214.576 161.989 215.414 161.132 216.48 160.576C217.547 160.02 218.759 159.742 220.117 159.742C220.865 159.742 221.585 159.82 222.277 159.975C222.979 160.12 223.553 160.307 224 160.535L223.316 162.436C222.861 162.253 222.332 162.089 221.73 161.943C221.138 161.798 220.582 161.725 220.062 161.725C219.023 161.725 218.158 161.948 217.465 162.395C216.781 162.841 216.266 163.497 215.92 164.363C215.583 165.229 215.414 166.296 215.414 167.562C215.414 168.775 215.578 169.809 215.906 170.666C216.243 171.523 216.74 172.179 217.396 172.635C218.062 173.081 218.891 173.305 219.885 173.305C220.678 173.305 221.393 173.223 222.031 173.059C222.669 172.885 223.248 172.685 223.768 172.457V174.48C223.266 174.736 222.706 174.932 222.086 175.068C221.475 175.205 220.746 175.273 219.898 175.273ZM247.146 175H233.27V173.25L244.029 157.09H233.639V155.012H246.859V156.762L236.086 172.922H247.146V175ZM263.539 167.48C263.539 168.711 263.38 169.809 263.061 170.775C262.742 171.742 262.281 172.557 261.68 173.223C261.078 173.888 260.349 174.398 259.492 174.754C258.645 175.1 257.683 175.273 256.607 175.273C255.605 175.273 254.684 175.1 253.846 174.754C253.016 174.398 252.296 173.888 251.686 173.223C251.084 172.557 250.615 171.742 250.277 170.775C249.949 169.809 249.785 168.711 249.785 167.48C249.785 165.84 250.063 164.445 250.619 163.297C251.175 162.139 251.968 161.26 252.998 160.658C254.037 160.048 255.272 159.742 256.703 159.742C258.07 159.742 259.264 160.048 260.285 160.658C261.315 161.269 262.113 162.153 262.678 163.311C263.252 164.459 263.539 165.849 263.539 167.48ZM252.137 167.48C252.137 168.684 252.296 169.727 252.615 170.611C252.934 171.495 253.426 172.179 254.092 172.662C254.757 173.145 255.614 173.387 256.662 173.387C257.701 173.387 258.553 173.145 259.219 172.662C259.893 172.179 260.39 171.495 260.709 170.611C261.028 169.727 261.188 168.684 261.188 167.48C261.188 166.286 261.028 165.257 260.709 164.391C260.39 163.516 259.898 162.841 259.232 162.367C258.567 161.893 257.706 161.656 256.648 161.656C255.09 161.656 253.946 162.171 253.217 163.201C252.497 164.231 252.137 165.658 252.137 167.48ZM274.559 159.742C276.336 159.742 277.68 160.18 278.592 161.055C279.503 161.921 279.959 163.315 279.959 165.238V175H277.717V165.389C277.717 164.14 277.43 163.206 276.855 162.586C276.29 161.966 275.42 161.656 274.244 161.656C272.585 161.656 271.419 162.126 270.744 163.064C270.07 164.003 269.732 165.366 269.732 167.152V175H267.463V160.016H269.295L269.637 162.176H269.76C270.079 161.647 270.484 161.205 270.977 160.85C271.469 160.485 272.02 160.212 272.631 160.029C273.242 159.838 273.884 159.742 274.559 159.742ZM290.404 159.742C291.68 159.742 292.774 160.025 293.686 160.59C294.597 161.155 295.294 161.948 295.777 162.969C296.26 163.98 296.502 165.165 296.502 166.523V167.932H286.152C286.18 169.691 286.617 171.031 287.465 171.951C288.312 172.872 289.507 173.332 291.047 173.332C291.995 173.332 292.833 173.245 293.562 173.072C294.292 172.899 295.048 172.644 295.832 172.307V174.303C295.076 174.64 294.324 174.886 293.576 175.041C292.838 175.196 291.963 175.273 290.951 175.273C289.511 175.273 288.253 174.982 287.178 174.398C286.111 173.806 285.282 172.94 284.689 171.801C284.097 170.661 283.801 169.267 283.801 167.617C283.801 166.004 284.07 164.609 284.607 163.434C285.154 162.249 285.92 161.337 286.904 160.699C287.898 160.061 289.064 159.742 290.404 159.742ZM290.377 161.602C289.165 161.602 288.199 161.998 287.479 162.791C286.758 163.584 286.33 164.691 286.193 166.113H294.123C294.114 165.22 293.973 164.436 293.699 163.762C293.435 163.078 293.029 162.549 292.482 162.176C291.936 161.793 291.234 161.602 290.377 161.602ZM9.41992 193.012C9.22852 193.714 9.03711 194.475 8.8457 195.295C8.66341 196.106 8.49479 196.908 8.33984 197.701C8.1849 198.494 8.06185 199.214 7.9707 199.861H5.55078L5.3457 199.561C5.50977 198.895 5.7194 198.184 5.97461 197.428C6.23893 196.671 6.52148 195.915 6.82227 195.158C7.13216 194.393 7.44206 193.677 7.75195 193.012H9.41992ZM4.38867 193.012C4.19727 193.714 4.00586 194.475 3.81445 195.295C3.63216 196.106 3.46354 196.908 3.30859 197.701C3.15365 198.494 3.0306 199.214 2.93945 199.861H0.533203L0.369141 199.561C0.533203 198.895 0.738281 198.184 0.984375 197.428C1.23958 196.671 1.51758 195.915 1.81836 195.158C2.11914 194.393 2.42448 193.677 2.73438 193.012H4.38867ZM17.7188 193.012C20.2982 193.012 22.1803 193.518 23.3652 194.529C24.5592 195.532 25.1562 196.972 25.1562 198.85C25.1562 199.697 25.015 200.504 24.7324 201.27C24.459 202.026 24.0124 202.696 23.3926 203.279C22.7728 203.854 21.957 204.309 20.9453 204.646C19.9427 204.975 18.7122 205.139 17.2539 205.139H14.8203V213H12.4961V193.012H17.7188ZM17.5 194.994H14.8203V203.143H16.9941C18.2702 203.143 19.332 203.006 20.1797 202.732C21.0365 202.459 21.679 202.017 22.1074 201.406C22.5358 200.786 22.75 199.966 22.75 198.945C22.75 197.615 22.3262 196.626 21.4785 195.979C20.6309 195.322 19.3047 194.994 17.5 194.994ZM34.6035 197.77C36.39 197.77 37.7161 198.171 38.582 198.973C39.4479 199.775 39.8809 201.055 39.8809 202.814V213H38.2266L37.7891 210.785H37.6797C37.2604 211.332 36.8229 211.792 36.3672 212.166C35.9115 212.531 35.3828 212.809 34.7812 213C34.1888 213.182 33.4596 213.273 32.5938 213.273C31.6823 213.273 30.8711 213.114 30.1602 212.795C29.4583 212.476 28.9023 211.993 28.4922 211.346C28.0911 210.699 27.8906 209.878 27.8906 208.885C27.8906 207.39 28.4831 206.242 29.668 205.439C30.8529 204.637 32.6576 204.2 35.082 204.127L37.666 204.018V203.102C37.666 201.807 37.388 200.9 36.832 200.381C36.276 199.861 35.4922 199.602 34.4805 199.602C33.6966 199.602 32.9492 199.715 32.2383 199.943C31.5273 200.171 30.8529 200.44 30.2148 200.75L29.5176 199.027C30.1921 198.681 30.9668 198.385 31.8418 198.139C32.7168 197.893 33.6374 197.77 34.6035 197.77ZM37.6387 205.617L35.3555 205.713C33.487 205.786 32.1699 206.091 31.4043 206.629C30.6387 207.167 30.2559 207.928 30.2559 208.912C30.2559 209.769 30.5156 210.402 31.0352 210.812C31.5547 211.223 32.2428 211.428 33.0996 211.428C34.4303 211.428 35.5195 211.059 36.3672 210.32C37.2148 209.582 37.6387 208.475 37.6387 206.998V205.617ZM47.8516 213L42.1641 198.016H44.5977L47.8926 207.08C48.1204 207.7 48.3529 208.383 48.5898 209.131C48.8268 209.878 48.9909 210.48 49.082 210.936H49.1777C49.2871 210.48 49.4694 209.878 49.7246 209.131C49.9798 208.374 50.2122 207.691 50.4219 207.08L53.7168 198.016H56.1504L50.4492 213H47.8516ZM60.8398 213H58.5566V191.727H60.8398V213ZM78.5586 205.48C78.5586 206.711 78.3991 207.809 78.0801 208.775C77.7611 209.742 77.3008 210.557 76.6992 211.223C76.0977 211.888 75.3685 212.398 74.5117 212.754C73.6641 213.1 72.7025 213.273 71.627 213.273C70.6243 213.273 69.7038 213.1 68.8652 212.754C68.0358 212.398 67.3158 211.888 66.7051 211.223C66.1035 210.557 65.6341 209.742 65.2969 208.775C64.9688 207.809 64.8047 206.711 64.8047 205.48C64.8047 203.84 65.0827 202.445 65.6387 201.297C66.1947 200.139 66.9876 199.26 68.0176 198.658C69.0566 198.048 70.2917 197.742 71.7227 197.742C73.0898 197.742 74.2839 198.048 75.3047 198.658C76.3346 199.269 77.1322 200.153 77.6973 201.311C78.2715 202.459 78.5586 203.849 78.5586 205.48ZM67.1562 205.48C67.1562 206.684 67.3158 207.727 67.6348 208.611C67.9538 209.495 68.446 210.179 69.1113 210.662C69.7767 211.145 70.6335 211.387 71.6816 211.387C72.7207 211.387 73.5729 211.145 74.2383 210.662C74.9128 210.179 75.4095 209.495 75.7285 208.611C76.0475 207.727 76.207 206.684 76.207 205.48C76.207 204.286 76.0475 203.257 75.7285 202.391C75.4095 201.516 74.9173 200.841 74.252 200.367C73.5866 199.893 72.7253 199.656 71.668 199.656C70.1094 199.656 68.9655 200.171 68.2363 201.201C67.5163 202.231 67.1562 203.658 67.1562 205.48ZM87.8145 213.273C85.9186 213.273 84.4147 212.626 83.3027 211.332C82.1999 210.038 81.6484 208.115 81.6484 205.562C81.6484 202.983 82.2135 201.037 83.3438 199.725C84.474 198.403 85.9779 197.742 87.8555 197.742C88.6484 197.742 89.3411 197.847 89.9336 198.057C90.526 198.266 91.0365 198.549 91.4648 198.904C91.8932 199.251 92.2533 199.647 92.5449 200.094H92.709C92.6725 199.811 92.6361 199.424 92.5996 198.932C92.5632 198.439 92.5449 198.038 92.5449 197.729V191.727H94.8145V213H92.9824L92.6406 210.867H92.5449C92.2624 211.314 91.9023 211.719 91.4648 212.084C91.0365 212.449 90.5215 212.74 89.9199 212.959C89.3275 213.169 88.6257 213.273 87.8145 213.273ZM88.1699 211.387C89.7741 211.387 90.9089 210.931 91.5742 210.02C92.2396 209.108 92.5723 207.755 92.5723 205.959V205.549C92.5723 203.644 92.2533 202.181 91.6152 201.16C90.9863 200.139 89.8379 199.629 88.1699 199.629C86.7754 199.629 85.7318 200.167 85.0391 201.242C84.3464 202.309 84 203.767 84 205.617C84 207.458 84.3418 208.88 85.0254 209.883C85.7181 210.885 86.7663 211.387 88.1699 211.387ZM105.232 197.77C107.019 197.77 108.345 198.171 109.211 198.973C110.077 199.775 110.51 201.055 110.51 202.814V213H108.855L108.418 210.785H108.309C107.889 211.332 107.452 211.792 106.996 212.166C106.54 212.531 106.012 212.809 105.41 213C104.818 213.182 104.089 213.273 103.223 213.273C102.311 213.273 101.5 213.114 100.789 212.795C100.087 212.476 99.5312 211.993 99.1211 211.346C98.7201 210.699 98.5195 209.878 98.5195 208.885C98.5195 207.39 99.112 206.242 100.297 205.439C101.482 204.637 103.286 204.2 105.711 204.127L108.295 204.018V203.102C108.295 201.807 108.017 200.9 107.461 200.381C106.905 199.861 106.121 199.602 105.109 199.602C104.326 199.602 103.578 199.715 102.867 199.943C102.156 200.171 101.482 200.44 100.844 200.75L100.146 199.027C100.821 198.681 101.596 198.385 102.471 198.139C103.346 197.893 104.266 197.77 105.232 197.77ZM108.268 205.617L105.984 205.713C104.116 205.786 102.799 206.091 102.033 206.629C101.268 207.167 100.885 207.928 100.885 208.912C100.885 209.769 101.145 210.402 101.664 210.812C102.184 211.223 102.872 211.428 103.729 211.428C105.059 211.428 106.148 211.059 106.996 210.32C107.844 209.582 108.268 208.475 108.268 206.998V205.617ZM121.994 197.742C122.295 197.742 122.609 197.76 122.938 197.797C123.266 197.824 123.557 197.865 123.812 197.92L123.525 200.025C123.279 199.962 123.006 199.911 122.705 199.875C122.404 199.839 122.122 199.82 121.857 199.82C121.256 199.82 120.686 199.943 120.148 200.189C119.62 200.426 119.155 200.773 118.754 201.229C118.353 201.675 118.038 202.217 117.811 202.855C117.583 203.484 117.469 204.186 117.469 204.961V213H115.186V198.016H117.072L117.318 200.777H117.414C117.724 200.221 118.098 199.715 118.535 199.26C118.973 198.795 119.479 198.426 120.053 198.152C120.636 197.879 121.283 197.742 121.994 197.742ZM133.451 193.012L133.656 193.312C133.492 193.987 133.283 194.707 133.027 195.473C132.772 196.229 132.494 196.986 132.193 197.742C131.893 198.49 131.592 199.196 131.291 199.861H129.582C129.773 199.169 129.965 198.417 130.156 197.605C130.348 196.794 130.521 195.988 130.676 195.186C130.831 194.383 130.954 193.659 131.045 193.012H133.451ZM128.42 193.012L128.611 193.312C128.456 193.987 128.247 194.707 127.982 195.473C127.727 196.229 127.449 196.986 127.148 197.742C126.848 198.49 126.547 199.196 126.246 199.861H124.605C124.742 199.342 124.879 198.786 125.016 198.193C125.161 197.601 125.294 196.999 125.412 196.389C125.54 195.778 125.654 195.186 125.754 194.611C125.863 194.037 125.95 193.504 126.014 193.012H128.42Z" fill="#FCFCFC"/>
</svg>
