<svg width="343" height="211" viewBox="0 0 343 211" fill="none" xmlns="http://www.w3.org/2000/svg">
<path fill-rule="evenodd" clip-rule="evenodd" d="M198.933 51.7603C177.516 37.9699 154.108 24.9493 132.025 10.9557C117.057 1.47292 103.183 1.38399 96.1354 1.83597C87.2808 2.40341 81.9796 3.14561 77.1102 4.08962C74.1532 4.66382 89.7073 1.7741 110.187 10.2801C126.336 16.987 167.667 48.2043 203.811 64.3798C235.454 78.5415 276.049 71.3499 298 53.756C283.124 64.1588 239.388 77.8082 198.933 51.7603Z" fill="#FCFCFC"/>
<path fill-rule="evenodd" clip-rule="evenodd" d="M121.081 0.672372C126.334 0.941244 135.576 1.90194 151.995 12.3417C165.416 20.8747 211.571 50.2429 224.06 55.454C246.858 64.9669 265.407 59.2644 276.423 54.9038C270.015 57.0612 250.803 60.3217 234.886 52.9528C219.202 45.6925 171.583 10.5473 150.848 3.53455C136.829 -1.20681 126.929 -0.0526905 121.081 0.672372V0.672372Z" fill="#FCFCFC"/>
<path fill-rule="evenodd" clip-rule="evenodd" d="M55.3359 60.7586C56.0879 37.9053 68.5534 21.5034 85.9694 12.2251C77.2016 12.0363 71.211 14.264 67.9622 15.9564C51.7826 25.5624 45 41.8634 45 57.9874C45 75.7286 58.9107 98.8747 81.833 105.58C65.8446 95.8263 54.7212 79.3912 55.3359 60.7586Z" fill="#FCFCFC"/>
<path fill-rule="evenodd" clip-rule="evenodd" d="M187.695 96.1653C184.352 98.6066 179.486 102.473 176.915 104.368C186.079 101.215 192.418 98.1797 196.388 96.0144C193.433 96.2079 190.527 96.2454 187.695 96.1653Z" fill="#FCFCFC"/>
<path fill-rule="evenodd" clip-rule="evenodd" d="M176.023 95.1763C170.627 99.3471 155.288 110.258 155.282 110.261C160.347 109.359 167.099 106.7 172.05 103.445C174.294 101.968 179.539 98.0161 182.535 95.8888C180.294 95.712 178.117 95.4686 176.023 95.1763Z" fill="#FCFCFC"/>
<path fill-rule="evenodd" clip-rule="evenodd" d="M163.821 92.8081C158.289 96.3085 150.486 101.682 146.057 104.987C133.26 114.535 126.344 114.055 124.548 114.352C132.473 113.907 142.501 113.19 147.516 109.817C153.744 105.629 163.57 98.6464 170.145 94.1989C167.891 93.7667 165.773 93.2934 163.821 92.8081V92.8081Z" fill="#FCFCFC"/>
<path fill-rule="evenodd" clip-rule="evenodd" d="M151.675 89.0718C134.902 100.206 121.058 108.015 109.966 110.977C106.229 111.975 102.617 112.536 99.2015 112.781C99.1999 112.781 99.1977 112.781 99.1977 112.781C93.6958 113.456 87.0747 112.991 81.3038 112.24C86.4847 113.722 93.5635 114.983 102.625 114.983C103.275 114.983 115.595 115.617 128.93 109.099C137.143 105.086 148.415 97.0857 157.648 91.0986C155.045 90.3003 153.007 89.5752 151.675 89.0718H151.675Z" fill="#FCFCFC"/>
<path d="M57.0117 166.441C57.0117 167.457 56.7578 168.324 56.25 169.043C55.75 169.754 55.0469 170.297 54.1406 170.672C53.2344 171.047 52.168 171.234 50.9414 171.234C50.293 171.234 49.6797 171.203 49.1016 171.141C48.5234 171.078 47.9922 170.988 47.5078 170.871C47.0234 170.754 46.5977 170.609 46.2305 170.438V168.527C46.8164 168.77 47.5312 168.996 48.375 169.207C49.2188 169.41 50.1016 169.512 51.0234 169.512C51.8828 169.512 52.6094 169.398 53.2031 169.172C53.7969 168.938 54.2461 168.605 54.5508 168.176C54.8633 167.738 55.0195 167.215 55.0195 166.605C55.0195 166.02 54.8906 165.531 54.6328 165.141C54.375 164.742 53.9453 164.383 53.3438 164.062C52.75 163.734 51.9375 163.387 50.9062 163.02C50.1797 162.762 49.5391 162.48 48.9844 162.176C48.4297 161.863 47.9648 161.512 47.5898 161.121C47.2148 160.73 46.9297 160.277 46.7344 159.762C46.5469 159.246 46.4531 158.656 46.4531 157.992C46.4531 157.078 46.6836 156.297 47.1445 155.648C47.6133 154.992 48.2578 154.492 49.0781 154.148C49.9062 153.797 50.8555 153.621 51.9258 153.621C52.8398 153.621 53.6836 153.707 54.457 153.879C55.2383 154.051 55.9531 154.281 56.6016 154.57L55.9805 156.281C55.3633 156.023 54.707 155.809 54.0117 155.637C53.3242 155.465 52.6133 155.379 51.8789 155.379C51.1445 155.379 50.5234 155.488 50.0156 155.707C49.5156 155.918 49.1328 156.219 48.8672 156.609C48.6016 157 48.4688 157.465 48.4688 158.004C48.4688 158.605 48.5938 159.105 48.8438 159.504C49.1016 159.902 49.5078 160.258 50.0625 160.57C50.625 160.875 51.3672 161.195 52.2891 161.531C53.2969 161.898 54.1523 162.289 54.8555 162.703C55.5586 163.109 56.0938 163.609 56.4609 164.203C56.8281 164.789 57.0117 165.535 57.0117 166.441ZM66.2578 157.922C67.8594 157.922 69.1367 158.473 70.0898 159.574C71.043 160.676 71.5195 162.332 71.5195 164.543C71.5195 166.004 71.3008 167.23 70.8633 168.223C70.4258 169.215 69.8086 169.965 69.0117 170.473C68.2227 170.98 67.2891 171.234 66.2109 171.234C65.5312 171.234 64.9336 171.145 64.418 170.965C63.9023 170.785 63.4609 170.543 63.0938 170.238C62.7266 169.934 62.4219 169.602 62.1797 169.242H62.0391C62.0625 169.547 62.0898 169.914 62.1211 170.344C62.1602 170.773 62.1797 171.148 62.1797 171.469V176.742H60.2227V158.156H61.8281L62.0859 160.055H62.1797C62.4297 159.664 62.7344 159.309 63.0938 158.988C63.4531 158.66 63.8906 158.402 64.4062 158.215C64.9297 158.02 65.5469 157.922 66.2578 157.922ZM65.918 159.562C65.0273 159.562 64.3086 159.734 63.7617 160.078C63.2227 160.422 62.8281 160.938 62.5781 161.625C62.3281 162.305 62.1953 163.16 62.1797 164.191V164.566C62.1797 165.652 62.2969 166.57 62.5312 167.32C62.7734 168.07 63.168 168.641 63.7148 169.031C64.2695 169.422 65.0117 169.617 65.9414 169.617C66.7383 169.617 67.4023 169.402 67.9336 168.973C68.4648 168.543 68.8594 167.945 69.1172 167.18C69.3828 166.406 69.5156 165.52 69.5156 164.52C69.5156 163.004 69.2188 161.801 68.625 160.91C68.0391 160.012 67.1367 159.562 65.918 159.562ZM79.8633 157.922C80.957 157.922 81.8945 158.164 82.6758 158.648C83.457 159.133 84.0547 159.812 84.4688 160.688C84.8828 161.555 85.0898 162.57 85.0898 163.734V164.941H76.2188C76.2422 166.449 76.6172 167.598 77.3438 168.387C78.0703 169.176 79.0938 169.57 80.4141 169.57C81.2266 169.57 81.9453 169.496 82.5703 169.348C83.1953 169.199 83.8438 168.98 84.5156 168.691V170.402C83.8672 170.691 83.2227 170.902 82.582 171.035C81.9492 171.168 81.1992 171.234 80.332 171.234C79.0977 171.234 78.0195 170.984 77.0977 170.484C76.1836 169.977 75.4727 169.234 74.9648 168.258C74.457 167.281 74.2031 166.086 74.2031 164.672C74.2031 163.289 74.4336 162.094 74.8945 161.086C75.3633 160.07 76.0195 159.289 76.8633 158.742C77.7148 158.195 78.7148 157.922 79.8633 157.922ZM79.8398 159.516C78.8008 159.516 77.9727 159.855 77.3555 160.535C76.7383 161.215 76.3711 162.164 76.2539 163.383H83.0508C83.043 162.617 82.9219 161.945 82.6875 161.367C82.4609 160.781 82.1133 160.328 81.6445 160.008C81.1758 159.68 80.5742 159.516 79.8398 159.516ZM93.5391 171.234C92.3828 171.234 91.3633 170.996 90.4805 170.52C89.5977 170.043 88.9102 169.316 88.418 168.34C87.9258 167.363 87.6797 166.133 87.6797 164.648C87.6797 163.094 87.9375 161.824 88.4531 160.84C88.9766 159.848 89.6953 159.113 90.6094 158.637C91.5234 158.16 92.5625 157.922 93.7266 157.922C94.3672 157.922 94.9844 157.988 95.5781 158.121C96.1797 158.246 96.6719 158.406 97.0547 158.602L96.4688 160.23C96.0781 160.074 95.625 159.934 95.1094 159.809C94.6016 159.684 94.125 159.621 93.6797 159.621C92.7891 159.621 92.0469 159.812 91.4531 160.195C90.8672 160.578 90.4258 161.141 90.1289 161.883C89.8398 162.625 89.6953 163.539 89.6953 164.625C89.6953 165.664 89.8359 166.551 90.1172 167.285C90.4062 168.02 90.832 168.582 91.3945 168.973C91.9648 169.355 92.6758 169.547 93.5273 169.547C94.207 169.547 94.8203 169.477 95.3672 169.336C95.9141 169.188 96.4102 169.016 96.8555 168.82V170.555C96.4258 170.773 95.9453 170.941 95.4141 171.059C94.8906 171.176 94.2656 171.234 93.5391 171.234ZM101.848 158.156V171H99.9023V158.156H101.848ZM100.898 153.352C101.219 153.352 101.492 153.457 101.719 153.668C101.953 153.871 102.07 154.191 102.07 154.629C102.07 155.059 101.953 155.379 101.719 155.59C101.492 155.801 101.219 155.906 100.898 155.906C100.562 155.906 100.281 155.801 100.055 155.59C99.8359 155.379 99.7266 155.059 99.7266 154.629C99.7266 154.191 99.8359 153.871 100.055 153.668C100.281 153.457 100.562 153.352 100.898 153.352ZM110.777 157.945C112.309 157.945 113.445 158.289 114.188 158.977C114.93 159.664 115.301 160.762 115.301 162.27V171H113.883L113.508 169.102H113.414C113.055 169.57 112.68 169.965 112.289 170.285C111.898 170.598 111.445 170.836 110.93 171C110.422 171.156 109.797 171.234 109.055 171.234C108.273 171.234 107.578 171.098 106.969 170.824C106.367 170.551 105.891 170.137 105.539 169.582C105.195 169.027 105.023 168.324 105.023 167.473C105.023 166.191 105.531 165.207 106.547 164.52C107.562 163.832 109.109 163.457 111.188 163.395L113.402 163.301V162.516C113.402 161.406 113.164 160.629 112.688 160.184C112.211 159.738 111.539 159.516 110.672 159.516C110 159.516 109.359 159.613 108.75 159.809C108.141 160.004 107.562 160.234 107.016 160.5L106.418 159.023C106.996 158.727 107.66 158.473 108.41 158.262C109.16 158.051 109.949 157.945 110.777 157.945ZM113.379 164.672L111.422 164.754C109.82 164.816 108.691 165.078 108.035 165.539C107.379 166 107.051 166.652 107.051 167.496C107.051 168.23 107.273 168.773 107.719 169.125C108.164 169.477 108.754 169.652 109.488 169.652C110.629 169.652 111.562 169.336 112.289 168.703C113.016 168.07 113.379 167.121 113.379 165.855V164.672ZM121.266 171H119.309V152.766H121.266V171ZM141.445 171H131.906V153.867H141.445V155.625H133.898V161.168H141.012V162.902H133.898V169.242H141.445V171ZM150.094 171.234C148.938 171.234 147.918 170.996 147.035 170.52C146.152 170.043 145.465 169.316 144.973 168.34C144.48 167.363 144.234 166.133 144.234 164.648C144.234 163.094 144.492 161.824 145.008 160.84C145.531 159.848 146.25 159.113 147.164 158.637C148.078 158.16 149.117 157.922 150.281 157.922C150.922 157.922 151.539 157.988 152.133 158.121C152.734 158.246 153.227 158.406 153.609 158.602L153.023 160.23C152.633 160.074 152.18 159.934 151.664 159.809C151.156 159.684 150.68 159.621 150.234 159.621C149.344 159.621 148.602 159.812 148.008 160.195C147.422 160.578 146.98 161.141 146.684 161.883C146.395 162.625 146.25 163.539 146.25 164.625C146.25 165.664 146.391 166.551 146.672 167.285C146.961 168.02 147.387 168.582 147.949 168.973C148.52 169.355 149.23 169.547 150.082 169.547C150.762 169.547 151.375 169.477 151.922 169.336C152.469 169.188 152.965 169.016 153.41 168.82V170.555C152.98 170.773 152.5 170.941 151.969 171.059C151.445 171.176 150.82 171.234 150.094 171.234ZM167.531 164.555C167.531 165.609 167.395 166.551 167.121 167.379C166.848 168.207 166.453 168.906 165.938 169.477C165.422 170.047 164.797 170.484 164.062 170.789C163.336 171.086 162.512 171.234 161.59 171.234C160.73 171.234 159.941 171.086 159.223 170.789C158.512 170.484 157.895 170.047 157.371 169.477C156.855 168.906 156.453 168.207 156.164 167.379C155.883 166.551 155.742 165.609 155.742 164.555C155.742 163.148 155.98 161.953 156.457 160.969C156.934 159.977 157.613 159.223 158.496 158.707C159.387 158.184 160.445 157.922 161.672 157.922C162.844 157.922 163.867 158.184 164.742 158.707C165.625 159.23 166.309 159.988 166.793 160.98C167.285 161.965 167.531 163.156 167.531 164.555ZM157.758 164.555C157.758 165.586 157.895 166.48 158.168 167.238C158.441 167.996 158.863 168.582 159.434 168.996C160.004 169.41 160.738 169.617 161.637 169.617C162.527 169.617 163.258 169.41 163.828 168.996C164.406 168.582 164.832 167.996 165.105 167.238C165.379 166.48 165.516 165.586 165.516 164.555C165.516 163.531 165.379 162.648 165.105 161.906C164.832 161.156 164.41 160.578 163.84 160.172C163.27 159.766 162.531 159.562 161.625 159.562C160.289 159.562 159.309 160.004 158.684 160.887C158.066 161.77 157.758 162.992 157.758 164.555ZM176.977 157.922C178.5 157.922 179.652 158.297 180.434 159.047C181.215 159.789 181.605 160.984 181.605 162.633V171H179.684V162.762C179.684 161.691 179.438 160.891 178.945 160.359C178.461 159.828 177.715 159.562 176.707 159.562C175.285 159.562 174.285 159.965 173.707 160.77C173.129 161.574 172.84 162.742 172.84 164.273V171H170.895V158.156H172.465L172.758 160.008H172.863C173.137 159.555 173.484 159.176 173.906 158.871C174.328 158.559 174.801 158.324 175.324 158.168C175.848 158.004 176.398 157.922 176.977 157.922ZM196.688 164.555C196.688 165.609 196.551 166.551 196.277 167.379C196.004 168.207 195.609 168.906 195.094 169.477C194.578 170.047 193.953 170.484 193.219 170.789C192.492 171.086 191.668 171.234 190.746 171.234C189.887 171.234 189.098 171.086 188.379 170.789C187.668 170.484 187.051 170.047 186.527 169.477C186.012 168.906 185.609 168.207 185.32 167.379C185.039 166.551 184.898 165.609 184.898 164.555C184.898 163.148 185.137 161.953 185.613 160.969C186.09 159.977 186.77 159.223 187.652 158.707C188.543 158.184 189.602 157.922 190.828 157.922C192 157.922 193.023 158.184 193.898 158.707C194.781 159.23 195.465 159.988 195.949 160.98C196.441 161.965 196.688 163.156 196.688 164.555ZM186.914 164.555C186.914 165.586 187.051 166.48 187.324 167.238C187.598 167.996 188.02 168.582 188.59 168.996C189.16 169.41 189.895 169.617 190.793 169.617C191.684 169.617 192.414 169.41 192.984 168.996C193.562 168.582 193.988 167.996 194.262 167.238C194.535 166.48 194.672 165.586 194.672 164.555C194.672 163.531 194.535 162.648 194.262 161.906C193.988 161.156 193.566 160.578 192.996 160.172C192.426 159.766 191.688 159.562 190.781 159.562C189.445 159.562 188.465 160.004 187.84 160.887C187.223 161.77 186.914 162.992 186.914 164.555ZM213.996 157.922C215.41 157.922 216.477 158.293 217.195 159.035C217.914 159.77 218.273 160.953 218.273 162.586V171H216.352V162.68C216.352 161.641 216.125 160.863 215.672 160.348C215.227 159.824 214.562 159.562 213.68 159.562C212.438 159.562 211.535 159.922 210.973 160.641C210.41 161.359 210.129 162.418 210.129 163.816V171H208.195V162.68C208.195 161.984 208.094 161.406 207.891 160.945C207.695 160.484 207.398 160.141 207 159.914C206.609 159.68 206.113 159.562 205.512 159.562C204.66 159.562 203.977 159.738 203.461 160.09C202.945 160.441 202.57 160.965 202.336 161.66C202.109 162.348 201.996 163.195 201.996 164.203V171H200.051V158.156H201.621L201.914 159.973H202.02C202.277 159.527 202.602 159.152 202.992 158.848C203.383 158.543 203.82 158.312 204.305 158.156C204.789 158 205.305 157.922 205.852 157.922C206.828 157.922 207.645 158.105 208.301 158.473C208.965 158.832 209.445 159.383 209.742 160.125H209.848C210.27 159.383 210.848 158.832 211.582 158.473C212.316 158.105 213.121 157.922 213.996 157.922ZM224.215 158.156V171H222.27V158.156H224.215ZM223.266 153.352C223.586 153.352 223.859 153.457 224.086 153.668C224.32 153.871 224.438 154.191 224.438 154.629C224.438 155.059 224.32 155.379 224.086 155.59C223.859 155.801 223.586 155.906 223.266 155.906C222.93 155.906 222.648 155.801 222.422 155.59C222.203 155.379 222.094 155.059 222.094 154.629C222.094 154.191 222.203 153.871 222.422 153.668C222.648 153.457 222.93 153.352 223.266 153.352ZM233.484 171.234C232.328 171.234 231.309 170.996 230.426 170.52C229.543 170.043 228.855 169.316 228.363 168.34C227.871 167.363 227.625 166.133 227.625 164.648C227.625 163.094 227.883 161.824 228.398 160.84C228.922 159.848 229.641 159.113 230.555 158.637C231.469 158.16 232.508 157.922 233.672 157.922C234.312 157.922 234.93 157.988 235.523 158.121C236.125 158.246 236.617 158.406 237 158.602L236.414 160.23C236.023 160.074 235.57 159.934 235.055 159.809C234.547 159.684 234.07 159.621 233.625 159.621C232.734 159.621 231.992 159.812 231.398 160.195C230.812 160.578 230.371 161.141 230.074 161.883C229.785 162.625 229.641 163.539 229.641 164.625C229.641 165.664 229.781 166.551 230.062 167.285C230.352 168.02 230.777 168.582 231.34 168.973C231.91 169.355 232.621 169.547 233.473 169.547C234.152 169.547 234.766 169.477 235.312 169.336C235.859 169.188 236.355 169.016 236.801 168.82V170.555C236.371 170.773 235.891 170.941 235.359 171.059C234.836 171.176 234.211 171.234 233.484 171.234ZM57.8086 204H45.9141V202.5L55.1367 188.648H46.2305V186.867H57.5625V188.367L48.3281 202.219H57.8086V204ZM71.8594 197.555C71.8594 198.609 71.7227 199.551 71.4492 200.379C71.1758 201.207 70.7812 201.906 70.2656 202.477C69.75 203.047 69.125 203.484 68.3906 203.789C67.6641 204.086 66.8398 204.234 65.918 204.234C65.0586 204.234 64.2695 204.086 63.5508 203.789C62.8398 203.484 62.2227 203.047 61.6992 202.477C61.1836 201.906 60.7812 201.207 60.4922 200.379C60.2109 199.551 60.0703 198.609 60.0703 197.555C60.0703 196.148 60.3086 194.953 60.7852 193.969C61.2617 192.977 61.9414 192.223 62.8242 191.707C63.7148 191.184 64.7734 190.922 66 190.922C67.1719 190.922 68.1953 191.184 69.0703 191.707C69.9531 192.23 70.6367 192.988 71.1211 193.98C71.6133 194.965 71.8594 196.156 71.8594 197.555ZM62.0859 197.555C62.0859 198.586 62.2227 199.48 62.4961 200.238C62.7695 200.996 63.1914 201.582 63.7617 201.996C64.332 202.41 65.0664 202.617 65.9648 202.617C66.8555 202.617 67.5859 202.41 68.1562 201.996C68.7344 201.582 69.1602 200.996 69.4336 200.238C69.707 199.48 69.8438 198.586 69.8438 197.555C69.8438 196.531 69.707 195.648 69.4336 194.906C69.1602 194.156 68.7383 193.578 68.168 193.172C67.5977 192.766 66.8594 192.562 65.9531 192.562C64.6172 192.562 63.6367 193.004 63.0117 193.887C62.3945 194.77 62.0859 195.992 62.0859 197.555ZM81.3047 190.922C82.8281 190.922 83.9805 191.297 84.7617 192.047C85.543 192.789 85.9336 193.984 85.9336 195.633V204H84.0117V195.762C84.0117 194.691 83.7656 193.891 83.2734 193.359C82.7891 192.828 82.043 192.562 81.0352 192.562C79.6133 192.562 78.6133 192.965 78.0352 193.77C77.457 194.574 77.168 195.742 77.168 197.273V204H75.2227V191.156H76.793L77.0859 193.008H77.1914C77.4648 192.555 77.8125 192.176 78.2344 191.871C78.6562 191.559 79.1289 191.324 79.6523 191.168C80.1758 191.004 80.7266 190.922 81.3047 190.922ZM94.8867 190.922C95.9805 190.922 96.918 191.164 97.6992 191.648C98.4805 192.133 99.0781 192.812 99.4922 193.688C99.9062 194.555 100.113 195.57 100.113 196.734V197.941H91.2422C91.2656 199.449 91.6406 200.598 92.3672 201.387C93.0938 202.176 94.1172 202.57 95.4375 202.57C96.25 202.57 96.9688 202.496 97.5938 202.348C98.2188 202.199 98.8672 201.98 99.5391 201.691V203.402C98.8906 203.691 98.2461 203.902 97.6055 204.035C96.9727 204.168 96.2227 204.234 95.3555 204.234C94.1211 204.234 93.043 203.984 92.1211 203.484C91.207 202.977 90.4961 202.234 89.9883 201.258C89.4805 200.281 89.2266 199.086 89.2266 197.672C89.2266 196.289 89.457 195.094 89.918 194.086C90.3867 193.07 91.043 192.289 91.8867 191.742C92.7383 191.195 93.7383 190.922 94.8867 190.922ZM94.8633 192.516C93.8242 192.516 92.9961 192.855 92.3789 193.535C91.7617 194.215 91.3945 195.164 91.2773 196.383H98.0742C98.0664 195.617 97.9453 194.945 97.7109 194.367C97.4844 193.781 97.1367 193.328 96.668 193.008C96.1992 192.68 95.5977 192.516 94.8633 192.516ZM115.676 186.867C115.512 187.469 115.348 188.121 115.184 188.824C115.027 189.52 114.883 190.207 114.75 190.887C114.617 191.566 114.512 192.184 114.434 192.738H112.359L112.184 192.48C112.324 191.91 112.504 191.301 112.723 190.652C112.949 190.004 113.191 189.355 113.449 188.707C113.715 188.051 113.98 187.438 114.246 186.867H115.676ZM111.363 186.867C111.199 187.469 111.035 188.121 110.871 188.824C110.715 189.52 110.57 190.207 110.438 190.887C110.305 191.566 110.199 192.184 110.121 192.738H108.059L107.918 192.48C108.059 191.91 108.234 191.301 108.445 190.652C108.664 190.004 108.902 189.355 109.16 188.707C109.418 188.051 109.68 187.438 109.945 186.867H111.363ZM122.789 186.867C125 186.867 126.613 187.301 127.629 188.168C128.652 189.027 129.164 190.262 129.164 191.871C129.164 192.598 129.043 193.289 128.801 193.945C128.566 194.594 128.184 195.168 127.652 195.668C127.121 196.16 126.422 196.551 125.555 196.84C124.695 197.121 123.641 197.262 122.391 197.262H120.305V204H118.312V186.867H122.789ZM122.602 188.566H120.305V195.551H122.168C123.262 195.551 124.172 195.434 124.898 195.199C125.633 194.965 126.184 194.586 126.551 194.062C126.918 193.531 127.102 192.828 127.102 191.953C127.102 190.812 126.738 189.965 126.012 189.41C125.285 188.848 124.148 188.566 122.602 188.566ZM137.262 190.945C138.793 190.945 139.93 191.289 140.672 191.977C141.414 192.664 141.785 193.762 141.785 195.27V204H140.367L139.992 202.102H139.898C139.539 202.57 139.164 202.965 138.773 203.285C138.383 203.598 137.93 203.836 137.414 204C136.906 204.156 136.281 204.234 135.539 204.234C134.758 204.234 134.062 204.098 133.453 203.824C132.852 203.551 132.375 203.137 132.023 202.582C131.68 202.027 131.508 201.324 131.508 200.473C131.508 199.191 132.016 198.207 133.031 197.52C134.047 196.832 135.594 196.457 137.672 196.395L139.887 196.301V195.516C139.887 194.406 139.648 193.629 139.172 193.184C138.695 192.738 138.023 192.516 137.156 192.516C136.484 192.516 135.844 192.613 135.234 192.809C134.625 193.004 134.047 193.234 133.5 193.5L132.902 192.023C133.48 191.727 134.145 191.473 134.895 191.262C135.645 191.051 136.434 190.945 137.262 190.945ZM139.863 197.672L137.906 197.754C136.305 197.816 135.176 198.078 134.52 198.539C133.863 199 133.535 199.652 133.535 200.496C133.535 201.23 133.758 201.773 134.203 202.125C134.648 202.477 135.238 202.652 135.973 202.652C137.113 202.652 138.047 202.336 138.773 201.703C139.5 201.07 139.863 200.121 139.863 198.855V197.672ZM148.617 204L143.742 191.156H145.828L148.652 198.926C148.848 199.457 149.047 200.043 149.25 200.684C149.453 201.324 149.594 201.84 149.672 202.23H149.754C149.848 201.84 150.004 201.324 150.223 200.684C150.441 200.035 150.641 199.449 150.82 198.926L153.645 191.156H155.73L150.844 204H148.617ZM159.75 204H157.793V185.766H159.75V204ZM174.938 197.555C174.938 198.609 174.801 199.551 174.527 200.379C174.254 201.207 173.859 201.906 173.344 202.477C172.828 203.047 172.203 203.484 171.469 203.789C170.742 204.086 169.918 204.234 168.996 204.234C168.137 204.234 167.348 204.086 166.629 203.789C165.918 203.484 165.301 203.047 164.777 202.477C164.262 201.906 163.859 201.207 163.57 200.379C163.289 199.551 163.148 198.609 163.148 197.555C163.148 196.148 163.387 194.953 163.863 193.969C164.34 192.977 165.02 192.223 165.902 191.707C166.793 191.184 167.852 190.922 169.078 190.922C170.25 190.922 171.273 191.184 172.148 191.707C173.031 192.23 173.715 192.988 174.199 193.98C174.691 194.965 174.938 196.156 174.938 197.555ZM165.164 197.555C165.164 198.586 165.301 199.48 165.574 200.238C165.848 200.996 166.27 201.582 166.84 201.996C167.41 202.41 168.145 202.617 169.043 202.617C169.934 202.617 170.664 202.41 171.234 201.996C171.812 201.582 172.238 200.996 172.512 200.238C172.785 199.48 172.922 198.586 172.922 197.555C172.922 196.531 172.785 195.648 172.512 194.906C172.238 194.156 171.816 193.578 171.246 193.172C170.676 192.766 169.938 192.562 169.031 192.562C167.695 192.562 166.715 193.004 166.09 193.887C165.473 194.77 165.164 195.992 165.164 197.555ZM182.871 204.234C181.246 204.234 179.957 203.68 179.004 202.57C178.059 201.461 177.586 199.812 177.586 197.625C177.586 195.414 178.07 193.746 179.039 192.621C180.008 191.488 181.297 190.922 182.906 190.922C183.586 190.922 184.18 191.012 184.688 191.191C185.195 191.371 185.633 191.613 186 191.918C186.367 192.215 186.676 192.555 186.926 192.938H187.066C187.035 192.695 187.004 192.363 186.973 191.941C186.941 191.52 186.926 191.176 186.926 190.91V185.766H188.871V204H187.301L187.008 202.172H186.926C186.684 202.555 186.375 202.902 186 203.215C185.633 203.527 185.191 203.777 184.676 203.965C184.168 204.145 183.566 204.234 182.871 204.234ZM183.176 202.617C184.551 202.617 185.523 202.227 186.094 201.445C186.664 200.664 186.949 199.504 186.949 197.965V197.613C186.949 195.98 186.676 194.727 186.129 193.852C185.59 192.977 184.605 192.539 183.176 192.539C181.98 192.539 181.086 193 180.492 193.922C179.898 194.836 179.602 196.086 179.602 197.672C179.602 199.25 179.895 200.469 180.48 201.328C181.074 202.188 181.973 202.617 183.176 202.617ZM197.801 190.945C199.332 190.945 200.469 191.289 201.211 191.977C201.953 192.664 202.324 193.762 202.324 195.27V204H200.906L200.531 202.102H200.438C200.078 202.57 199.703 202.965 199.312 203.285C198.922 203.598 198.469 203.836 197.953 204C197.445 204.156 196.82 204.234 196.078 204.234C195.297 204.234 194.602 204.098 193.992 203.824C193.391 203.551 192.914 203.137 192.562 202.582C192.219 202.027 192.047 201.324 192.047 200.473C192.047 199.191 192.555 198.207 193.57 197.52C194.586 196.832 196.133 196.457 198.211 196.395L200.426 196.301V195.516C200.426 194.406 200.188 193.629 199.711 193.184C199.234 192.738 198.562 192.516 197.695 192.516C197.023 192.516 196.383 192.613 195.773 192.809C195.164 193.004 194.586 193.234 194.039 193.5L193.441 192.023C194.02 191.727 194.684 191.473 195.434 191.262C196.184 191.051 196.973 190.945 197.801 190.945ZM200.402 197.672L198.445 197.754C196.844 197.816 195.715 198.078 195.059 198.539C194.402 199 194.074 199.652 194.074 200.496C194.074 201.23 194.297 201.773 194.742 202.125C195.188 202.477 195.777 202.652 196.512 202.652C197.652 202.652 198.586 202.336 199.312 201.703C200.039 201.07 200.402 200.121 200.402 198.855V197.672ZM212.168 190.922C212.426 190.922 212.695 190.938 212.977 190.969C213.258 190.992 213.508 191.027 213.727 191.074L213.48 192.879C213.27 192.824 213.035 192.781 212.777 192.75C212.52 192.719 212.277 192.703 212.051 192.703C211.535 192.703 211.047 192.809 210.586 193.02C210.133 193.223 209.734 193.52 209.391 193.91C209.047 194.293 208.777 194.758 208.582 195.305C208.387 195.844 208.289 196.445 208.289 197.109V204H206.332V191.156H207.949L208.16 193.523H208.242C208.508 193.047 208.828 192.613 209.203 192.223C209.578 191.824 210.012 191.508 210.504 191.273C211.004 191.039 211.559 190.922 212.168 190.922ZM221.988 186.867L222.164 187.125C222.023 187.703 221.844 188.32 221.625 188.977C221.406 189.625 221.168 190.273 220.91 190.922C220.652 191.562 220.395 192.168 220.137 192.738H218.672C218.836 192.145 219 191.5 219.164 190.805C219.328 190.109 219.477 189.418 219.609 188.73C219.742 188.043 219.848 187.422 219.926 186.867H221.988ZM217.676 186.867L217.84 187.125C217.707 187.703 217.527 188.32 217.301 188.977C217.082 189.625 216.844 190.273 216.586 190.922C216.328 191.562 216.07 192.168 215.812 192.738H214.406C214.523 192.293 214.641 191.816 214.758 191.309C214.883 190.801 214.996 190.285 215.098 189.762C215.207 189.238 215.305 188.73 215.391 188.238C215.484 187.746 215.559 187.289 215.613 186.867H217.676Z" fill="#FCFCFC"/>
</svg>
