<svg width="414" height="221" viewBox="0 0 414 221" fill="none" xmlns="http://www.w3.org/2000/svg">
<path fill-rule="evenodd" clip-rule="evenodd" d="M153.933 51.7603C132.517 37.9699 109.108 24.9493 87.0252 10.9557C72.0573 1.47292 58.1826 1.38399 51.1354 1.83597C42.2809 2.40341 36.9797 3.14561 32.1103 4.08962C29.1533 4.66382 44.7074 1.7741 65.1874 10.2801C81.3359 16.987 122.667 48.2043 158.811 64.3798C190.454 78.5415 231.049 71.3499 253 53.756C238.124 64.1588 194.388 77.8082 153.933 51.7603Z" fill="#FCFCFC"/>
<path fill-rule="evenodd" clip-rule="evenodd" d="M76.0811 0.672372C81.3342 0.941244 90.5761 1.90194 106.996 12.3417C120.416 20.8747 166.571 50.2429 179.06 55.454C201.858 64.9669 220.407 59.2644 231.423 54.9038C225.015 57.0612 205.803 60.3217 189.887 52.9528C174.203 45.6925 126.583 10.5473 105.848 3.53455C91.8295 -1.20681 81.9292 -0.0526905 76.0811 0.672372V0.672372Z" fill="#FCFCFC"/>
<path fill-rule="evenodd" clip-rule="evenodd" d="M10.3359 60.7586C11.0879 37.9053 23.5534 21.5034 40.9694 12.2251C32.2016 12.0363 26.211 14.264 22.9622 15.9564C6.78255 25.5624 0 41.8634 0 57.9874C0 75.7286 13.9107 98.8747 36.833 105.58C20.8446 95.8263 9.72121 79.3912 10.3359 60.7586Z" fill="#FCFCFC"/>
<path fill-rule="evenodd" clip-rule="evenodd" d="M142.695 96.165C139.352 98.6064 134.486 102.472 131.915 104.368C141.079 101.215 147.418 98.1794 151.388 96.0142C148.433 96.2077 145.527 96.2451 142.695 96.165Z" fill="#FCFCFC"/>
<path fill-rule="evenodd" clip-rule="evenodd" d="M131.023 95.1763C125.627 99.3471 110.289 110.258 110.282 110.261C115.347 109.359 122.099 106.7 127.05 103.445C129.294 101.968 134.539 98.0161 137.535 95.8888C135.294 95.712 133.117 95.4686 131.023 95.1763Z" fill="#FCFCFC"/>
<path fill-rule="evenodd" clip-rule="evenodd" d="M118.821 92.8081C113.29 96.3085 105.486 101.682 101.057 104.987C88.2604 114.535 81.3437 114.055 79.5483 114.352C87.4735 113.907 97.5011 113.19 102.516 109.817C108.744 105.629 118.57 98.6464 125.145 94.1989C122.891 93.7667 120.773 93.2934 118.821 92.8081V92.8081Z" fill="#FCFCFC"/>
<path fill-rule="evenodd" clip-rule="evenodd" d="M106.675 89.0718C89.902 100.206 76.0577 108.015 64.9659 110.977C61.229 111.975 57.6174 112.536 54.2015 112.781C54.1998 112.781 54.1976 112.781 54.1976 112.781C48.6958 113.456 42.0746 112.991 36.3037 112.24C41.4846 113.722 48.5634 114.983 57.625 114.983C58.2745 114.983 70.595 115.617 83.9297 109.099C92.1429 105.086 103.415 97.0857 112.648 91.0986C110.045 90.3003 108.007 89.5752 106.675 89.0718H106.675Z" fill="#FCFCFC"/>
<path d="M9.41992 155.012C9.22852 155.714 9.03711 156.475 8.8457 157.295C8.66341 158.106 8.49479 158.908 8.33984 159.701C8.1849 160.494 8.06185 161.214 7.9707 161.861H5.55078L5.3457 161.561C5.50977 160.895 5.7194 160.184 5.97461 159.428C6.23893 158.671 6.52148 157.915 6.82227 157.158C7.13216 156.393 7.44206 155.677 7.75195 155.012H9.41992ZM4.38867 155.012C4.19727 155.714 4.00586 156.475 3.81445 157.295C3.63216 158.106 3.46354 158.908 3.30859 159.701C3.15365 160.494 3.0306 161.214 2.93945 161.861H0.533203L0.369141 161.561C0.533203 160.895 0.738281 160.184 0.984375 159.428C1.23958 158.671 1.51758 157.915 1.81836 157.158C2.11914 156.393 2.42448 155.677 2.73438 155.012H4.38867ZM12.4961 175V155.012H27.3848V175H25.0879V157.062H14.8203V175H12.4961ZM38.1582 159.77C39.9447 159.77 41.2708 160.171 42.1367 160.973C43.0026 161.775 43.4355 163.055 43.4355 164.814V175H41.7812L41.3438 172.785H41.2344C40.8151 173.332 40.3776 173.792 39.9219 174.166C39.4661 174.531 38.9375 174.809 38.3359 175C37.7435 175.182 37.0143 175.273 36.1484 175.273C35.237 175.273 34.4258 175.114 33.7148 174.795C33.013 174.476 32.457 173.993 32.0469 173.346C31.6458 172.699 31.4453 171.878 31.4453 170.885C31.4453 169.39 32.0378 168.242 33.2227 167.439C34.4076 166.637 36.2122 166.2 38.6367 166.127L41.2207 166.018V165.102C41.2207 163.807 40.9427 162.9 40.3867 162.381C39.8307 161.861 39.0469 161.602 38.0352 161.602C37.2513 161.602 36.5039 161.715 35.793 161.943C35.082 162.171 34.4076 162.44 33.7695 162.75L33.0723 161.027C33.7467 160.681 34.5215 160.385 35.3965 160.139C36.2715 159.893 37.1921 159.77 38.1582 159.77ZM41.1934 167.617L38.9102 167.713C37.0417 167.786 35.7246 168.091 34.959 168.629C34.1934 169.167 33.8105 169.928 33.8105 170.912C33.8105 171.769 34.0703 172.402 34.5898 172.812C35.1094 173.223 35.7975 173.428 36.6543 173.428C37.985 173.428 39.0742 173.059 39.9219 172.32C40.7695 171.582 41.1934 170.475 41.1934 168.998V167.617ZM60.0195 163.775C60.0195 164.714 59.7461 165.448 59.1992 165.977C58.6523 166.496 57.946 166.847 57.0801 167.029V167.139C58.0189 167.266 58.8255 167.604 59.5 168.15C60.1836 168.688 60.5254 169.513 60.5254 170.625C60.5254 171.482 60.3203 172.238 59.9102 172.895C59.5 173.551 58.8574 174.066 57.9824 174.439C57.1074 174.813 55.9681 175 54.5645 175H48.1113V160.016H54.5098C55.5853 160.016 56.5332 160.139 57.3535 160.385C58.1829 160.622 58.8346 161.014 59.3086 161.561C59.7826 162.107 60.0195 162.846 60.0195 163.775ZM58.1602 170.625C58.1602 169.741 57.8229 169.103 57.1484 168.711C56.4831 168.319 55.5124 168.123 54.2363 168.123H50.3945V173.154H54.291C55.5488 173.154 56.5059 172.963 57.1621 172.58C57.8275 172.188 58.1602 171.536 58.1602 170.625ZM57.709 164.035C57.709 163.324 57.4492 162.796 56.9297 162.449C56.4102 162.094 55.5579 161.916 54.373 161.916H50.3945V166.223H53.9766C55.207 166.223 56.1367 166.045 56.7656 165.689C57.3945 165.334 57.709 164.783 57.709 164.035ZM75.4277 175H73.1172V161.916H68.5645C68.3822 164.277 68.1497 166.3 67.8672 167.986C67.5938 169.663 67.2474 171.035 66.8281 172.102C66.418 173.159 65.9167 173.938 65.3242 174.439C64.7409 174.932 64.0436 175.178 63.2324 175.178C62.9863 175.178 62.7539 175.164 62.5352 175.137C62.3164 175.109 62.1296 175.064 61.9746 175V173.277C62.0931 173.314 62.2161 173.341 62.3438 173.359C62.4805 173.378 62.6217 173.387 62.7676 173.387C63.1777 173.387 63.5514 173.218 63.8887 172.881C64.235 172.535 64.5449 172.015 64.8184 171.322C65.1009 170.63 65.3516 169.755 65.5703 168.697C65.7891 167.631 65.9805 166.378 66.1445 164.938C66.3177 163.488 66.4681 161.848 66.5957 160.016H75.4277V175ZM93.1328 167.48C93.1328 168.711 92.9733 169.809 92.6543 170.775C92.3353 171.742 91.875 172.557 91.2734 173.223C90.6719 173.888 89.9427 174.398 89.0859 174.754C88.2383 175.1 87.2767 175.273 86.2012 175.273C85.1986 175.273 84.278 175.1 83.4395 174.754C82.61 174.398 81.89 173.888 81.2793 173.223C80.6777 172.557 80.2083 171.742 79.8711 170.775C79.543 169.809 79.3789 168.711 79.3789 167.48C79.3789 165.84 79.6569 164.445 80.2129 163.297C80.7689 162.139 81.5618 161.26 82.5918 160.658C83.6309 160.048 84.8659 159.742 86.2969 159.742C87.6641 159.742 88.8581 160.048 89.8789 160.658C90.9089 161.269 91.7064 162.153 92.2715 163.311C92.8457 164.459 93.1328 165.849 93.1328 167.48ZM81.7305 167.48C81.7305 168.684 81.89 169.727 82.209 170.611C82.528 171.495 83.0202 172.179 83.6855 172.662C84.3509 173.145 85.2077 173.387 86.2559 173.387C87.2949 173.387 88.1471 173.145 88.8125 172.662C89.487 172.179 89.9837 171.495 90.3027 170.611C90.6217 169.727 90.7812 168.684 90.7812 167.48C90.7812 166.286 90.6217 165.257 90.3027 164.391C89.9837 163.516 89.4915 162.841 88.8262 162.367C88.1608 161.893 87.2995 161.656 86.2422 161.656C84.6836 161.656 83.5397 162.171 82.8105 163.201C82.0905 164.231 81.7305 165.658 81.7305 167.48ZM108.035 160.016V173.072H110.182V180.182H107.98V175H97.3711V180.182H95.1973V173.072H96.373C97.2298 171.887 97.9408 170.589 98.5059 169.176C99.071 167.763 99.4993 166.282 99.791 164.732C100.083 163.174 100.238 161.602 100.256 160.016H108.035ZM105.834 161.82H102.279C102.197 163.151 102.001 164.505 101.691 165.881C101.391 167.257 100.99 168.57 100.488 169.818C99.987 171.058 99.4036 172.143 98.7383 173.072H105.834V161.82ZM118.768 159.77C120.554 159.77 121.88 160.171 122.746 160.973C123.612 161.775 124.045 163.055 124.045 164.814V175H122.391L121.953 172.785H121.844C121.424 173.332 120.987 173.792 120.531 174.166C120.076 174.531 119.547 174.809 118.945 175C118.353 175.182 117.624 175.273 116.758 175.273C115.846 175.273 115.035 175.114 114.324 174.795C113.622 174.476 113.066 173.993 112.656 173.346C112.255 172.699 112.055 171.878 112.055 170.885C112.055 169.39 112.647 168.242 113.832 167.439C115.017 166.637 116.822 166.2 119.246 166.127L121.83 166.018V165.102C121.83 163.807 121.552 162.9 120.996 162.381C120.44 161.861 119.656 161.602 118.645 161.602C117.861 161.602 117.113 161.715 116.402 161.943C115.691 162.171 115.017 162.44 114.379 162.75L113.682 161.027C114.356 160.681 115.131 160.385 116.006 160.139C116.881 159.893 117.801 159.77 118.768 159.77ZM121.803 167.617L119.52 167.713C117.651 167.786 116.334 168.091 115.568 168.629C114.803 169.167 114.42 169.928 114.42 170.912C114.42 171.769 114.68 172.402 115.199 172.812C115.719 173.223 116.407 173.428 117.264 173.428C118.594 173.428 119.684 173.059 120.531 172.32C121.379 171.582 121.803 170.475 121.803 168.998V167.617ZM135.762 159.742C137.63 159.742 139.12 160.385 140.232 161.67C141.344 162.955 141.9 164.887 141.9 167.467C141.9 169.171 141.645 170.602 141.135 171.76C140.624 172.917 139.904 173.792 138.975 174.385C138.054 174.977 136.965 175.273 135.707 175.273C134.914 175.273 134.217 175.169 133.615 174.959C133.014 174.749 132.499 174.467 132.07 174.111C131.642 173.756 131.286 173.368 131.004 172.949H130.84C130.867 173.305 130.899 173.733 130.936 174.234C130.981 174.736 131.004 175.173 131.004 175.547V181.699H128.721V160.016H130.594L130.895 162.23H131.004C131.296 161.775 131.651 161.36 132.07 160.986C132.49 160.604 133 160.303 133.602 160.084C134.212 159.856 134.932 159.742 135.762 159.742ZM135.365 161.656C134.326 161.656 133.488 161.857 132.85 162.258C132.221 162.659 131.76 163.26 131.469 164.062C131.177 164.855 131.022 165.854 131.004 167.057V167.494C131.004 168.761 131.141 169.832 131.414 170.707C131.697 171.582 132.157 172.247 132.795 172.703C133.442 173.159 134.308 173.387 135.393 173.387C136.322 173.387 137.097 173.136 137.717 172.635C138.337 172.133 138.797 171.436 139.098 170.543C139.408 169.641 139.562 168.606 139.562 167.439C139.562 165.671 139.216 164.268 138.523 163.229C137.84 162.18 136.787 161.656 135.365 161.656ZM152.674 155.012L152.879 155.312C152.715 155.987 152.505 156.707 152.25 157.473C151.995 158.229 151.717 158.986 151.416 159.742C151.115 160.49 150.814 161.196 150.514 161.861H148.805C148.996 161.169 149.188 160.417 149.379 159.605C149.57 158.794 149.743 157.988 149.898 157.186C150.053 156.383 150.176 155.659 150.268 155.012H152.674ZM147.643 155.012L147.834 155.312C147.679 155.987 147.469 156.707 147.205 157.473C146.95 158.229 146.672 158.986 146.371 159.742C146.07 160.49 145.77 161.196 145.469 161.861H143.828C143.965 161.342 144.102 160.786 144.238 160.193C144.384 159.601 144.516 158.999 144.635 158.389C144.762 157.778 144.876 157.186 144.977 156.611C145.086 156.037 145.173 155.504 145.236 155.012H147.643ZM168.506 159.77C170.292 159.77 171.618 160.171 172.484 160.973C173.35 161.775 173.783 163.055 173.783 164.814V175H172.129L171.691 172.785H171.582C171.163 173.332 170.725 173.792 170.27 174.166C169.814 174.531 169.285 174.809 168.684 175C168.091 175.182 167.362 175.273 166.496 175.273C165.585 175.273 164.773 175.114 164.062 174.795C163.361 174.476 162.805 173.993 162.395 173.346C161.993 172.699 161.793 171.878 161.793 170.885C161.793 169.39 162.385 168.242 163.57 167.439C164.755 166.637 166.56 166.2 168.984 166.127L171.568 166.018V165.102C171.568 163.807 171.29 162.9 170.734 162.381C170.178 161.861 169.395 161.602 168.383 161.602C167.599 161.602 166.852 161.715 166.141 161.943C165.43 162.171 164.755 162.44 164.117 162.75L163.42 161.027C164.094 160.681 164.869 160.385 165.744 160.139C166.619 159.893 167.54 159.77 168.506 159.77ZM171.541 167.617L169.258 167.713C167.389 167.786 166.072 168.091 165.307 168.629C164.541 169.167 164.158 169.928 164.158 170.912C164.158 171.769 164.418 172.402 164.938 172.812C165.457 173.223 166.145 173.428 167.002 173.428C168.333 173.428 169.422 173.059 170.27 172.32C171.117 171.582 171.541 170.475 171.541 168.998V167.617ZM185.5 159.742C187.368 159.742 188.859 160.385 189.971 161.67C191.083 162.955 191.639 164.887 191.639 167.467C191.639 169.171 191.383 170.602 190.873 171.76C190.363 172.917 189.643 173.792 188.713 174.385C187.792 174.977 186.703 175.273 185.445 175.273C184.652 175.273 183.955 175.169 183.354 174.959C182.752 174.749 182.237 174.467 181.809 174.111C181.38 173.756 181.025 173.368 180.742 172.949H180.578C180.605 173.305 180.637 173.733 180.674 174.234C180.719 174.736 180.742 175.173 180.742 175.547V181.699H178.459V160.016H180.332L180.633 162.23H180.742C181.034 161.775 181.389 161.36 181.809 160.986C182.228 160.604 182.738 160.303 183.34 160.084C183.951 159.856 184.671 159.742 185.5 159.742ZM185.104 161.656C184.064 161.656 183.226 161.857 182.588 162.258C181.959 162.659 181.499 163.26 181.207 164.062C180.915 164.855 180.76 165.854 180.742 167.057V167.494C180.742 168.761 180.879 169.832 181.152 170.707C181.435 171.582 181.895 172.247 182.533 172.703C183.18 173.159 184.046 173.387 185.131 173.387C186.061 173.387 186.835 173.136 187.455 172.635C188.075 172.133 188.535 171.436 188.836 170.543C189.146 169.641 189.301 168.606 189.301 167.439C189.301 165.671 188.954 164.268 188.262 163.229C187.578 162.18 186.525 161.656 185.104 161.656ZM197.887 160.016V166.305H206.24V160.016H208.51V175H206.24V168.232H197.887V175H195.604V160.016H197.887ZM218.928 159.77C220.714 159.77 222.04 160.171 222.906 160.973C223.772 161.775 224.205 163.055 224.205 164.814V175H222.551L222.113 172.785H222.004C221.585 173.332 221.147 173.792 220.691 174.166C220.236 174.531 219.707 174.809 219.105 175C218.513 175.182 217.784 175.273 216.918 175.273C216.007 175.273 215.195 175.114 214.484 174.795C213.783 174.476 213.227 173.993 212.816 173.346C212.415 172.699 212.215 171.878 212.215 170.885C212.215 169.39 212.807 168.242 213.992 167.439C215.177 166.637 216.982 166.2 219.406 166.127L221.99 166.018V165.102C221.99 163.807 221.712 162.9 221.156 162.381C220.6 161.861 219.816 161.602 218.805 161.602C218.021 161.602 217.273 161.715 216.562 161.943C215.852 162.171 215.177 162.44 214.539 162.75L213.842 161.027C214.516 160.681 215.291 160.385 216.166 160.139C217.041 159.893 217.962 159.77 218.928 159.77ZM221.963 167.617L219.68 167.713C217.811 167.786 216.494 168.091 215.729 168.629C214.963 169.167 214.58 169.928 214.58 170.912C214.58 171.769 214.84 172.402 215.359 172.812C215.879 173.223 216.567 173.428 217.424 173.428C218.755 173.428 219.844 173.059 220.691 172.32C221.539 171.582 221.963 170.475 221.963 168.998V167.617ZM231.041 160.016V169.436C231.041 169.618 231.036 169.855 231.027 170.146C231.018 170.429 231.005 170.734 230.986 171.062C230.968 171.382 230.95 171.691 230.932 171.992C230.923 172.284 230.909 172.525 230.891 172.717L239.066 160.016H241.855V175H239.736V165.812C239.736 165.521 239.741 165.147 239.75 164.691C239.759 164.236 239.773 163.789 239.791 163.352C239.809 162.905 239.823 162.559 239.832 162.312L231.684 175H228.881V160.016H231.041ZM240.734 153.85C240.652 154.77 240.42 155.54 240.037 156.16C239.663 156.78 239.112 157.249 238.383 157.568C237.654 157.878 236.719 158.033 235.58 158.033C234.404 158.033 233.456 157.883 232.736 157.582C232.025 157.272 231.497 156.807 231.15 156.188C230.813 155.568 230.613 154.788 230.549 153.85H232.682C232.782 154.852 233.051 155.536 233.488 155.9C233.926 156.265 234.637 156.447 235.621 156.447C236.496 156.447 237.184 156.256 237.686 155.873C238.187 155.49 238.488 154.816 238.588 153.85H240.734ZM246.682 175V160.016H248.965V166.195H253.066C254.342 166.195 255.391 166.355 256.211 166.674C257.04 166.993 257.656 167.467 258.057 168.096C258.458 168.725 258.658 169.504 258.658 170.434C258.658 171.363 258.458 172.17 258.057 172.854C257.665 173.537 257.045 174.066 256.197 174.439C255.359 174.813 254.265 175 252.916 175H246.682ZM248.965 173.154H252.697C253.827 173.154 254.73 172.954 255.404 172.553C256.079 172.152 256.416 171.482 256.416 170.543C256.416 169.622 256.102 168.984 255.473 168.629C254.844 168.264 253.941 168.082 252.766 168.082H248.965V173.154ZM261.133 175V160.016H263.402V175H261.133ZM4.83984 213.273C3.99219 213.273 3.25391 213.205 2.625 213.068C2.00521 212.932 1.42643 212.736 0.888672 212.48V210.498C1.45378 210.726 2.0599 210.922 2.70703 211.086C3.35417 211.25 4.07878 211.332 4.88086 211.332C5.90169 211.332 6.77669 211.145 7.50586 210.771C8.24414 210.398 8.81836 209.833 9.22852 209.076C9.64779 208.311 9.88932 207.358 9.95312 206.219H2.35156V204.346H9.92578C9.80729 202.769 9.36523 201.602 8.59961 200.846C7.83398 200.08 6.70378 199.697 5.20898 199.697C4.67122 199.697 4.07878 199.775 3.43164 199.93C2.79362 200.076 2.2194 200.244 1.70898 200.436L1.08008 198.576C1.60872 198.339 2.23763 198.143 2.9668 197.988C3.70508 197.824 4.44792 197.742 5.19531 197.742C6.60807 197.742 7.84766 198.007 8.91406 198.535C9.98047 199.064 10.8099 199.898 11.4023 201.037C12.0039 202.167 12.3047 203.648 12.3047 205.48C12.3047 207.221 11.9902 208.671 11.3613 209.828C10.7324 210.986 9.85742 211.852 8.73633 212.426C7.62435 212.991 6.32552 213.273 4.83984 213.273ZM24.9648 198.016H27.4668L21 205.248L27.9863 213H25.3203L18.5117 205.398V213H16.2285V198.016H18.5117V205.289L24.9648 198.016ZM43.6133 205.48C43.6133 206.711 43.4538 207.809 43.1348 208.775C42.8158 209.742 42.3555 210.557 41.7539 211.223C41.1523 211.888 40.4232 212.398 39.5664 212.754C38.7188 213.1 37.7572 213.273 36.6816 213.273C35.679 213.273 34.7585 213.1 33.9199 212.754C33.0905 212.398 32.3704 211.888 31.7598 211.223C31.1582 210.557 30.6888 209.742 30.3516 208.775C30.0234 207.809 29.8594 206.711 29.8594 205.48C29.8594 203.84 30.1374 202.445 30.6934 201.297C31.2493 200.139 32.0423 199.26 33.0723 198.658C34.1113 198.048 35.3464 197.742 36.7773 197.742C38.1445 197.742 39.3385 198.048 40.3594 198.658C41.3893 199.269 42.1868 200.153 42.752 201.311C43.3262 202.459 43.6133 203.849 43.6133 205.48ZM32.2109 205.48C32.2109 206.684 32.3704 207.727 32.6895 208.611C33.0085 209.495 33.5007 210.179 34.166 210.662C34.8314 211.145 35.6882 211.387 36.7363 211.387C37.7754 211.387 38.6276 211.145 39.293 210.662C39.9674 210.179 40.4642 209.495 40.7832 208.611C41.1022 207.727 41.2617 206.684 41.2617 205.48C41.2617 204.286 41.1022 203.257 40.7832 202.391C40.4642 201.516 39.972 200.841 39.3066 200.367C38.6413 199.893 37.7799 199.656 36.7227 199.656C35.1641 199.656 34.0202 200.171 33.291 201.201C32.571 202.231 32.2109 203.658 32.2109 205.48ZM49.8203 198.016V204.305H58.1738V198.016H60.4434V213H58.1738V206.232H49.8203V213H47.5371V198.016H49.8203ZM78.1758 205.48C78.1758 206.711 78.0163 207.809 77.6973 208.775C77.3783 209.742 76.918 210.557 76.3164 211.223C75.7148 211.888 74.9857 212.398 74.1289 212.754C73.2812 213.1 72.3197 213.273 71.2441 213.273C70.2415 213.273 69.321 213.1 68.4824 212.754C67.653 212.398 66.9329 211.888 66.3223 211.223C65.7207 210.557 65.2513 209.742 64.9141 208.775C64.5859 207.809 64.4219 206.711 64.4219 205.48C64.4219 203.84 64.6999 202.445 65.2559 201.297C65.8118 200.139 66.6048 199.26 67.6348 198.658C68.6738 198.048 69.9089 197.742 71.3398 197.742C72.707 197.742 73.901 198.048 74.9219 198.658C75.9518 199.269 76.7493 200.153 77.3145 201.311C77.8887 202.459 78.1758 203.849 78.1758 205.48ZM66.7734 205.48C66.7734 206.684 66.9329 207.727 67.252 208.611C67.571 209.495 68.0632 210.179 68.7285 210.662C69.3939 211.145 70.2507 211.387 71.2988 211.387C72.3379 211.387 73.1901 211.145 73.8555 210.662C74.5299 210.179 75.0267 209.495 75.3457 208.611C75.6647 207.727 75.8242 206.684 75.8242 205.48C75.8242 204.286 75.6647 203.257 75.3457 202.391C75.0267 201.516 74.5345 200.841 73.8691 200.367C73.2038 199.893 72.3424 199.656 71.2852 199.656C69.7266 199.656 68.5827 200.171 67.8535 201.201C67.1335 202.231 66.7734 203.658 66.7734 205.48ZM97.918 198.016V213H95.8672V203.238C95.8672 202.837 95.8763 202.432 95.8945 202.021C95.9219 201.602 95.9538 201.183 95.9902 200.764H95.9082L90.9316 213H89.0039L84.1504 200.764H84.0684C84.0957 201.183 84.1139 201.602 84.123 202.021C84.1413 202.432 84.1504 202.865 84.1504 203.32V213H82.0859V198.016H85.1348L89.9746 210.266L94.8828 198.016H97.918ZM104.795 198.016V207.436C104.795 207.618 104.79 207.855 104.781 208.146C104.772 208.429 104.758 208.734 104.74 209.062C104.722 209.382 104.704 209.691 104.686 209.992C104.676 210.284 104.663 210.525 104.645 210.717L112.82 198.016H115.609V213H113.49V203.812C113.49 203.521 113.495 203.147 113.504 202.691C113.513 202.236 113.527 201.789 113.545 201.352C113.563 200.905 113.577 200.559 113.586 200.312L105.438 213H102.635V198.016H104.795ZM129.172 198.016H131.674L125.207 205.248L132.193 213H129.527L122.719 205.398V213H120.436V198.016H122.719V205.289L129.172 198.016ZM140.506 197.77C142.292 197.77 143.618 198.171 144.484 198.973C145.35 199.775 145.783 201.055 145.783 202.814V213H144.129L143.691 210.785H143.582C143.163 211.332 142.725 211.792 142.27 212.166C141.814 212.531 141.285 212.809 140.684 213C140.091 213.182 139.362 213.273 138.496 213.273C137.585 213.273 136.773 213.114 136.062 212.795C135.361 212.476 134.805 211.993 134.395 211.346C133.993 210.699 133.793 209.878 133.793 208.885C133.793 207.39 134.385 206.242 135.57 205.439C136.755 204.637 138.56 204.2 140.984 204.127L143.568 204.018V203.102C143.568 201.807 143.29 200.9 142.734 200.381C142.178 199.861 141.395 199.602 140.383 199.602C139.599 199.602 138.852 199.715 138.141 199.943C137.43 200.171 136.755 200.44 136.117 200.75L135.42 199.027C136.094 198.681 136.869 198.385 137.744 198.139C138.619 197.893 139.54 197.77 140.506 197.77ZM143.541 205.617L141.258 205.713C139.389 205.786 138.072 206.091 137.307 206.629C136.541 207.167 136.158 207.928 136.158 208.912C136.158 209.769 136.418 210.402 136.938 210.812C137.457 211.223 138.145 211.428 139.002 211.428C140.333 211.428 141.422 211.059 142.27 210.32C143.117 209.582 143.541 208.475 143.541 206.998V205.617ZM161.697 213H159.387V199.916H154.834C154.652 202.277 154.419 204.3 154.137 205.986C153.863 207.663 153.517 209.035 153.098 210.102C152.688 211.159 152.186 211.938 151.594 212.439C151.01 212.932 150.313 213.178 149.502 213.178C149.256 213.178 149.023 213.164 148.805 213.137C148.586 213.109 148.399 213.064 148.244 213V211.277C148.363 211.314 148.486 211.341 148.613 211.359C148.75 211.378 148.891 211.387 149.037 211.387C149.447 211.387 149.821 211.218 150.158 210.881C150.505 210.535 150.814 210.015 151.088 209.322C151.37 208.63 151.621 207.755 151.84 206.697C152.059 205.631 152.25 204.378 152.414 202.938C152.587 201.488 152.738 199.848 152.865 198.016H161.697V213ZM166.482 213V198.016H168.766V204.195H172.867C174.143 204.195 175.191 204.355 176.012 204.674C176.841 204.993 177.456 205.467 177.857 206.096C178.258 206.725 178.459 207.504 178.459 208.434C178.459 209.363 178.258 210.17 177.857 210.854C177.465 211.537 176.846 212.066 175.998 212.439C175.16 212.813 174.066 213 172.717 213H166.482ZM168.766 211.154H172.498C173.628 211.154 174.531 210.954 175.205 210.553C175.88 210.152 176.217 209.482 176.217 208.543C176.217 207.622 175.902 206.984 175.273 206.629C174.645 206.264 173.742 206.082 172.566 206.082H168.766V211.154ZM180.934 213V198.016H183.203V213H180.934ZM198.297 218.168V213H197.094L190.285 205.398V213H188.002V198.016H190.285V205.289L196.738 198.016H199.24L192.773 205.248L198.064 211.072H200.471V218.168H198.297ZM216.139 197.77C217.925 197.77 219.251 198.171 220.117 198.973C220.983 199.775 221.416 201.055 221.416 202.814V213H219.762L219.324 210.785H219.215C218.796 211.332 218.358 211.792 217.902 212.166C217.447 212.531 216.918 212.809 216.316 213C215.724 213.182 214.995 213.273 214.129 213.273C213.217 213.273 212.406 213.114 211.695 212.795C210.993 212.476 210.438 211.993 210.027 211.346C209.626 210.699 209.426 209.878 209.426 208.885C209.426 207.39 210.018 206.242 211.203 205.439C212.388 204.637 214.193 204.2 216.617 204.127L219.201 204.018V203.102C219.201 201.807 218.923 200.9 218.367 200.381C217.811 199.861 217.027 199.602 216.016 199.602C215.232 199.602 214.484 199.715 213.773 199.943C213.062 200.171 212.388 200.44 211.75 200.75L211.053 199.027C211.727 198.681 212.502 198.385 213.377 198.139C214.252 197.893 215.173 197.77 216.139 197.77ZM219.174 205.617L216.891 205.713C215.022 205.786 213.705 206.091 212.939 206.629C212.174 207.167 211.791 207.928 211.791 208.912C211.791 209.769 212.051 210.402 212.57 210.812C213.09 211.223 213.778 211.428 214.635 211.428C215.965 211.428 217.055 211.059 217.902 210.32C218.75 209.582 219.174 208.475 219.174 206.998V205.617ZM228.252 198.016V207.436C228.252 207.618 228.247 207.855 228.238 208.146C228.229 208.429 228.215 208.734 228.197 209.062C228.179 209.382 228.161 209.691 228.143 209.992C228.133 210.284 228.12 210.525 228.102 210.717L236.277 198.016H239.066V213H236.947V203.812C236.947 203.521 236.952 203.147 236.961 202.691C236.97 202.236 236.984 201.789 237.002 201.352C237.02 200.905 237.034 200.559 237.043 200.312L228.895 213H226.092V198.016H228.252ZM237.945 191.85C237.863 192.77 237.631 193.54 237.248 194.16C236.874 194.78 236.323 195.249 235.594 195.568C234.865 195.878 233.93 196.033 232.791 196.033C231.615 196.033 230.667 195.883 229.947 195.582C229.236 195.272 228.708 194.807 228.361 194.188C228.024 193.568 227.824 192.788 227.76 191.85H229.893C229.993 192.852 230.262 193.536 230.699 193.9C231.137 194.265 231.848 194.447 232.832 194.447C233.707 194.447 234.395 194.256 234.896 193.873C235.398 193.49 235.699 192.816 235.799 191.85H237.945ZM259.711 198.016V213H257.66V203.238C257.66 202.837 257.669 202.432 257.688 202.021C257.715 201.602 257.747 201.183 257.783 200.764H257.701L252.725 213H250.797L245.943 200.764H245.861C245.889 201.183 245.907 201.602 245.916 202.021C245.934 202.432 245.943 202.865 245.943 203.32V213H243.879V198.016H246.928L251.768 210.266L256.676 198.016H259.711ZM270.033 197.77C271.82 197.77 273.146 198.171 274.012 198.973C274.878 199.775 275.311 201.055 275.311 202.814V213H273.656L273.219 210.785H273.109C272.69 211.332 272.253 211.792 271.797 212.166C271.341 212.531 270.812 212.809 270.211 213C269.618 213.182 268.889 213.273 268.023 213.273C267.112 213.273 266.301 213.114 265.59 212.795C264.888 212.476 264.332 211.993 263.922 211.346C263.521 210.699 263.32 209.878 263.32 208.885C263.32 207.39 263.913 206.242 265.098 205.439C266.283 204.637 268.087 204.2 270.512 204.127L273.096 204.018V203.102C273.096 201.807 272.818 200.9 272.262 200.381C271.706 199.861 270.922 199.602 269.91 199.602C269.126 199.602 268.379 199.715 267.668 199.943C266.957 200.171 266.283 200.44 265.645 200.75L264.947 199.027C265.622 198.681 266.396 198.385 267.271 198.139C268.146 197.893 269.067 197.77 270.033 197.77ZM273.068 205.617L270.785 205.713C268.917 205.786 267.6 206.091 266.834 206.629C266.068 207.167 265.686 207.928 265.686 208.912C265.686 209.769 265.945 210.402 266.465 210.812C266.984 211.223 267.673 211.428 268.529 211.428C269.86 211.428 270.949 211.059 271.797 210.32C272.645 209.582 273.068 208.475 273.068 206.998V205.617ZM289.105 198.016V199.943H282.242V204.646H286.986V206.41H282.242V213H279.973V206.41H277.812V204.646H279.973V198.016H289.105ZM292.072 213V198.016H294.355V204.195H298.457C299.733 204.195 300.781 204.355 301.602 204.674C302.431 204.993 303.046 205.467 303.447 206.096C303.848 206.725 304.049 207.504 304.049 208.434C304.049 209.363 303.848 210.17 303.447 210.854C303.055 211.537 302.436 212.066 301.588 212.439C300.749 212.813 299.656 213 298.307 213H292.072ZM294.355 211.154H298.088C299.218 211.154 300.12 210.954 300.795 210.553C301.469 210.152 301.807 209.482 301.807 208.543C301.807 207.622 301.492 206.984 300.863 206.629C300.234 206.264 299.332 206.082 298.156 206.082H294.355V211.154ZM306.523 213V198.016H308.793V213H306.523Z" fill="#FCFCFC"/>
</svg>
