<svg width="343" height="244" viewBox="0 0 343 244" fill="none" xmlns="http://www.w3.org/2000/svg">
<path fill-rule="evenodd" clip-rule="evenodd" d="M198.933 51.7603C177.516 37.9699 154.108 24.9493 132.025 10.9557C117.057 1.47292 103.183 1.38399 96.1354 1.83597C87.2808 2.40341 81.9796 3.14561 77.1102 4.08962C74.1532 4.66382 89.7073 1.7741 110.187 10.2801C126.336 16.987 167.667 48.2043 203.811 64.3798C235.454 78.5415 276.049 71.3499 298 53.756C283.124 64.1588 239.388 77.8082 198.933 51.7603Z" fill="#FCFCFC"/>
<path fill-rule="evenodd" clip-rule="evenodd" d="M121.081 0.672372C126.334 0.941244 135.576 1.90194 151.995 12.3417C165.416 20.8747 211.571 50.2429 224.06 55.454C246.858 64.9669 265.407 59.2644 276.423 54.9038C270.015 57.0612 250.803 60.3217 234.886 52.9528C219.202 45.6925 171.583 10.5473 150.848 3.53455C136.829 -1.20681 126.929 -0.0526905 121.081 0.672372Z" fill="#FCFCFC"/>
<path fill-rule="evenodd" clip-rule="evenodd" d="M55.3359 60.7586C56.0879 37.9053 68.5534 21.5034 85.9694 12.2251C77.2016 12.0363 71.211 14.264 67.9622 15.9564C51.7826 25.5624 45 41.8634 45 57.9874C45 75.7286 58.9107 98.8747 81.833 105.58C65.8446 95.8263 54.7212 79.3912 55.3359 60.7586Z" fill="#FCFCFC"/>
<path fill-rule="evenodd" clip-rule="evenodd" d="M187.695 96.1653C184.352 98.6066 179.486 102.473 176.915 104.368C186.079 101.215 192.418 98.1797 196.388 96.0144C193.433 96.2079 190.527 96.2454 187.695 96.1653Z" fill="#FCFCFC"/>
<path fill-rule="evenodd" clip-rule="evenodd" d="M176.023 95.1763C170.627 99.3471 155.288 110.258 155.282 110.261C160.347 109.359 167.099 106.7 172.05 103.445C174.294 101.968 179.539 98.0161 182.535 95.8888C180.294 95.712 178.117 95.4686 176.023 95.1763Z" fill="#FCFCFC"/>
<path fill-rule="evenodd" clip-rule="evenodd" d="M163.821 92.8081C158.289 96.3085 150.486 101.682 146.057 104.987C133.26 114.535 126.344 114.055 124.548 114.352C132.473 113.907 142.501 113.19 147.516 109.817C153.744 105.629 163.57 98.6464 170.145 94.1989C167.891 93.7667 165.773 93.2934 163.821 92.8081Z" fill="#FCFCFC"/>
<path fill-rule="evenodd" clip-rule="evenodd" d="M151.675 89.0718C134.902 100.206 121.058 108.015 109.966 110.977C106.229 111.975 102.617 112.536 99.2015 112.781C99.1999 112.781 99.1977 112.781 99.1977 112.781C93.6958 113.456 87.0747 112.991 81.3038 112.24C86.4847 113.722 93.5635 114.983 102.625 114.983C103.275 114.983 115.595 115.617 128.93 109.099C137.143 105.086 148.415 97.0857 157.648 91.0986C155.045 90.3003 153.007 89.5752 151.675 89.0718H151.675Z" fill="#FCFCFC"/>
<path d="M54.668 155.379C53.7227 155.379 52.8711 155.543 52.1133 155.871C51.3633 156.191 50.7227 156.66 50.1914 157.277C49.668 157.887 49.2656 158.625 48.9844 159.492C48.7031 160.359 48.5625 161.336 48.5625 162.422C48.5625 163.859 48.7852 165.109 49.2305 166.172C49.6836 167.227 50.3555 168.043 51.2461 168.621C52.1445 169.199 53.2656 169.488 54.6094 169.488C55.375 169.488 56.0938 169.426 56.7656 169.301C57.4453 169.168 58.1055 169.004 58.7461 168.809V170.543C58.1211 170.777 57.4648 170.949 56.7773 171.059C56.0898 171.176 55.2734 171.234 54.3281 171.234C52.5859 171.234 51.1289 170.875 49.957 170.156C48.793 169.43 47.918 168.406 47.332 167.086C46.7539 165.766 46.4648 164.207 46.4648 162.41C46.4648 161.113 46.6445 159.93 47.0039 158.859C47.3711 157.781 47.9023 156.852 48.5977 156.07C49.3008 155.289 50.1602 154.688 51.1758 154.266C52.1992 153.836 53.3711 153.621 54.6914 153.621C55.5586 153.621 56.3945 153.707 57.1992 153.879C58.0039 154.051 58.7305 154.297 59.3789 154.617L58.582 156.305C58.0352 156.055 57.4336 155.84 56.7773 155.66C56.1289 155.473 55.4258 155.379 54.668 155.379ZM72.9258 158.156V171H70.9688V159.832H64.125V171H62.168V158.156H72.9258ZM81.9961 157.922C83.0898 157.922 84.0273 158.164 84.8086 158.648C85.5898 159.133 86.1875 159.812 86.6016 160.688C87.0156 161.555 87.2227 162.57 87.2227 163.734V164.941H78.3516C78.375 166.449 78.75 167.598 79.4766 168.387C80.2031 169.176 81.2266 169.57 82.5469 169.57C83.3594 169.57 84.0781 169.496 84.7031 169.348C85.3281 169.199 85.9766 168.98 86.6484 168.691V170.402C86 170.691 85.3555 170.902 84.7148 171.035C84.082 171.168 83.332 171.234 82.4648 171.234C81.2305 171.234 80.1523 170.984 79.2305 170.484C78.3164 169.977 77.6055 169.234 77.0977 168.258C76.5898 167.281 76.3359 166.086 76.3359 164.672C76.3359 163.289 76.5664 162.094 77.0273 161.086C77.4961 160.07 78.1523 159.289 78.9961 158.742C79.8477 158.195 80.8477 157.922 81.9961 157.922ZM81.9727 159.516C80.9336 159.516 80.1055 159.855 79.4883 160.535C78.8711 161.215 78.5039 162.164 78.3867 163.383H85.1836C85.1758 162.617 85.0547 161.945 84.8203 161.367C84.5938 160.781 84.2461 160.328 83.7773 160.008C83.3086 159.68 82.707 159.516 81.9727 159.516ZM103.031 175.441H101.133V171H90.5273V158.156H92.4844V169.348H99.293V158.156H101.238V169.371H103.031V175.441ZM107.402 158.156V166.23C107.402 166.387 107.398 166.59 107.391 166.84C107.383 167.082 107.371 167.344 107.355 167.625C107.34 167.898 107.324 168.164 107.309 168.422C107.301 168.672 107.289 168.879 107.273 169.043L114.281 158.156H116.672V171H114.855V163.125C114.855 162.875 114.859 162.555 114.867 162.164C114.875 161.773 114.887 161.391 114.902 161.016C114.918 160.633 114.93 160.336 114.938 160.125L107.953 171H105.551V158.156H107.402ZM125.613 157.945C127.145 157.945 128.281 158.289 129.023 158.977C129.766 159.664 130.137 160.762 130.137 162.27V171H128.719L128.344 169.102H128.25C127.891 169.57 127.516 169.965 127.125 170.285C126.734 170.598 126.281 170.836 125.766 171C125.258 171.156 124.633 171.234 123.891 171.234C123.109 171.234 122.414 171.098 121.805 170.824C121.203 170.551 120.727 170.137 120.375 169.582C120.031 169.027 119.859 168.324 119.859 167.473C119.859 166.191 120.367 165.207 121.383 164.52C122.398 163.832 123.945 163.457 126.023 163.395L128.238 163.301V162.516C128.238 161.406 128 160.629 127.523 160.184C127.047 159.738 126.375 159.516 125.508 159.516C124.836 159.516 124.195 159.613 123.586 159.809C122.977 160.004 122.398 160.234 121.852 160.5L121.254 159.023C121.832 158.727 122.496 158.473 123.246 158.262C123.996 158.051 124.785 157.945 125.613 157.945ZM128.215 164.672L126.258 164.754C124.656 164.816 123.527 165.078 122.871 165.539C122.215 166 121.887 166.652 121.887 167.496C121.887 168.23 122.109 168.773 122.555 169.125C123 169.477 123.59 169.652 124.324 169.652C125.465 169.652 126.398 169.336 127.125 168.703C127.852 168.07 128.215 167.121 128.215 165.855V164.672ZM143.777 171H141.797V159.785H137.895C137.738 161.809 137.539 163.543 137.297 164.988C137.062 166.426 136.766 167.602 136.406 168.516C136.055 169.422 135.625 170.09 135.117 170.52C134.617 170.941 134.02 171.152 133.324 171.152C133.113 171.152 132.914 171.141 132.727 171.117C132.539 171.094 132.379 171.055 132.246 171V169.523C132.348 169.555 132.453 169.578 132.562 169.594C132.68 169.609 132.801 169.617 132.926 169.617C133.277 169.617 133.598 169.473 133.887 169.184C134.184 168.887 134.449 168.441 134.684 167.848C134.926 167.254 135.141 166.504 135.328 165.598C135.516 164.684 135.68 163.609 135.82 162.375C135.969 161.133 136.098 159.727 136.207 158.156H143.777V171ZM149.836 163.453H153.773C154.867 163.453 155.777 163.59 156.504 163.863C157.23 164.137 157.773 164.543 158.133 165.082C158.5 165.621 158.684 166.289 158.684 167.086C158.684 167.883 158.504 168.574 158.145 169.16C157.793 169.746 157.246 170.199 156.504 170.52C155.77 170.84 154.82 171 153.656 171H147.879V158.156H149.836V163.453ZM156.727 167.18C156.727 166.391 156.445 165.844 155.883 165.539C155.328 165.227 154.551 165.07 153.551 165.07H149.836V169.418H153.562C154.5 169.418 155.262 169.246 155.848 168.902C156.434 168.551 156.727 167.977 156.727 167.18ZM163.992 158.156V163.547H171.152V158.156H173.098V171H171.152V165.199H163.992V171H162.035V158.156H163.992ZM182.027 157.945C183.559 157.945 184.695 158.289 185.438 158.977C186.18 159.664 186.551 160.762 186.551 162.27V171H185.133L184.758 169.102H184.664C184.305 169.57 183.93 169.965 183.539 170.285C183.148 170.598 182.695 170.836 182.18 171C181.672 171.156 181.047 171.234 180.305 171.234C179.523 171.234 178.828 171.098 178.219 170.824C177.617 170.551 177.141 170.137 176.789 169.582C176.445 169.027 176.273 168.324 176.273 167.473C176.273 166.191 176.781 165.207 177.797 164.52C178.812 163.832 180.359 163.457 182.438 163.395L184.652 163.301V162.516C184.652 161.406 184.414 160.629 183.938 160.184C183.461 159.738 182.789 159.516 181.922 159.516C181.25 159.516 180.609 159.613 180 159.809C179.391 160.004 178.812 160.234 178.266 160.5L177.668 159.023C178.246 158.727 178.91 158.473 179.66 158.262C180.41 158.051 181.199 157.945 182.027 157.945ZM184.629 164.672L182.672 164.754C181.07 164.816 179.941 165.078 179.285 165.539C178.629 166 178.301 166.652 178.301 167.496C178.301 168.23 178.523 168.773 178.969 169.125C179.414 169.477 180.004 169.652 180.738 169.652C181.879 169.652 182.812 169.336 183.539 168.703C184.266 168.07 184.629 167.121 184.629 165.855V164.672ZM191.18 171H188.906L192.609 165.586C192.07 165.469 191.57 165.27 191.109 164.988C190.648 164.699 190.273 164.305 189.984 163.805C189.703 163.305 189.562 162.684 189.562 161.941C189.562 160.707 189.973 159.77 190.793 159.129C191.621 158.48 192.711 158.156 194.062 158.156H199.746V171H197.801V165.844H194.543L191.18 171ZM191.449 161.953C191.449 162.719 191.723 163.289 192.27 163.664C192.816 164.031 193.598 164.215 194.613 164.215H197.801V159.785H194.273C193.273 159.785 192.551 159.988 192.105 160.395C191.668 160.793 191.449 161.312 191.449 161.953ZM49.1484 204.234C48.4219 204.234 47.7891 204.176 47.25 204.059C46.7188 203.941 46.2227 203.773 45.7617 203.555V201.855C46.2461 202.051 46.7656 202.219 47.3203 202.359C47.875 202.5 48.4961 202.57 49.1836 202.57C50.0586 202.57 50.8086 202.41 51.4336 202.09C52.0664 201.77 52.5586 201.285 52.9102 200.637C53.2695 199.98 53.4766 199.164 53.5312 198.188H47.0156V196.582H53.5078C53.4062 195.23 53.0273 194.23 52.3711 193.582C51.7148 192.926 50.7461 192.598 49.4648 192.598C49.0039 192.598 48.4961 192.664 47.9414 192.797C47.3945 192.922 46.9023 193.066 46.4648 193.23L45.9258 191.637C46.3789 191.434 46.918 191.266 47.543 191.133C48.1758 190.992 48.8125 190.922 49.4531 190.922C50.6641 190.922 51.7266 191.148 52.6406 191.602C53.5547 192.055 54.2656 192.77 54.7734 193.746C55.2891 194.715 55.5469 195.984 55.5469 197.555C55.5469 199.047 55.2773 200.289 54.7383 201.281C54.1992 202.273 53.4492 203.016 52.4883 203.508C51.5352 203.992 50.4219 204.234 49.1484 204.234ZM66.3984 191.156H68.543L63 197.355L68.9883 204H66.7031L60.8672 197.484V204H58.9102V191.156H60.8672V197.391L66.3984 191.156ZM82.3828 197.555C82.3828 198.609 82.2461 199.551 81.9727 200.379C81.6992 201.207 81.3047 201.906 80.7891 202.477C80.2734 203.047 79.6484 203.484 78.9141 203.789C78.1875 204.086 77.3633 204.234 76.4414 204.234C75.582 204.234 74.793 204.086 74.0742 203.789C73.3633 203.484 72.7461 203.047 72.2227 202.477C71.707 201.906 71.3047 201.207 71.0156 200.379C70.7344 199.551 70.5938 198.609 70.5938 197.555C70.5938 196.148 70.832 194.953 71.3086 193.969C71.7852 192.977 72.4648 192.223 73.3477 191.707C74.2383 191.184 75.2969 190.922 76.5234 190.922C77.6953 190.922 78.7188 191.184 79.5938 191.707C80.4766 192.23 81.1602 192.988 81.6445 193.98C82.1367 194.965 82.3828 196.156 82.3828 197.555ZM72.6094 197.555C72.6094 198.586 72.7461 199.48 73.0195 200.238C73.293 200.996 73.7148 201.582 74.2852 201.996C74.8555 202.41 75.5898 202.617 76.4883 202.617C77.3789 202.617 78.1094 202.41 78.6797 201.996C79.2578 201.582 79.6836 200.996 79.957 200.238C80.2305 199.48 80.3672 198.586 80.3672 197.555C80.3672 196.531 80.2305 195.648 79.957 194.906C79.6836 194.156 79.2617 193.578 78.6914 193.172C78.1211 192.766 77.3828 192.562 76.4766 192.562C75.1406 192.562 74.1602 193.004 73.5352 193.887C72.918 194.77 72.6094 195.992 72.6094 197.555ZM87.7031 191.156V196.547H94.8633V191.156H96.8086V204H94.8633V198.199H87.7031V204H85.7461V191.156H87.7031ZM112.008 197.555C112.008 198.609 111.871 199.551 111.598 200.379C111.324 201.207 110.93 201.906 110.414 202.477C109.898 203.047 109.273 203.484 108.539 203.789C107.812 204.086 106.988 204.234 106.066 204.234C105.207 204.234 104.418 204.086 103.699 203.789C102.988 203.484 102.371 203.047 101.848 202.477C101.332 201.906 100.93 201.207 100.641 200.379C100.359 199.551 100.219 198.609 100.219 197.555C100.219 196.148 100.457 194.953 100.934 193.969C101.41 192.977 102.09 192.223 102.973 191.707C103.863 191.184 104.922 190.922 106.148 190.922C107.32 190.922 108.344 191.184 109.219 191.707C110.102 192.23 110.785 192.988 111.27 193.98C111.762 194.965 112.008 196.156 112.008 197.555ZM102.234 197.555C102.234 198.586 102.371 199.48 102.645 200.238C102.918 200.996 103.34 201.582 103.91 201.996C104.48 202.41 105.215 202.617 106.113 202.617C107.004 202.617 107.734 202.41 108.305 201.996C108.883 201.582 109.309 200.996 109.582 200.238C109.855 199.48 109.992 198.586 109.992 197.555C109.992 196.531 109.855 195.648 109.582 194.906C109.309 194.156 108.887 193.578 108.316 193.172C107.746 192.766 107.008 192.562 106.102 192.562C104.766 192.562 103.785 193.004 103.16 193.887C102.543 194.77 102.234 195.992 102.234 197.555ZM128.93 191.156V204H127.172V195.633C127.172 195.289 127.18 194.941 127.195 194.59C127.219 194.23 127.246 193.871 127.277 193.512H127.207L122.941 204H121.289L117.129 193.512H117.059C117.082 193.871 117.098 194.23 117.105 194.59C117.121 194.941 117.129 195.312 117.129 195.703V204H115.359V191.156H117.973L122.121 201.656L126.328 191.156H128.93ZM134.824 191.156V199.23C134.824 199.387 134.82 199.59 134.812 199.84C134.805 200.082 134.793 200.344 134.777 200.625C134.762 200.898 134.746 201.164 134.73 201.422C134.723 201.672 134.711 201.879 134.695 202.043L141.703 191.156H144.094V204H142.277V196.125C142.277 195.875 142.281 195.555 142.289 195.164C142.297 194.773 142.309 194.391 142.324 194.016C142.34 193.633 142.352 193.336 142.359 193.125L135.375 204H132.973V191.156H134.824ZM149.93 191.156V195.773C149.93 196.578 150.148 197.172 150.586 197.555C151.031 197.938 151.676 198.129 152.52 198.129C153.332 198.129 154.07 198.004 154.734 197.754C155.398 197.504 156.07 197.164 156.75 196.734V191.156H158.695V204H156.75V198.246C156.031 198.707 155.324 199.07 154.629 199.336C153.934 199.602 153.102 199.734 152.133 199.734C150.812 199.734 149.789 199.391 149.062 198.703C148.344 198.016 147.984 197.086 147.984 195.914V191.156H149.93ZM167.754 190.922C168.848 190.922 169.785 191.164 170.566 191.648C171.348 192.133 171.945 192.812 172.359 193.688C172.773 194.555 172.98 195.57 172.98 196.734V197.941H164.109C164.133 199.449 164.508 200.598 165.234 201.387C165.961 202.176 166.984 202.57 168.305 202.57C169.117 202.57 169.836 202.496 170.461 202.348C171.086 202.199 171.734 201.98 172.406 201.691V203.402C171.758 203.691 171.113 203.902 170.473 204.035C169.84 204.168 169.09 204.234 168.223 204.234C166.988 204.234 165.91 203.984 164.988 203.484C164.074 202.977 163.363 202.234 162.855 201.258C162.348 200.281 162.094 199.086 162.094 197.672C162.094 196.289 162.324 195.094 162.785 194.086C163.254 193.07 163.91 192.289 164.754 191.742C165.605 191.195 166.605 190.922 167.754 190.922ZM167.73 192.516C166.691 192.516 165.863 192.855 165.246 193.535C164.629 194.215 164.262 195.164 164.145 196.383H170.941C170.934 195.617 170.812 194.945 170.578 194.367C170.352 193.781 170.004 193.328 169.535 193.008C169.066 192.68 168.465 192.516 167.73 192.516ZM181.43 204.234C180.273 204.234 179.254 203.996 178.371 203.52C177.488 203.043 176.801 202.316 176.309 201.34C175.816 200.363 175.57 199.133 175.57 197.648C175.57 196.094 175.828 194.824 176.344 193.84C176.867 192.848 177.586 192.113 178.5 191.637C179.414 191.16 180.453 190.922 181.617 190.922C182.258 190.922 182.875 190.988 183.469 191.121C184.07 191.246 184.562 191.406 184.945 191.602L184.359 193.23C183.969 193.074 183.516 192.934 183 192.809C182.492 192.684 182.016 192.621 181.57 192.621C180.68 192.621 179.938 192.812 179.344 193.195C178.758 193.578 178.316 194.141 178.02 194.883C177.73 195.625 177.586 196.539 177.586 197.625C177.586 198.664 177.727 199.551 178.008 200.285C178.297 201.02 178.723 201.582 179.285 201.973C179.855 202.355 180.566 202.547 181.418 202.547C182.098 202.547 182.711 202.477 183.258 202.336C183.805 202.188 184.301 202.016 184.746 201.82V203.555C184.316 203.773 183.836 203.941 183.305 204.059C182.781 204.176 182.156 204.234 181.43 204.234ZM195.281 191.156H197.426L191.883 197.355L197.871 204H195.586L189.75 197.484V204H187.793V191.156H189.75V197.391L195.281 191.156ZM204.996 190.945C206.527 190.945 207.664 191.289 208.406 191.977C209.148 192.664 209.52 193.762 209.52 195.27V204H208.102L207.727 202.102H207.633C207.273 202.57 206.898 202.965 206.508 203.285C206.117 203.598 205.664 203.836 205.148 204C204.641 204.156 204.016 204.234 203.273 204.234C202.492 204.234 201.797 204.098 201.188 203.824C200.586 203.551 200.109 203.137 199.758 202.582C199.414 202.027 199.242 201.324 199.242 200.473C199.242 199.191 199.75 198.207 200.766 197.52C201.781 196.832 203.328 196.457 205.406 196.395L207.621 196.301V195.516C207.621 194.406 207.383 193.629 206.906 193.184C206.43 192.738 205.758 192.516 204.891 192.516C204.219 192.516 203.578 192.613 202.969 192.809C202.359 193.004 201.781 193.234 201.234 193.5L200.637 192.023C201.215 191.727 201.879 191.473 202.629 191.262C203.379 191.051 204.168 190.945 204.996 190.945ZM207.598 197.672L205.641 197.754C204.039 197.816 202.91 198.078 202.254 198.539C201.598 199 201.27 199.652 201.27 200.496C201.27 201.23 201.492 201.773 201.938 202.125C202.383 202.477 202.973 202.652 203.707 202.652C204.848 202.652 205.781 202.336 206.508 201.703C207.234 201.07 207.598 200.121 207.598 198.855V197.672ZM214.148 204H211.875L215.578 198.586C215.039 198.469 214.539 198.27 214.078 197.988C213.617 197.699 213.242 197.305 212.953 196.805C212.672 196.305 212.531 195.684 212.531 194.941C212.531 193.707 212.941 192.77 213.762 192.129C214.59 191.48 215.68 191.156 217.031 191.156H222.715V204H220.77V198.844H217.512L214.148 204ZM214.418 194.953C214.418 195.719 214.691 196.289 215.238 196.664C215.785 197.031 216.566 197.215 217.582 197.215H220.77V192.785H217.242C216.242 192.785 215.52 192.988 215.074 193.395C214.637 193.793 214.418 194.312 214.418 194.953ZM236.355 190.922C237.316 190.922 238.148 191.055 238.852 191.32C239.555 191.578 240.098 191.957 240.48 192.457C240.863 192.957 241.055 193.566 241.055 194.285C241.055 195.059 240.844 195.676 240.422 196.137C240 196.598 239.418 196.93 238.676 197.133V197.227C239.199 197.367 239.672 197.57 240.094 197.836C240.523 198.094 240.863 198.438 241.113 198.867C241.371 199.289 241.5 199.816 241.5 200.449C241.5 201.168 241.305 201.816 240.914 202.395C240.523 202.965 239.93 203.414 239.133 203.742C238.336 204.07 237.328 204.234 236.109 204.234C235.508 204.234 234.938 204.199 234.398 204.129C233.859 204.066 233.371 203.973 232.934 203.848C232.496 203.723 232.113 203.574 231.785 203.402V201.633C232.332 201.898 232.973 202.133 233.707 202.336C234.441 202.539 235.234 202.641 236.086 202.641C236.742 202.641 237.332 202.566 237.855 202.418C238.379 202.262 238.793 202.016 239.098 201.68C239.41 201.336 239.566 200.887 239.566 200.332C239.566 199.824 239.43 199.406 239.156 199.078C238.883 198.742 238.473 198.496 237.926 198.34C237.387 198.176 236.703 198.094 235.875 198.094H234.152V196.5H235.57C236.672 196.5 237.551 196.344 238.207 196.031C238.863 195.719 239.191 195.191 239.191 194.449C239.191 193.809 238.938 193.332 238.43 193.02C237.922 192.699 237.195 192.539 236.25 192.539C235.547 192.539 234.926 192.613 234.387 192.762C233.848 192.902 233.266 193.105 232.641 193.371L231.949 191.812C232.621 191.516 233.324 191.293 234.059 191.145C234.793 190.996 235.559 190.922 236.355 190.922ZM255.727 197.555C255.727 198.609 255.59 199.551 255.316 200.379C255.043 201.207 254.648 201.906 254.133 202.477C253.617 203.047 252.992 203.484 252.258 203.789C251.531 204.086 250.707 204.234 249.785 204.234C248.926 204.234 248.137 204.086 247.418 203.789C246.707 203.484 246.09 203.047 245.566 202.477C245.051 201.906 244.648 201.207 244.359 200.379C244.078 199.551 243.938 198.609 243.938 197.555C243.938 196.148 244.176 194.953 244.652 193.969C245.129 192.977 245.809 192.223 246.691 191.707C247.582 191.184 248.641 190.922 249.867 190.922C251.039 190.922 252.062 191.184 252.938 191.707C253.82 192.23 254.504 192.988 254.988 193.98C255.48 194.965 255.727 196.156 255.727 197.555ZM245.953 197.555C245.953 198.586 246.09 199.48 246.363 200.238C246.637 200.996 247.059 201.582 247.629 201.996C248.199 202.41 248.934 202.617 249.832 202.617C250.723 202.617 251.453 202.41 252.023 201.996C252.602 201.582 253.027 200.996 253.301 200.238C253.574 199.48 253.711 198.586 253.711 197.555C253.711 196.531 253.574 195.648 253.301 194.906C253.027 194.156 252.605 193.578 252.035 193.172C251.465 192.766 250.727 192.562 249.82 192.562C248.484 192.562 247.504 193.004 246.879 193.887C246.262 194.77 245.953 195.992 245.953 197.555ZM261.047 191.156V196.547H268.207V191.156H270.152V204H268.207V198.199H261.047V204H259.09V191.156H261.047ZM279.082 190.945C280.613 190.945 281.75 191.289 282.492 191.977C283.234 192.664 283.605 193.762 283.605 195.27V204H282.188L281.812 202.102H281.719C281.359 202.57 280.984 202.965 280.594 203.285C280.203 203.598 279.75 203.836 279.234 204C278.727 204.156 278.102 204.234 277.359 204.234C276.578 204.234 275.883 204.098 275.273 203.824C274.672 203.551 274.195 203.137 273.844 202.582C273.5 202.027 273.328 201.324 273.328 200.473C273.328 199.191 273.836 198.207 274.852 197.52C275.867 196.832 277.414 196.457 279.492 196.395L281.707 196.301V195.516C281.707 194.406 281.469 193.629 280.992 193.184C280.516 192.738 279.844 192.516 278.977 192.516C278.305 192.516 277.664 192.613 277.055 192.809C276.445 193.004 275.867 193.234 275.32 193.5L274.723 192.023C275.301 191.727 275.965 191.473 276.715 191.262C277.465 191.051 278.254 190.945 279.082 190.945ZM281.684 197.672L279.727 197.754C278.125 197.816 276.996 198.078 276.34 198.539C275.684 199 275.355 199.652 275.355 200.496C275.355 201.23 275.578 201.773 276.023 202.125C276.469 202.477 277.059 202.652 277.793 202.652C278.934 202.652 279.867 202.336 280.594 201.703C281.32 201.07 281.684 200.121 281.684 198.855V197.672ZM53.0742 219.867C52.9102 220.469 52.7461 221.121 52.582 221.824C52.4258 222.52 52.2812 223.207 52.1484 223.887C52.0156 224.566 51.9102 225.184 51.832 225.738H49.7578L49.582 225.48C49.7227 224.91 49.9023 224.301 50.1211 223.652C50.3477 223.004 50.5898 222.355 50.8477 221.707C51.1133 221.051 51.3789 220.438 51.6445 219.867H53.0742ZM48.7617 219.867C48.5977 220.469 48.4336 221.121 48.2695 221.824C48.1133 222.52 47.9688 223.207 47.8359 223.887C47.7031 224.566 47.5977 225.184 47.5195 225.738H45.457L45.3164 225.48C45.457 224.91 45.6328 224.301 45.8438 223.652C46.0625 223.004 46.3008 222.355 46.5586 221.707C46.8164 221.051 47.0781 220.438 47.3438 219.867H48.7617ZM55.7109 237V219.867H68.4727V237H66.5039V221.625H57.7031V237H55.7109ZM77.707 223.945C79.2383 223.945 80.375 224.289 81.1172 224.977C81.8594 225.664 82.2305 226.762 82.2305 228.27V237H80.8125L80.4375 235.102H80.3438C79.9844 235.57 79.6094 235.965 79.2188 236.285C78.8281 236.598 78.375 236.836 77.8594 237C77.3516 237.156 76.7266 237.234 75.9844 237.234C75.2031 237.234 74.5078 237.098 73.8984 236.824C73.2969 236.551 72.8203 236.137 72.4688 235.582C72.125 235.027 71.9531 234.324 71.9531 233.473C71.9531 232.191 72.4609 231.207 73.4766 230.52C74.4922 229.832 76.0391 229.457 78.1172 229.395L80.332 229.301V228.516C80.332 227.406 80.0938 226.629 79.6172 226.184C79.1406 225.738 78.4688 225.516 77.6016 225.516C76.9297 225.516 76.2891 225.613 75.6797 225.809C75.0703 226.004 74.4922 226.234 73.9453 226.5L73.3477 225.023C73.9258 224.727 74.5898 224.473 75.3398 224.262C76.0898 224.051 76.8789 223.945 77.707 223.945ZM80.3086 230.672L78.3516 230.754C76.75 230.816 75.6211 231.078 74.9648 231.539C74.3086 232 73.9805 232.652 73.9805 233.496C73.9805 234.23 74.2031 234.773 74.6484 235.125C75.0938 235.477 75.6836 235.652 76.418 235.652C77.5586 235.652 78.4922 235.336 79.2188 234.703C79.9453 234.07 80.3086 233.121 80.3086 231.855V230.672ZM96.4453 227.379C96.4453 228.184 96.2109 228.812 95.7422 229.266C95.2734 229.711 94.668 230.012 93.9258 230.168V230.262C94.7305 230.371 95.4219 230.66 96 231.129C96.5859 231.59 96.8789 232.297 96.8789 233.25C96.8789 233.984 96.7031 234.633 96.3516 235.195C96 235.758 95.4492 236.199 94.6992 236.52C93.9492 236.84 92.9727 237 91.7695 237H86.2383V224.156H91.7227C92.6445 224.156 93.457 224.262 94.1602 224.473C94.8711 224.676 95.4297 225.012 95.8359 225.48C96.2422 225.949 96.4453 226.582 96.4453 227.379ZM94.8516 233.25C94.8516 232.492 94.5625 231.945 93.9844 231.609C93.4141 231.273 92.582 231.105 91.4883 231.105H88.1953V235.418H91.5352C92.6133 235.418 93.4336 235.254 93.9961 234.926C94.5664 234.59 94.8516 234.031 94.8516 233.25ZM94.4648 227.602C94.4648 226.992 94.2422 226.539 93.7969 226.242C93.3516 225.938 92.6211 225.785 91.6055 225.785H88.1953V229.477H91.2656C92.3203 229.477 93.1172 229.324 93.6562 229.02C94.1953 228.715 94.4648 228.242 94.4648 227.602ZM109.652 237H107.672V225.785H103.77C103.613 227.809 103.414 229.543 103.172 230.988C102.938 232.426 102.641 233.602 102.281 234.516C101.93 235.422 101.5 236.09 100.992 236.52C100.492 236.941 99.8945 237.152 99.1992 237.152C98.9883 237.152 98.7891 237.141 98.6016 237.117C98.4141 237.094 98.2539 237.055 98.1211 237V235.523C98.2227 235.555 98.3281 235.578 98.4375 235.594C98.5547 235.609 98.6758 235.617 98.8008 235.617C99.1523 235.617 99.4727 235.473 99.7617 235.184C100.059 234.887 100.324 234.441 100.559 233.848C100.801 233.254 101.016 232.504 101.203 231.598C101.391 230.684 101.555 229.609 101.695 228.375C101.844 227.133 101.973 225.727 102.082 224.156H109.652V237ZM124.828 230.555C124.828 231.609 124.691 232.551 124.418 233.379C124.145 234.207 123.75 234.906 123.234 235.477C122.719 236.047 122.094 236.484 121.359 236.789C120.633 237.086 119.809 237.234 118.887 237.234C118.027 237.234 117.238 237.086 116.52 236.789C115.809 236.484 115.191 236.047 114.668 235.477C114.152 234.906 113.75 234.207 113.461 233.379C113.18 232.551 113.039 231.609 113.039 230.555C113.039 229.148 113.277 227.953 113.754 226.969C114.23 225.977 114.91 225.223 115.793 224.707C116.684 224.184 117.742 223.922 118.969 223.922C120.141 223.922 121.164 224.184 122.039 224.707C122.922 225.23 123.605 225.988 124.09 226.98C124.582 227.965 124.828 229.156 124.828 230.555ZM115.055 230.555C115.055 231.586 115.191 232.48 115.465 233.238C115.738 233.996 116.16 234.582 116.73 234.996C117.301 235.41 118.035 235.617 118.934 235.617C119.824 235.617 120.555 235.41 121.125 234.996C121.703 234.582 122.129 233.996 122.402 233.238C122.676 232.48 122.812 231.586 122.812 230.555C122.812 229.531 122.676 228.648 122.402 227.906C122.129 227.156 121.707 226.578 121.137 226.172C120.566 225.766 119.828 225.562 118.922 225.562C117.586 225.562 116.605 226.004 115.98 226.887C115.363 227.77 115.055 228.992 115.055 230.555ZM137.602 224.156V235.348H139.441V241.441H137.555V237H128.461V241.441H126.598V235.348H127.605C128.34 234.332 128.949 233.219 129.434 232.008C129.918 230.797 130.285 229.527 130.535 228.199C130.785 226.863 130.918 225.516 130.934 224.156H137.602ZM135.715 225.703H132.668C132.598 226.844 132.43 228.004 132.164 229.184C131.906 230.363 131.562 231.488 131.133 232.559C130.703 233.621 130.203 234.551 129.633 235.348H135.715V225.703ZM146.801 223.945C148.332 223.945 149.469 224.289 150.211 224.977C150.953 225.664 151.324 226.762 151.324 228.27V237H149.906L149.531 235.102H149.438C149.078 235.57 148.703 235.965 148.312 236.285C147.922 236.598 147.469 236.836 146.953 237C146.445 237.156 145.82 237.234 145.078 237.234C144.297 237.234 143.602 237.098 142.992 236.824C142.391 236.551 141.914 236.137 141.562 235.582C141.219 235.027 141.047 234.324 141.047 233.473C141.047 232.191 141.555 231.207 142.57 230.52C143.586 229.832 145.133 229.457 147.211 229.395L149.426 229.301V228.516C149.426 227.406 149.188 226.629 148.711 226.184C148.234 225.738 147.562 225.516 146.695 225.516C146.023 225.516 145.383 225.613 144.773 225.809C144.164 226.004 143.586 226.234 143.039 226.5L142.441 225.023C143.02 224.727 143.684 224.473 144.434 224.262C145.184 224.051 145.973 223.945 146.801 223.945ZM149.402 230.672L147.445 230.754C145.844 230.816 144.715 231.078 144.059 231.539C143.402 232 143.074 232.652 143.074 233.496C143.074 234.23 143.297 234.773 143.742 235.125C144.188 235.477 144.777 235.652 145.512 235.652C146.652 235.652 147.586 235.336 148.312 234.703C149.039 234.07 149.402 233.121 149.402 231.855V230.672ZM161.367 223.922C162.969 223.922 164.246 224.473 165.199 225.574C166.152 226.676 166.629 228.332 166.629 230.543C166.629 232.004 166.41 233.23 165.973 234.223C165.535 235.215 164.918 235.965 164.121 236.473C163.332 236.98 162.398 237.234 161.32 237.234C160.641 237.234 160.043 237.145 159.527 236.965C159.012 236.785 158.57 236.543 158.203 236.238C157.836 235.934 157.531 235.602 157.289 235.242H157.148C157.172 235.547 157.199 235.914 157.23 236.344C157.27 236.773 157.289 237.148 157.289 237.469V242.742H155.332V224.156H156.938L157.195 226.055H157.289C157.539 225.664 157.844 225.309 158.203 224.988C158.562 224.66 159 224.402 159.516 224.215C160.039 224.02 160.656 223.922 161.367 223.922ZM161.027 225.562C160.137 225.562 159.418 225.734 158.871 226.078C158.332 226.422 157.938 226.938 157.688 227.625C157.438 228.305 157.305 229.16 157.289 230.191V230.566C157.289 231.652 157.406 232.57 157.641 233.32C157.883 234.07 158.277 234.641 158.824 235.031C159.379 235.422 160.121 235.617 161.051 235.617C161.848 235.617 162.512 235.402 163.043 234.973C163.574 234.543 163.969 233.945 164.227 233.18C164.492 232.406 164.625 231.52 164.625 230.52C164.625 229.004 164.328 227.801 163.734 226.91C163.148 226.012 162.246 225.562 161.027 225.562ZM175.863 219.867L176.039 220.125C175.898 220.703 175.719 221.32 175.5 221.977C175.281 222.625 175.043 223.273 174.785 223.922C174.527 224.562 174.27 225.168 174.012 225.738H172.547C172.711 225.145 172.875 224.5 173.039 223.805C173.203 223.109 173.352 222.418 173.484 221.73C173.617 221.043 173.723 220.422 173.801 219.867H175.863ZM171.551 219.867L171.715 220.125C171.582 220.703 171.402 221.32 171.176 221.977C170.957 222.625 170.719 223.273 170.461 223.922C170.203 224.562 169.945 225.168 169.688 225.738H168.281C168.398 225.293 168.516 224.816 168.633 224.309C168.758 223.801 168.871 223.285 168.973 222.762C169.082 222.238 169.18 221.73 169.266 221.238C169.359 220.746 169.434 220.289 169.488 219.867H171.551Z" fill="#FCFCFC"/>
</svg>
