<svg width="343" height="244" viewBox="0 0 343 244" fill="none" xmlns="http://www.w3.org/2000/svg">
<path fill-rule="evenodd" clip-rule="evenodd" d="M198.933 51.7603C177.516 37.9699 154.108 24.9493 132.025 10.9557C117.057 1.47292 103.183 1.38399 96.1354 1.83597C87.2808 2.40341 81.9796 3.14561 77.1102 4.08962C74.1532 4.66382 89.7073 1.7741 110.187 10.2801C126.336 16.987 167.667 48.2043 203.811 64.3798C235.454 78.5415 276.049 71.3499 298 53.756C283.124 64.1588 239.388 77.8082 198.933 51.7603Z" fill="#FCFCFC"/>
<path fill-rule="evenodd" clip-rule="evenodd" d="M121.081 0.672372C126.334 0.941244 135.576 1.90194 151.995 12.3417C165.416 20.8747 211.571 50.2429 224.06 55.454C246.858 64.9669 265.407 59.2644 276.423 54.9038C270.015 57.0612 250.803 60.3217 234.886 52.9528C219.202 45.6925 171.583 10.5473 150.848 3.53455C136.829 -1.20681 126.929 -0.0526905 121.081 0.672372V0.672372Z" fill="#FCFCFC"/>
<path fill-rule="evenodd" clip-rule="evenodd" d="M55.3359 60.7586C56.0879 37.9053 68.5534 21.5034 85.9694 12.2251C77.2016 12.0363 71.211 14.264 67.9622 15.9564C51.7826 25.5624 45 41.8634 45 57.9874C45 75.7286 58.9107 98.8747 81.833 105.58C65.8446 95.8263 54.7212 79.3912 55.3359 60.7586Z" fill="#FCFCFC"/>
<path fill-rule="evenodd" clip-rule="evenodd" d="M187.695 96.1653C184.352 98.6066 179.486 102.473 176.915 104.368C186.079 101.215 192.418 98.1797 196.388 96.0144C193.433 96.2079 190.527 96.2454 187.695 96.1653Z" fill="#FCFCFC"/>
<path fill-rule="evenodd" clip-rule="evenodd" d="M176.023 95.1763C170.627 99.3471 155.288 110.258 155.282 110.261C160.347 109.359 167.099 106.7 172.05 103.445C174.294 101.968 179.539 98.0161 182.535 95.8888C180.294 95.712 178.117 95.4686 176.023 95.1763Z" fill="#FCFCFC"/>
<path fill-rule="evenodd" clip-rule="evenodd" d="M163.821 92.8081C158.289 96.3085 150.486 101.682 146.057 104.987C133.26 114.535 126.344 114.055 124.548 114.352C132.473 113.907 142.501 113.19 147.516 109.817C153.744 105.629 163.57 98.6464 170.145 94.1989C167.891 93.7667 165.773 93.2934 163.821 92.8081V92.8081Z" fill="#FCFCFC"/>
<path fill-rule="evenodd" clip-rule="evenodd" d="M151.675 89.0718C134.902 100.206 121.058 108.015 109.966 110.977C106.229 111.975 102.617 112.536 99.2015 112.781C99.1999 112.781 99.1977 112.781 99.1977 112.781C93.6958 113.456 87.0747 112.991 81.3038 112.24C86.4847 113.722 93.5635 114.983 102.625 114.983C103.275 114.983 115.595 115.617 128.93 109.099C137.143 105.086 148.415 97.0857 157.648 91.0986C155.045 90.3003 153.007 89.5752 151.675 89.0718H151.675Z" fill="#FCFCFC"/>
<path d="M53.0742 153.867C52.9102 154.469 52.7461 155.121 52.582 155.824C52.4258 156.52 52.2812 157.207 52.1484 157.887C52.0156 158.566 51.9102 159.184 51.832 159.738H49.7578L49.582 159.48C49.7227 158.91 49.9023 158.301 50.1211 157.652C50.3477 157.004 50.5898 156.355 50.8477 155.707C51.1133 155.051 51.3789 154.438 51.6445 153.867H53.0742ZM48.7617 153.867C48.5977 154.469 48.4336 155.121 48.2695 155.824C48.1133 156.52 47.9688 157.207 47.8359 157.887C47.7031 158.566 47.5977 159.184 47.5195 159.738H45.457L45.3164 159.48C45.457 158.91 45.6328 158.301 45.8438 157.652C46.0625 157.004 46.3008 156.355 46.5586 155.707C46.8164 155.051 47.0781 154.438 47.3438 153.867H48.7617ZM55.7109 171V153.867H68.4727V171H66.5039V155.625H57.7031V171H55.7109ZM77.707 157.945C79.2383 157.945 80.375 158.289 81.1172 158.977C81.8594 159.664 82.2305 160.762 82.2305 162.27V171H80.8125L80.4375 169.102H80.3438C79.9844 169.57 79.6094 169.965 79.2188 170.285C78.8281 170.598 78.375 170.836 77.8594 171C77.3516 171.156 76.7266 171.234 75.9844 171.234C75.2031 171.234 74.5078 171.098 73.8984 170.824C73.2969 170.551 72.8203 170.137 72.4688 169.582C72.125 169.027 71.9531 168.324 71.9531 167.473C71.9531 166.191 72.4609 165.207 73.4766 164.52C74.4922 163.832 76.0391 163.457 78.1172 163.395L80.332 163.301V162.516C80.332 161.406 80.0938 160.629 79.6172 160.184C79.1406 159.738 78.4688 159.516 77.6016 159.516C76.9297 159.516 76.2891 159.613 75.6797 159.809C75.0703 160.004 74.4922 160.234 73.9453 160.5L73.3477 159.023C73.9258 158.727 74.5898 158.473 75.3398 158.262C76.0898 158.051 76.8789 157.945 77.707 157.945ZM80.3086 164.672L78.3516 164.754C76.75 164.816 75.6211 165.078 74.9648 165.539C74.3086 166 73.9805 166.652 73.9805 167.496C73.9805 168.23 74.2031 168.773 74.6484 169.125C75.0938 169.477 75.6836 169.652 76.418 169.652C77.5586 169.652 78.4922 169.336 79.2188 168.703C79.9453 168.07 80.3086 167.121 80.3086 165.855V164.672ZM96.4453 161.379C96.4453 162.184 96.2109 162.812 95.7422 163.266C95.2734 163.711 94.668 164.012 93.9258 164.168V164.262C94.7305 164.371 95.4219 164.66 96 165.129C96.5859 165.59 96.8789 166.297 96.8789 167.25C96.8789 167.984 96.7031 168.633 96.3516 169.195C96 169.758 95.4492 170.199 94.6992 170.52C93.9492 170.84 92.9727 171 91.7695 171H86.2383V158.156H91.7227C92.6445 158.156 93.457 158.262 94.1602 158.473C94.8711 158.676 95.4297 159.012 95.8359 159.48C96.2422 159.949 96.4453 160.582 96.4453 161.379ZM94.8516 167.25C94.8516 166.492 94.5625 165.945 93.9844 165.609C93.4141 165.273 92.582 165.105 91.4883 165.105H88.1953V169.418H91.5352C92.6133 169.418 93.4336 169.254 93.9961 168.926C94.5664 168.59 94.8516 168.031 94.8516 167.25ZM94.4648 161.602C94.4648 160.992 94.2422 160.539 93.7969 160.242C93.3516 159.938 92.6211 159.785 91.6055 159.785H88.1953V163.477H91.2656C92.3203 163.477 93.1172 163.324 93.6562 163.02C94.1953 162.715 94.4648 162.242 94.4648 161.602ZM109.652 171H107.672V159.785H103.77C103.613 161.809 103.414 163.543 103.172 164.988C102.938 166.426 102.641 167.602 102.281 168.516C101.93 169.422 101.5 170.09 100.992 170.52C100.492 170.941 99.8945 171.152 99.1992 171.152C98.9883 171.152 98.7891 171.141 98.6016 171.117C98.4141 171.094 98.2539 171.055 98.1211 171V169.523C98.2227 169.555 98.3281 169.578 98.4375 169.594C98.5547 169.609 98.6758 169.617 98.8008 169.617C99.1523 169.617 99.4727 169.473 99.7617 169.184C100.059 168.887 100.324 168.441 100.559 167.848C100.801 167.254 101.016 166.504 101.203 165.598C101.391 164.684 101.555 163.609 101.695 162.375C101.844 161.133 101.973 159.727 102.082 158.156H109.652V171ZM124.828 164.555C124.828 165.609 124.691 166.551 124.418 167.379C124.145 168.207 123.75 168.906 123.234 169.477C122.719 170.047 122.094 170.484 121.359 170.789C120.633 171.086 119.809 171.234 118.887 171.234C118.027 171.234 117.238 171.086 116.52 170.789C115.809 170.484 115.191 170.047 114.668 169.477C114.152 168.906 113.75 168.207 113.461 167.379C113.18 166.551 113.039 165.609 113.039 164.555C113.039 163.148 113.277 161.953 113.754 160.969C114.23 159.977 114.91 159.223 115.793 158.707C116.684 158.184 117.742 157.922 118.969 157.922C120.141 157.922 121.164 158.184 122.039 158.707C122.922 159.23 123.605 159.988 124.09 160.98C124.582 161.965 124.828 163.156 124.828 164.555ZM115.055 164.555C115.055 165.586 115.191 166.48 115.465 167.238C115.738 167.996 116.16 168.582 116.73 168.996C117.301 169.41 118.035 169.617 118.934 169.617C119.824 169.617 120.555 169.41 121.125 168.996C121.703 168.582 122.129 167.996 122.402 167.238C122.676 166.48 122.812 165.586 122.812 164.555C122.812 163.531 122.676 162.648 122.402 161.906C122.129 161.156 121.707 160.578 121.137 160.172C120.566 159.766 119.828 159.562 118.922 159.562C117.586 159.562 116.605 160.004 115.98 160.887C115.363 161.77 115.055 162.992 115.055 164.555ZM137.602 158.156V169.348H139.441V175.441H137.555V171H128.461V175.441H126.598V169.348H127.605C128.34 168.332 128.949 167.219 129.434 166.008C129.918 164.797 130.285 163.527 130.535 162.199C130.785 160.863 130.918 159.516 130.934 158.156H137.602ZM135.715 159.703H132.668C132.598 160.844 132.43 162.004 132.164 163.184C131.906 164.363 131.562 165.488 131.133 166.559C130.703 167.621 130.203 168.551 129.633 169.348H135.715V159.703ZM146.801 157.945C148.332 157.945 149.469 158.289 150.211 158.977C150.953 159.664 151.324 160.762 151.324 162.27V171H149.906L149.531 169.102H149.438C149.078 169.57 148.703 169.965 148.312 170.285C147.922 170.598 147.469 170.836 146.953 171C146.445 171.156 145.82 171.234 145.078 171.234C144.297 171.234 143.602 171.098 142.992 170.824C142.391 170.551 141.914 170.137 141.562 169.582C141.219 169.027 141.047 168.324 141.047 167.473C141.047 166.191 141.555 165.207 142.57 164.52C143.586 163.832 145.133 163.457 147.211 163.395L149.426 163.301V162.516C149.426 161.406 149.188 160.629 148.711 160.184C148.234 159.738 147.562 159.516 146.695 159.516C146.023 159.516 145.383 159.613 144.773 159.809C144.164 160.004 143.586 160.234 143.039 160.5L142.441 159.023C143.02 158.727 143.684 158.473 144.434 158.262C145.184 158.051 145.973 157.945 146.801 157.945ZM149.402 164.672L147.445 164.754C145.844 164.816 144.715 165.078 144.059 165.539C143.402 166 143.074 166.652 143.074 167.496C143.074 168.23 143.297 168.773 143.742 169.125C144.188 169.477 144.777 169.652 145.512 169.652C146.652 169.652 147.586 169.336 148.312 168.703C149.039 168.07 149.402 167.121 149.402 165.855V164.672ZM161.367 157.922C162.969 157.922 164.246 158.473 165.199 159.574C166.152 160.676 166.629 162.332 166.629 164.543C166.629 166.004 166.41 167.23 165.973 168.223C165.535 169.215 164.918 169.965 164.121 170.473C163.332 170.98 162.398 171.234 161.32 171.234C160.641 171.234 160.043 171.145 159.527 170.965C159.012 170.785 158.57 170.543 158.203 170.238C157.836 169.934 157.531 169.602 157.289 169.242H157.148C157.172 169.547 157.199 169.914 157.23 170.344C157.27 170.773 157.289 171.148 157.289 171.469V176.742H155.332V158.156H156.938L157.195 160.055H157.289C157.539 159.664 157.844 159.309 158.203 158.988C158.562 158.66 159 158.402 159.516 158.215C160.039 158.02 160.656 157.922 161.367 157.922ZM161.027 159.562C160.137 159.562 159.418 159.734 158.871 160.078C158.332 160.422 157.938 160.938 157.688 161.625C157.438 162.305 157.305 163.16 157.289 164.191V164.566C157.289 165.652 157.406 166.57 157.641 167.32C157.883 168.07 158.277 168.641 158.824 169.031C159.379 169.422 160.121 169.617 161.051 169.617C161.848 169.617 162.512 169.402 163.043 168.973C163.574 168.543 163.969 167.945 164.227 167.18C164.492 166.406 164.625 165.52 164.625 164.52C164.625 163.004 164.328 161.801 163.734 160.91C163.148 160.012 162.246 159.562 161.027 159.562ZM175.863 153.867L176.039 154.125C175.898 154.703 175.719 155.32 175.5 155.977C175.281 156.625 175.043 157.273 174.785 157.922C174.527 158.562 174.27 159.168 174.012 159.738H172.547C172.711 159.145 172.875 158.5 173.039 157.805C173.203 157.109 173.352 156.418 173.484 155.73C173.617 155.043 173.723 154.422 173.801 153.867H175.863ZM171.551 153.867L171.715 154.125C171.582 154.703 171.402 155.32 171.176 155.977C170.957 156.625 170.719 157.273 170.461 157.922C170.203 158.562 169.945 159.168 169.688 159.738H168.281C168.398 159.293 168.516 158.816 168.633 158.309C168.758 157.801 168.871 157.285 168.973 156.762C169.082 156.238 169.18 155.73 169.266 155.238C169.359 154.746 169.434 154.289 169.488 153.867H171.551ZM189.434 157.945C190.965 157.945 192.102 158.289 192.844 158.977C193.586 159.664 193.957 160.762 193.957 162.27V171H192.539L192.164 169.102H192.07C191.711 169.57 191.336 169.965 190.945 170.285C190.555 170.598 190.102 170.836 189.586 171C189.078 171.156 188.453 171.234 187.711 171.234C186.93 171.234 186.234 171.098 185.625 170.824C185.023 170.551 184.547 170.137 184.195 169.582C183.852 169.027 183.68 168.324 183.68 167.473C183.68 166.191 184.188 165.207 185.203 164.52C186.219 163.832 187.766 163.457 189.844 163.395L192.059 163.301V162.516C192.059 161.406 191.82 160.629 191.344 160.184C190.867 159.738 190.195 159.516 189.328 159.516C188.656 159.516 188.016 159.613 187.406 159.809C186.797 160.004 186.219 160.234 185.672 160.5L185.074 159.023C185.652 158.727 186.316 158.473 187.066 158.262C187.816 158.051 188.605 157.945 189.434 157.945ZM192.035 164.672L190.078 164.754C188.477 164.816 187.348 165.078 186.691 165.539C186.035 166 185.707 166.652 185.707 167.496C185.707 168.23 185.93 168.773 186.375 169.125C186.82 169.477 187.41 169.652 188.145 169.652C189.285 169.652 190.219 169.336 190.945 168.703C191.672 168.07 192.035 167.121 192.035 165.855V164.672ZM204 157.922C205.602 157.922 206.879 158.473 207.832 159.574C208.785 160.676 209.262 162.332 209.262 164.543C209.262 166.004 209.043 167.23 208.605 168.223C208.168 169.215 207.551 169.965 206.754 170.473C205.965 170.98 205.031 171.234 203.953 171.234C203.273 171.234 202.676 171.145 202.16 170.965C201.645 170.785 201.203 170.543 200.836 170.238C200.469 169.934 200.164 169.602 199.922 169.242H199.781C199.805 169.547 199.832 169.914 199.863 170.344C199.902 170.773 199.922 171.148 199.922 171.469V176.742H197.965V158.156H199.57L199.828 160.055H199.922C200.172 159.664 200.477 159.309 200.836 158.988C201.195 158.66 201.633 158.402 202.148 158.215C202.672 158.02 203.289 157.922 204 157.922ZM203.66 159.562C202.77 159.562 202.051 159.734 201.504 160.078C200.965 160.422 200.57 160.938 200.32 161.625C200.07 162.305 199.938 163.16 199.922 164.191V164.566C199.922 165.652 200.039 166.57 200.273 167.32C200.516 168.07 200.91 168.641 201.457 169.031C202.012 169.422 202.754 169.617 203.684 169.617C204.48 169.617 205.145 169.402 205.676 168.973C206.207 168.543 206.602 167.945 206.859 167.18C207.125 166.406 207.258 165.52 207.258 164.52C207.258 163.004 206.961 161.801 206.367 160.91C205.781 160.012 204.879 159.562 203.66 159.562ZM214.617 158.156V163.547H221.777V158.156H223.723V171H221.777V165.199H214.617V171H212.66V158.156H214.617ZM232.652 157.945C234.184 157.945 235.32 158.289 236.062 158.977C236.805 159.664 237.176 160.762 237.176 162.27V171H235.758L235.383 169.102H235.289C234.93 169.57 234.555 169.965 234.164 170.285C233.773 170.598 233.32 170.836 232.805 171C232.297 171.156 231.672 171.234 230.93 171.234C230.148 171.234 229.453 171.098 228.844 170.824C228.242 170.551 227.766 170.137 227.414 169.582C227.07 169.027 226.898 168.324 226.898 167.473C226.898 166.191 227.406 165.207 228.422 164.52C229.438 163.832 230.984 163.457 233.062 163.395L235.277 163.301V162.516C235.277 161.406 235.039 160.629 234.562 160.184C234.086 159.738 233.414 159.516 232.547 159.516C231.875 159.516 231.234 159.613 230.625 159.809C230.016 160.004 229.438 160.234 228.891 160.5L228.293 159.023C228.871 158.727 229.535 158.473 230.285 158.262C231.035 158.051 231.824 157.945 232.652 157.945ZM235.254 164.672L233.297 164.754C231.695 164.816 230.566 165.078 229.91 165.539C229.254 166 228.926 166.652 228.926 167.496C228.926 168.23 229.148 168.773 229.594 169.125C230.039 169.477 230.629 169.652 231.363 169.652C232.504 169.652 233.438 169.336 234.164 168.703C234.891 168.07 235.254 167.121 235.254 165.855V164.672ZM243.035 158.156V166.23C243.035 166.387 243.031 166.59 243.023 166.84C243.016 167.082 243.004 167.344 242.988 167.625C242.973 167.898 242.957 168.164 242.941 168.422C242.934 168.672 242.922 168.879 242.906 169.043L249.914 158.156H252.305V171H250.488V163.125C250.488 162.875 250.492 162.555 250.5 162.164C250.508 161.773 250.52 161.391 250.535 161.016C250.551 160.633 250.562 160.336 250.57 160.125L243.586 171H241.184V158.156H243.035ZM251.344 152.871C251.273 153.66 251.074 154.32 250.746 154.852C250.426 155.383 249.953 155.785 249.328 156.059C248.703 156.324 247.902 156.457 246.926 156.457C245.918 156.457 245.105 156.328 244.488 156.07C243.879 155.805 243.426 155.406 243.129 154.875C242.84 154.344 242.668 153.676 242.613 152.871H244.441C244.527 153.73 244.758 154.316 245.133 154.629C245.508 154.941 246.117 155.098 246.961 155.098C247.711 155.098 248.301 154.934 248.73 154.605C249.16 154.277 249.418 153.699 249.504 152.871H251.344ZM256.441 171V158.156H258.398V163.453H261.914C263.008 163.453 263.906 163.59 264.609 163.863C265.32 164.137 265.848 164.543 266.191 165.082C266.535 165.621 266.707 166.289 266.707 167.086C266.707 167.883 266.535 168.574 266.191 169.16C265.855 169.746 265.324 170.199 264.598 170.52C263.879 170.84 262.941 171 261.785 171H256.441ZM258.398 169.418H261.598C262.566 169.418 263.34 169.246 263.918 168.902C264.496 168.559 264.785 167.984 264.785 167.18C264.785 166.391 264.516 165.844 263.977 165.539C263.438 165.227 262.664 165.07 261.656 165.07H258.398V169.418ZM268.828 171V158.156H270.773V171H268.828ZM49.1484 204.234C48.4219 204.234 47.7891 204.176 47.25 204.059C46.7188 203.941 46.2227 203.773 45.7617 203.555V201.855C46.2461 202.051 46.7656 202.219 47.3203 202.359C47.875 202.5 48.4961 202.57 49.1836 202.57C50.0586 202.57 50.8086 202.41 51.4336 202.09C52.0664 201.77 52.5586 201.285 52.9102 200.637C53.2695 199.98 53.4766 199.164 53.5312 198.188H47.0156V196.582H53.5078C53.4062 195.23 53.0273 194.23 52.3711 193.582C51.7148 192.926 50.7461 192.598 49.4648 192.598C49.0039 192.598 48.4961 192.664 47.9414 192.797C47.3945 192.922 46.9023 193.066 46.4648 193.23L45.9258 191.637C46.3789 191.434 46.918 191.266 47.543 191.133C48.1758 190.992 48.8125 190.922 49.4531 190.922C50.6641 190.922 51.7266 191.148 52.6406 191.602C53.5547 192.055 54.2656 192.77 54.7734 193.746C55.2891 194.715 55.5469 195.984 55.5469 197.555C55.5469 199.047 55.2773 200.289 54.7383 201.281C54.1992 202.273 53.4492 203.016 52.4883 203.508C51.5352 203.992 50.4219 204.234 49.1484 204.234ZM66.3984 191.156H68.543L63 197.355L68.9883 204H66.7031L60.8672 197.484V204H58.9102V191.156H60.8672V197.391L66.3984 191.156ZM82.3828 197.555C82.3828 198.609 82.2461 199.551 81.9727 200.379C81.6992 201.207 81.3047 201.906 80.7891 202.477C80.2734 203.047 79.6484 203.484 78.9141 203.789C78.1875 204.086 77.3633 204.234 76.4414 204.234C75.582 204.234 74.793 204.086 74.0742 203.789C73.3633 203.484 72.7461 203.047 72.2227 202.477C71.707 201.906 71.3047 201.207 71.0156 200.379C70.7344 199.551 70.5938 198.609 70.5938 197.555C70.5938 196.148 70.832 194.953 71.3086 193.969C71.7852 192.977 72.4648 192.223 73.3477 191.707C74.2383 191.184 75.2969 190.922 76.5234 190.922C77.6953 190.922 78.7188 191.184 79.5938 191.707C80.4766 192.23 81.1602 192.988 81.6445 193.98C82.1367 194.965 82.3828 196.156 82.3828 197.555ZM72.6094 197.555C72.6094 198.586 72.7461 199.48 73.0195 200.238C73.293 200.996 73.7148 201.582 74.2852 201.996C74.8555 202.41 75.5898 202.617 76.4883 202.617C77.3789 202.617 78.1094 202.41 78.6797 201.996C79.2578 201.582 79.6836 200.996 79.957 200.238C80.2305 199.48 80.3672 198.586 80.3672 197.555C80.3672 196.531 80.2305 195.648 79.957 194.906C79.6836 194.156 79.2617 193.578 78.6914 193.172C78.1211 192.766 77.3828 192.562 76.4766 192.562C75.1406 192.562 74.1602 193.004 73.5352 193.887C72.918 194.77 72.6094 195.992 72.6094 197.555ZM87.7031 191.156V196.547H94.8633V191.156H96.8086V204H94.8633V198.199H87.7031V204H85.7461V191.156H87.7031ZM112.008 197.555C112.008 198.609 111.871 199.551 111.598 200.379C111.324 201.207 110.93 201.906 110.414 202.477C109.898 203.047 109.273 203.484 108.539 203.789C107.812 204.086 106.988 204.234 106.066 204.234C105.207 204.234 104.418 204.086 103.699 203.789C102.988 203.484 102.371 203.047 101.848 202.477C101.332 201.906 100.93 201.207 100.641 200.379C100.359 199.551 100.219 198.609 100.219 197.555C100.219 196.148 100.457 194.953 100.934 193.969C101.41 192.977 102.09 192.223 102.973 191.707C103.863 191.184 104.922 190.922 106.148 190.922C107.32 190.922 108.344 191.184 109.219 191.707C110.102 192.23 110.785 192.988 111.27 193.98C111.762 194.965 112.008 196.156 112.008 197.555ZM102.234 197.555C102.234 198.586 102.371 199.48 102.645 200.238C102.918 200.996 103.34 201.582 103.91 201.996C104.48 202.41 105.215 202.617 106.113 202.617C107.004 202.617 107.734 202.41 108.305 201.996C108.883 201.582 109.309 200.996 109.582 200.238C109.855 199.48 109.992 198.586 109.992 197.555C109.992 196.531 109.855 195.648 109.582 194.906C109.309 194.156 108.887 193.578 108.316 193.172C107.746 192.766 107.008 192.562 106.102 192.562C104.766 192.562 103.785 193.004 103.16 193.887C102.543 194.77 102.234 195.992 102.234 197.555ZM128.93 191.156V204H127.172V195.633C127.172 195.289 127.18 194.941 127.195 194.59C127.219 194.23 127.246 193.871 127.277 193.512H127.207L122.941 204H121.289L117.129 193.512H117.059C117.082 193.871 117.098 194.23 117.105 194.59C117.121 194.941 117.129 195.312 117.129 195.703V204H115.359V191.156H117.973L122.121 201.656L126.328 191.156H128.93ZM134.824 191.156V199.23C134.824 199.387 134.82 199.59 134.812 199.84C134.805 200.082 134.793 200.344 134.777 200.625C134.762 200.898 134.746 201.164 134.73 201.422C134.723 201.672 134.711 201.879 134.695 202.043L141.703 191.156H144.094V204H142.277V196.125C142.277 195.875 142.281 195.555 142.289 195.164C142.297 194.773 142.309 194.391 142.324 194.016C142.34 193.633 142.352 193.336 142.359 193.125L135.375 204H132.973V191.156H134.824ZM155.719 191.156H157.863L152.32 197.355L158.309 204H156.023L150.188 197.484V204H148.23V191.156H150.188V197.391L155.719 191.156ZM165.434 190.945C166.965 190.945 168.102 191.289 168.844 191.977C169.586 192.664 169.957 193.762 169.957 195.27V204H168.539L168.164 202.102H168.07C167.711 202.57 167.336 202.965 166.945 203.285C166.555 203.598 166.102 203.836 165.586 204C165.078 204.156 164.453 204.234 163.711 204.234C162.93 204.234 162.234 204.098 161.625 203.824C161.023 203.551 160.547 203.137 160.195 202.582C159.852 202.027 159.68 201.324 159.68 200.473C159.68 199.191 160.188 198.207 161.203 197.52C162.219 196.832 163.766 196.457 165.844 196.395L168.059 196.301V195.516C168.059 194.406 167.82 193.629 167.344 193.184C166.867 192.738 166.195 192.516 165.328 192.516C164.656 192.516 164.016 192.613 163.406 192.809C162.797 193.004 162.219 193.234 161.672 193.5L161.074 192.023C161.652 191.727 162.316 191.473 163.066 191.262C163.816 191.051 164.605 190.945 165.434 190.945ZM168.035 197.672L166.078 197.754C164.477 197.816 163.348 198.078 162.691 198.539C162.035 199 161.707 199.652 161.707 200.496C161.707 201.23 161.93 201.773 162.375 202.125C162.82 202.477 163.41 202.652 164.145 202.652C165.285 202.652 166.219 202.336 166.945 201.703C167.672 201.07 168.035 200.121 168.035 198.855V197.672ZM183.598 204H181.617V192.785H177.715C177.559 194.809 177.359 196.543 177.117 197.988C176.883 199.426 176.586 200.602 176.227 201.516C175.875 202.422 175.445 203.09 174.938 203.52C174.438 203.941 173.84 204.152 173.145 204.152C172.934 204.152 172.734 204.141 172.547 204.117C172.359 204.094 172.199 204.055 172.066 204V202.523C172.168 202.555 172.273 202.578 172.383 202.594C172.5 202.609 172.621 202.617 172.746 202.617C173.098 202.617 173.418 202.473 173.707 202.184C174.004 201.887 174.27 201.441 174.504 200.848C174.746 200.254 174.961 199.504 175.148 198.598C175.336 197.684 175.5 196.609 175.641 195.375C175.789 194.133 175.918 192.727 176.027 191.156H183.598V204ZM187.699 204V191.156H189.656V196.453H193.172C194.266 196.453 195.164 196.59 195.867 196.863C196.578 197.137 197.105 197.543 197.449 198.082C197.793 198.621 197.965 199.289 197.965 200.086C197.965 200.883 197.793 201.574 197.449 202.16C197.113 202.746 196.582 203.199 195.855 203.52C195.137 203.84 194.199 204 193.043 204H187.699ZM189.656 202.418H192.855C193.824 202.418 194.598 202.246 195.176 201.902C195.754 201.559 196.043 200.984 196.043 200.18C196.043 199.391 195.773 198.844 195.234 198.539C194.695 198.227 193.922 198.07 192.914 198.07H189.656V202.418ZM200.086 204V191.156H202.031V204H200.086ZM214.969 208.43V204H213.938L208.102 197.484V204H206.145V191.156H208.102V197.391L213.633 191.156H215.777L210.234 197.355L214.77 202.348H216.832V208.43H214.969ZM51.8555 223.945C53.3867 223.945 54.5234 224.289 55.2656 224.977C56.0078 225.664 56.3789 226.762 56.3789 228.27V237H54.9609L54.5859 235.102H54.4922C54.1328 235.57 53.7578 235.965 53.3672 236.285C52.9766 236.598 52.5234 236.836 52.0078 237C51.5 237.156 50.875 237.234 50.1328 237.234C49.3516 237.234 48.6562 237.098 48.0469 236.824C47.4453 236.551 46.9688 236.137 46.6172 235.582C46.2734 235.027 46.1016 234.324 46.1016 233.473C46.1016 232.191 46.6094 231.207 47.625 230.52C48.6406 229.832 50.1875 229.457 52.2656 229.395L54.4805 229.301V228.516C54.4805 227.406 54.2422 226.629 53.7656 226.184C53.2891 225.738 52.6172 225.516 51.75 225.516C51.0781 225.516 50.4375 225.613 49.8281 225.809C49.2188 226.004 48.6406 226.234 48.0938 226.5L47.4961 225.023C48.0742 224.727 48.7383 224.473 49.4883 224.262C50.2383 224.051 51.0273 223.945 51.8555 223.945ZM54.457 230.672L52.5 230.754C50.8984 230.816 49.7695 231.078 49.1133 231.539C48.457 232 48.1289 232.652 48.1289 233.496C48.1289 234.23 48.3516 234.773 48.7969 235.125C49.2422 235.477 49.832 235.652 50.5664 235.652C51.707 235.652 52.6406 235.336 53.3672 234.703C54.0938 234.07 54.457 233.121 54.457 231.855V230.672ZM62.2383 224.156V232.23C62.2383 232.387 62.2344 232.59 62.2266 232.84C62.2188 233.082 62.207 233.344 62.1914 233.625C62.1758 233.898 62.1602 234.164 62.1445 234.422C62.1367 234.672 62.125 234.879 62.1094 235.043L69.1172 224.156H71.5078V237H69.6914V229.125C69.6914 228.875 69.6953 228.555 69.7031 228.164C69.7109 227.773 69.7227 227.391 69.7383 227.016C69.7539 226.633 69.7656 226.336 69.7734 226.125L62.7891 237H60.3867V224.156H62.2383ZM70.5469 218.871C70.4766 219.66 70.2773 220.32 69.9492 220.852C69.6289 221.383 69.1562 221.785 68.5312 222.059C67.9062 222.324 67.1055 222.457 66.1289 222.457C65.1211 222.457 64.3086 222.328 63.6914 222.07C63.082 221.805 62.6289 221.406 62.332 220.875C62.043 220.344 61.8711 219.676 61.8164 218.871H63.6445C63.7305 219.73 63.9609 220.316 64.3359 220.629C64.7109 220.941 65.3203 221.098 66.1641 221.098C66.9141 221.098 67.5039 220.934 67.9336 220.605C68.3633 220.277 68.6211 219.699 68.707 218.871H70.5469ZM89.2031 224.156V237H87.4453V228.633C87.4453 228.289 87.4531 227.941 87.4688 227.59C87.4922 227.23 87.5195 226.871 87.5508 226.512H87.4805L83.2148 237H81.5625L77.4023 226.512H77.332C77.3555 226.871 77.3711 227.23 77.3789 227.59C77.3945 227.941 77.4023 228.312 77.4023 228.703V237H75.6328V224.156H78.2461L82.3945 234.656L86.6016 224.156H89.2031ZM98.0508 223.945C99.582 223.945 100.719 224.289 101.461 224.977C102.203 225.664 102.574 226.762 102.574 228.27V237H101.156L100.781 235.102H100.688C100.328 235.57 99.9531 235.965 99.5625 236.285C99.1719 236.598 98.7188 236.836 98.2031 237C97.6953 237.156 97.0703 237.234 96.3281 237.234C95.5469 237.234 94.8516 237.098 94.2422 236.824C93.6406 236.551 93.1641 236.137 92.8125 235.582C92.4688 235.027 92.2969 234.324 92.2969 233.473C92.2969 232.191 92.8047 231.207 93.8203 230.52C94.8359 229.832 96.3828 229.457 98.4609 229.395L100.676 229.301V228.516C100.676 227.406 100.438 226.629 99.9609 226.184C99.4844 225.738 98.8125 225.516 97.9453 225.516C97.2734 225.516 96.6328 225.613 96.0234 225.809C95.4141 226.004 94.8359 226.234 94.2891 226.5L93.6914 225.023C94.2695 224.727 94.9336 224.473 95.6836 224.262C96.4336 224.051 97.2227 223.945 98.0508 223.945ZM100.652 230.672L98.6953 230.754C97.0938 230.816 95.9648 231.078 95.3086 231.539C94.6523 232 94.3242 232.652 94.3242 233.496C94.3242 234.23 94.5469 234.773 94.9922 235.125C95.4375 235.477 96.0273 235.652 96.7617 235.652C97.9023 235.652 98.8359 235.336 99.5625 234.703C100.289 234.07 100.652 233.121 100.652 231.855V230.672ZM114.398 224.156V225.809H108.516V229.84H112.582V231.352H108.516V237H106.57V231.352H104.719V229.84H106.57V224.156H114.398ZM116.941 237V224.156H118.898V229.453H122.414C123.508 229.453 124.406 229.59 125.109 229.863C125.82 230.137 126.348 230.543 126.691 231.082C127.035 231.621 127.207 232.289 127.207 233.086C127.207 233.883 127.035 234.574 126.691 235.16C126.355 235.746 125.824 236.199 125.098 236.52C124.379 236.84 123.441 237 122.285 237H116.941ZM118.898 235.418H122.098C123.066 235.418 123.84 235.246 124.418 234.902C124.996 234.559 125.285 233.984 125.285 233.18C125.285 232.391 125.016 231.844 124.477 231.539C123.938 231.227 123.164 231.07 122.156 231.07H118.898V235.418ZM129.328 237V224.156H131.273V237H129.328Z" fill="#FCFCFC"/>
</svg>
